<svg xmlns="http://www.w3.org/2000/svg" xmlns:xlink="http://www.w3.org/1999/xlink" width="1080" zoomAndPan="magnify" viewBox="0 0 810 809.999993" height="1080" preserveAspectRatio="xMidYMid meet" version="1.0"><defs><clipPath id="6b759d9d16"><path d="M 65 75.011719 L 769 75.011719 L 769 718 L 65 718 Z M 65 75.011719 " clip-rule="nonzero"/></clipPath></defs><path fill="#1c0140" d="M 518.191406 198.347656 L 518.191406 364.375 L 401.296875 474.214844 L 377.867188 323.375 L 496.109375 202.285156 Z M 518.191406 198.347656 " fill-opacity="1" fill-rule="nonzero"/><path fill="#9fcdff" d="M 426.609375 480.710938 L 426.609375 373.402344 L 566.230469 569.953125 L 566.230469 676.421875 Z M 426.609375 480.710938 " fill-opacity="1" fill-rule="nonzero"/><path fill="#1c0140" d="M 546.359375 592.269531 L 546.359375 699.578125 C 414.332031 734.941406 259.691406 705.863281 162.359375 652.699219 C 105.007812 621.386719 68.175781 566.015625 67.203125 506.765625 L 67.203125 393.972656 Z M 546.359375 592.269531 " fill-opacity="1" fill-rule="nonzero"/><path fill="#5284ff" d="M 766.085938 368.820312 C 766.113281 370.125 766.140625 480.375 766.140625 480.375 C 765.46875 534.085938 734.164062 589.582031 666.714844 632.847656 C 635.914062 652.601562 601.894531 666.859375 566.230469 676.421875 L 566.230469 569.953125 Z M 730.324219 171.632812 L 477.601562 270.523438 L 518.191406 198.347656 C 398.414062 171.507812 257.59375 181.265625 158.800781 248.375 C 19.179688 343.230469 54.433594 487.320312 162.359375 546.261719 C 259.691406 599.425781 414.332031 628.488281 546.359375 593.113281 L 406.738281 396.558594 L 464.582031 293.679688 L 464.582031 382.921875 C 464.582031 382.921875 613.398438 333.554688 766.140625 282.460938 L 766.140625 175.148438 Z M 730.324219 171.632812 " fill-opacity="1" fill-rule="nonzero"/><path fill="#f0f7fe" d="M 728.15625 272.941406 C 791.132812 348.066406 779.191406 454.25 666.714844 526.410156 C 635.914062 546.164062 601.894531 560.40625 566.230469 569.953125 L 426.609375 373.402344 C 426.609375 373.417969 575.429688 324.050781 728.15625 272.941406 Z M 728.15625 272.941406 " fill-opacity="1" fill-rule="nonzero"/><path fill="#9fcdff" d="M 766.140625 175.148438 C 613.414062 226.246094 464.582031 275.613281 464.582031 275.613281 L 576.03125 77.402344 C 625.144531 88.410156 670.734375 105.550781 708.425781 127.441406 C 731.730469 140.96875 751.066406 157.167969 766.140625 175.148438 Z M 766.140625 175.148438 " fill-opacity="1" fill-rule="nonzero"/><g clip-path="url(#6b759d9d16)"><path fill="#1c0140" d="M 768.238281 283.964844 L 768.238281 174.390625 L 766.773438 172.660156 C 751.390625 154.59375 732.109375 138.773438 709.496094 125.644531 C 671.929688 103.835938 625.945312 86.441406 576.511719 75.375 L 574.976562 75.011719 L 508.050781 194.046875 C 376.585938 167.207031 245.683594 186.820312 157.632812 246.648438 C 99.074219 286.425781 66.585938 338.390625 65.136719 393.972656 L 65.109375 393.972656 L 65.109375 397.402344 C 65.109375 398.289062 65.09375 399.175781 65.109375 400.046875 L 65.109375 506.792969 C 66.078125 566.03125 102.953125 622.640625 161.34375 654.542969 C 226.191406 689.960938 322.355469 717.324219 422.09375 717.324219 C 463.738281 717.324219 506.027344 712.554688 546.894531 701.601562 L 548.453125 701.179688 L 548.453125 655.117188 L 563.191406 675.773438 L 565.359375 678.8125 L 566.765625 678.429688 C 604.089844 668.433594 638.09375 653.683594 667.839844 634.605469 C 731.84375 593.546875 767.492188 538.78125 768.222656 480.359375 C 768.222656 476.464844 768.210938 396.6875 768.183594 374.457031 C 768.210938 372.828125 768.210938 371.195312 768.167969 369.5625 C 768.167969 369.085938 768.167969 368.804688 768.167969 368.75 L 768.140625 368.75 C 767.476562 342.132812 759.390625 315.851562 744.472656 291.878906 Z M 742.164062 288.265625 C 738.410156 282.570312 734.289062 277.003906 729.761719 271.605469 L 728.847656 270.507812 L 727.496094 270.957031 C 624.03125 305.574219 521.480469 339.6875 466.675781 357.894531 L 466.675781 277.03125 C 466.902344 277.019531 467.125 276.976562 467.351562 276.90625 C 482.777344 271.789062 621.765625 225.667969 764.03125 178.058594 L 764.03125 280.941406 Z M 764.003906 374.472656 C 763.90625 380.757812 763.386719 387.054688 762.429688 393.339844 C 754.777344 443.507812 721.28125 488.910156 665.574219 524.652344 C 636.589844 543.238281 603.457031 557.664062 567.089844 567.550781 L 429.957031 374.5 C 450.65625 367.625 588.058594 322.027344 727.46875 275.386719 C 750.8125 303.675781 763.386719 336.492188 764.003906 369.789062 C 763.992188 370.730469 764.003906 372.335938 764.003906 374.472656 Z M 424.515625 417.960938 L 409.226562 396.433594 L 462.5 301.695312 L 462.5 359.285156 C 439.855469 366.808594 426.398438 371.265625 425.960938 371.421875 L 424.527344 371.898438 L 424.527344 417.960938 Z M 577.101562 79.792969 C 625.550781 90.785156 670.566406 107.882812 707.386719 129.257812 C 729.085938 141.855469 747.636719 156.957031 762.542969 174.152344 C 627.125 219.453125 494.71875 263.40625 469.082031 271.914062 Z M 159.980469 250.121094 C 246.824219 191.121094 375.9375 171.675781 505.886719 197.898438 L 463.863281 272.644531 L 462.5 275.078125 L 462.5 293.144531 L 404.277344 396.699219 L 542.914062 591.875 C 405.949219 627.488281 253.628906 593.730469 163.371094 544.433594 C 108.144531 514.273438 72.167969 460.816406 69.453125 404.925781 C 69.371094 403.28125 69.328125 401.636719 69.3125 399.992188 L 69.3125 397.402344 C 69.484375 341.964844 101.421875 289.898438 159.980469 250.121094 Z M 163.355469 650.859375 C 106.285156 619.699219 70.257812 564.472656 69.300781 506.765625 L 69.300781 433.089844 C 73.816406 451.886719 81.871094 470.140625 93.222656 486.941406 C 110 511.785156 133.554688 532.933594 161.34375 548.105469 C 226.023438 583.4375 322.300781 610.84375 422.179688 610.84375 C 462.90625 610.84375 504.238281 606.285156 544.25 595.839844 L 544.25 697.960938 C 407.019531 734.167969 254.207031 700.476562 163.355469 650.859375 Z M 548.453125 647.90625 L 548.453125 591.296875 L 546.386719 589.527344 L 428.703125 423.851562 L 428.703125 379.984375 L 564.136719 570.644531 L 564.136719 669.882812 Z M 665.574219 631.089844 C 636.898438 649.496094 604.1875 663.808594 568.328125 673.664062 L 568.328125 571.558594 C 605.058594 561.558594 638.546875 546.980469 667.851562 528.179688 C 719.816406 494.84375 752.808594 453.113281 764.03125 406.851562 C 764.046875 438.910156 764.0625 479.699219 764.0625 480.359375 C 763.328125 537.292969 728.355469 590.820312 665.574219 631.089844 Z M 665.574219 631.089844 " fill-opacity="1" fill-rule="nonzero"/></g></svg>