<svg xmlns="http://www.w3.org/2000/svg" xmlns:xlink="http://www.w3.org/1999/xlink" width="1080" zoomAndPan="magnify" viewBox="0 0 810 809.999993" height="1080" preserveAspectRatio="xMidYMid meet" version="1.0"><defs><clipPath id="f900b73bf8"><path d="M 50.046875 57 L 569 57 L 569 389 L 50.046875 389 Z M 50.046875 57 " clip-rule="nonzero"/></clipPath><clipPath id="bff83da991"><path d="M 50.046875 243 L 383 243 L 383 761 L 50.046875 761 Z M 50.046875 243 " clip-rule="nonzero"/></clipPath></defs><rect x="-81" width="972" fill="#ffffff" y="-80.999999" height="971.999992" fill-opacity="1"/><rect x="-81" width="972" fill="#ffffff" y="-80.999999" height="971.999992" fill-opacity="1"/><g clip-path="url(#f900b73bf8)"><path fill="#366994" d="M 382.132812 129.976562 C 382.523438 142.347656 379.316406 153.835938 373.144531 164.410156 C 370.988281 168.109375 371.554688 170.125 374.453125 173.003906 C 400.480469 198.828125 426.414062 224.746094 452.191406 250.824219 C 455.578125 254.238281 457.84375 254.347656 462.089844 252.066406 C 489.648438 237.320312 522.601562 241.585938 545.167969 262.390625 C 567.75 283.195312 574.769531 316.351562 562.542969 344.410156 C 550.3125 372.46875 521.640625 389.859375 490.75 387.941406 C 439.996094 384.777344 408.082031 328.640625 431.703125 283.382812 C 434.960938 277.136719 433.796875 274.160156 429.34375 269.769531 C 404.164062 244.96875 379.15625 219.960938 354.355469 194.765625 C 350.71875 191.085938 348.21875 190.910156 343.796875 193.242188 C 321.085938 205.136719 298.144531 205.121094 275.574219 192.941406 C 271.515625 190.738281 269.46875 191.164062 266.386719 194.28125 C 240.59375 220.324219 214.671875 246.257812 188.597656 272.035156 C 185.324219 275.277344 185.402344 277.589844 187.386719 281.445312 C 213.320312 331.945312 177.691406 389.214844 121.226562 388.019531 C 82.480469 387.183594 50.378906 354.011719 50.675781 315.109375 C 50.976562 275.953125 83.269531 243.789062 122.28125 243.457031 C 135.1875 243.347656 147.175781 246.132812 158.242188 252.632812 C 161.53125 254.566406 163.496094 254.332031 166.234375 251.59375 C 192.5625 225.328125 218.9375 199.125 245.582031 173.175781 C 249.515625 169.335938 248.003906 166.785156 246.101562 163.105469 C 224.257812 121.054688 246.761719 70.855469 292.445312 59.492188 C 338.460938 48.050781 382.179688 82.390625 382.148438 129.976562 Z M 352.261719 130.605469 C 352.371094 107.363281 333.15625 87.976562 309.960938 87.945312 C 286.640625 87.914062 267.472656 107.191406 267.644531 130.527344 C 267.816406 153.726562 286.355469 172.375 309.566406 172.71875 C 332.875 173.050781 352.167969 154.039062 352.261719 130.625 Z M 494.902344 273.375 C 471.503906 273.5625 452.554688 292.917969 452.949219 316.195312 C 453.339844 339.390625 472.085938 357.960938 495.1875 358.023438 C 518.273438 358.085938 537.816406 338.558594 537.691406 315.503906 C 537.566406 292.335938 518.097656 273.167969 494.902344 273.359375 Z M 123.570312 274.429688 C 99.589844 274.601562 81.710938 292.808594 81.835938 316.933594 C 81.964844 340.648438 100.4375 358.589844 124.5625 358.433594 C 147.980469 358.292969 166.125 339.910156 166.078125 316.398438 C 166.03125 292.761719 147.304688 274.253906 123.554688 274.429688 Z M 123.570312 274.429688 " fill-opacity="1" fill-rule="nonzero"/></g><g clip-path="url(#bff83da991)"><path fill="#366994" d="M 237.035156 687.792969 C 236.863281 675.203125 239.835938 663.371094 246.289062 652.621094 C 248.335938 649.207031 247.832031 647.363281 245.1875 644.738281 C 218.8125 618.535156 192.40625 592.347656 166.40625 565.785156 C 162.144531 561.425781 159.59375 564.226562 156.398438 565.863281 C 107.789062 590.710938 50.09375 555.304688 50.675781 500.914062 C 51.261719 447.332031 108.953125 412.664062 156.273438 437.714844 C 161.433594 440.453125 164.140625 439.996094 168.140625 435.96875 C 193.035156 410.882812 218.136719 385.988281 243.410156 361.28125 C 247.707031 357.078125 248.761719 354.199219 245.800781 348.203125 C 231.96875 320.160156 234.832031 292.996094 254.738281 269.125 C 274.332031 245.644531 300.519531 238.171875 329.773438 246.273438 C 359.613281 254.535156 377.347656 275.46875 381.550781 305.933594 C 385.453125 334.371094 375.097656 358.273438 351.367188 374.785156 C 327.761719 391.214844 302.234375 392.753906 276.503906 379.488281 C 271.453125 376.890625 268.996094 377.570312 265.316406 381.3125 C 240.121094 406.839844 214.753906 432.207031 189.226562 457.402344 C 185.6875 460.914062 185.085938 463.367188 187.511719 467.929688 C 199.488281 490.59375 199.597656 513.519531 187.257812 536.089844 C 184.820312 540.542969 185.875 542.839844 189.070312 546.019531 C 214.640625 571.542969 240.121094 597.164062 265.410156 622.972656 C 269.171875 626.8125 271.71875 627.238281 276.628906 624.671875 C 324.878906 599.414062 382.746094 634.742188 381.816406 688.675781 C 381.125 728.378906 348.816406 760.324219 309.332031 760.339844 C 269.597656 760.355469 237.304688 727.96875 237.066406 687.792969 Z M 309.550781 358.417969 C 333.535156 358.511719 352.152344 340.335938 352.261719 316.714844 C 352.371094 293.25 333.597656 274.476562 309.976562 274.429688 C 286.199219 274.382812 267.488281 293.03125 267.644531 316.621094 C 267.800781 340.019531 286.152344 358.339844 309.566406 358.433594 Z M 308.890625 729.875 C 331.835938 730.628906 351.460938 712.3125 352.246094 689.398438 C 353.050781 666.375 335.3125 646.65625 313.046875 645.777344 C 287.582031 644.769531 268.179688 662.472656 267.644531 687.195312 C 267.140625 710.015625 285.585938 729.101562 308.890625 729.875 Z M 123.917969 543.800781 C 147.773438 543.800781 166.171875 525.355469 166.046875 501.5625 C 165.9375 477.972656 147.949219 459.921875 124.34375 459.652344 C 100.738281 459.402344 81.835938 478.035156 81.804688 501.609375 C 81.773438 525.527344 100.011719 543.800781 123.902344 543.800781 Z M 123.917969 543.800781 " fill-opacity="1" fill-rule="nonzero"/></g><path fill="#366994" d="M 678.726562 573.921875 C 669.472656 574.171875 658.160156 571.199219 647.804688 565.171875 C 643.964844 562.9375 641.839844 562.871094 638.582031 566.175781 C 612.617188 592.441406 586.507812 618.550781 560.242188 644.53125 C 557.160156 647.585938 557.472656 649.550781 559.316406 653.09375 C 584.085938 700.917969 554.546875 755.589844 500.914062 759.917969 C 473.878906 762.105469 451.625 750.898438 436.394531 728.363281 C 420.8125 705.324219 419.191406 680.445312 431.71875 655.5 C 434.835938 649.316406 433.875 646.375 429.375 641.953125 C 404.351562 617.355469 379.535156 592.519531 354.90625 567.515625 C 350.972656 563.519531 348.265625 563.109375 343.152344 565.660156 C 316.710938 578.796875 290.730469 577.320312 267.03125 559.582031 C 242.558594 541.28125 233.054688 515.960938 239.507812 486.171875 C 245.660156 457.703125 263.773438 438.960938 292.226562 431.847656 C 321.984375 424.402344 347.496094 433.167969 366.425781 456.976562 C 385.40625 480.851562 387.625 507.589844 373.917969 534.941406 C 371.226562 540.304688 372.105469 542.871094 375.898438 546.679688 C 401.109375 571.859375 426.164062 597.164062 451.042969 622.65625 C 454.585938 626.277344 456.914062 626.578125 461.492188 624.199219 C 484.1875 612.414062 507.242188 612.304688 529.792969 624.53125 C 534.449219 627.046875 536.511719 625.742188 539.566406 622.722656 C 565.261719 597.304688 591.007812 571.9375 616.945312 546.757812 C 620.59375 543.21875 620.847656 540.808594 618.390625 536.246094 C 603.835938 509.066406 608.132812 476.226562 628.652344 453.832031 C 649.171875 431.453125 681.152344 424.136719 709.148438 435.417969 C 737.035156 446.65625 755.398438 475.011719 754.4375 505.355469 C 753.242188 543.375 720.574219 574.109375 678.710938 573.9375 Z M 309.519531 543.816406 C 333.488281 543.925781 352.136719 525.71875 352.277344 502.082031 C 352.417969 478.363281 333.945312 459.761719 310.164062 459.667969 C 286.71875 459.574219 267.535156 478.632812 267.644531 501.921875 C 267.753906 525.261719 286.214844 543.722656 309.519531 543.832031 Z M 682.03125 543.816406 C 705.464844 543.847656 724.601562 524.835938 724.523438 501.609375 C 724.429688 478.066406 705.511719 459.464844 681.875 459.667969 C 658.425781 459.875 640.015625 478.144531 639.871094 501.386719 C 639.714844 524.804688 658.585938 543.800781 682.046875 543.832031 Z M 538.039062 687.511719 C 537.945312 663.574219 519.785156 645.664062 495.675781 645.761719 C 471.878906 645.839844 453.972656 664.203125 454.128906 688.3125 C 454.285156 711.621094 472.746094 729.921875 496.082031 729.90625 C 519.769531 729.890625 538.132812 711.335938 538.039062 687.527344 Z M 538.039062 687.511719 " fill-opacity="1" fill-rule="nonzero"/><path fill="#366994" d="M 495.40625 574.15625 C 457.796875 573.953125 425.816406 544.773438 423.125 507.980469 C 420.308594 469.457031 446.730469 436.300781 484.484375 430.304688 C 500.425781 427.769531 515.234375 430.460938 529.117188 438.109375 C 533.789062 440.675781 536.292969 439.824219 539.753906 436.363281 C 565.296875 410.804688 590.960938 385.390625 616.785156 360.101562 C 620.265625 356.6875 621.082031 354.371094 618.582031 349.621094 C 606.699219 326.988281 606.542969 303.964844 618.722656 281.398438 C 621.160156 276.867188 620.21875 274.710938 617.054688 271.578125 C 591.230469 245.945312 565.4375 220.261719 539.894531 194.34375 C 536.417969 190.816406 534.121094 191.132812 530.105469 193.144531 C 502.867188 206.851562 476.300781 205.3125 451.988281 186.804688 C 428.097656 168.613281 419.351562 143.433594 425.535156 114.429688 C 431.972656 84.246094 451.722656 65.015625 481.777344 58.863281 C 510.859375 52.914062 535.898438 62.371094 553.777344 86.417969 C 571.339844 110.054688 573.429688 136.003906 560.117188 162.445312 C 557.363281 167.917969 557.898438 170.59375 562.085938 174.75 C 587.375 199.820312 612.394531 225.15625 637.308594 250.585938 C 640.878906 254.238281 643.429688 255.433594 648.464844 252.757812 C 676.019531 238.121094 708.644531 242.339844 730.722656 262.878906 C 753.054688 283.648438 759.945312 316.304688 747.890625 344.222656 C 735.679688 372.515625 706.441406 390.253906 675.4375 387.84375 C 665.195312 387.042969 655.34375 384.242188 646.53125 378.796875 C 642.894531 376.546875 640.707031 377.207031 637.84375 380.085938 C 611.84375 406.289062 585.753906 432.414062 559.519531 458.378906 C 556.464844 461.398438 556.671875 463.523438 558.511719 467.082031 C 581.566406 511.382812 557.976562 561.992188 509.382812 572.597656 C 504.816406 573.589844 500.050781 573.636719 495.375 574.125 Z M 639.839844 315.925781 C 640 338.777344 659.007812 357.804688 681.90625 358.007812 C 704.898438 358.210938 724.554688 338.636719 724.507812 315.566406 C 724.445312 292.117188 705.449219 273.265625 681.96875 273.34375 C 658.472656 273.4375 639.683594 292.414062 639.839844 315.910156 Z M 454.113281 501.765625 C 454.144531 525.496094 472.636719 543.878906 496.367188 543.800781 C 519.59375 543.722656 537.945312 525.292969 538.023438 501.953125 C 538.117188 477.84375 520.175781 459.730469 496.144531 459.667969 C 472.148438 459.605469 454.066406 477.703125 454.097656 501.78125 Z M 538.023438 129.378906 C 537.960938 105.300781 519.910156 87.503906 495.707031 87.628906 C 472.273438 87.753906 454.160156 105.964844 454.113281 129.457031 C 454.066406 153.597656 471.972656 171.554688 496.113281 171.523438 C 520.238281 171.507812 538.101562 153.550781 538.039062 129.363281 Z M 538.023438 129.378906 " fill-opacity="1" fill-rule="nonzero"/><path fill="#366994" d="M 196.449219 129.945312 C 196.230469 169.507812 162.757812 202.636719 123.492188 202.132812 C 83.128906 201.597656 51.480469 169.414062 51.746094 129.175781 C 52.03125 88.855469 84.480469 56.660156 124.34375 57.132812 C 164.582031 57.617188 196.671875 90.023438 196.449219 129.929688 Z M 81.835938 129.710938 C 81.679688 153.695312 99.761719 172.375 123.445312 172.71875 C 146.847656 173.066406 165.855469 154.277344 166.078125 130.640625 C 166.28125 107.332031 147.144531 87.960938 123.917969 87.945312 C 100.660156 87.945312 82.011719 106.449219 81.851562 129.710938 Z M 81.835938 129.710938 " fill-opacity="1" fill-rule="nonzero"/><path fill="#366994" d="M 123.917969 760.6875 C 83.726562 760.6875 51.746094 728.710938 51.761719 688.515625 C 51.777344 648.5 84.101562 616.09375 123.964844 616.125 C 163.308594 616.160156 196.183594 649.097656 196.449219 688.753906 C 196.703125 728.503906 164.269531 760.6875 123.933594 760.703125 Z M 124.167969 645.742188 C 100.203125 645.695312 81.867188 663.824219 81.835938 687.652344 C 81.804688 711.242188 100.515625 729.96875 124.058594 729.890625 C 147.367188 729.8125 165.777344 711.507812 166.0625 688.171875 C 166.34375 664.425781 147.949219 645.792969 124.167969 645.742188 Z M 124.167969 645.742188 " fill-opacity="1" fill-rule="nonzero"/><path fill="#366994" d="M 609.988281 129.410156 C 610.019531 89.519531 642.800781 56.800781 682.425781 57.132812 C 722.648438 57.460938 754.566406 89.644531 754.5 129.773438 C 754.4375 169.476562 721.4375 202.367188 681.90625 202.101562 C 641.714844 201.832031 609.957031 169.730469 609.988281 129.410156 Z M 639.839844 130.386719 C 639.871094 153.867188 658.960938 172.878906 682.332031 172.71875 C 705.734375 172.5625 724.851562 153.175781 724.492188 129.976562 C 724.144531 107.035156 705.039062 88.054688 682.207031 87.960938 C 658.835938 87.867188 639.792969 106.921875 639.824219 130.402344 Z M 639.839844 130.386719 " fill-opacity="1" fill-rule="nonzero"/><path fill="#366994" d="M 681.859375 760.6875 C 641.398438 760.578125 609.878906 728.488281 610.003906 687.511719 C 610.128906 648.324219 642.847656 616.046875 682.347656 616.125 C 722.003906 616.207031 754.722656 649.566406 754.5 689.683594 C 754.28125 728.914062 721.675781 760.78125 681.859375 760.6875 Z M 682.535156 645.742188 C 658.601562 645.648438 639.984375 663.890625 639.839844 687.527344 C 639.714844 710.878906 658.710938 729.90625 682.144531 729.90625 C 705.558594 729.90625 724.757812 710.691406 724.523438 687.511719 C 724.285156 664.15625 705.859375 645.824219 682.535156 645.742188 Z M 682.535156 645.742188 " fill-opacity="1" fill-rule="nonzero"/></svg>