<svg xmlns="http://www.w3.org/2000/svg" xmlns:xlink="http://www.w3.org/1999/xlink" width="1080" zoomAndPan="magnify" viewBox="0 0 810 809.999993" height="1080" preserveAspectRatio="xMidYMid meet" version="1.0"><defs><clipPath id="0d21db4f5a"><path d="M 28 262 L 781 262 L 781 662.488281 L 28 662.488281 Z M 28 262 " clip-rule="nonzero"/></clipPath><clipPath id="98a4cbac59"><path d="M 18.914062 604 L 790 604 L 790 662.488281 L 18.914062 662.488281 Z M 18.914062 604 " clip-rule="nonzero"/></clipPath><clipPath id="33fd78f638"><path d="M 20.503906 262 L 791.328125 262 L 791.328125 304 L 20.503906 304 Z M 20.503906 262 " clip-rule="nonzero"/></clipPath><clipPath id="9efcc81856"><path d="M 20.503906 290.363281 L 791.328125 290.363281 L 791.328125 304 L 20.503906 304 Z M 20.503906 290.363281 " clip-rule="nonzero"/></clipPath><clipPath id="7fa48bb960"><path d="M 148 629.09375 L 650.738281 629.09375 L 650.738281 662.488281 L 148 662.488281 Z M 148 629.09375 " clip-rule="nonzero"/></clipPath><clipPath id="c83bc00252"><path d="M 205.117188 629.09375 L 574 629.09375 L 574 662.488281 L 205.117188 662.488281 Z M 205.117188 629.09375 " clip-rule="nonzero"/></clipPath><clipPath id="64c76b17ae"><path d="M 354 625 L 445 625 L 445 662.488281 L 354 662.488281 Z M 354 625 " clip-rule="nonzero"/></clipPath><clipPath id="f5b2b42272"><path d="M 354 625 L 357 625 L 357 662.488281 L 354 662.488281 Z M 354 625 " clip-rule="nonzero"/></clipPath><clipPath id="e0000ef3e5"><path d="M 442 625 L 445 625 L 445 662.488281 L 442 662.488281 Z M 442 625 " clip-rule="nonzero"/></clipPath><clipPath id="136244f011"><path d="M 349 593 L 355 593 L 355 662.488281 L 349 662.488281 Z M 349 593 " clip-rule="nonzero"/></clipPath><clipPath id="803cd9733c"><path d="M 444 593 L 450 593 L 450 662.488281 L 444 662.488281 Z M 444 593 " clip-rule="nonzero"/></clipPath><clipPath id="bc2bf13741"><path d="M 117 147.238281 L 681 147.238281 L 681 304 L 117 304 Z M 117 147.238281 " clip-rule="nonzero"/></clipPath><clipPath id="d2348abc4d"><path d="M 117 147.238281 L 681 147.238281 L 681 304 L 117 304 Z M 117 147.238281 " clip-rule="nonzero"/></clipPath><clipPath id="d680e88722"><path d="M 117 147.238281 L 412 147.238281 L 412 304 L 117 304 Z M 117 147.238281 " clip-rule="nonzero"/></clipPath></defs><rect x="-81" width="972" fill="#ffffff" y="-80.999999" height="971.999992" fill-opacity="1"/><rect x="-81" width="972" fill="#ffffff" y="-80.999999" height="971.999992" fill-opacity="1"/><g clip-path="url(#0d21db4f5a)"><path fill="#79aeef" d="M 780.078125 662.539062 L 28.027344 662.539062 L 28.027344 262.398438 L 780.078125 262.398438 L 780.078125 662.539062 " fill-opacity="1" fill-rule="nonzero"/></g><path fill="#64a1e5" d="M 780.078125 315.097656 L 28.027344 315.097656 L 28.027344 262.398438 L 780.078125 262.398438 L 780.078125 315.097656 " fill-opacity="1" fill-rule="nonzero"/><g clip-path="url(#98a4cbac59)"><path fill="#284aa9" d="M 789.308594 604.617188 L 18.914062 604.617188 L 18.914062 662.539062 L 789.308594 662.539062 L 789.308594 604.617188 " fill-opacity="1" fill-rule="nonzero"/></g><g clip-path="url(#33fd78f638)"><path fill="#1a2f87" d="M 791.324219 303.390625 L 20.929688 303.390625 L 20.929688 262.398438 L 791.324219 262.398438 L 791.324219 303.390625 " fill-opacity="1" fill-rule="nonzero"/></g><g clip-path="url(#9efcc81856)"><path fill="#203c96" d="M 791.324219 303.390625 L 20.929688 303.390625 L 20.929688 290.734375 L 791.324219 290.734375 L 791.324219 303.390625 " fill-opacity="1" fill-rule="nonzero"/></g><path fill="#64a1e5" d="M 637.601562 644.96875 L 160.972656 644.96875 L 160.972656 303.390625 L 637.601562 303.390625 L 637.601562 644.96875 " fill-opacity="1" fill-rule="nonzero"/><path fill="#457cce" d="M 637.601562 430.902344 L 160.972656 430.902344 L 160.972656 303.390625 L 637.601562 303.390625 L 637.601562 430.902344 " fill-opacity="1" fill-rule="nonzero"/><g clip-path="url(#7fa48bb960)"><path fill="#3a61c1" d="M 650.308594 662.539062 L 148.273438 662.539062 L 148.273438 629.351562 L 650.308594 629.351562 L 650.308594 662.539062 " fill-opacity="1" fill-rule="nonzero"/></g><path fill="#3e6bc6" d="M 650.308594 633.632812 L 148.273438 633.632812 L 148.273438 629.351562 L 650.308594 629.351562 L 650.308594 633.632812 " fill-opacity="1" fill-rule="nonzero"/><g clip-path="url(#c83bc00252)"><path fill="#2b52b2" d="M 471.519531 654.324219 C 468.835938 653.871094 463.613281 652.792969 459.367188 648.691406 C 454.105469 643.617188 452.632812 636.136719 452.582031 629.351562 L 345.53125 629.351562 C 345.324219 635.828125 343.742188 642.765625 338.765625 647.5625 C 334.519531 651.660156 329.296875 652.742188 326.621094 653.195312 C 314.472656 655.246094 269.859375 658.667969 205.769531 662.539062 L 573.984375 662.539062 C 519.792969 659.132812 482.46875 656.175781 471.519531 654.324219 " fill-opacity="1" fill-rule="nonzero"/></g><path fill="#ffffff" d="M 77.625 431.730469 L 119.375 431.730469 L 119.375 361.039062 L 77.625 361.039062 L 77.625 431.730469 " fill-opacity="1" fill-rule="nonzero"/><path fill="#5562ad" d="M 81.683594 427.671875 L 115.316406 427.671875 L 115.316406 365.09375 L 81.683594 365.09375 L 81.683594 427.671875 " fill-opacity="1" fill-rule="nonzero"/><path fill="#2d447f" d="M 81.683594 427.671875 L 83.425781 427.671875 L 83.425781 366.832031 L 115.316406 366.832031 L 115.316406 365.09375 L 81.683594 365.09375 L 81.683594 427.671875 " fill-opacity="1" fill-rule="nonzero"/><path fill="#2d447f" d="M 113.507812 384.464844 C 112.710938 393.273438 112.164062 396.097656 111.773438 397.898438 C 109.941406 406.261719 108.234375 414.042969 102.03125 419.449219 C 98.207031 422.777344 94.359375 423.734375 87.890625 425.355469 C 85.773438 425.882812 85.445312 425.996094 83.425781 426.308594 L 83.425781 427.671875 L 115.316406 427.671875 L 115.316406 366.832031 L 114.714844 366.832031 C 114.496094 372.027344 114.199219 376.859375 113.507812 384.464844 " fill-opacity="1" fill-rule="nonzero"/><path fill="#ffffff" d="M 80.328125 405.265625 L 117.058594 405.265625 L 117.058594 401.402344 L 80.328125 401.402344 L 80.328125 405.265625 " fill-opacity="1" fill-rule="nonzero"/><path fill="#2d447f" d="M 82.554688 406.851562 L 115.316406 406.851562 L 115.316406 402.988281 L 82.554688 402.988281 L 82.554688 406.851562 " fill-opacity="1" fill-rule="nonzero"/><path fill="#ffffff" d="M 80.328125 405.265625 L 117.058594 405.265625 L 117.058594 401.402344 L 80.328125 401.402344 L 80.328125 405.265625 " fill-opacity="1" fill-rule="nonzero"/><path fill="#6778bf" d="M 83.425781 384.855469 L 83.425781 392.605469 L 99.371094 366.832031 L 94.25 366.832031 L 83.425781 384.855469 " fill-opacity="1" fill-rule="nonzero"/><path fill="#c9d8f4" d="M 77.625 362.675781 L 119.375 362.675781 L 119.375 360.074219 L 77.625 360.074219 L 77.625 362.675781 " fill-opacity="1" fill-rule="nonzero"/><path fill="#ffffff" d="M 74.921875 361.039062 L 122.082031 361.039062 L 122.082031 353.316406 L 74.921875 353.316406 L 74.921875 361.039062 " fill-opacity="1" fill-rule="nonzero"/><path fill="#c9d8f4" d="M 74.921875 355.8125 L 122.082031 355.8125 L 122.082031 353.316406 L 74.921875 353.316406 L 74.921875 355.8125 " fill-opacity="1" fill-rule="nonzero"/><path fill="#ffffff" d="M 71.4375 354.085938 L 125.5625 354.085938 L 125.5625 350.414062 L 71.4375 350.414062 L 71.4375 354.085938 " fill-opacity="1" fill-rule="nonzero"/><path fill="#ffffff" d="M 77.625 552.578125 L 119.375 552.578125 L 119.375 481.886719 L 77.625 481.886719 L 77.625 552.578125 " fill-opacity="1" fill-rule="nonzero"/><path fill="#5562ad" d="M 81.683594 548.515625 L 115.316406 548.515625 L 115.316406 485.941406 L 81.683594 485.941406 L 81.683594 548.515625 " fill-opacity="1" fill-rule="nonzero"/><path fill="#2d447f" d="M 81.683594 548.515625 L 83.425781 548.515625 L 83.425781 487.675781 L 115.316406 487.675781 L 115.316406 485.941406 L 81.683594 485.941406 L 81.683594 548.515625 " fill-opacity="1" fill-rule="nonzero"/><path fill="#2d447f" d="M 113.507812 505.304688 C 112.710938 514.113281 112.164062 516.941406 111.773438 518.742188 C 109.941406 527.101562 108.234375 534.886719 102.03125 540.292969 C 98.207031 543.621094 94.359375 544.585938 87.890625 546.199219 C 85.773438 546.726562 85.445312 546.84375 83.425781 547.15625 L 83.425781 548.515625 L 115.316406 548.515625 L 115.316406 487.675781 L 114.714844 487.675781 C 114.496094 492.875 114.199219 497.703125 113.507812 505.304688 " fill-opacity="1" fill-rule="nonzero"/><path fill="#ffffff" d="M 80.328125 526.117188 L 117.058594 526.117188 L 117.058594 522.25 L 80.328125 522.25 L 80.328125 526.117188 " fill-opacity="1" fill-rule="nonzero"/><path fill="#2d447f" d="M 82.554688 527.699219 L 115.316406 527.699219 L 115.316406 523.835938 L 82.554688 523.835938 L 82.554688 527.699219 " fill-opacity="1" fill-rule="nonzero"/><path fill="#ffffff" d="M 80.328125 526.117188 L 117.058594 526.117188 L 117.058594 522.25 L 80.328125 522.25 L 80.328125 526.117188 " fill-opacity="1" fill-rule="nonzero"/><path fill="#6778bf" d="M 83.425781 505.695312 L 83.425781 513.449219 L 99.371094 487.675781 L 94.25 487.675781 L 83.425781 505.695312 " fill-opacity="1" fill-rule="nonzero"/><path fill="#c9d8f4" d="M 77.625 483.527344 L 119.375 483.527344 L 119.375 480.917969 L 77.625 480.917969 L 77.625 483.527344 " fill-opacity="1" fill-rule="nonzero"/><path fill="#ffffff" d="M 74.921875 481.886719 L 122.082031 481.886719 L 122.082031 474.160156 L 74.921875 474.160156 L 74.921875 481.886719 " fill-opacity="1" fill-rule="nonzero"/><path fill="#c9d8f4" d="M 74.921875 476.660156 L 122.082031 476.660156 L 122.082031 474.160156 L 74.921875 474.160156 L 74.921875 476.660156 " fill-opacity="1" fill-rule="nonzero"/><path fill="#ffffff" d="M 71.4375 474.929688 L 125.5625 474.929688 L 125.5625 471.261719 L 71.4375 471.261719 L 71.4375 474.929688 " fill-opacity="1" fill-rule="nonzero"/><path fill="#ffffff" d="M 686.410156 431.730469 L 728.160156 431.730469 L 728.160156 361.039062 L 686.410156 361.039062 L 686.410156 431.730469 " fill-opacity="1" fill-rule="nonzero"/><path fill="#5562ad" d="M 690.46875 427.671875 L 724.101562 427.671875 L 724.101562 365.09375 L 690.46875 365.09375 L 690.46875 427.671875 " fill-opacity="1" fill-rule="nonzero"/><path fill="#2d447f" d="M 690.46875 427.671875 L 692.210938 427.671875 L 692.210938 366.832031 L 724.101562 366.832031 L 724.101562 365.09375 L 690.46875 365.09375 L 690.46875 427.671875 " fill-opacity="1" fill-rule="nonzero"/><path fill="#2d447f" d="M 722.300781 384.464844 C 721.503906 393.273438 720.949219 396.097656 720.558594 397.898438 C 718.722656 406.261719 717.019531 414.042969 710.824219 419.449219 C 707 422.777344 703.144531 423.734375 696.671875 425.355469 C 694.558594 425.882812 694.230469 425.996094 692.210938 426.308594 L 692.210938 427.671875 L 724.101562 427.671875 L 724.101562 366.832031 L 723.5 366.832031 C 723.289062 372.027344 722.984375 376.859375 722.300781 384.464844 " fill-opacity="1" fill-rule="nonzero"/><path fill="#ffffff" d="M 689.113281 405.265625 L 725.84375 405.265625 L 725.84375 401.402344 L 689.113281 401.402344 L 689.113281 405.265625 " fill-opacity="1" fill-rule="nonzero"/><path fill="#2d447f" d="M 691.34375 406.851562 L 724.101562 406.851562 L 724.101562 402.988281 L 691.34375 402.988281 L 691.34375 406.851562 " fill-opacity="1" fill-rule="nonzero"/><path fill="#ffffff" d="M 689.113281 405.265625 L 725.84375 405.265625 L 725.84375 401.402344 L 689.113281 401.402344 L 689.113281 405.265625 " fill-opacity="1" fill-rule="nonzero"/><path fill="#6778bf" d="M 692.210938 384.855469 L 692.210938 392.605469 L 708.15625 366.832031 L 703.039062 366.832031 L 692.210938 384.855469 " fill-opacity="1" fill-rule="nonzero"/><path fill="#c9d8f4" d="M 686.410156 362.675781 L 728.160156 362.675781 L 728.160156 360.074219 L 686.410156 360.074219 L 686.410156 362.675781 " fill-opacity="1" fill-rule="nonzero"/><path fill="#ffffff" d="M 683.707031 361.039062 L 730.871094 361.039062 L 730.871094 353.316406 L 683.707031 353.316406 L 683.707031 361.039062 " fill-opacity="1" fill-rule="nonzero"/><path fill="#c9d8f4" d="M 683.707031 355.8125 L 730.871094 355.8125 L 730.871094 353.316406 L 683.707031 353.316406 L 683.707031 355.8125 " fill-opacity="1" fill-rule="nonzero"/><path fill="#ffffff" d="M 680.222656 354.085938 L 734.347656 354.085938 L 734.347656 350.414062 L 680.222656 350.414062 L 680.222656 354.085938 " fill-opacity="1" fill-rule="nonzero"/><path fill="#ffffff" d="M 686.410156 552.578125 L 728.160156 552.578125 L 728.160156 481.886719 L 686.410156 481.886719 L 686.410156 552.578125 " fill-opacity="1" fill-rule="nonzero"/><path fill="#5562ad" d="M 690.46875 548.515625 L 724.101562 548.515625 L 724.101562 485.941406 L 690.46875 485.941406 L 690.46875 548.515625 " fill-opacity="1" fill-rule="nonzero"/><path fill="#2d447f" d="M 690.46875 548.515625 L 692.210938 548.515625 L 692.210938 487.675781 L 724.101562 487.675781 L 724.101562 485.941406 L 690.46875 485.941406 L 690.46875 548.515625 " fill-opacity="1" fill-rule="nonzero"/><path fill="#2d447f" d="M 722.300781 505.304688 C 721.503906 514.113281 720.949219 516.941406 720.558594 518.742188 C 718.722656 527.101562 717.019531 534.886719 710.824219 540.292969 C 707 543.621094 703.144531 544.585938 696.671875 546.199219 C 694.558594 546.726562 694.230469 546.84375 692.210938 547.15625 L 692.210938 548.515625 L 724.101562 548.515625 L 724.101562 487.675781 L 723.5 487.675781 C 723.289062 492.875 722.984375 497.703125 722.300781 505.304688 " fill-opacity="1" fill-rule="nonzero"/><path fill="#ffffff" d="M 689.113281 526.117188 L 725.84375 526.117188 L 725.84375 522.25 L 689.113281 522.25 L 689.113281 526.117188 " fill-opacity="1" fill-rule="nonzero"/><path fill="#2d447f" d="M 691.34375 527.699219 L 724.101562 527.699219 L 724.101562 523.835938 L 691.34375 523.835938 L 691.34375 527.699219 " fill-opacity="1" fill-rule="nonzero"/><path fill="#ffffff" d="M 689.113281 526.117188 L 725.84375 526.117188 L 725.84375 522.25 L 689.113281 522.25 L 689.113281 526.117188 " fill-opacity="1" fill-rule="nonzero"/><path fill="#6778bf" d="M 692.210938 505.695312 L 692.210938 513.449219 L 708.15625 487.675781 L 703.039062 487.675781 L 692.210938 505.695312 " fill-opacity="1" fill-rule="nonzero"/><path fill="#c9d8f4" d="M 686.410156 483.527344 L 728.160156 483.527344 L 728.160156 480.917969 L 686.410156 480.917969 L 686.410156 483.527344 " fill-opacity="1" fill-rule="nonzero"/><path fill="#ffffff" d="M 683.707031 481.886719 L 730.871094 481.886719 L 730.871094 474.160156 L 683.707031 474.160156 L 683.707031 481.886719 " fill-opacity="1" fill-rule="nonzero"/><path fill="#c9d8f4" d="M 683.707031 476.660156 L 730.871094 476.660156 L 730.871094 474.160156 L 683.707031 474.160156 L 683.707031 476.660156 " fill-opacity="1" fill-rule="nonzero"/><path fill="#ffffff" d="M 680.222656 474.929688 L 734.347656 474.929688 L 734.347656 471.261719 L 680.222656 471.261719 L 680.222656 474.929688 " fill-opacity="1" fill-rule="nonzero"/><path fill="#3a61c2" d="M 366.34375 626.214844 L 431.671875 626.214844 L 431.671875 509.199219 L 366.34375 509.199219 L 366.34375 626.214844 " fill-opacity="1" fill-rule="nonzero"/><path fill="#5562ad" d="M 382.792969 550.785156 L 415.214844 550.785156 L 415.214844 518.386719 L 382.792969 518.386719 L 382.792969 550.785156 " fill-opacity="1" fill-rule="nonzero"/><path fill="#2d447f" d="M 382.792969 550.785156 L 385.460938 550.785156 L 385.460938 521.796875 L 415.214844 521.796875 L 415.214844 518.386719 L 382.792969 518.386719 L 382.792969 550.785156 " fill-opacity="1" fill-rule="nonzero"/><path fill="#ffffff" d="M 355.695312 492.277344 L 441.828125 492.277344 L 441.828125 488.171875 L 355.695312 488.171875 L 355.695312 492.277344 " fill-opacity="1" fill-rule="nonzero"/><path fill="#ffffff" d="M 361.257812 503.398438 L 436.265625 503.398438 L 436.265625 492.277344 L 361.257812 492.277344 L 361.257812 503.398438 " fill-opacity="1" fill-rule="nonzero"/><path fill="#cfcfff" d="M 361.257812 494.871094 L 436.265625 494.871094 L 436.265625 492.277344 L 361.257812 492.277344 L 361.257812 494.871094 " fill-opacity="1" fill-rule="nonzero"/><path fill="#2d447f" d="M 409.988281 536.476562 C 409.988281 536.476562 407.40625 541.535156 403.886719 545.175781 C 401.300781 547.859375 397.527344 549.734375 392.890625 550.785156 L 415.214844 550.785156 L 415.214844 518.386719 L 414.234375 518.386719 C 414.234375 523.035156 413.472656 529.632812 409.988281 536.476562 " fill-opacity="1" fill-rule="nonzero"/><path fill="#6778bf" d="M 385.460938 536.960938 L 385.460938 543.789062 L 403.246094 521.941406 L 397.695312 521.941406 L 385.460938 536.960938 " fill-opacity="1" fill-rule="nonzero"/><path fill="#2a57b8" d="M 428.121094 530.816406 C 426.714844 566.089844 425.707031 575.074219 421.15625 585.632812 C 419.449219 589.601562 416.457031 596.40625 410.707031 603.03125 C 397.886719 617.816406 379.394531 622.457031 366.34375 623.835938 L 366.34375 626.214844 L 431.671875 626.214844 L 431.671875 509.199219 L 428.902344 509.199219 C 428.644531 517.324219 428.375 524.585938 428.121094 530.816406 " fill-opacity="1" fill-rule="nonzero"/><path fill="#92c3ea" d="M 366.34375 509.199219 L 431.671875 509.199219 L 436.265625 503.398438 L 361.257812 503.398438 L 366.34375 509.199219 " fill-opacity="1" fill-rule="nonzero"/><path fill="#3a61c1" d="M 199.355469 629.328125 L 167.71875 629.328125 L 170.976562 397.578125 L 196.105469 397.578125 L 199.355469 629.328125 " fill-opacity="1" fill-rule="nonzero"/><path fill="#2a56b7" d="M 196.105469 397.578125 L 170.976562 397.578125 L 170.707031 416.652344 L 186.984375 416.652344 L 189.75 585.273438 C 189.972656 599.125 180.675781 610.886719 167.929688 614.386719 L 167.71875 629.328125 L 199.355469 629.328125 L 196.105469 397.578125 " fill-opacity="1" fill-rule="nonzero"/><path fill="#3a61c1" d="M 190.832031 413.269531 L 176.242188 413.269531 C 168.140625 413.269531 161.582031 406.707031 161.582031 398.621094 L 161.582031 397.578125 L 205.496094 397.578125 L 205.496094 398.621094 C 205.496094 406.707031 198.933594 413.269531 190.832031 413.269531 " fill-opacity="1" fill-rule="nonzero"/><path fill="#2a56b7" d="M 189.675781 397.578125 L 189.675781 405.640625 C 189.675781 409.851562 186.257812 413.269531 182.042969 413.269531 L 197.863281 413.269531 C 202.078125 413.269531 205.496094 409.851562 205.496094 405.640625 L 205.496094 397.578125 L 189.675781 397.578125 " fill-opacity="1" fill-rule="nonzero"/><path fill="#3a61c1" d="M 202.140625 623.621094 L 164.941406 623.621094 C 163.464844 623.621094 162.273438 624.8125 162.273438 626.285156 L 162.273438 626.664062 C 162.273438 628.136719 163.464844 629.328125 164.941406 629.328125 L 202.140625 629.328125 C 203.613281 629.328125 204.808594 628.136719 204.808594 626.664062 L 204.808594 626.285156 C 204.808594 624.8125 203.613281 623.621094 202.140625 623.621094 " fill-opacity="1" fill-rule="nonzero"/><path fill="#3f6cc4" d="M 175.210938 587.628906 L 173.363281 587.601562 C 172.671875 587.589844 172.121094 587.023438 172.132812 586.335938 L 174.191406 432.992188 C 174.195312 432.308594 174.761719 431.753906 175.453125 431.761719 L 177.296875 431.792969 C 177.988281 431.796875 178.535156 432.363281 178.53125 433.054688 L 176.472656 586.398438 C 176.460938 587.082031 175.898438 587.632812 175.210938 587.628906 " fill-opacity="1" fill-rule="nonzero"/><path fill="#3f6cc4" d="M 173.164062 410.453125 L 172.480469 410.453125 C 169.863281 410.453125 167.71875 408.316406 167.71875 405.695312 L 167.71875 405.019531 C 167.71875 402.398438 169.863281 400.253906 172.480469 400.253906 L 173.164062 400.253906 C 175.78125 400.253906 177.925781 402.398438 177.925781 405.019531 L 177.925781 405.695312 C 177.925781 408.316406 175.78125 410.453125 173.164062 410.453125 " fill-opacity="1" fill-rule="nonzero"/><path fill="#3a61c1" d="M 274.285156 629.328125 L 242.648438 629.328125 L 245.90625 397.578125 L 271.027344 397.578125 L 274.285156 629.328125 " fill-opacity="1" fill-rule="nonzero"/><path fill="#2a56b7" d="M 271.027344 397.578125 L 245.90625 397.578125 L 245.640625 416.652344 L 261.914062 416.652344 L 264.679688 585.273438 C 264.90625 599.125 255.605469 610.886719 242.859375 614.386719 L 242.648438 629.328125 L 274.285156 629.328125 L 271.027344 397.578125 " fill-opacity="1" fill-rule="nonzero"/><path fill="#3a61c1" d="M 265.761719 413.269531 L 251.171875 413.269531 C 243.070312 413.269531 236.511719 406.707031 236.511719 398.621094 L 236.511719 397.578125 L 280.429688 397.578125 L 280.429688 398.621094 C 280.429688 406.707031 273.863281 413.269531 265.761719 413.269531 " fill-opacity="1" fill-rule="nonzero"/><path fill="#2a56b7" d="M 264.605469 397.578125 L 264.605469 405.640625 C 264.605469 409.851562 261.1875 413.269531 256.972656 413.269531 L 272.792969 413.269531 C 277.007812 413.269531 280.429688 409.851562 280.429688 405.640625 L 280.429688 397.578125 L 264.605469 397.578125 " fill-opacity="1" fill-rule="nonzero"/><path fill="#3a61c1" d="M 277.070312 623.621094 L 239.871094 623.621094 C 238.398438 623.621094 237.195312 624.8125 237.195312 626.285156 L 237.195312 626.664062 C 237.195312 628.136719 238.398438 629.328125 239.871094 629.328125 L 277.070312 629.328125 C 278.546875 629.328125 279.738281 628.136719 279.738281 626.664062 L 279.738281 626.285156 C 279.738281 624.8125 278.546875 623.621094 277.070312 623.621094 " fill-opacity="1" fill-rule="nonzero"/><path fill="#3f6cc4" d="M 250.140625 587.628906 L 248.292969 587.601562 C 247.605469 587.589844 247.050781 587.023438 247.0625 586.335938 L 249.121094 432.992188 C 249.128906 432.308594 249.691406 431.753906 250.382812 431.761719 L 252.230469 431.792969 C 252.917969 431.796875 253.464844 432.363281 253.460938 433.054688 L 251.402344 586.398438 C 251.390625 587.082031 250.832031 587.632812 250.140625 587.628906 " fill-opacity="1" fill-rule="nonzero"/><path fill="#3f6cc4" d="M 248.09375 410.453125 L 247.410156 410.453125 C 244.792969 410.453125 242.648438 408.316406 242.648438 405.695312 L 242.648438 405.019531 C 242.648438 402.398438 244.792969 400.253906 247.410156 400.253906 L 248.09375 400.253906 C 250.710938 400.253906 252.855469 402.398438 252.855469 405.019531 L 252.855469 405.695312 C 252.855469 408.316406 250.710938 410.453125 248.09375 410.453125 " fill-opacity="1" fill-rule="nonzero"/><path fill="#3a61c1" d="M 349.441406 629.328125 L 317.804688 629.328125 L 321.0625 397.578125 L 346.191406 397.578125 L 349.441406 629.328125 " fill-opacity="1" fill-rule="nonzero"/><path fill="#2a56b7" d="M 346.191406 397.578125 L 321.0625 397.578125 L 320.792969 416.652344 L 337.074219 416.652344 L 339.835938 585.273438 C 340.058594 599.125 330.761719 610.886719 318.015625 614.386719 L 317.804688 629.328125 L 349.441406 629.328125 L 346.191406 397.578125 " fill-opacity="1" fill-rule="nonzero"/><path fill="#3a61c1" d="M 340.925781 413.269531 L 326.328125 413.269531 C 318.234375 413.269531 311.667969 406.707031 311.667969 398.621094 L 311.667969 397.578125 L 355.582031 397.578125 L 355.582031 398.621094 C 355.582031 406.707031 349.019531 413.269531 340.925781 413.269531 " fill-opacity="1" fill-rule="nonzero"/><path fill="#2a56b7" d="M 339.761719 397.578125 L 339.761719 405.640625 C 339.761719 409.851562 336.34375 413.269531 332.128906 413.269531 L 347.949219 413.269531 C 352.164062 413.269531 355.582031 409.851562 355.582031 405.640625 L 355.582031 397.578125 L 339.761719 397.578125 " fill-opacity="1" fill-rule="nonzero"/><path fill="#3a61c1" d="M 352.226562 623.621094 L 315.023438 623.621094 C 313.550781 623.621094 312.359375 624.8125 312.359375 626.285156 L 312.359375 626.664062 C 312.359375 628.136719 313.550781 629.328125 315.023438 629.328125 L 352.226562 629.328125 C 353.699219 629.328125 354.894531 628.136719 354.894531 626.664062 L 354.894531 626.285156 C 354.894531 624.8125 353.699219 623.621094 352.226562 623.621094 " fill-opacity="1" fill-rule="nonzero"/><path fill="#3f6cc4" d="M 325.296875 587.628906 L 323.449219 587.601562 C 322.757812 587.589844 322.207031 587.023438 322.21875 586.335938 L 324.277344 432.992188 C 324.28125 432.308594 324.847656 431.753906 325.539062 431.761719 L 327.382812 431.792969 C 328.074219 431.796875 328.621094 432.363281 328.613281 433.054688 L 326.558594 586.398438 C 326.550781 587.082031 325.984375 587.632812 325.296875 587.628906 " fill-opacity="1" fill-rule="nonzero"/><path fill="#3f6cc4" d="M 323.25 410.453125 L 322.574219 410.453125 C 319.949219 410.453125 317.804688 408.316406 317.804688 405.695312 L 317.804688 405.019531 C 317.804688 402.398438 319.949219 400.253906 322.574219 400.253906 L 323.25 400.253906 C 325.867188 400.253906 328.011719 402.398438 328.011719 405.019531 L 328.011719 405.695312 C 328.011719 408.316406 325.867188 410.453125 323.25 410.453125 " fill-opacity="1" fill-rule="nonzero"/><path fill="#3a61c1" d="M 478.894531 629.328125 L 447.257812 629.328125 L 450.511719 397.578125 L 475.640625 397.578125 L 478.894531 629.328125 " fill-opacity="1" fill-rule="nonzero"/><path fill="#2a56b7" d="M 475.640625 397.578125 L 450.511719 397.578125 L 450.246094 416.652344 L 466.527344 416.652344 L 469.289062 585.273438 C 469.511719 599.125 460.210938 610.886719 447.46875 614.386719 L 447.257812 629.328125 L 478.894531 629.328125 L 475.640625 397.578125 " fill-opacity="1" fill-rule="nonzero"/><path fill="#3a61c1" d="M 470.375 413.269531 L 455.777344 413.269531 C 447.679688 413.269531 441.121094 406.707031 441.121094 398.621094 L 441.121094 397.578125 L 485.035156 397.578125 L 485.035156 398.621094 C 485.035156 406.707031 478.46875 413.269531 470.375 413.269531 " fill-opacity="1" fill-rule="nonzero"/><path fill="#2a56b7" d="M 469.214844 397.578125 L 469.214844 405.640625 C 469.214844 409.851562 465.792969 413.269531 461.578125 413.269531 L 477.402344 413.269531 C 481.617188 413.269531 485.035156 409.851562 485.035156 405.640625 L 485.035156 397.578125 L 469.214844 397.578125 " fill-opacity="1" fill-rule="nonzero"/><path fill="#3a61c1" d="M 481.671875 623.621094 L 444.476562 623.621094 C 443.003906 623.621094 441.808594 624.8125 441.808594 626.285156 L 441.808594 626.664062 C 441.808594 628.136719 443.003906 629.328125 444.476562 629.328125 L 481.671875 629.328125 C 483.144531 629.328125 484.34375 628.136719 484.34375 626.664062 L 484.34375 626.285156 C 484.34375 624.8125 483.144531 623.621094 481.671875 623.621094 " fill-opacity="1" fill-rule="nonzero"/><path fill="#3f6cc4" d="M 454.746094 587.628906 L 452.902344 587.601562 C 452.210938 587.589844 451.65625 587.023438 451.671875 586.335938 L 453.726562 432.992188 C 453.734375 432.308594 454.300781 431.753906 454.988281 431.761719 L 456.835938 431.792969 C 457.527344 431.796875 458.074219 432.363281 458.066406 433.054688 L 456.007812 586.398438 C 456.003906 587.082031 455.429688 587.632812 454.746094 587.628906 " fill-opacity="1" fill-rule="nonzero"/><path fill="#3f6cc4" d="M 452.703125 410.453125 L 452.019531 410.453125 C 449.402344 410.453125 447.257812 408.316406 447.257812 405.695312 L 447.257812 405.019531 C 447.257812 402.398438 449.402344 400.253906 452.019531 400.253906 L 452.703125 400.253906 C 455.320312 400.253906 457.464844 402.398438 457.464844 405.019531 L 457.464844 405.695312 C 457.464844 408.316406 455.320312 410.453125 452.703125 410.453125 " fill-opacity="1" fill-rule="nonzero"/><path fill="#3a61c1" d="M 553.824219 629.328125 L 522.1875 629.328125 L 525.445312 397.578125 L 550.574219 397.578125 L 553.824219 629.328125 " fill-opacity="1" fill-rule="nonzero"/><path fill="#2a56b7" d="M 550.574219 397.578125 L 525.445312 397.578125 L 525.175781 416.652344 L 541.457031 416.652344 L 544.21875 585.273438 C 544.441406 599.125 535.144531 610.886719 522.398438 614.386719 L 522.1875 629.328125 L 553.824219 629.328125 L 550.574219 397.578125 " fill-opacity="1" fill-rule="nonzero"/><path fill="#3a61c1" d="M 545.308594 413.269531 L 530.710938 413.269531 C 522.609375 413.269531 516.050781 406.707031 516.050781 398.621094 L 516.050781 397.578125 L 559.964844 397.578125 L 559.964844 398.621094 C 559.964844 406.707031 553.402344 413.269531 545.308594 413.269531 " fill-opacity="1" fill-rule="nonzero"/><path fill="#2a56b7" d="M 544.144531 397.578125 L 544.144531 405.640625 C 544.144531 409.851562 540.726562 413.269531 536.511719 413.269531 L 552.332031 413.269531 C 556.546875 413.269531 559.964844 409.851562 559.964844 405.640625 L 559.964844 397.578125 L 544.144531 397.578125 " fill-opacity="1" fill-rule="nonzero"/><path fill="#3a61c1" d="M 556.601562 623.621094 L 519.40625 623.621094 C 517.933594 623.621094 516.742188 624.8125 516.742188 626.285156 L 516.742188 626.664062 C 516.742188 628.136719 517.933594 629.328125 519.40625 629.328125 L 556.601562 629.328125 C 558.078125 629.328125 559.277344 628.136719 559.277344 626.664062 L 559.277344 626.285156 C 559.277344 624.8125 558.078125 623.621094 556.601562 623.621094 " fill-opacity="1" fill-rule="nonzero"/><path fill="#3f6cc4" d="M 529.679688 587.628906 L 527.832031 587.601562 C 527.140625 587.589844 526.589844 587.023438 526.601562 586.335938 L 528.660156 432.992188 C 528.664062 432.308594 529.230469 431.753906 529.921875 431.761719 L 531.765625 431.792969 C 532.457031 431.796875 533.003906 432.363281 532.996094 433.054688 L 530.941406 586.398438 C 530.933594 587.082031 530.363281 587.632812 529.679688 587.628906 " fill-opacity="1" fill-rule="nonzero"/><path fill="#3f6cc4" d="M 527.632812 410.453125 L 526.949219 410.453125 C 524.332031 410.453125 522.1875 408.316406 522.1875 405.695312 L 522.1875 405.019531 C 522.1875 402.398438 524.332031 400.253906 526.949219 400.253906 L 527.632812 400.253906 C 530.25 400.253906 532.394531 402.398438 532.394531 405.019531 L 532.394531 405.695312 C 532.394531 408.316406 530.25 410.453125 527.632812 410.453125 " fill-opacity="1" fill-rule="nonzero"/><path fill="#3a61c1" d="M 628.980469 629.328125 L 597.339844 629.328125 L 600.597656 397.578125 L 625.726562 397.578125 L 628.980469 629.328125 " fill-opacity="1" fill-rule="nonzero"/><path fill="#2a56b7" d="M 625.726562 397.578125 L 600.597656 397.578125 L 600.332031 416.652344 L 616.613281 416.652344 L 619.375 585.273438 C 619.597656 599.125 610.296875 610.886719 597.554688 614.386719 L 597.339844 629.328125 L 628.980469 629.328125 L 625.726562 397.578125 " fill-opacity="1" fill-rule="nonzero"/><path fill="#3a61c1" d="M 620.460938 413.269531 L 605.863281 413.269531 C 597.769531 413.269531 591.207031 406.707031 591.207031 398.621094 L 591.207031 397.578125 L 635.121094 397.578125 L 635.121094 398.621094 C 635.121094 406.707031 628.554688 413.269531 620.460938 413.269531 " fill-opacity="1" fill-rule="nonzero"/><path fill="#2a56b7" d="M 619.300781 397.578125 L 619.300781 405.640625 C 619.300781 409.851562 615.886719 413.269531 611.664062 413.269531 L 627.488281 413.269531 C 631.703125 413.269531 635.121094 409.851562 635.121094 405.640625 L 635.121094 397.578125 L 619.300781 397.578125 " fill-opacity="1" fill-rule="nonzero"/><path fill="#3a61c1" d="M 631.765625 623.621094 L 594.5625 623.621094 C 593.089844 623.621094 591.894531 624.8125 591.894531 626.285156 L 591.894531 626.664062 C 591.894531 628.136719 593.089844 629.328125 594.5625 629.328125 L 631.765625 629.328125 C 633.238281 629.328125 634.429688 628.136719 634.429688 626.664062 L 634.429688 626.285156 C 634.429688 624.8125 633.238281 623.621094 631.765625 623.621094 " fill-opacity="1" fill-rule="nonzero"/><path fill="#3f6cc4" d="M 604.832031 587.628906 L 602.988281 587.601562 C 602.296875 587.589844 601.75 587.023438 601.753906 586.335938 L 603.8125 432.992188 C 603.820312 432.308594 604.386719 431.753906 605.074219 431.761719 L 606.921875 431.792969 C 607.613281 431.796875 608.160156 432.363281 608.152344 433.054688 L 606.09375 586.398438 C 606.089844 587.082031 605.523438 587.632812 604.832031 587.628906 " fill-opacity="1" fill-rule="nonzero"/><path fill="#3f6cc4" d="M 602.789062 410.453125 L 602.109375 410.453125 C 599.488281 410.453125 597.339844 408.316406 597.339844 405.695312 L 597.339844 405.019531 C 597.339844 402.398438 599.488281 400.253906 602.109375 400.253906 L 602.789062 400.253906 C 605.40625 400.253906 607.550781 402.398438 607.550781 405.019531 L 607.550781 405.695312 C 607.550781 408.316406 605.40625 410.453125 602.789062 410.453125 " fill-opacity="1" fill-rule="nonzero"/><g clip-path="url(#64c76b17ae)"><path fill="#3a61c1" d="M 354.394531 662.300781 L 444.445312 662.300781 L 444.445312 625.53125 L 354.394531 625.53125 L 354.394531 662.300781 " fill-opacity="1" fill-rule="nonzero"/></g><path fill="#3a61c1" d="M 354.394531 636.039062 L 444.445312 636.039062 L 444.445312 625.53125 L 354.394531 625.53125 L 354.394531 636.039062 " fill-opacity="1" fill-rule="nonzero"/><path fill="#2b52b2" d="M 354.394531 636.039062 L 444.445312 636.039062 L 444.445312 633.632812 L 354.394531 633.632812 L 354.394531 636.039062 " fill-opacity="1" fill-rule="nonzero"/><path fill="#3a61c1" d="M 354.394531 646.546875 L 444.445312 646.546875 L 444.445312 636.039062 L 354.394531 636.039062 L 354.394531 646.546875 " fill-opacity="1" fill-rule="nonzero"/><path fill="#2b52b2" d="M 354.394531 646.546875 L 444.445312 646.546875 L 444.445312 643.921875 L 354.394531 643.921875 L 354.394531 646.546875 " fill-opacity="1" fill-rule="nonzero"/><path fill="#3a61c1" d="M 354.394531 657.050781 L 444.445312 657.050781 L 444.445312 646.546875 L 354.394531 646.546875 L 354.394531 657.050781 " fill-opacity="1" fill-rule="nonzero"/><path fill="#2b52b2" d="M 354.394531 657.050781 L 444.445312 657.050781 L 444.445312 654.457031 L 354.394531 654.457031 L 354.394531 657.050781 " fill-opacity="1" fill-rule="nonzero"/><g clip-path="url(#f5b2b42272)"><path fill="#2b52b2" d="M 354.394531 662.300781 L 356.285156 662.300781 L 356.285156 625.53125 L 354.394531 625.53125 L 354.394531 662.300781 " fill-opacity="1" fill-rule="nonzero"/></g><g clip-path="url(#e0000ef3e5)"><path fill="#2b52b2" d="M 442.5625 662.300781 L 444.445312 662.300781 L 444.445312 625.53125 L 442.5625 625.53125 L 442.5625 662.300781 " fill-opacity="1" fill-rule="nonzero"/></g><g clip-path="url(#136244f011)"><path fill="#2d447f" d="M 349.367188 662.300781 L 354.394531 662.300781 L 354.394531 593.558594 L 349.367188 593.558594 L 349.367188 662.300781 " fill-opacity="1" fill-rule="nonzero"/></g><g clip-path="url(#803cd9733c)"><path fill="#2d447f" d="M 444.445312 662.300781 L 449.476562 662.300781 L 449.476562 593.558594 L 444.445312 593.558594 L 444.445312 662.300781 " fill-opacity="1" fill-rule="nonzero"/></g><path fill="#3a61c1" d="M 650.308594 399.03125 L 148.273438 399.03125 L 148.273438 303.390625 L 650.308594 303.390625 L 650.308594 399.03125 " fill-opacity="1" fill-rule="nonzero"/><g clip-path="url(#bc2bf13741)"><path fill="#131a7a" d="M 403.507812 147.238281 L 117.921875 303.390625 L 680.660156 303.390625 Z M 403.507812 147.238281 " fill-opacity="1" fill-rule="nonzero"/></g><path fill="#3250ba" d="M 650.308594 303.390625 L 614.175781 303.390625 C 614.699219 319.136719 612.136719 338.066406 600.5 354.160156 C 600.5 354.160156 587.617188 371.988281 561.441406 381.480469 C 538.351562 389.859375 481.070312 395.792969 398.648438 399.03125 L 650.308594 399.03125 L 650.308594 303.390625 " fill-opacity="1" fill-rule="nonzero"/><path fill="#2d4cba" d="M 650.308594 336.171875 L 148.273438 336.171875 L 148.273438 303.390625 L 650.308594 303.390625 L 650.308594 336.171875 " fill-opacity="1" fill-rule="nonzero"/><path fill="#1a2f87" d="M 402.347656 186.621094 L 195.601562 299.664062 L 602.980469 299.664062 Z M 402.347656 186.621094 " fill-opacity="1" fill-rule="nonzero"/><path fill="#0c2677" d="M 475.019531 227.566406 C 493.976562 241.628906 506.402344 253.832031 506.519531 261.941406 C 506.644531 271.179688 490.980469 280.238281 486.441406 282.714844 C 476.6875 288.046875 461.851562 293.824219 444.359375 299.664062 L 602.980469 299.664062 L 475.019531 227.566406 " fill-opacity="1" fill-rule="nonzero"/><path fill="#213c93" d="M 329.175781 226.628906 L 291.191406 247.394531 L 252.707031 299.664062 L 275.40625 299.664062 L 329.175781 226.628906 " fill-opacity="1" fill-rule="nonzero"/><path fill="#0c2060" d="M 643.46875 290.734375 L 149.335938 290.734375 L 149.335938 303.390625 L 643.46875 303.390625 L 643.46875 290.734375 " fill-opacity="1" fill-rule="nonzero"/><g clip-path="url(#d2348abc4d)"><path fill="#3a61c1" d="M 403.507812 175.535156 L 630.433594 303.390625 L 680.660156 303.390625 L 403.507812 147.238281 L 117.921875 303.390625 L 169.675781 303.390625 L 403.507812 175.535156 " fill-opacity="1" fill-rule="nonzero"/></g><g clip-path="url(#d680e88722)"><path fill="#3f6cc4" d="M 411.011719 151.460938 L 403.507812 147.238281 L 117.921875 303.390625 L 133.160156 303.390625 L 411.011719 151.460938 " fill-opacity="1" fill-rule="nonzero"/></g><path fill="#3f6cc4" d="M 181.078125 388.632812 L 178.742188 388.632812 C 169.714844 388.632812 162.328125 381.257812 162.328125 372.238281 L 162.328125 364.042969 C 162.328125 355.023438 169.714844 347.644531 178.742188 347.644531 L 181.078125 347.644531 C 190.105469 347.644531 197.492188 355.023438 197.492188 364.042969 L 197.492188 372.238281 C 197.492188 381.257812 190.105469 388.632812 181.078125 388.632812 " fill-opacity="1" fill-rule="nonzero"/><path fill="#3a61c1" d="M 680.660156 326.808594 L 117.921875 326.808594 L 117.921875 303.390625 L 680.660156 303.390625 L 680.660156 326.808594 " fill-opacity="1" fill-rule="nonzero"/><path fill="#2d4cba" d="M 680.660156 326.808594 L 601.800781 326.808594 L 601.800781 303.390625 L 680.660156 303.390625 L 680.660156 326.808594 " fill-opacity="1" fill-rule="nonzero"/><path fill="#3f6cc4" d="M 227.175781 318.375 L 132.644531 318.375 C 129.632812 318.375 127.171875 315.914062 127.171875 312.90625 L 127.171875 312.125 C 127.171875 309.125 129.632812 306.664062 132.644531 306.664062 L 227.175781 306.664062 C 230.183594 306.664062 232.648438 309.125 232.648438 312.125 L 232.648438 312.90625 C 232.648438 315.914062 230.183594 318.375 227.175781 318.375 " fill-opacity="1" fill-rule="nonzero"/><path fill="#1639a8" d="M 205.496094 401.644531 L 161.582031 401.644531 L 161.582031 399.03125 L 205.496094 399.03125 L 205.496094 401.644531 " fill-opacity="1" fill-rule="nonzero"/><path fill="#1639a8" d="M 280.429688 401.644531 L 236.511719 401.644531 L 236.511719 399.03125 L 280.429688 399.03125 L 280.429688 401.644531 " fill-opacity="1" fill-rule="nonzero"/><path fill="#1639a8" d="M 355.582031 401.644531 L 311.667969 401.644531 L 311.667969 399.03125 L 355.582031 399.03125 L 355.582031 401.644531 " fill-opacity="1" fill-rule="nonzero"/><path fill="#1639a8" d="M 485.035156 401.644531 L 441.121094 401.644531 L 441.121094 399.03125 L 485.035156 399.03125 L 485.035156 401.644531 " fill-opacity="1" fill-rule="nonzero"/><path fill="#1639a8" d="M 560.164062 401.644531 L 516.25 401.644531 L 516.25 399.03125 L 560.164062 399.03125 L 560.164062 401.644531 " fill-opacity="1" fill-rule="nonzero"/><path fill="#1639a8" d="M 635.121094 401.644531 L 591.207031 401.644531 L 591.207031 399.03125 L 635.121094 399.03125 L 635.121094 401.644531 " fill-opacity="1" fill-rule="nonzero"/><path fill="#ffffff" d="M 414.839844 259.074219 C 413.101562 261.003906 410.625 262.292969 407.417969 262.925781 L 407.417969 242.089844 C 410.71875 243.140625 413.21875 244.414062 414.917969 245.921875 C 416.613281 247.425781 417.464844 249.5625 417.464844 252.316406 C 417.464844 254.886719 416.589844 257.136719 414.839844 259.074219 Z M 401.375 227.964844 C 398.515625 226.917969 396.390625 225.753906 394.996094 224.472656 C 393.597656 223.1875 392.902344 221.292969 392.902344 218.789062 C 392.902344 216.15625 393.648438 214.191406 395.140625 212.886719 C 396.632812 211.589844 398.710938 210.546875 401.375 209.75 Z M 427.625 242.777344 C 426.558594 240.355469 425.042969 238.269531 423.078125 236.53125 C 421.238281 234.847656 419.148438 233.558594 416.820312 232.671875 C 414.488281 231.785156 411.355469 230.800781 407.417969 229.722656 L 407.417969 209.941406 C 411.417969 211.242188 413.941406 213.875 414.984375 217.835938 C 415.90625 221.199219 417.925781 222.875 421.035156 222.875 C 422.679688 222.875 424.085938 222.296875 425.242188 221.144531 C 426.40625 219.980469 426.984375 218.613281 426.984375 217.023438 C 426.984375 215.601562 426.589844 214.03125 425.8125 212.316406 C 425.039062 210.605469 423.9375 208.941406 422.507812 207.320312 C 420.699219 205.203125 418.585938 203.613281 416.152344 202.570312 C 413.722656 201.519531 410.8125 200.824219 407.417969 200.476562 L 407.417969 195.339844 C 407.417969 192.734375 406.40625 191.4375 404.371094 191.4375 C 402.371094 191.4375 401.375 192.773438 401.375 195.429688 L 401.375 200.476562 C 394.804688 201.046875 389.78125 203.070312 386.308594 206.5625 C 382.832031 210.046875 381.097656 214.519531 381.097656 219.976562 C 381.097656 224.160156 381.984375 227.585938 383.765625 230.25 C 385.542969 232.914062 387.855469 234.964844 390.714844 236.40625 C 393.566406 237.851562 397.125 239.15625 401.375 240.332031 L 401.375 262.445312 C 399.25 261.851562 397.539062 260.972656 396.261719 259.832031 C 394.972656 258.695312 394.007812 257.433594 393.375 256.054688 C 392.742188 254.675781 391.996094 252.679688 391.144531 250.085938 C 390.757812 248.878906 390.082031 247.941406 389.09375 247.277344 C 388.109375 246.613281 386.902344 246.277344 385.472656 246.277344 C 383.703125 246.277344 382.214844 246.886719 381.023438 248.109375 C 379.835938 249.328125 379.238281 250.699219 379.238281 252.222656 C 379.238281 254.285156 379.6875 256.382812 380.574219 258.527344 C 381.464844 260.664062 382.832031 262.726562 384.691406 264.707031 C 386.550781 266.6875 388.863281 268.347656 391.640625 269.675781 C 394.414062 271.011719 397.660156 271.882812 401.375 272.292969 L 401.375 285.140625 C 401.375 286.59375 401.605469 287.671875 402.066406 288.371094 C 402.527344 289.066406 403.320312 289.417969 404.464844 289.417969 C 405.703125 289.417969 406.503906 288.992188 406.871094 288.132812 C 407.238281 287.277344 407.417969 285.910156 407.417969 284.039062 L 407.417969 272.199219 C 411.957031 271.820312 415.875 270.628906 419.175781 268.632812 C 422.476562 266.632812 424.976562 264.0625 426.671875 260.90625 C 428.371094 257.75 429.222656 254.363281 429.222656 250.75 C 429.222656 247.859375 428.6875 245.207031 427.625 242.777344 " fill-opacity="1" fill-rule="nonzero"/><path fill="#d6ecf2" d="M 259.539062 360.335938 C 259.09375 361.023438 258.433594 361.535156 257.582031 361.839844 C 256.6875 362.160156 255.554688 362.324219 254.207031 362.324219 L 250.582031 362.324219 L 250.582031 352.78125 L 254.207031 352.78125 C 256.722656 352.78125 258.394531 353.242188 259.167969 354.140625 C 259.863281 355 260.21875 356.140625 260.21875 357.527344 C 260.21875 358.6875 259.996094 359.632812 259.539062 360.335938 Z M 264.148438 349.589844 C 263.246094 348.667969 262.15625 348 260.914062 347.605469 C 259.683594 347.195312 257.90625 346.992188 255.636719 346.992188 L 248.0625 346.992188 C 246.671875 346.992188 245.628906 347.351562 244.96875 348.058594 C 244.304688 348.773438 243.980469 349.898438 243.980469 351.496094 L 243.980469 377.3125 C 243.980469 378.730469 244.277344 379.828125 244.867188 380.582031 C 245.476562 381.355469 246.292969 381.753906 247.285156 381.753906 C 248.246094 381.753906 249.046875 381.351562 249.667969 380.566406 C 250.269531 379.808594 250.582031 378.699219 250.582031 377.269531 L 250.582031 368.136719 L 255.636719 368.136719 C 259.335938 368.136719 262.164062 367.210938 264.054688 365.398438 C 265.945312 363.578125 266.902344 360.886719 266.902344 357.390625 C 266.902344 355.761719 266.671875 354.273438 266.203125 352.960938 C 265.738281 351.636719 265.046875 350.5 264.148438 349.589844 " fill-opacity="1" fill-rule="nonzero"/><path fill="#d6ecf2" d="M 291.144531 375.09375 L 277.738281 375.09375 L 277.738281 366.261719 L 289.636719 366.261719 C 290.648438 366.261719 291.421875 365.980469 291.917969 365.429688 C 292.414062 364.882812 292.667969 364.179688 292.667969 363.335938 C 292.667969 362.484375 292.410156 361.78125 291.90625 361.253906 C 291.394531 360.71875 290.628906 360.449219 289.636719 360.449219 L 277.738281 360.449219 L 277.738281 352.917969 L 290.6875 352.917969 C 291.722656 352.917969 292.515625 352.640625 293.035156 352.09375 C 293.558594 351.546875 293.820312 350.824219 293.820312 349.941406 C 293.820312 349.078125 293.558594 348.363281 293.035156 347.816406 C 292.515625 347.273438 291.722656 346.992188 290.6875 346.992188 L 275.101562 346.992188 C 274.210938 346.992188 273.464844 347.148438 272.882812 347.457031 C 272.273438 347.773438 271.820312 348.289062 271.539062 348.980469 C 271.269531 349.636719 271.132812 350.484375 271.132812 351.496094 L 271.132812 376.671875 C 271.132812 378.238281 271.4375 379.351562 272.066406 380.078125 C 272.695312 380.808594 273.714844 381.183594 275.101562 381.183594 L 291.144531 381.183594 C 292.164062 381.183594 292.960938 380.898438 293.496094 380.332031 C 294.023438 379.773438 294.296875 379.039062 294.296875 378.15625 C 294.296875 377.25 294.023438 376.503906 293.496094 375.945312 C 292.960938 375.382812 292.164062 375.09375 291.144531 375.09375 " fill-opacity="1" fill-rule="nonzero"/><path fill="#d6ecf2" d="M 320.371094 346.421875 C 319.4375 346.421875 318.6875 346.792969 318.132812 347.53125 C 317.605469 348.242188 317.335938 349.289062 317.335938 350.652344 L 317.335938 369.273438 L 306.636719 350.667969 C 306.320312 350.085938 306.011719 349.53125 305.71875 349 C 305.40625 348.453125 305.097656 347.992188 304.804688 347.636719 C 304.488281 347.273438 304.121094 346.980469 303.703125 346.761719 C 303.273438 346.53125 302.765625 346.421875 302.179688 346.421875 C 301.429688 346.421875 300.726562 346.664062 300.085938 347.140625 C 299.445312 347.613281 298.984375 348.234375 298.710938 348.984375 C 298.480469 349.65625 298.375 350.539062 298.375 351.683594 L 298.375 377.519531 C 298.375 378.851562 298.648438 379.898438 299.195312 380.617188 C 299.769531 381.371094 300.539062 381.753906 301.484375 381.753906 C 302.398438 381.753906 303.164062 381.375 303.746094 380.636719 C 304.308594 379.921875 304.597656 378.871094 304.597656 377.519531 L 304.597656 359.210938 L 315.023438 377.585938 C 315.34375 378.121094 315.660156 378.640625 315.984375 379.15625 C 316.3125 379.6875 316.671875 380.152344 317.0625 380.550781 C 317.460938 380.960938 317.902344 381.269531 318.371094 381.460938 C 318.835938 381.65625 319.359375 381.753906 319.9375 381.753906 C 321.546875 381.753906 323.460938 380.929688 323.460938 376.996094 L 323.460938 350.652344 C 323.460938 349.289062 323.195312 348.242188 322.660156 347.53125 C 322.101562 346.792969 321.328125 346.421875 320.371094 346.421875 " fill-opacity="1" fill-rule="nonzero"/><path fill="#d6ecf2" d="M 348.96875 363.335938 C 348.011719 362.558594 346.84375 361.886719 345.480469 361.34375 C 344.144531 360.808594 342.628906 360.3125 340.988281 359.871094 C 339.6875 359.492188 338.742188 359.203125 338.183594 359.007812 C 337.636719 358.820312 337.09375 358.550781 336.558594 358.21875 C 336.050781 357.894531 335.644531 357.507812 335.355469 357.066406 C 335.074219 356.640625 334.929688 356.117188 334.929688 355.519531 C 334.929688 354.539062 335.347656 353.71875 336.207031 353.011719 C 337.074219 352.296875 338.246094 351.9375 339.675781 351.9375 C 341.214844 351.9375 342.339844 352.265625 343.011719 352.90625 C 343.714844 353.578125 344.332031 354.535156 344.847656 355.757812 C 345.277344 356.683594 345.667969 357.335938 346.046875 357.75 C 346.464844 358.210938 347.074219 358.445312 347.851562 358.445312 C 348.703125 358.445312 349.417969 358.074219 349.980469 357.339844 C 350.523438 356.632812 350.796875 355.832031 350.796875 354.949219 C 350.796875 354.023438 350.589844 353.0625 350.175781 352.09375 C 349.765625 351.128906 349.097656 350.191406 348.210938 349.320312 C 347.320312 348.445312 346.183594 347.738281 344.839844 347.210938 C 343.503906 346.6875 341.898438 346.421875 340.074219 346.421875 C 337.789062 346.421875 335.777344 346.824219 334.078125 347.605469 C 332.371094 348.402344 331.039062 349.558594 330.132812 351.042969 C 329.230469 352.527344 328.769531 354.234375 328.769531 356.136719 C 328.769531 358.128906 329.207031 359.824219 330.070312 361.179688 C 330.925781 362.527344 332.097656 363.601562 333.558594 364.386719 C 334.988281 365.144531 336.785156 365.820312 338.890625 366.386719 C 340.433594 366.796875 341.683594 367.179688 342.601562 367.542969 C 343.480469 367.882812 344.199219 368.386719 344.746094 369.03125 C 345.28125 369.652344 345.550781 370.492188 345.550781 371.511719 C 345.550781 372.816406 345.050781 373.878906 344.03125 374.753906 C 343.007812 375.628906 341.652344 376.078125 339.992188 376.078125 C 338.792969 376.078125 337.816406 375.859375 337.089844 375.425781 C 336.359375 374.996094 335.789062 374.4375 335.390625 373.777344 C 334.976562 373.082031 334.582031 372.207031 334.222656 371.167969 C 333.898438 370.230469 333.5 369.503906 333.042969 369.007812 C 332.542969 368.484375 331.929688 368.21875 331.207031 368.21875 C 330.335938 368.21875 329.609375 368.554688 329.042969 369.21875 C 328.492188 369.863281 328.21875 370.652344 328.21875 371.554688 C 328.21875 373.027344 328.644531 374.554688 329.496094 376.101562 C 330.347656 377.640625 331.476562 378.890625 332.84375 379.824219 C 334.761719 381.101562 337.21875 381.753906 340.152344 381.753906 C 342.597656 381.753906 344.746094 381.277344 346.539062 380.339844 C 348.339844 379.398438 349.726562 378.078125 350.664062 376.414062 C 351.597656 374.753906 352.070312 372.859375 352.070312 370.777344 C 352.070312 369.050781 351.796875 367.558594 351.257812 366.355469 C 350.710938 365.144531 349.945312 364.132812 348.96875 363.335938 " fill-opacity="1" fill-rule="nonzero"/><path fill="#d6ecf2" d="M 359.898438 346.421875 C 358.929688 346.421875 358.125 346.8125 357.515625 347.582031 C 356.925781 348.328125 356.621094 349.441406 356.621094 350.878906 L 356.621094 377.269531 C 356.621094 378.71875 356.925781 379.828125 357.523438 380.582031 C 358.136719 381.355469 358.941406 381.753906 359.898438 381.753906 C 360.890625 381.753906 361.707031 381.363281 362.324219 380.59375 C 362.917969 379.847656 363.222656 378.730469 363.222656 377.269531 L 363.222656 350.878906 C 363.222656 349.421875 362.917969 348.308594 362.324219 347.570312 C 361.707031 346.804688 360.886719 346.421875 359.898438 346.421875 " fill-opacity="1" fill-rule="nonzero"/><path fill="#d6ecf2" d="M 379.1875 353.234375 C 380.132812 352.75 381.183594 352.507812 382.304688 352.507812 C 383.875 352.507812 385.289062 352.949219 386.5 353.824219 C 387.71875 354.699219 388.667969 356.019531 389.335938 357.746094 C 390.003906 359.496094 390.339844 361.597656 390.339844 363.996094 C 390.339844 366.585938 389.972656 368.796875 389.246094 370.554688 C 388.527344 372.300781 387.550781 373.597656 386.351562 374.425781 C 385.148438 375.25 383.8125 375.667969 382.382812 375.667969 C 381.265625 375.667969 380.21875 375.425781 379.289062 374.945312 C 378.347656 374.472656 377.511719 373.742188 376.78125 372.777344 C 376.050781 371.804688 375.476562 370.554688 375.074219 369.070312 C 374.664062 367.566406 374.457031 365.859375 374.457031 363.996094 C 374.457031 362.148438 374.664062 360.460938 375.074219 358.980469 C 375.476562 357.515625 376.03125 356.296875 376.726562 355.359375 C 377.410156 354.433594 378.238281 353.71875 379.1875 353.234375 Z M 390.273438 348.589844 C 388.058594 347.152344 385.375 346.421875 382.304688 346.421875 C 380.035156 346.421875 377.976562 346.835938 376.191406 347.652344 C 374.402344 348.46875 372.859375 349.667969 371.609375 351.210938 C 370.375 352.75 369.410156 354.632812 368.757812 356.8125 C 368.105469 358.980469 367.773438 361.398438 367.773438 363.996094 C 367.773438 366.527344 368.089844 368.921875 368.714844 371.101562 C 369.339844 373.300781 370.28125 375.207031 371.511719 376.773438 C 372.742188 378.351562 374.300781 379.585938 376.148438 380.449219 C 377.988281 381.3125 380.097656 381.753906 382.421875 381.753906 C 384.753906 381.753906 386.855469 381.324219 388.667969 380.488281 C 390.484375 379.640625 392.039062 378.414062 393.289062 376.820312 C 394.53125 375.238281 395.476562 373.351562 396.09375 371.195312 C 396.714844 369.058594 397.023438 366.652344 397.023438 364.039062 C 397.023438 360.507812 396.453125 357.382812 395.328125 354.757812 C 394.191406 352.105469 392.484375 350.03125 390.273438 348.589844 " fill-opacity="1" fill-rule="nonzero"/><path fill="#d6ecf2" d="M 423.453125 346.421875 C 422.519531 346.421875 421.765625 346.792969 421.214844 347.53125 C 420.691406 348.242188 420.425781 349.289062 420.425781 350.652344 L 420.425781 369.273438 L 409.71875 350.667969 C 409.402344 350.085938 409.097656 349.53125 408.800781 349 C 408.488281 348.453125 408.183594 347.992188 407.886719 347.636719 C 407.574219 347.273438 407.203125 346.980469 406.785156 346.761719 C 406.363281 346.53125 405.847656 346.421875 405.261719 346.421875 C 404.515625 346.421875 403.808594 346.664062 403.167969 347.140625 C 402.53125 347.613281 402.074219 348.234375 401.792969 348.984375 C 401.570312 349.65625 401.457031 350.539062 401.457031 351.683594 L 401.457031 377.519531 C 401.457031 378.851562 401.730469 379.898438 402.285156 380.617188 C 402.847656 381.371094 403.621094 381.753906 404.566406 381.753906 C 405.484375 381.753906 406.242188 381.375 406.828125 380.636719 C 407.394531 379.921875 407.679688 378.871094 407.679688 377.519531 L 407.679688 359.210938 L 418.105469 377.585938 C 418.421875 378.121094 418.746094 378.640625 419.0625 379.15625 C 419.390625 379.6875 419.757812 380.152344 420.144531 380.550781 C 420.542969 380.964844 420.984375 381.269531 421.457031 381.460938 C 421.917969 381.65625 422.445312 381.753906 423.015625 381.753906 C 424.625 381.753906 426.546875 380.929688 426.546875 376.996094 L 426.546875 350.652344 C 426.546875 349.289062 426.273438 348.234375 425.738281 347.53125 C 425.179688 346.792969 424.414062 346.421875 423.453125 346.421875 " fill-opacity="1" fill-rule="nonzero"/><path fill="#d6ecf2" d="M 460.253906 346.992188 L 446.335938 346.992188 C 445.453125 346.992188 444.699219 347.148438 444.117188 347.457031 C 443.507812 347.773438 443.058594 348.289062 442.773438 348.980469 C 442.507812 349.636719 442.371094 350.484375 442.371094 351.496094 L 442.371094 377.269531 C 442.371094 378.730469 442.675781 379.847656 443.269531 380.59375 C 443.886719 381.363281 444.699219 381.753906 445.683594 381.753906 C 446.648438 381.753906 447.453125 381.363281 448.070312 380.605469 C 448.667969 379.867188 448.972656 378.742188 448.972656 377.269531 L 448.972656 366.585938 L 458.347656 366.585938 C 459.328125 366.585938 460.085938 366.316406 460.601562 365.796875 C 461.121094 365.269531 461.378906 364.566406 461.378906 363.695312 C 461.378906 362.832031 461.121094 362.125 460.617188 361.597656 C 460.105469 361.0625 459.339844 360.789062 458.347656 360.789062 L 448.972656 360.789062 L 448.972656 352.917969 L 460.253906 352.917969 C 461.292969 352.917969 462.082031 352.640625 462.605469 352.09375 C 463.121094 351.546875 463.382812 350.824219 463.382812 349.941406 C 463.382812 349.078125 463.121094 348.363281 462.605469 347.824219 C 462.082031 347.273438 461.292969 346.992188 460.253906 346.992188 " fill-opacity="1" fill-rule="nonzero"/><path fill="#d6ecf2" d="M 489 346.421875 C 488.007812 346.421875 487.199219 346.804688 486.601562 347.570312 C 486.023438 348.308594 485.730469 349.421875 485.730469 350.878906 L 485.730469 367.492188 C 485.730469 370.269531 485.273438 372.363281 484.359375 373.703125 C 483.46875 375.019531 481.957031 375.667969 479.757812 375.667969 C 478.171875 375.667969 476.929688 375.335938 476.070312 374.691406 C 475.207031 374.050781 474.597656 373.125 474.253906 371.953125 C 473.902344 370.734375 473.722656 369.1875 473.722656 367.355469 L 473.722656 350.878906 C 473.722656 349.441406 473.429688 348.328125 472.84375 347.582031 C 472.242188 346.8125 471.414062 346.421875 470.394531 346.421875 C 469.414062 346.421875 468.605469 346.8125 468 347.582031 C 467.417969 348.328125 467.125 349.441406 467.125 350.878906 L 467.125 366.988281 C 467.125 369.535156 467.367188 371.757812 467.851562 373.597656 C 468.335938 375.460938 469.121094 377.015625 470.171875 378.214844 C 471.226562 379.425781 472.609375 380.324219 474.273438 380.898438 C 475.921875 381.460938 477.90625 381.753906 480.175781 381.753906 C 482.089844 381.753906 483.785156 381.480469 485.226562 380.953125 C 486.675781 380.417969 487.964844 379.5625 489.058594 378.394531 C 490.324219 377.035156 491.203125 375.429688 491.65625 373.628906 C 492.105469 371.859375 492.332031 369.621094 492.332031 366.988281 L 492.332031 350.878906 C 492.332031 349.421875 492.027344 348.308594 491.425781 347.570312 C 490.8125 346.804688 489.996094 346.421875 489 346.421875 " fill-opacity="1" fill-rule="nonzero"/><path fill="#d6ecf2" d="M 520.097656 346.421875 C 519.160156 346.421875 518.40625 346.792969 517.859375 347.53125 C 517.332031 348.242188 517.0625 349.289062 517.0625 350.652344 L 517.0625 369.273438 L 506.363281 350.664062 C 506.046875 350.085938 505.738281 349.53125 505.4375 349 C 505.132812 348.453125 504.824219 347.992188 504.523438 347.636719 C 504.214844 347.273438 503.839844 346.980469 503.429688 346.761719 C 503 346.53125 502.492188 346.421875 501.90625 346.421875 C 501.15625 346.421875 500.445312 346.664062 499.804688 347.140625 C 499.171875 347.613281 498.710938 348.234375 498.433594 348.984375 C 498.207031 349.65625 498.097656 350.539062 498.097656 351.683594 L 498.097656 377.519531 C 498.097656 378.851562 498.375 379.898438 498.921875 380.617188 C 499.496094 381.371094 500.261719 381.753906 501.210938 381.753906 C 502.125 381.753906 502.882812 381.375 503.46875 380.636719 C 504.035156 379.921875 504.320312 378.871094 504.320312 377.519531 L 504.320312 359.210938 L 514.746094 377.585938 C 515.070312 378.121094 515.386719 378.640625 515.703125 379.15625 C 516.03125 379.6875 516.398438 380.152344 516.785156 380.550781 C 517.1875 380.964844 517.628906 381.269531 518.097656 381.460938 C 518.554688 381.65625 519.085938 381.753906 519.65625 381.753906 C 521.265625 381.753906 523.1875 380.929688 523.1875 376.996094 L 523.1875 350.652344 C 523.1875 349.289062 522.914062 348.234375 522.378906 347.53125 C 521.828125 346.792969 521.054688 346.421875 520.097656 346.421875 " fill-opacity="1" fill-rule="nonzero"/><path fill="#d6ecf2" d="M 547.917969 363.949219 C 547.917969 368.523438 546.953125 371.773438 545.058594 373.621094 C 544.65625 374.027344 544.167969 374.351562 543.621094 374.574219 C 543.054688 374.804688 542.507812 374.945312 541.988281 375.003906 C 541.445312 375.0625 540.683594 375.09375 539.71875 375.09375 L 535.589844 375.09375 L 535.589844 353.054688 L 539.140625 353.054688 C 540.894531 353.054688 542.410156 353.277344 543.636719 353.714844 C 544.820312 354.128906 545.835938 355.128906 546.65625 356.6875 C 547.496094 358.273438 547.917969 360.714844 547.917969 363.949219 Z M 549.945312 350.136719 C 548.746094 348.925781 547.382812 348.089844 545.902344 347.644531 C 544.441406 347.210938 542.675781 346.992188 540.652344 346.992188 L 532.960938 346.992188 C 531.585938 346.992188 530.566406 347.363281 529.933594 348.097656 C 529.3125 348.8125 528.996094 349.957031 528.996094 351.496094 L 528.996094 376.058594 C 528.996094 377.164062 529.082031 378.078125 529.25 378.777344 C 529.4375 379.535156 529.839844 380.140625 530.457031 380.5625 C 531.066406 380.976562 531.921875 381.183594 533.078125 381.183594 L 540.769531 381.183594 C 542.128906 381.183594 543.359375 381.078125 544.441406 380.878906 C 545.539062 380.671875 546.582031 380.320312 547.53125 379.816406 C 548.488281 379.3125 549.386719 378.636719 550.1875 377.804688 C 551.207031 376.734375 552.046875 375.5 552.699219 374.136719 C 553.34375 372.785156 553.832031 371.242188 554.136719 369.566406 C 554.445312 367.890625 554.601562 366.019531 554.601562 363.996094 C 554.601562 357.839844 553.035156 353.171875 549.945312 350.136719 " fill-opacity="1" fill-rule="nonzero"/></svg>