<svg xmlns="http://www.w3.org/2000/svg" xmlns:xlink="http://www.w3.org/1999/xlink" width="1080" zoomAndPan="magnify" viewBox="0 0 810 809.999993" height="1080" preserveAspectRatio="xMidYMid meet" version="1.0"><defs><g/><clipPath id="98c476d0ec"><path d="M 164.5 81 L 522 81 L 522 439 L 164.5 439 Z M 164.5 81 " clip-rule="nonzero"/></clipPath><clipPath id="79bdc8c0a7"><path d="M 403.21875 80.949219 C 281.21875 80.949219 288.835938 133.890625 288.835938 133.890625 L 288.972656 188.742188 L 405.382812 188.742188 L 405.382812 205.210938 L 242.734375 205.210938 C 242.734375 205.210938 164.671875 196.351562 164.671875 319.535156 C 164.671875 442.726562 232.804688 438.359375 232.804688 438.359375 L 273.46875 438.359375 L 273.46875 381.1875 C 273.46875 381.1875 271.277344 313 340.515625 313 L 455.980469 313 C 455.980469 313 520.839844 314.054688 520.839844 250.261719 L 520.839844 144.78125 C 520.839844 144.78125 530.699219 80.949219 403.21875 80.949219 Z M 339.019531 117.832031 C 350.601562 117.832031 359.957031 127.199219 359.957031 138.792969 C 359.957031 150.382812 350.601562 159.753906 339.019531 159.753906 C 327.4375 159.753906 318.074219 150.382812 318.074219 138.792969 C 318.074219 127.199219 327.4375 117.832031 339.019531 117.832031 Z M 339.019531 117.832031 " clip-rule="nonzero"/></clipPath><linearGradient x1="0.0041684" gradientTransform="matrix(356.344357, 0, 0, 357.431057, 164.671694, 80.947769)" y1="-0.00405725" x2="1.027757" gradientUnits="userSpaceOnUse" y2="1.01158" id="5cc2310ab5"><stop stop-opacity="1" stop-color="rgb(21.998596%, 49.398804%, 72.198486%)" offset="0"/><stop stop-opacity="1" stop-color="rgb(21.99707%, 49.383545%, 72.171021%)" offset="0.125"/><stop stop-opacity="1" stop-color="rgb(21.986389%, 49.269104%, 71.974182%)" offset="0.140625"/><stop stop-opacity="1" stop-color="rgb(21.966553%, 49.072266%, 71.633911%)" offset="0.15625"/><stop stop-opacity="1" stop-color="rgb(21.948242%, 48.875427%, 71.29364%)" offset="0.171875"/><stop stop-opacity="1" stop-color="rgb(21.928406%, 48.678589%, 70.953369%)" offset="0.1875"/><stop stop-opacity="1" stop-color="rgb(21.910095%, 48.48175%, 70.611572%)" offset="0.203125"/><stop stop-opacity="1" stop-color="rgb(21.890259%, 48.286438%, 70.271301%)" offset="0.21875"/><stop stop-opacity="1" stop-color="rgb(21.870422%, 48.0896%, 69.93103%)" offset="0.234375"/><stop stop-opacity="1" stop-color="rgb(21.852112%, 47.892761%, 69.590759%)" offset="0.25"/><stop stop-opacity="1" stop-color="rgb(21.832275%, 47.695923%, 69.250488%)" offset="0.265625"/><stop stop-opacity="1" stop-color="rgb(21.813965%, 47.499084%, 68.908691%)" offset="0.28125"/><stop stop-opacity="1" stop-color="rgb(21.794128%, 47.302246%, 68.56842%)" offset="0.296875"/><stop stop-opacity="1" stop-color="rgb(21.775818%, 47.105408%, 68.228149%)" offset="0.3125"/><stop stop-opacity="1" stop-color="rgb(21.755981%, 46.908569%, 67.887878%)" offset="0.328125"/><stop stop-opacity="1" stop-color="rgb(21.736145%, 46.711731%, 67.546082%)" offset="0.34375"/><stop stop-opacity="1" stop-color="rgb(21.717834%, 46.514893%, 67.205811%)" offset="0.359375"/><stop stop-opacity="1" stop-color="rgb(21.697998%, 46.31958%, 66.86554%)" offset="0.375"/><stop stop-opacity="1" stop-color="rgb(21.679688%, 46.122742%, 66.525269%)" offset="0.390625"/><stop stop-opacity="1" stop-color="rgb(21.659851%, 45.925903%, 66.184998%)" offset="0.40625"/><stop stop-opacity="1" stop-color="rgb(21.641541%, 45.729065%, 65.843201%)" offset="0.421875"/><stop stop-opacity="1" stop-color="rgb(21.621704%, 45.532227%, 65.50293%)" offset="0.4375"/><stop stop-opacity="1" stop-color="rgb(21.601868%, 45.335388%, 65.162659%)" offset="0.453125"/><stop stop-opacity="1" stop-color="rgb(21.583557%, 45.13855%, 64.822388%)" offset="0.46875"/><stop stop-opacity="1" stop-color="rgb(21.563721%, 44.941711%, 64.482117%)" offset="0.484375"/><stop stop-opacity="1" stop-color="rgb(21.54541%, 44.744873%, 64.14032%)" offset="0.494335"/><stop stop-opacity="1" stop-color="rgb(21.536255%, 44.647217%, 63.970947%)" offset="0.5"/><stop stop-opacity="1" stop-color="rgb(21.525574%, 44.548035%, 63.800049%)" offset="0.505665"/><stop stop-opacity="1" stop-color="rgb(21.516418%, 44.450378%, 63.630676%)" offset="0.515625"/><stop stop-opacity="1" stop-color="rgb(21.505737%, 44.352722%, 63.459778%)" offset="0.53125"/><stop stop-opacity="1" stop-color="rgb(21.487427%, 44.155884%, 63.119507%)" offset="0.546875"/><stop stop-opacity="1" stop-color="rgb(21.46759%, 43.959045%, 62.77771%)" offset="0.5625"/><stop stop-opacity="1" stop-color="rgb(21.44928%, 43.762207%, 62.437439%)" offset="0.578125"/><stop stop-opacity="1" stop-color="rgb(21.429443%, 43.565369%, 62.097168%)" offset="0.59375"/><stop stop-opacity="1" stop-color="rgb(21.411133%, 43.36853%, 61.756897%)" offset="0.609375"/><stop stop-opacity="1" stop-color="rgb(21.391296%, 43.171692%, 61.416626%)" offset="0.625"/><stop stop-opacity="1" stop-color="rgb(21.37146%, 42.974854%, 61.074829%)" offset="0.640625"/><stop stop-opacity="1" stop-color="rgb(21.353149%, 42.778015%, 60.734558%)" offset="0.65625"/><stop stop-opacity="1" stop-color="rgb(21.333313%, 42.582703%, 60.394287%)" offset="0.671875"/><stop stop-opacity="1" stop-color="rgb(21.315002%, 42.385864%, 60.054016%)" offset="0.6875"/><stop stop-opacity="1" stop-color="rgb(21.295166%, 42.189026%, 59.713745%)" offset="0.703125"/><stop stop-opacity="1" stop-color="rgb(21.276855%, 41.992188%, 59.371948%)" offset="0.71875"/><stop stop-opacity="1" stop-color="rgb(21.257019%, 41.795349%, 59.031677%)" offset="0.734375"/><stop stop-opacity="1" stop-color="rgb(21.237183%, 41.598511%, 58.691406%)" offset="0.75"/><stop stop-opacity="1" stop-color="rgb(21.218872%, 41.401672%, 58.351135%)" offset="0.765625"/><stop stop-opacity="1" stop-color="rgb(21.203613%, 41.25061%, 58.09021%)" offset="0.78125"/><stop stop-opacity="1" stop-color="rgb(21.199036%, 41.19873%, 57.998657%)" offset="0.8125"/><stop stop-opacity="1" stop-color="rgb(21.199036%, 41.19873%, 57.998657%)" offset="0.875"/><stop stop-opacity="1" stop-color="rgb(21.199036%, 41.19873%, 57.998657%)" offset="1"/></linearGradient><clipPath id="01719e9cb0"><path d="M 288 201 L 645.25 201 L 645.25 559.5 L 288 559.5 Z M 288 201 " clip-rule="nonzero"/></clipPath><clipPath id="fe74eb0523"><path d="M 406.679688 559.367188 C 528.667969 559.367188 521.046875 506.414062 521.046875 506.414062 L 520.914062 451.558594 L 404.496094 451.558594 L 404.496094 435.101562 L 567.144531 435.101562 C 567.144531 435.101562 645.214844 443.953125 645.214844 320.777344 C 645.214844 197.585938 577.082031 201.953125 577.082031 201.953125 L 536.417969 201.953125 L 536.417969 259.117188 C 536.417969 259.117188 538.601562 327.3125 469.375 327.3125 L 353.898438 327.3125 C 353.898438 327.3125 289.039062 326.257812 289.039062 390.058594 L 289.039062 495.53125 C 289.039062 495.53125 279.1875 559.367188 406.679688 559.367188 Z M 470.863281 522.476562 C 459.289062 522.476562 449.917969 513.101562 449.917969 501.519531 C 449.917969 489.917969 459.289062 480.558594 470.863281 480.558594 C 482.453125 480.558594 491.804688 489.917969 491.804688 501.519531 C 491.804688 513.101562 482.453125 522.476562 470.863281 522.476562 Z M 470.863281 522.476562 " clip-rule="nonzero"/></clipPath><linearGradient x1="-0.0326453" gradientTransform="matrix(356.355157, 0, 0, 357.432857, 288.860781, 201.935378)" y1="-0.00636593" x2="1.013978" gradientUnits="userSpaceOnUse" y2="0.985247" id="1dbd01956c"><stop stop-opacity="1" stop-color="rgb(100%, 87.799072%, 32.199097%)" offset="0"/><stop stop-opacity="1" stop-color="rgb(100%, 87.799072%, 32.199097%)" offset="0.125"/><stop stop-opacity="1" stop-color="rgb(100%, 87.799072%, 32.199097%)" offset="0.1875"/><stop stop-opacity="1" stop-color="rgb(100%, 87.759399%, 32.15332%)" offset="0.21875"/><stop stop-opacity="1" stop-color="rgb(100%, 87.590027%, 31.959534%)" offset="0.234375"/><stop stop-opacity="1" stop-color="rgb(100%, 87.332153%, 31.661987%)" offset="0.25"/><stop stop-opacity="1" stop-color="rgb(100%, 87.07428%, 31.365967%)" offset="0.265625"/><stop stop-opacity="1" stop-color="rgb(100%, 86.816406%, 31.06842%)" offset="0.28125"/><stop stop-opacity="1" stop-color="rgb(100%, 86.558533%, 30.7724%)" offset="0.296875"/><stop stop-opacity="1" stop-color="rgb(100%, 86.300659%, 30.474854%)" offset="0.3125"/><stop stop-opacity="1" stop-color="rgb(100%, 86.04126%, 30.177307%)" offset="0.328125"/><stop stop-opacity="1" stop-color="rgb(100%, 85.783386%, 29.881287%)" offset="0.34375"/><stop stop-opacity="1" stop-color="rgb(100%, 85.525513%, 29.58374%)" offset="0.359375"/><stop stop-opacity="1" stop-color="rgb(100%, 85.267639%, 29.28772%)" offset="0.375"/><stop stop-opacity="1" stop-color="rgb(100%, 85.009766%, 28.990173%)" offset="0.390625"/><stop stop-opacity="1" stop-color="rgb(100%, 84.751892%, 28.694153%)" offset="0.40625"/><stop stop-opacity="1" stop-color="rgb(100%, 84.494019%, 28.396606%)" offset="0.421875"/><stop stop-opacity="1" stop-color="rgb(100%, 84.236145%, 28.100586%)" offset="0.4375"/><stop stop-opacity="1" stop-color="rgb(100%, 83.978271%, 27.80304%)" offset="0.453125"/><stop stop-opacity="1" stop-color="rgb(100%, 83.720398%, 27.505493%)" offset="0.46875"/><stop stop-opacity="1" stop-color="rgb(100%, 83.460999%, 27.209473%)" offset="0.482837"/><stop stop-opacity="1" stop-color="rgb(100%, 83.332825%, 27.061462%)" offset="0.484375"/><stop stop-opacity="1" stop-color="rgb(100%, 83.203125%, 26.911926%)" offset="0.5"/><stop stop-opacity="1" stop-color="rgb(100%, 82.945251%, 26.615906%)" offset="0.515625"/><stop stop-opacity="1" stop-color="rgb(100%, 82.687378%, 26.318359%)" offset="0.517163"/><stop stop-opacity="1" stop-color="rgb(100%, 82.559204%, 26.170349%)" offset="0.53125"/><stop stop-opacity="1" stop-color="rgb(100%, 82.429504%, 26.022339%)" offset="0.546875"/><stop stop-opacity="1" stop-color="rgb(100%, 82.171631%, 25.724792%)" offset="0.5625"/><stop stop-opacity="1" stop-color="rgb(100%, 81.913757%, 25.428772%)" offset="0.578125"/><stop stop-opacity="1" stop-color="rgb(100%, 81.655884%, 25.131226%)" offset="0.59375"/><stop stop-opacity="1" stop-color="rgb(100%, 81.39801%, 24.835205%)" offset="0.609375"/><stop stop-opacity="1" stop-color="rgb(100%, 81.138611%, 24.537659%)" offset="0.625"/><stop stop-opacity="1" stop-color="rgb(100%, 80.880737%, 24.240112%)" offset="0.640625"/><stop stop-opacity="1" stop-color="rgb(100%, 80.622864%, 23.944092%)" offset="0.65625"/><stop stop-opacity="1" stop-color="rgb(100%, 80.36499%, 23.646545%)" offset="0.671875"/><stop stop-opacity="1" stop-color="rgb(100%, 80.107117%, 23.350525%)" offset="0.6875"/><stop stop-opacity="1" stop-color="rgb(100%, 79.849243%, 23.052979%)" offset="0.703125"/><stop stop-opacity="1" stop-color="rgb(100%, 79.59137%, 22.756958%)" offset="0.71875"/><stop stop-opacity="1" stop-color="rgb(100%, 79.333496%, 22.459412%)" offset="0.734375"/><stop stop-opacity="1" stop-color="rgb(100%, 79.075623%, 22.163391%)" offset="0.75"/><stop stop-opacity="1" stop-color="rgb(100%, 78.816223%, 21.865845%)" offset="0.765625"/><stop stop-opacity="1" stop-color="rgb(100%, 78.55835%, 21.568298%)" offset="0.78125"/><stop stop-opacity="1" stop-color="rgb(100%, 78.300476%, 21.272278%)" offset="0.796875"/><stop stop-opacity="1" stop-color="rgb(100%, 78.042603%, 20.974731%)" offset="0.8125"/><stop stop-opacity="1" stop-color="rgb(100%, 77.784729%, 20.678711%)" offset="0.828125"/><stop stop-opacity="1" stop-color="rgb(100%, 77.526855%, 20.381165%)" offset="0.84375"/><stop stop-opacity="1" stop-color="rgb(100%, 77.268982%, 20.085144%)" offset="0.859375"/><stop stop-opacity="1" stop-color="rgb(100%, 77.011108%, 19.787598%)" offset="0.875"/><stop stop-opacity="1" stop-color="rgb(100%, 76.753235%, 19.491577%)" offset="0.890625"/><stop stop-opacity="1" stop-color="rgb(100%, 76.560974%, 19.270325%)" offset="0.90625"/><stop stop-opacity="1" stop-color="rgb(100%, 76.499939%, 19.198608%)" offset="0.9375"/><stop stop-opacity="1" stop-color="rgb(100%, 76.499939%, 19.198608%)" offset="1"/></linearGradient></defs><rect x="-81" width="972" fill="#ffffff" y="-80.999999" height="971.999992" fill-opacity="1"/><rect x="-81" width="972" fill="#ffffff" y="-80.999999" height="971.999992" fill-opacity="1"/><g clip-path="url(#98c476d0ec)"><g clip-path="url(#79bdc8c0a7)"><path fill="url(#5cc2310ab5)" d="M 164.671875 81 L 164.671875 442.726562 L 530.699219 442.726562 L 530.699219 81 Z M 164.671875 81 " fill-rule="nonzero"/></g></g><g clip-path="url(#01719e9cb0)"><g clip-path="url(#fe74eb0523)"><path fill="url(#1dbd01956c)" d="M 279.1875 197.585938 L 279.1875 559.367188 L 645.214844 559.367188 L 645.214844 197.585938 Z M 279.1875 197.585938 " fill-rule="nonzero"/></g></g><g fill="#000000" fill-opacity="1"><g transform="translate(54.662411, 717.151319)"><g><path d="M 31.082031 -59.925781 L 6.074219 -59.925781 L 6.074219 0 L 18.539062 0 L 18.539062 -24.53125 L 31.082031 -24.53125 C 36.035156 -24.53125 40.269531 -26.207031 43.707031 -29.5625 C 47.144531 -32.921875 48.902344 -37.074219 48.902344 -42.027344 C 48.902344 -46.984375 47.144531 -51.136719 43.707031 -54.652344 C 40.191406 -58.167969 36.035156 -59.925781 31.082031 -59.925781 Z M 29.164062 -34.917969 L 18.539062 -34.917969 L 18.539062 -48.902344 L 29.164062 -48.902344 C 31.402344 -48.902344 33.238281 -48.183594 34.679688 -46.902344 C 36.117188 -45.625 36.914062 -43.945312 36.914062 -41.871094 C 36.914062 -39.792969 36.117188 -38.113281 34.679688 -36.835938 C 33.238281 -35.558594 31.402344 -34.917969 29.164062 -34.917969 Z M 29.164062 -34.917969 "/></g></g></g><g fill="#000000" fill-opacity="1"><g transform="translate(104.040758, 717.151319)"><g><path d="M 30.363281 -39.953125 L 21.734375 -15.582031 L 12.863281 -39.953125 L -0.320312 -39.953125 L 15.902344 -1.597656 L 7.113281 19.976562 L 19.496094 19.976562 L 27.007812 0.957031 L 43.46875 -39.953125 Z M 30.363281 -39.953125 "/></g></g></g><g fill="#000000" fill-opacity="1"><g transform="translate(147.186882, 717.151319)"><g><path d="M 28.527344 -39.953125 L 21.015625 -39.953125 L 21.015625 -54.335938 L 8.949219 -54.335938 L 8.949219 -39.953125 L 1.4375 -39.953125 L 1.4375 -30.601562 L 8.949219 -30.601562 L 8.949219 0 L 21.015625 0 L 21.015625 -30.601562 L 28.527344 -30.601562 Z M 28.527344 -39.953125 "/></g></g></g><g fill="#000000" fill-opacity="1"><g transform="translate(177.149472, 717.151319)"><g><path d="M 28.925781 -40.75 C 24.53125 -40.75 20.933594 -39.074219 18.136719 -35.875 L 18.136719 -59.925781 L 6.074219 -59.925781 L 6.074219 0 L 18.136719 0 L 18.136719 -23.890625 C 18.136719 -25.648438 18.855469 -27.085938 20.214844 -28.285156 C 21.492188 -29.484375 23.171875 -30.125 25.25 -30.125 C 27.085938 -30.125 28.605469 -29.5625 29.804688 -28.445312 C 30.921875 -27.328125 31.5625 -25.886719 31.5625 -24.128906 L 31.5625 0 L 43.628906 0 L 43.628906 -25.570312 C 43.628906 -29.882812 42.1875 -33.480469 39.472656 -36.355469 C 36.675781 -39.234375 33.160156 -40.75 28.925781 -40.75 Z M 28.925781 -40.75 "/></g></g></g><g fill="#000000" fill-opacity="1"><g transform="translate(225.888615, 717.151319)"><g><path d="M 25.328125 0.800781 C 31.480469 0.800781 36.675781 -1.199219 40.992188 -5.195312 C 45.226562 -9.1875 47.382812 -14.144531 47.382812 -19.976562 C 47.382812 -25.730469 45.226562 -30.683594 40.992188 -34.679688 C 36.675781 -38.671875 31.480469 -40.75 25.328125 -40.75 C 19.175781 -40.75 13.984375 -38.671875 9.667969 -34.679688 C 5.355469 -30.683594 3.277344 -25.730469 3.277344 -19.976562 C 3.277344 -14.144531 5.355469 -9.1875 9.667969 -5.195312 C 13.984375 -1.199219 19.175781 0.800781 25.328125 0.800781 Z M 25.328125 -9.988281 C 22.453125 -9.988281 20.136719 -10.945312 18.21875 -12.863281 C 16.300781 -14.78125 15.339844 -17.179688 15.339844 -19.976562 C 15.339844 -22.773438 16.300781 -25.167969 18.21875 -27.085938 C 20.136719 -29.003906 22.53125 -30.042969 25.328125 -30.042969 C 28.046875 -30.042969 30.441406 -29.003906 32.441406 -27.085938 C 34.359375 -25.089844 35.398438 -22.691406 35.398438 -19.976562 C 35.398438 -17.179688 34.359375 -14.78125 32.441406 -12.863281 C 30.441406 -10.945312 28.046875 -9.988281 25.328125 -9.988281 Z M 25.328125 -9.988281 "/></g></g></g><g fill="#000000" fill-opacity="1"><g transform="translate(276.545361, 717.151319)"><g><path d="M 29.324219 -40.75 C 24.691406 -40.75 21.015625 -39.074219 18.136719 -35.875 L 18.136719 -39.953125 L 6.074219 -39.953125 L 6.074219 0 L 18.136719 0 L 18.136719 -23.890625 C 18.136719 -25.648438 18.855469 -27.085938 20.214844 -28.285156 C 21.492188 -29.484375 23.171875 -30.125 25.25 -30.125 C 27.085938 -30.125 28.605469 -29.5625 29.804688 -28.445312 C 30.921875 -27.328125 31.5625 -25.886719 31.5625 -24.128906 L 31.5625 0 L 43.628906 0 L 43.628906 -25.570312 C 43.628906 -29.882812 42.1875 -33.480469 39.472656 -36.355469 C 36.675781 -39.234375 33.320312 -40.75 29.324219 -40.75 Z M 29.324219 -40.75 "/></g></g></g><g fill="#000000" fill-opacity="1"><g transform="translate(325.284504, 717.151319)"><g/></g></g><g fill="#000000" fill-opacity="1"><g transform="translate(346.537983, 717.151319)"><g><path d="M 11.984375 -47.304688 C 13.742188 -47.304688 15.339844 -47.941406 16.699219 -49.300781 C 18.058594 -50.578125 18.777344 -52.175781 18.777344 -54.015625 C 18.777344 -55.851562 18.058594 -57.449219 16.78125 -58.730469 C 15.421875 -60.007812 13.824219 -60.726562 11.984375 -60.726562 C 10.148438 -60.726562 8.550781 -60.007812 7.269531 -58.730469 C 5.914062 -57.449219 5.273438 -55.851562 5.273438 -54.015625 C 5.273438 -52.175781 5.914062 -50.578125 7.269531 -49.300781 C 8.550781 -47.941406 10.148438 -47.304688 11.984375 -47.304688 Z M 5.992188 0 L 17.976562 0 L 17.976562 -39.953125 L 5.992188 -39.953125 Z M 5.992188 0 "/></g></g></g><g fill="#000000" fill-opacity="1"><g transform="translate(370.587964, 717.151319)"><g><path d="M 29.324219 -40.75 C 24.691406 -40.75 21.015625 -39.074219 18.136719 -35.875 L 18.136719 -39.953125 L 6.074219 -39.953125 L 6.074219 0 L 18.136719 0 L 18.136719 -23.890625 C 18.136719 -25.648438 18.855469 -27.085938 20.214844 -28.285156 C 21.492188 -29.484375 23.171875 -30.125 25.25 -30.125 C 27.085938 -30.125 28.605469 -29.5625 29.804688 -28.445312 C 30.921875 -27.328125 31.5625 -25.886719 31.5625 -24.128906 L 31.5625 0 L 43.628906 0 L 43.628906 -25.570312 C 43.628906 -29.882812 42.1875 -33.480469 39.472656 -36.355469 C 36.675781 -39.234375 33.320312 -40.75 29.324219 -40.75 Z M 29.324219 -40.75 "/></g></g></g><g fill="#000000" fill-opacity="1"><g transform="translate(419.327107, 717.151319)"><g/></g></g><g fill="#000000" fill-opacity="1"><g transform="translate(440.580586, 717.151319)"><g><path d="M 43.386719 -48.902344 L 43.386719 -59.925781 L 6.550781 -59.925781 L 6.550781 0 L 19.015625 0 L 19.015625 -24.449219 L 40.03125 -24.449219 L 40.03125 -35.476562 L 19.015625 -35.476562 L 19.015625 -48.902344 Z M 43.386719 -48.902344 "/></g></g></g><g fill="#000000" fill-opacity="1"><g transform="translate(485.564393, 717.151319)"><g><path d="M 11.984375 -47.304688 C 13.742188 -47.304688 15.339844 -47.941406 16.699219 -49.300781 C 18.058594 -50.578125 18.777344 -52.175781 18.777344 -54.015625 C 18.777344 -55.851562 18.058594 -57.449219 16.78125 -58.730469 C 15.421875 -60.007812 13.824219 -60.726562 11.984375 -60.726562 C 10.148438 -60.726562 8.550781 -60.007812 7.269531 -58.730469 C 5.914062 -57.449219 5.273438 -55.851562 5.273438 -54.015625 C 5.273438 -52.175781 5.914062 -50.578125 7.269531 -49.300781 C 8.550781 -47.941406 10.148438 -47.304688 11.984375 -47.304688 Z M 5.992188 0 L 17.976562 0 L 17.976562 -39.953125 L 5.992188 -39.953125 Z M 5.992188 0 "/></g></g></g><g fill="#000000" fill-opacity="1"><g transform="translate(509.614374, 717.151319)"><g><path d="M 29.324219 -40.75 C 24.691406 -40.75 21.015625 -39.074219 18.136719 -35.875 L 18.136719 -39.953125 L 6.074219 -39.953125 L 6.074219 0 L 18.136719 0 L 18.136719 -23.890625 C 18.136719 -25.648438 18.855469 -27.085938 20.214844 -28.285156 C 21.492188 -29.484375 23.171875 -30.125 25.25 -30.125 C 27.085938 -30.125 28.605469 -29.5625 29.804688 -28.445312 C 30.921875 -27.328125 31.5625 -25.886719 31.5625 -24.128906 L 31.5625 0 L 43.628906 0 L 43.628906 -25.570312 C 43.628906 -29.882812 42.1875 -33.480469 39.472656 -36.355469 C 36.675781 -39.234375 33.320312 -40.75 29.324219 -40.75 Z M 29.324219 -40.75 "/></g></g></g><g fill="#000000" fill-opacity="1"><g transform="translate(558.353542, 717.151319)"><g><path d="M 34.835938 -39.953125 L 34.835938 -35.875 C 31.882812 -39.074219 27.886719 -40.75 22.851562 -40.75 C 17.417969 -40.75 12.785156 -38.671875 8.949219 -34.679688 C 5.113281 -30.601562 3.277344 -25.730469 3.277344 -19.976562 C 3.277344 -14.222656 5.113281 -9.269531 8.949219 -5.273438 C 12.785156 -1.199219 17.417969 0.800781 22.851562 0.800781 C 27.886719 0.800781 31.882812 -0.800781 34.835938 -4.074219 L 34.835938 0 L 46.824219 0 L 46.824219 -39.953125 Z M 25.328125 -9.988281 C 22.453125 -9.988281 20.136719 -10.945312 18.21875 -12.863281 C 16.300781 -14.78125 15.339844 -17.179688 15.339844 -19.976562 C 15.339844 -22.773438 16.300781 -25.167969 18.21875 -27.085938 C 20.136719 -29.003906 22.53125 -30.042969 25.328125 -30.042969 C 28.125 -30.042969 30.523438 -29.003906 32.441406 -27.085938 C 34.359375 -25.089844 35.398438 -22.691406 35.398438 -19.976562 C 35.398438 -17.179688 34.359375 -14.78125 32.441406 -12.863281 C 30.523438 -10.945312 28.125 -9.988281 25.328125 -9.988281 Z M 25.328125 -9.988281 "/></g></g></g><g fill="#000000" fill-opacity="1"><g transform="translate(611.247467, 717.151319)"><g><path d="M 29.324219 -40.75 C 24.691406 -40.75 21.015625 -39.074219 18.136719 -35.875 L 18.136719 -39.953125 L 6.074219 -39.953125 L 6.074219 0 L 18.136719 0 L 18.136719 -23.890625 C 18.136719 -25.648438 18.855469 -27.085938 20.214844 -28.285156 C 21.492188 -29.484375 23.171875 -30.125 25.25 -30.125 C 27.085938 -30.125 28.605469 -29.5625 29.804688 -28.445312 C 30.921875 -27.328125 31.5625 -25.886719 31.5625 -24.128906 L 31.5625 0 L 43.628906 0 L 43.628906 -25.570312 C 43.628906 -29.882812 42.1875 -33.480469 39.472656 -36.355469 C 36.675781 -39.234375 33.320312 -40.75 29.324219 -40.75 Z M 29.324219 -40.75 "/></g></g></g><g fill="#000000" fill-opacity="1"><g transform="translate(659.986584, 717.151319)"><g><path d="M 25.410156 0.800781 C 29.964844 0.800781 34.039062 -0.320312 37.554688 -2.558594 C 41.070312 -4.792969 43.628906 -7.992188 45.304688 -12.144531 L 34.679688 -16.300781 C 33.957031 -14.382812 32.761719 -12.785156 31.164062 -11.664062 C 29.5625 -10.546875 27.648438 -9.988281 25.410156 -9.988281 C 22.371094 -9.988281 19.976562 -10.867188 18.136719 -12.703125 C 16.21875 -14.542969 15.339844 -16.941406 15.339844 -19.976562 C 15.339844 -22.933594 16.21875 -25.328125 18.136719 -27.246094 C 19.976562 -29.085938 22.371094 -30.042969 25.410156 -30.042969 C 27.566406 -30.042969 29.484375 -29.40625 31.164062 -28.285156 C 32.761719 -27.167969 33.957031 -25.570312 34.679688 -23.652344 L 45.304688 -27.886719 C 43.628906 -31.960938 41.070312 -35.15625 37.554688 -37.394531 C 34.039062 -39.632812 29.964844 -40.75 25.410156 -40.75 C 19.097656 -40.75 13.824219 -38.753906 9.589844 -34.835938 C 5.355469 -30.921875 3.277344 -25.96875 3.277344 -19.976562 C 3.277344 -13.902344 5.355469 -8.949219 9.589844 -5.035156 C 13.824219 -1.117188 19.097656 0.800781 25.410156 0.800781 Z M 25.410156 0.800781 "/></g></g></g><g fill="#000000" fill-opacity="1"><g transform="translate(706.967926, 717.151319)"><g><path d="M 45.066406 -20.375 C 44.984375 -26.527344 43.066406 -31.480469 39.390625 -35.238281 C 35.636719 -38.914062 30.761719 -40.832031 24.851562 -40.832031 C 18.378906 -40.832031 13.183594 -38.832031 9.1875 -34.835938 C 5.195312 -30.84375 3.277344 -25.886719 3.277344 -19.976562 C 3.277344 -13.902344 5.113281 -8.871094 8.949219 -5.035156 C 12.785156 -1.117188 18.21875 0.800781 25.328125 0.800781 C 29.40625 0.800781 33.078125 -0.160156 36.4375 -2.15625 C 39.792969 -4.074219 42.1875 -6.792969 43.707031 -10.148438 L 33.957031 -14.144531 C 32.199219 -10.628906 29.164062 -8.871094 24.929688 -8.871094 C 22.453125 -8.871094 20.375 -9.589844 18.617188 -11.1875 C 16.859375 -12.785156 15.820312 -14.941406 15.5 -17.660156 L 44.90625 -17.660156 Z M 24.53125 -31.402344 C 28.527344 -31.402344 31.242188 -29.40625 32.601562 -25.488281 L 16.21875 -25.488281 C 17.660156 -29.40625 20.457031 -31.402344 24.53125 -31.402344 Z M 24.53125 -31.402344 "/></g></g></g></svg>