<svg xmlns="http://www.w3.org/2000/svg" xmlns:xlink="http://www.w3.org/1999/xlink" width="1080" zoomAndPan="magnify" viewBox="0 0 810 809.999993" height="1080" preserveAspectRatio="xMidYMid meet" version="1.0"><defs><clipPath id="a8fc84c6e7"><path d="M 272 188.230469 L 530 188.230469 L 530 446 L 272 446 Z M 272 188.230469 " clip-rule="nonzero"/></clipPath><clipPath id="90f6a959d1"><path d="M 314.292969 187.9375 L 488.074219 187.9375 C 489.433594 187.9375 490.789062 188.003906 492.140625 188.136719 C 493.492188 188.269531 494.832031 188.46875 496.164062 188.734375 C 497.496094 189 498.8125 189.328125 500.113281 189.722656 C 501.414062 190.117188 502.691406 190.574219 503.945312 191.09375 C 505.199219 191.613281 506.425781 192.191406 507.625 192.832031 C 508.820312 193.472656 509.984375 194.167969 511.113281 194.921875 C 512.242188 195.675781 513.332031 196.484375 514.382812 197.347656 C 515.433594 198.207031 516.4375 199.117188 517.398438 200.078125 C 518.359375 201.039062 519.269531 202.042969 520.132812 203.089844 C 520.992188 204.140625 521.800781 205.230469 522.554688 206.359375 C 523.308594 207.488281 524.007812 208.648438 524.648438 209.847656 C 525.289062 211.042969 525.867188 212.269531 526.386719 213.523438 C 526.90625 214.777344 527.363281 216.054688 527.757812 217.355469 C 528.152344 218.652344 528.484375 219.96875 528.746094 221.300781 C 529.011719 222.632812 529.210938 223.972656 529.34375 225.324219 C 529.476562 226.675781 529.542969 228.027344 529.542969 229.386719 L 529.542969 404.144531 C 529.542969 405.5 529.476562 406.855469 529.34375 408.207031 C 529.210938 409.558594 529.011719 410.898438 528.746094 412.230469 C 528.484375 413.5625 528.152344 414.878906 527.757812 416.175781 C 527.363281 417.476562 526.90625 418.753906 526.386719 420.007812 C 525.867188 421.261719 525.289062 422.484375 524.648438 423.683594 C 524.007812 424.878906 523.308594 426.042969 522.554688 427.171875 C 521.800781 428.300781 520.992188 429.390625 520.132812 430.441406 C 519.269531 431.488281 518.359375 432.492188 517.398438 433.453125 C 516.4375 434.414062 515.433594 435.324219 514.382812 436.183594 C 513.332031 437.046875 512.242188 437.855469 511.113281 438.609375 C 509.984375 439.363281 508.820312 440.058594 507.625 440.699219 C 506.425781 441.339844 505.199219 441.917969 503.945312 442.4375 C 502.691406 442.957031 501.414062 443.414062 500.113281 443.808594 C 498.8125 444.203125 497.496094 444.53125 496.164062 444.796875 C 494.832031 445.0625 493.492188 445.261719 492.140625 445.394531 C 490.789062 445.527344 489.433594 445.59375 488.074219 445.59375 L 314.292969 445.59375 C 312.9375 445.59375 311.582031 445.527344 310.230469 445.394531 C 308.878906 445.261719 307.535156 445.0625 306.203125 444.796875 C 304.871094 444.53125 303.554688 444.203125 302.257812 443.808594 C 300.957031 443.414062 299.679688 442.957031 298.425781 442.4375 C 297.167969 441.917969 295.941406 441.339844 294.746094 440.699219 C 293.546875 440.058594 292.382812 439.363281 291.253906 438.609375 C 290.125 437.855469 289.035156 437.046875 287.984375 436.183594 C 286.9375 435.324219 285.929688 434.414062 284.96875 433.453125 C 284.011719 432.492188 283.097656 431.488281 282.238281 430.441406 C 281.375 429.390625 280.566406 428.300781 279.8125 427.171875 C 279.058594 426.042969 278.359375 424.878906 277.722656 423.683594 C 277.082031 422.484375 276.5 421.261719 275.980469 420.007812 C 275.460938 418.753906 275.003906 417.476562 274.609375 416.175781 C 274.214844 414.878906 273.886719 413.5625 273.621094 412.230469 C 273.355469 410.898438 273.15625 409.558594 273.023438 408.207031 C 272.890625 406.855469 272.824219 405.5 272.824219 404.144531 L 272.824219 229.386719 C 272.824219 228.027344 272.890625 226.675781 273.023438 225.324219 C 273.15625 223.972656 273.355469 222.632812 273.621094 221.300781 C 273.886719 219.96875 274.214844 218.652344 274.609375 217.355469 C 275.003906 216.054688 275.460938 214.777344 275.980469 213.523438 C 276.5 212.269531 277.082031 211.042969 277.722656 209.847656 C 278.359375 208.648438 279.058594 207.488281 279.8125 206.359375 C 280.566406 205.230469 281.375 204.140625 282.238281 203.089844 C 283.097656 202.042969 284.011719 201.039062 284.96875 200.078125 C 285.929688 199.117188 286.9375 198.207031 287.984375 197.347656 C 289.035156 196.484375 290.125 195.675781 291.253906 194.921875 C 292.382812 194.167969 293.546875 193.472656 294.746094 192.832031 C 295.941406 192.191406 297.167969 191.613281 298.425781 191.09375 C 299.679688 190.574219 300.957031 190.117188 302.257812 189.722656 C 303.554688 189.328125 304.871094 189 306.203125 188.734375 C 307.535156 188.46875 308.878906 188.269531 310.230469 188.136719 C 311.582031 188.003906 312.9375 187.9375 314.292969 187.9375 Z M 314.292969 187.9375 " clip-rule="nonzero"/></clipPath><linearGradient x1="255.659407" gradientTransform="matrix(2.005316, 0, 0, 2.004329, -239.012494, -664.563884)" y1="554.29222" x2="382.75329" gradientUnits="userSpaceOnUse" y2="424.977903" id="12e47e0dcc"><stop stop-opacity="1" stop-color="rgb(2.69928%, 0.39978%, 20.799255%)" offset="0"/><stop stop-opacity="1" stop-color="rgb(2.853394%, 0.474548%, 20.845032%)" offset="0.0625"/><stop stop-opacity="1" stop-color="rgb(3.161621%, 0.624084%, 20.93811%)" offset="0.0703125"/><stop stop-opacity="1" stop-color="rgb(3.4729%, 0.775146%, 21.031189%)" offset="0.078125"/><stop stop-opacity="1" stop-color="rgb(3.78418%, 0.927734%, 21.124268%)" offset="0.0859375"/><stop stop-opacity="1" stop-color="rgb(4.093933%, 1.078796%, 21.217346%)" offset="0.09375"/><stop stop-opacity="1" stop-color="rgb(4.405212%, 1.229858%, 21.310425%)" offset="0.101562"/><stop stop-opacity="1" stop-color="rgb(4.716492%, 1.38092%, 21.405029%)" offset="0.109375"/><stop stop-opacity="1" stop-color="rgb(5.027771%, 1.533508%, 21.498108%)" offset="0.117187"/><stop stop-opacity="1" stop-color="rgb(5.337524%, 1.68457%, 21.591187%)" offset="0.125"/><stop stop-opacity="1" stop-color="rgb(5.648804%, 1.835632%, 21.684265%)" offset="0.132812"/><stop stop-opacity="1" stop-color="rgb(5.960083%, 1.986694%, 21.777344%)" offset="0.140625"/><stop stop-opacity="1" stop-color="rgb(6.269836%, 2.139282%, 21.870422%)" offset="0.148438"/><stop stop-opacity="1" stop-color="rgb(6.581116%, 2.290344%, 21.965027%)" offset="0.15625"/><stop stop-opacity="1" stop-color="rgb(6.892395%, 2.441406%, 22.058105%)" offset="0.164062"/><stop stop-opacity="1" stop-color="rgb(7.203674%, 2.593994%, 22.151184%)" offset="0.171875"/><stop stop-opacity="1" stop-color="rgb(7.513428%, 2.745056%, 22.244263%)" offset="0.179688"/><stop stop-opacity="1" stop-color="rgb(7.824707%, 2.896118%, 22.337341%)" offset="0.1875"/><stop stop-opacity="1" stop-color="rgb(8.135986%, 3.04718%, 22.43042%)" offset="0.195312"/><stop stop-opacity="1" stop-color="rgb(8.44574%, 3.199768%, 22.525024%)" offset="0.203125"/><stop stop-opacity="1" stop-color="rgb(8.757019%, 3.35083%, 22.618103%)" offset="0.210938"/><stop stop-opacity="1" stop-color="rgb(9.068298%, 3.501892%, 22.711182%)" offset="0.21875"/><stop stop-opacity="1" stop-color="rgb(9.379578%, 3.652954%, 22.80426%)" offset="0.226562"/><stop stop-opacity="1" stop-color="rgb(9.689331%, 3.805542%, 22.897339%)" offset="0.234375"/><stop stop-opacity="1" stop-color="rgb(10.00061%, 3.956604%, 22.990417%)" offset="0.242187"/><stop stop-opacity="1" stop-color="rgb(10.31189%, 4.107666%, 23.085022%)" offset="0.25"/><stop stop-opacity="1" stop-color="rgb(10.621643%, 4.258728%, 23.178101%)" offset="0.257812"/><stop stop-opacity="1" stop-color="rgb(10.932922%, 4.411316%, 23.271179%)" offset="0.265625"/><stop stop-opacity="1" stop-color="rgb(11.244202%, 4.562378%, 23.364258%)" offset="0.273438"/><stop stop-opacity="1" stop-color="rgb(11.555481%, 4.71344%, 23.457336%)" offset="0.28125"/><stop stop-opacity="1" stop-color="rgb(11.865234%, 4.864502%, 23.550415%)" offset="0.289062"/><stop stop-opacity="1" stop-color="rgb(12.176514%, 5.01709%, 23.64502%)" offset="0.296875"/><stop stop-opacity="1" stop-color="rgb(12.487793%, 5.168152%, 23.738098%)" offset="0.304688"/><stop stop-opacity="1" stop-color="rgb(12.797546%, 5.319214%, 23.831177%)" offset="0.3125"/><stop stop-opacity="1" stop-color="rgb(13.108826%, 5.470276%, 23.924255%)" offset="0.320312"/><stop stop-opacity="1" stop-color="rgb(13.420105%, 5.622864%, 24.017334%)" offset="0.328125"/><stop stop-opacity="1" stop-color="rgb(13.729858%, 5.773926%, 24.111938%)" offset="0.335938"/><stop stop-opacity="1" stop-color="rgb(14.041138%, 5.924988%, 24.205017%)" offset="0.34375"/><stop stop-opacity="1" stop-color="rgb(14.352417%, 6.07605%, 24.298096%)" offset="0.351562"/><stop stop-opacity="1" stop-color="rgb(14.663696%, 6.228638%, 24.391174%)" offset="0.359375"/><stop stop-opacity="1" stop-color="rgb(14.97345%, 6.3797%, 24.484253%)" offset="0.367188"/><stop stop-opacity="1" stop-color="rgb(15.284729%, 6.530762%, 24.577332%)" offset="0.375"/><stop stop-opacity="1" stop-color="rgb(15.596008%, 6.681824%, 24.671936%)" offset="0.382812"/><stop stop-opacity="1" stop-color="rgb(15.905762%, 6.834412%, 24.765015%)" offset="0.390625"/><stop stop-opacity="1" stop-color="rgb(16.217041%, 6.985474%, 24.858093%)" offset="0.398438"/><stop stop-opacity="1" stop-color="rgb(16.52832%, 7.136536%, 24.951172%)" offset="0.40625"/><stop stop-opacity="1" stop-color="rgb(16.8396%, 7.289124%, 25.04425%)" offset="0.414062"/><stop stop-opacity="1" stop-color="rgb(17.149353%, 7.440186%, 25.137329%)" offset="0.421875"/><stop stop-opacity="1" stop-color="rgb(17.460632%, 7.591248%, 25.231934%)" offset="0.429688"/><stop stop-opacity="1" stop-color="rgb(17.771912%, 7.74231%, 25.325012%)" offset="0.4375"/><stop stop-opacity="1" stop-color="rgb(18.081665%, 7.894897%, 25.418091%)" offset="0.445312"/><stop stop-opacity="1" stop-color="rgb(18.392944%, 8.045959%, 25.511169%)" offset="0.453125"/><stop stop-opacity="1" stop-color="rgb(18.704224%, 8.197021%, 25.604248%)" offset="0.460938"/><stop stop-opacity="1" stop-color="rgb(19.015503%, 8.348083%, 25.697327%)" offset="0.46875"/><stop stop-opacity="1" stop-color="rgb(19.325256%, 8.500671%, 25.791931%)" offset="0.476562"/><stop stop-opacity="1" stop-color="rgb(19.636536%, 8.651733%, 25.88501%)" offset="0.484375"/><stop stop-opacity="1" stop-color="rgb(19.947815%, 8.802795%, 25.978088%)" offset="0.492187"/><stop stop-opacity="1" stop-color="rgb(20.257568%, 8.953857%, 26.071167%)" offset="0.494921"/><stop stop-opacity="1" stop-color="rgb(20.413208%, 9.030151%, 26.118469%)" offset="0.5"/><stop stop-opacity="1" stop-color="rgb(20.568848%, 9.106445%, 26.164246%)" offset="0.505079"/><stop stop-opacity="1" stop-color="rgb(20.724487%, 9.182739%, 26.211548%)" offset="0.507812"/><stop stop-opacity="1" stop-color="rgb(20.880127%, 9.257507%, 26.257324%)" offset="0.515625"/><stop stop-opacity="1" stop-color="rgb(21.191406%, 9.408569%, 26.351929%)" offset="0.523438"/><stop stop-opacity="1" stop-color="rgb(21.50116%, 9.559631%, 26.445007%)" offset="0.53125"/><stop stop-opacity="1" stop-color="rgb(21.812439%, 9.712219%, 26.538086%)" offset="0.539062"/><stop stop-opacity="1" stop-color="rgb(22.123718%, 9.863281%, 26.631165%)" offset="0.546875"/><stop stop-opacity="1" stop-color="rgb(22.433472%, 10.014343%, 26.724243%)" offset="0.554688"/><stop stop-opacity="1" stop-color="rgb(22.744751%, 10.165405%, 26.817322%)" offset="0.5625"/><stop stop-opacity="1" stop-color="rgb(23.05603%, 10.317993%, 26.911926%)" offset="0.570313"/><stop stop-opacity="1" stop-color="rgb(23.36731%, 10.469055%, 27.005005%)" offset="0.578125"/><stop stop-opacity="1" stop-color="rgb(23.677063%, 10.620117%, 27.098083%)" offset="0.585938"/><stop stop-opacity="1" stop-color="rgb(23.988342%, 10.771179%, 27.191162%)" offset="0.59375"/><stop stop-opacity="1" stop-color="rgb(24.299622%, 10.923767%, 27.284241%)" offset="0.601562"/><stop stop-opacity="1" stop-color="rgb(24.609375%, 11.074829%, 27.378845%)" offset="0.609375"/><stop stop-opacity="1" stop-color="rgb(24.920654%, 11.225891%, 27.471924%)" offset="0.617188"/><stop stop-opacity="1" stop-color="rgb(25.231934%, 11.378479%, 27.565002%)" offset="0.625"/><stop stop-opacity="1" stop-color="rgb(25.541687%, 11.529541%, 27.658081%)" offset="0.632812"/><stop stop-opacity="1" stop-color="rgb(25.852966%, 11.680603%, 27.75116%)" offset="0.640625"/><stop stop-opacity="1" stop-color="rgb(26.164246%, 11.831665%, 27.844238%)" offset="0.648438"/><stop stop-opacity="1" stop-color="rgb(26.475525%, 11.984253%, 27.938843%)" offset="0.65625"/><stop stop-opacity="1" stop-color="rgb(26.785278%, 12.135315%, 28.031921%)" offset="0.664063"/><stop stop-opacity="1" stop-color="rgb(27.096558%, 12.286377%, 28.125%)" offset="0.671875"/><stop stop-opacity="1" stop-color="rgb(27.407837%, 12.437439%, 28.218079%)" offset="0.679688"/><stop stop-opacity="1" stop-color="rgb(27.71759%, 12.590027%, 28.311157%)" offset="0.6875"/><stop stop-opacity="1" stop-color="rgb(28.02887%, 12.741089%, 28.404236%)" offset="0.695312"/><stop stop-opacity="1" stop-color="rgb(28.340149%, 12.892151%, 28.49884%)" offset="0.703125"/><stop stop-opacity="1" stop-color="rgb(28.651428%, 13.043213%, 28.591919%)" offset="0.710938"/><stop stop-opacity="1" stop-color="rgb(28.961182%, 13.195801%, 28.684998%)" offset="0.71875"/><stop stop-opacity="1" stop-color="rgb(29.272461%, 13.346863%, 28.778076%)" offset="0.726562"/><stop stop-opacity="1" stop-color="rgb(29.58374%, 13.497925%, 28.871155%)" offset="0.734375"/><stop stop-opacity="1" stop-color="rgb(29.893494%, 13.648987%, 28.964233%)" offset="0.742187"/><stop stop-opacity="1" stop-color="rgb(30.204773%, 13.801575%, 29.058838%)" offset="0.75"/><stop stop-opacity="1" stop-color="rgb(30.516052%, 13.952637%, 29.151917%)" offset="0.757813"/><stop stop-opacity="1" stop-color="rgb(30.827332%, 14.103699%, 29.244995%)" offset="0.765625"/><stop stop-opacity="1" stop-color="rgb(31.137085%, 14.254761%, 29.338074%)" offset="0.773438"/><stop stop-opacity="1" stop-color="rgb(31.448364%, 14.407349%, 29.431152%)" offset="0.78125"/><stop stop-opacity="1" stop-color="rgb(31.759644%, 14.558411%, 29.524231%)" offset="0.789062"/><stop stop-opacity="1" stop-color="rgb(32.069397%, 14.709473%, 29.618835%)" offset="0.796875"/><stop stop-opacity="1" stop-color="rgb(32.380676%, 14.860535%, 29.711914%)" offset="0.804688"/><stop stop-opacity="1" stop-color="rgb(32.691956%, 15.013123%, 29.804993%)" offset="0.8125"/><stop stop-opacity="1" stop-color="rgb(33.003235%, 15.164185%, 29.898071%)" offset="0.820312"/><stop stop-opacity="1" stop-color="rgb(33.312988%, 15.315247%, 29.99115%)" offset="0.828125"/><stop stop-opacity="1" stop-color="rgb(33.624268%, 15.466309%, 30.084229%)" offset="0.835937"/><stop stop-opacity="1" stop-color="rgb(33.935547%, 15.618896%, 30.178833%)" offset="0.84375"/><stop stop-opacity="1" stop-color="rgb(34.2453%, 15.769958%, 30.271912%)" offset="0.851562"/><stop stop-opacity="1" stop-color="rgb(34.55658%, 15.921021%, 30.36499%)" offset="0.859375"/><stop stop-opacity="1" stop-color="rgb(34.867859%, 16.073608%, 30.458069%)" offset="0.867188"/><stop stop-opacity="1" stop-color="rgb(35.179138%, 16.22467%, 30.551147%)" offset="0.875"/><stop stop-opacity="1" stop-color="rgb(35.488892%, 16.375732%, 30.644226%)" offset="0.882812"/><stop stop-opacity="1" stop-color="rgb(35.800171%, 16.526794%, 30.738831%)" offset="0.890625"/><stop stop-opacity="1" stop-color="rgb(36.11145%, 16.679382%, 30.831909%)" offset="0.898438"/><stop stop-opacity="1" stop-color="rgb(36.421204%, 16.830444%, 30.924988%)" offset="0.90625"/><stop stop-opacity="1" stop-color="rgb(36.732483%, 16.981506%, 31.018066%)" offset="0.914062"/><stop stop-opacity="1" stop-color="rgb(37.043762%, 17.132568%, 31.111145%)" offset="0.921875"/><stop stop-opacity="1" stop-color="rgb(37.355042%, 17.285156%, 31.20575%)" offset="0.929687"/><stop stop-opacity="1" stop-color="rgb(37.664795%, 17.436218%, 31.298828%)" offset="0.9375"/><stop stop-opacity="1" stop-color="rgb(37.908936%, 17.555237%, 31.37207%)" offset="1"/></linearGradient><clipPath id="943ce8b2bd"><path d="M 320 473 L 786 473 L 786 621.730469 L 320 621.730469 Z M 320 473 " clip-rule="nonzero"/></clipPath></defs><g clip-path="url(#a8fc84c6e7)"><g clip-path="url(#90f6a959d1)"><path fill="url(#12e47e0dcc)" d="M 272.824219 188.230469 L 272.824219 445.59375 L 529.542969 445.59375 L 529.542969 188.230469 Z M 272.824219 188.230469 " fill-rule="nonzero"/></g></g><path fill="#ffffff" d="M 403.109375 298.835938 C 409.667969 298.835938 414.636719 297.433594 418.023438 294.5625 C 421.410156 291.6875 423.101562 287.507812 423.101562 281.949219 C 423.101562 276.460938 421.410156 272.292969 418.023438 269.441406 C 414.613281 266.519531 409.664062 265.058594 403.109375 265.058594 L 380.089844 265.058594 L 380.089844 298.839844 L 403.109375 298.839844 M 404.511719 368.644531 C 412.871094 368.644531 419.136719 366.898438 423.316406 363.40625 C 427.570312 359.914062 429.695312 354.640625 429.695312 347.585938 C 429.695312 340.671875 427.605469 335.507812 423.425781 332.085938 C 419.246094 328.59375 412.945312 326.847656 404.515625 326.847656 L 380.089844 326.847656 L 380.089844 368.648438 L 404.515625 368.648438 M 443.203125 311.242188 C 452.136719 313.808594 459.054688 318.550781 463.953125 325.460938 C 468.851562 332.371094 471.300781 340.855469 471.300781 350.902344 C 471.300781 366.296875 466.042969 377.769531 455.523438 385.324219 C 445.007812 392.878906 429.015625 396.65625 407.542969 396.65625 L 338.488281 396.65625 L 338.488281 237.089844 L 400.953125 237.089844 C 423.359375 237.089844 439.570312 240.4375 449.582031 247.140625 C 459.667969 253.835938 464.714844 264.566406 464.714844 279.316406 C 464.714844 287.085938 462.875 293.710938 459.203125 299.199219 C 455.527344 304.617188 450.179688 308.621094 443.207031 311.28125 " fill-opacity="1" fill-rule="nonzero"/><path fill="#230f3d" d="M 41.105469 531.296875 L 41.105469 574.644531 L 66.804688 574.644531 C 75.414062 574.644531 81.796875 572.875 85.921875 569.335938 C 90.097656 565.738281 92.175781 560.269531 92.175781 552.9375 C 92.175781 545.632812 90.089844 540.09375 85.921875 536.605469 C 81.796875 533.066406 75.429688 531.296875 66.804688 531.296875 L 41.105469 531.296875 M 41.105469 482.621094 L 41.105469 518.296875 L 64.824219 518.296875 C 72.652344 518.296875 78.46875 516.835938 82.269531 513.9375 C 86.125 510.976562 88.058594 506.488281 88.058594 500.464844 C 88.058594 494.488281 86.125 490.023438 82.269531 487.070312 C 78.410156 484.113281 72.644531 482.628906 64.824219 482.628906 L 41.105469 482.628906 M 25.082031 469.476562 L 66.015625 469.476562 C 78.230469 469.476562 87.644531 472.019531 94.257812 477.089844 C 100.867188 482.164062 104.164062 489.382812 104.164062 498.734375 C 104.164062 505.976562 102.476562 511.738281 99.089844 516.027344 C 95.703125 520.3125 90.722656 522.972656 84.175781 524.03125 C 92.054688 525.71875 98.164062 529.265625 102.5 534.582031 C 106.886719 539.925781 108.996094 546.597656 108.996094 554.632812 C 108.996094 565.203125 105.398438 573.371094 98.210938 579.132812 C 91.023438 584.898438 80.789062 587.773438 67.511719 587.773438 L 25 587.773438 L 25 469.4375 " fill-opacity="1" fill-rule="nonzero"/><path fill="#230f3d" d="M 169.417969 509.246094 C 167.609375 509.1875 165.824219 509.347656 164.058594 509.730469 C 162.289062 510.113281 160.597656 510.707031 158.976562 511.507812 C 157.359375 512.308594 155.863281 513.296875 154.488281 514.472656 C 153.113281 515.648438 151.902344 516.96875 150.859375 518.445312 C 146.308594 524.53125 144.035156 532.871094 144.035156 543.496094 C 144.035156 554.125 146.285156 562.492188 150.777344 568.628906 C 155.324219 574.71875 161.539062 577.746094 169.417969 577.746094 C 171.21875 577.804688 172.996094 577.640625 174.757812 577.257812 C 176.519531 576.871094 178.203125 576.277344 179.816406 575.476562 C 181.429688 574.671875 182.917969 573.6875 184.285156 572.511719 C 185.652344 571.339844 186.855469 570.019531 187.894531 568.546875 C 192.441406 562.417969 194.71875 554.066406 194.71875 543.496094 C 194.71875 532.976562 192.441406 524.664062 187.894531 518.527344 C 183.347656 512.339844 177.191406 509.246094 169.417969 509.246094 M 169.417969 496.882812 C 182.105469 496.882812 192.160156 501.007812 199.324219 509.246094 C 206.484375 517.488281 210.191406 528.910156 210.191406 543.503906 C 210.191406 558.101562 206.566406 569.457031 199.324219 577.761719 C 192.078125 586.011719 182.105469 590.125 169.417969 590.125 C 156.664062 590.125 146.675781 586.003906 139.367188 577.761719 C 132.179688 569.464844 128.578125 558.050781 128.578125 543.503906 C 128.578125 528.917969 132.179688 517.503906 139.367188 509.246094 C 146.609375 501 156.601562 496.882812 169.417969 496.882812 " fill-opacity="1" fill-rule="nonzero"/><path fill="#230f3d" d="M 267.914062 509.246094 C 266.105469 509.1875 264.320312 509.347656 262.550781 509.730469 C 260.785156 510.113281 259.09375 510.707031 257.472656 511.507812 C 255.855469 512.308594 254.355469 513.296875 252.984375 514.472656 C 251.609375 515.648438 250.398438 516.96875 249.355469 518.445312 C 244.804688 524.53125 242.53125 532.871094 242.53125 543.496094 C 242.53125 554.125 244.78125 562.492188 249.273438 568.628906 C 253.820312 574.71875 260.035156 577.746094 267.914062 577.746094 C 269.714844 577.804688 271.492188 577.640625 273.253906 577.257812 C 275.011719 576.871094 276.699219 576.277344 278.3125 575.476562 C 279.925781 574.671875 281.414062 573.6875 282.78125 572.511719 C 284.148438 571.339844 285.351562 570.019531 286.390625 568.546875 C 290.9375 562.417969 293.210938 554.066406 293.210938 543.496094 C 293.210938 532.976562 290.9375 524.664062 286.390625 518.527344 C 281.839844 512.339844 275.683594 509.246094 267.914062 509.246094 M 267.914062 496.882812 C 280.597656 496.882812 290.652344 501.007812 297.816406 509.246094 C 304.980469 517.488281 308.683594 528.910156 308.683594 543.503906 C 308.683594 558.101562 305.0625 569.457031 297.816406 577.761719 C 290.574219 586.011719 280.597656 590.125 267.914062 590.125 C 255.160156 590.125 245.171875 586.003906 237.859375 577.761719 C 230.671875 569.464844 227.074219 558.050781 227.074219 543.503906 C 227.074219 528.917969 230.671875 517.503906 237.859375 509.246094 C 245.105469 501 255.097656 496.882812 267.914062 496.882812 " fill-opacity="1" fill-rule="nonzero"/><g clip-path="url(#943ce8b2bd)"><path fill="#230f3d" d="M 346.410156 473.804688 L 346.410156 499.011719 L 376.460938 499.011719 L 376.460938 510.34375 L 346.410156 510.34375 L 346.410156 558.546875 C 346.410156 565.789062 347.386719 570.441406 349.335938 572.511719 C 351.339844 574.574219 355.386719 575.59375 361.46875 575.59375 L 376.460938 575.59375 L 376.460938 587.804688 L 361.460938 587.804688 C 350.195312 587.804688 342.421875 585.71875 338.152344 581.554688 C 333.871094 577.332031 331.652344 569.660156 331.652344 558.5625 L 331.652344 510.34375 L 320.949219 510.34375 L 320.949219 499.011719 L 331.652344 499.011719 L 331.652344 473.820312 L 346.332031 473.820312 M 451.476562 501.640625 L 451.476562 515.441406 C 447.386719 513.335938 443.101562 511.75 438.628906 510.683594 C 434.1875 509.628906 429.589844 509.101562 424.820312 509.101562 C 417.574219 509.101562 412.125 510.214844 408.480469 512.347656 C 404.882812 514.5625 403.085938 517.902344 403.085938 522.332031 C 403.085938 525.71875 404.386719 528.382812 406.984375 530.335938 C 409.585938 532.238281 414.78125 534.070312 422.613281 535.808594 L 427.605469 536.921875 C 437.96875 539.136719 445.3125 542.277344 449.65625 546.355469 C 454.042969 550.371094 456.15625 556 456.15625 563.238281 C 456.214844 565.148438 456.039062 567.03125 455.632812 568.894531 C 455.222656 570.757812 454.59375 572.546875 453.742188 574.253906 C 452.894531 575.960938 451.847656 577.539062 450.605469 578.992188 C 449.363281 580.441406 447.964844 581.714844 446.410156 582.820312 C 439.910156 587.625 430.945312 590.125 419.605469 590.125 C 414.847656 590.125 409.875 589.640625 404.695312 588.699219 C 399.5625 587.886719 394.136719 586.425781 388.433594 584.574219 L 388.433594 569.515625 C 393.828125 572.316406 399.140625 574.425781 404.378906 575.847656 C 409.46875 577.207031 414.652344 577.894531 419.921875 577.910156 C 426.792969 577.910156 432.082031 576.75 435.785156 574.417969 C 439.488281 572.039062 441.339844 568.710938 441.339844 564.433594 C 441.339844 560.472656 439.992188 557.425781 437.296875 555.316406 C 434.648438 553.207031 428.808594 551.257812 419.769531 549.210938 L 414.691406 548.027344 C 405.652344 546.128906 399.121094 543.222656 395.101562 539.308594 C 391.082031 535.347656 389.074219 529.921875 389.074219 523.054688 C 389.074219 514.695312 392.039062 508.257812 397.960938 503.710938 C 403.882812 499.164062 412.289062 496.890625 423.179688 496.890625 C 428.289062 496.867188 433.367188 497.261719 438.410156 498.078125 C 442.921875 498.800781 447.3125 499.988281 451.574219 501.640625 M 493.265625 473.796875 L 493.265625 499.003906 L 523.316406 499.003906 L 523.316406 510.335938 L 493.265625 510.335938 L 493.265625 558.539062 C 493.265625 565.78125 494.238281 570.433594 496.1875 572.503906 C 498.195312 574.5625 502.238281 575.585938 508.324219 575.585938 L 523.332031 575.585938 L 523.332031 587.796875 L 508.339844 587.796875 C 497.074219 587.796875 489.300781 585.710938 485.027344 581.546875 C 480.75 577.324219 478.53125 569.652344 478.53125 558.554688 L 478.53125 510.335938 L 467.828125 510.335938 L 467.828125 499.003906 L 478.53125 499.003906 L 478.53125 473.820312 L 493.28125 473.820312 M 593.179688 512.664062 C 591.492188 511.691406 589.695312 511.003906 587.789062 510.601562 C 585.707031 510.097656 583.59375 509.863281 581.453125 509.886719 C 573.203125 509.886719 566.859375 512.582031 562.414062 517.972656 C 558.03125 523.316406 555.917969 531.003906 555.917969 541.046875 L 555.917969 587.820312 L 541.242188 587.820312 L 541.242188 499.011719 L 555.917969 499.011719 L 555.917969 512.8125 C 558.988281 507.421875 562.984375 503.425781 567.898438 500.835938 C 572.8125 498.191406 578.78125 496.875 585.824219 496.875 C 586.9375 496.882812 588.046875 496.960938 589.152344 497.109375 L 593.199219 497.664062 L 593.277344 512.648438 M 648.296875 543.171875 C 636.503906 543.171875 628.332031 544.519531 623.785156 547.214844 C 619.238281 549.910156 616.960938 554.503906 616.960938 561.015625 C 616.960938 566.195312 618.652344 570.320312 622.039062 573.378906 C 625.472656 576.382812 630.128906 577.902344 636.007812 577.902344 C 644.097656 577.902344 650.578125 575.042969 655.445312 569.335938 C 660.359375 563.652344 662.820312 555.941406 662.820312 546.425781 L 662.820312 543.179688 L 648.304688 543.179688 M 677.414062 537.15625 L 677.414062 587.8125 L 662.820312 587.8125 L 662.820312 574.335938 C 659.570312 579.726562 655.347656 583.722656 650.367188 586.3125 C 645.398438 588.84375 639.324219 590.125 632.125 590.125 C 623.03125 590.125 615.785156 587.59375 610.390625 582.519531 C 605.046875 577.390625 602.382812 570.546875 602.382812 561.980469 C 602.382812 551.996094 605.632812 544.460938 612.375 539.390625 C 619.113281 534.316406 629.082031 531.78125 642.425781 531.78125 L 662.890625 531.78125 L 662.890625 530.355469 C 662.890625 523.640625 660.675781 518.460938 656.230469 514.816406 C 651.847656 511.113281 645.65625 509.261719 637.671875 509.261719 C 632.597656 509.261719 627.652344 509.871094 622.84375 511.089844 C 617.984375 512.320312 613.355469 514.144531 608.960938 516.5625 L 608.960938 503.085938 C 614.308594 501.023438 619.488281 499.488281 624.507812 498.492188 C 629.34375 497.453125 634.238281 496.925781 639.183594 496.90625 C 652.035156 496.90625 661.632812 500.15625 667.976562 506.894531 C 674.320312 513.628906 677.496094 523.648438 677.496094 537.171875 M 720.949219 574.484375 L 720.949219 621.566406 L 706.273438 621.566406 L 706.273438 499.019531 L 720.949219 499.019531 L 720.949219 512.496094 C 724.019531 507.21875 727.875 503.296875 732.53125 500.765625 C 737.242188 498.164062 742.84375 496.867188 749.34375 496.867188 C 751.886719 496.808594 754.398438 497.050781 756.882812 497.597656 C 759.367188 498.140625 761.75 498.972656 764.035156 500.089844 C 766.316406 501.207031 768.4375 502.582031 770.390625 504.207031 C 772.34375 505.832031 774.078125 507.667969 775.59375 509.710938 C 782.359375 518.273438 785.746094 529.519531 785.746094 543.480469 C 785.746094 557.445312 782.359375 568.6875 775.59375 577.25 C 774.078125 579.292969 772.34375 581.128906 770.390625 582.753906 C 768.4375 584.382812 766.316406 585.753906 764.035156 586.871094 C 761.75 587.988281 759.367188 588.820312 756.882812 589.363281 C 754.398438 589.910156 751.886719 590.152344 749.34375 590.09375 C 742.84375 590.09375 737.160156 588.828125 732.53125 586.277344 C 727.875 583.679688 724.019531 579.75 720.949219 574.46875 M 770.597656 543.472656 C 770.597656 532.742188 768.378906 524.339844 763.9375 518.265625 C 759.550781 512.136719 753.492188 509.070312 745.777344 509.070312 C 743.992188 509.007812 742.230469 509.171875 740.484375 509.554688 C 738.742188 509.9375 737.074219 510.53125 735.480469 511.335938 C 733.886719 512.140625 732.417969 513.128906 731.070312 514.300781 C 729.726562 515.476562 728.546875 516.796875 727.535156 518.265625 C 723.148438 524.355469 721.039062 532.75 721.039062 543.472656 C 721.039062 554.195312 723.230469 562.628906 727.535156 568.761719 C 731.976562 574.847656 738.0625 577.875 745.777344 577.875 C 753.492188 577.875 759.550781 574.839844 763.9375 568.761719 C 768.378906 562.628906 770.597656 554.195312 770.597656 543.472656 " fill-opacity="1" fill-rule="nonzero"/></g></svg>