<svg xmlns="http://www.w3.org/2000/svg" xmlns:xlink="http://www.w3.org/1999/xlink" width="1080" zoomAndPan="magnify" viewBox="0 0 810 809.999993" height="1080" preserveAspectRatio="xMidYMid meet" version="1.0"><defs><clipPath id="909f1951d0"><path d="M 195 11.46875 L 595 11.46875 L 595 798.21875 L 195 798.21875 Z M 195 11.46875 " clip-rule="nonzero"/></clipPath></defs><path fill="#4e7896" d="M 335.507812 428.699219 C 335.507812 428.699219 314.785156 441.3125 349.917969 444.917969 C 392.257812 450.324219 414.78125 449.425781 461.621094 440.414062 C 461.621094 440.414062 474.234375 448.523438 491.351562 454.832031 C 385.953125 499.886719 252.625 452.125 335.507812 428.699219 Z M 321.996094 370.125 C 321.996094 370.125 299.472656 387.246094 334.605469 390.851562 C 380.550781 395.359375 416.582031 396.257812 478.738281 383.644531 C 478.738281 383.644531 486.847656 392.652344 500.359375 397.160156 C 373.34375 435.007812 231 400.765625 321.992188 370.128906 Z M 570.628906 472.84375 C 570.628906 472.84375 585.945312 485.460938 553.515625 495.371094 C 493.15625 513.394531 300.382812 518.800781 246.324219 495.371094 C 227.40625 487.265625 263.441406 475.546875 275.148438 473.746094 C 286.859375 471.042969 293.167969 471.042969 293.167969 471.042969 C 272.449219 456.625 155.339844 500.78125 233.710938 513.394531 C 449.007812 548.539062 626.476562 498.078125 570.628906 472.84375 Z M 345.421875 308.839844 C 345.421875 308.839844 247.230469 332.269531 310.289062 340.378906 C 337.316406 343.984375 390.464844 343.082031 440.011719 339.476562 C 480.546875 335.871094 521.085938 328.660156 521.085938 328.660156 C 521.085938 328.660156 506.675781 334.96875 496.761719 341.277344 C 396.769531 367.410156 204.898438 355.695312 259.839844 328.660156 C 306.683594 306.132812 345.417969 308.835938 345.417969 308.835938 Z M 521.085938 407.0625 C 621.976562 354.796875 575.132812 304.335938 542.703125 310.640625 C 534.597656 312.445312 530.992188 314.246094 530.992188 314.246094 C 530.992188 314.246094 533.695312 308.839844 540 307.035156 C 603.960938 284.507812 654.40625 374.617188 519.28125 409.761719 C 519.28125 409.761719 520.183594 408.859375 521.085938 407.058594 Z M 355.328125 549.4375 C 452.617188 555.746094 601.242188 545.835938 604.867188 499.875 C 604.867188 499.875 597.660156 517.898438 524.695312 531.417969 C 441.816406 546.734375 339.121094 544.933594 278.78125 535.019531 C 278.78125 535.019531 291.394531 545.835938 355.351562 549.4375 Z M 355.328125 549.4375 " fill-opacity="1" fill-rule="nonzero"/><g clip-path="url(#909f1951d0)"><path fill="#f58219" d="M 459.820312 11.46875 C 459.820312 11.46875 515.671875 68.242188 406.667969 153.847656 C 319.289062 223.234375 386.851562 262.882812 406.667969 307.9375 C 355.320312 261.980469 318.386719 221.429688 343.609375 183.585938 C 380.550781 127.714844 482.351562 100.699219 459.828125 11.46875 Z M 431.011719 270.097656 C 457.132812 299.835938 423.804688 326.871094 423.804688 326.871094 C 423.804688 326.871094 490.464844 292.628906 459.835938 250.273438 C 431.910156 209.726562 410.289062 189.898438 527.398438 122.332031 C 527.398438 122.332031 342.730469 168.289062 431.007812 270.117188 Z M 364.335938 753.988281 L 364.335938 665.675781 C 364.335938 643.148438 351.722656 627.828125 320.195312 627.828125 C 302.175781 627.828125 286.863281 632.335938 273.351562 637.722656 L 277.855469 653.945312 C 287.75 650.339844 300.378906 646.734375 313.890625 646.734375 C 331.007812 646.734375 339.113281 653.945312 339.113281 668.363281 L 339.113281 680.078125 L 330.105469 680.078125 C 286.867188 680.078125 267.046875 696.296875 267.046875 722.429688 C 267.046875 744.058594 280.558594 756.671875 304.882812 756.671875 C 320.195312 756.671875 331.910156 749.464844 342.71875 740.453125 L 344.519531 753.96875 L 364.339844 753.96875 Z M 339.109375 725.152344 C 330.105469 733.261719 320.195312 737.769531 311.183594 737.769531 C 299.472656 737.769531 292.269531 730.558594 292.269531 717.941406 C 292.269531 705.328125 299.476562 696.316406 328.300781 696.316406 L 339.113281 696.316406 L 339.113281 725.132812 Z M 449.015625 753.988281 L 417.488281 753.988281 L 379.652344 630.53125 L 406.679688 630.53125 L 430.101562 706.226562 L 435.507812 728.753906 C 447.214844 696.3125 456.226562 662.972656 459.828125 630.53125 L 486.855469 630.53125 C 479.648438 671.085938 467.035156 715.238281 449.023438 753.988281 Z M 594.949219 753.988281 L 594.949219 665.675781 C 594.949219 643.148438 582.339844 627.828125 550.808594 627.828125 C 532.792969 627.828125 517.476562 632.335938 503.964844 637.722656 L 507.570312 653.945312 C 518.378906 650.339844 530.988281 646.734375 544.503906 646.734375 C 561.621094 646.734375 569.726562 653.945312 569.726562 668.363281 L 569.726562 680.078125 L 560.71875 680.078125 C 517.480469 680.078125 497.660156 696.296875 497.660156 722.429688 C 497.660156 744.058594 510.273438 756.671875 534.59375 756.671875 C 550.808594 756.671875 562.519531 749.464844 573.328125 740.453125 L 575.128906 753.96875 L 594.949219 753.96875 Z M 569.726562 725.152344 C 560.71875 733.261719 550.808594 737.769531 541.800781 737.769531 C 530.089844 737.769531 522.882812 730.558594 522.882812 717.941406 C 522.882812 705.328125 530.089844 696.316406 558.917969 696.316406 L 569.726562 696.316406 Z M 239.125 774.714844 C 231.917969 785.53125 221.109375 793.636719 207.59375 798.144531 L 195.878906 783.734375 C 204.886719 778.328125 213.894531 770.21875 217.5 763.007812 C 221.101562 756.699219 222.003906 747.6875 222.003906 726.964844 L 222.003906 586.386719 L 249.027344 586.386719 L 249.027344 725.164062 C 249.027344 753.09375 246.328125 763.910156 239.136719 774.726562 Z M 239.125 774.714844 " fill-opacity="1" fill-rule="nonzero"/></g></svg>