<svg xmlns="http://www.w3.org/2000/svg" xmlns:xlink="http://www.w3.org/1999/xlink" width="1080" zoomAndPan="magnify" viewBox="0 0 810 809.999993" height="1080" preserveAspectRatio="xMidYMid meet" version="1.0"><defs><clipPath id="a2dba7c4e8"><path d="M 49.785156 512 L 760.035156 512 L 760.035156 725.054688 L 49.785156 725.054688 Z M 49.785156 512 " clip-rule="nonzero"/></clipPath></defs><path fill="#555588" d="M 120.507812 321.09375 C 120.507812 309.34375 116.523438 300.976562 108.515625 296.011719 C 100.511719 291.050781 89.140625 288.566406 74.015625 288.566406 L 74.015625 245.136719 C 81.523438 245.136719 88.183594 244.605469 93.992188 243.5 C 99.925781 242.285156 104.886719 240.394531 108.890625 237.859375 C 112.875 235.203125 115.851562 231.796875 117.789062 227.6875 C 119.84375 223.566406 120.757812 218.601562 120.515625 212.777344 L 120.515625 154.988281 C 120.515625 146.019531 121.667969 138.390625 124.058594 132.085938 C 125.207031 128.875 126.839844 125.933594 128.957031 123.257812 C 131.070312 120.582031 133.554688 118.3125 136.414062 116.453125 C 142.472656 112.332031 150.636719 109.300781 160.945312 107.367188 C 171.253906 105.4375 184.324219 104.460938 200.175781 104.460938 L 200.175781 145.355469 C 195.332031 145.480469 190.914062 145.90625 186.917969 146.632812 C 183.039062 147.359375 179.71875 148.6875 176.929688 150.621094 C 174.273438 152.4375 172.210938 154.980469 170.757812 158.242188 C 169.304688 161.503906 168.578125 165.757812 168.578125 170.96875 L 168.578125 225.320312 C 167.851562 247.984375 153.683594 261.429688 126.070312 265.675781 L 126.070312 267.855469 C 139.992188 269.910156 150.644531 274.28125 157.949219 280.945312 C 165.257812 287.609375 168.84375 296.632812 168.578125 308.03125 L 168.578125 362.378906 C 168.578125 367.59375 169.304688 371.828125 170.757812 375.109375 C 172.210938 378.386719 174.265625 380.921875 176.929688 382.730469 C 179.710938 384.679688 183.128906 386.007812 186.917969 386.71875 C 191.304688 387.484375 195.722656 387.910156 200.175781 387.996094 L 200.175781 429.074219 C 184.234375 429.074219 171.234375 428.191406 160.945312 426.167969 C 150.652344 424.148438 142.480469 421.207031 136.414062 417.085938 C 133.554688 415.222656 131.070312 412.957031 128.957031 410.28125 C 126.839844 407.605469 125.207031 404.660156 124.058594 401.449219 C 121.757812 395.023438 120.515625 387.332031 120.515625 378.359375 L 120.515625 321.105469 M 223.867188 344.183594 C 223.867188 338.484375 224.75 333.699219 226.230469 329.824219 C 228.003906 325.835938 230.214844 322.621094 233.136719 320.191406 C 236.0625 317.761719 239.335938 316.007812 243.304688 314.917969 C 247.40625 313.792969 251.582031 313.246094 255.835938 313.277344 C 259.910156 313.253906 263.910156 313.800781 267.828125 314.917969 C 271.699219 316.007812 275.089844 317.753906 277.992188 320.191406 C 280.898438 322.628906 283.203125 325.828125 284.902344 329.824219 C 286.671875 333.707031 287.445312 338.492188 287.445312 344.183594 C 287.445312 349.636719 286.59375 354.304688 284.902344 358.1875 C 283.210938 362.070312 280.917969 365.277344 277.992188 367.824219 C 275.019531 370.414062 271.632812 372.230469 267.828125 373.273438 C 264.074219 374.488281 260.078125 375.089844 255.835938 375.089844 C 251.355469 375.089844 247.175781 374.488281 243.304688 373.273438 C 239.5 372.230469 236.113281 370.414062 233.136719 367.824219 C 230.113281 365.128906 227.8125 361.917969 226.230469 358.1875 C 224.65625 354.316406 223.867188 349.644531 223.867188 344.183594 M 326.320312 459.691406 C 320.300781 459.671875 314.308594 459.246094 308.34375 458.414062 C 302.171875 457.5625 297.027344 456.464844 292.90625 455.132812 L 292.90625 411.507812 C 296.347656 412.644531 299.859375 413.492188 303.4375 414.054688 C 306.714844 414.65625 310.398438 414.957031 314.507812 414.957031 C 317.4375 414.976562 320.285156 414.492188 323.042969 413.503906 C 324.449219 413.070312 325.757812 412.433594 326.964844 411.597656 C 328.175781 410.757812 329.230469 409.757812 330.128906 408.59375 C 332.183594 406.289062 333.820312 403.140625 335.035156 399.144531 C 336.25 395.273438 336.851562 390.238281 336.851562 384.058594 L 336.851562 166.957031 L 392.246094 166.957031 L 392.246094 392.082031 C 392.246094 401.414062 391.03125 410.136719 388.703125 418.253906 C 386.398438 426.496094 382.503906 433.640625 377.261719 439.703125 C 372.054688 445.878906 365.269531 450.730469 356.917969 454.238281 C 348.566406 457.75 338.390625 459.511719 326.410156 459.511719 M 334.582031 114.34375 C 334.582031 109.132812 335.46875 104.832031 336.949219 101.4375 C 338.386719 98.132812 340.503906 95.347656 343.308594 93.082031 C 346.179688 90.847656 349.386719 89.332031 352.933594 88.535156 C 356.820312 87.667969 360.753906 87.242188 364.738281 87.257812 C 368.664062 87.234375 372.539062 87.660156 376.367188 88.535156 C 379.910156 89.382812 383.148438 90.898438 385.808594 93.082031 C 388.585938 95.136719 390.765625 97.929688 392.34375 101.4375 C 394.113281 104.832031 394.882812 109.132812 394.882812 114.34375 C 394.882812 119.429688 394.035156 123.738281 392.34375 127.25 C 390.765625 130.765625 388.585938 133.613281 385.808594 135.792969 C 383.148438 137.847656 379.996094 139.363281 376.367188 140.339844 C 372.824219 141.191406 368.855469 141.617188 364.746094 141.617188 C 360.765625 141.628906 356.828125 141.207031 352.941406 140.339844 C 349.441406 139.441406 346.234375 137.925781 343.316406 135.792969 C 340.660156 133.613281 338.535156 130.765625 336.957031 127.25 C 335.378906 123.730469 334.59375 119.429688 334.59375 114.34375 M 584.6875 309.832031 C 584.6875 320.492188 582.738281 329.824219 578.875 337.820312 C 576.976562 341.777344 574.628906 345.445312 571.832031 348.828125 C 569.035156 352.207031 565.875 355.207031 562.351562 357.816406 C 555.203125 363.132812 546.550781 367.148438 536.375 369.808594 C 526.199219 372.464844 514.820312 373.796875 502.238281 373.796875 C 495.578125 373.796875 489.394531 373.558594 483.710938 373.070312 C 478.28125 372.746094 472.890625 372.078125 467.546875 371.066406 L 452.847656 367.519531 C 447.953125 366 443.167969 364.183594 438.5 362.070312 L 438.5 316.105469 C 443.582031 318.648438 448.914062 320.953125 454.484375 323.019531 L 471.375 328.46875 L 487.535156 332.015625 C 492.867188 332.867188 497.765625 333.292969 502.238281 333.292969 C 507.195312 333.292969 511.445312 332.867188 514.953125 332.015625 C 518.046875 331.300781 520.890625 330.027344 523.492188 328.203125 C 525.644531 326.703125 527.28125 324.765625 528.398438 322.390625 C 529.488281 320.085938 530.035156 317.664062 530.035156 315.121094 C 530.035156 312.578125 529.609375 310.335938 528.761719 308.386719 C 528.035156 306.328125 526.28125 304.203125 523.492188 302.023438 C 520.710938 299.71875 516.582031 297.171875 511.136719 294.398438 L 489.527344 283.761719 L 466.46875 271.949219 C 460.046875 267.960938 454.722656 263.527344 450.480469 258.679688 C 446.363281 253.832031 443.28125 248.3125 441.21875 242.140625 C 439.15625 235.972656 438.121094 228.386719 438.121094 219.789062 C 438.121094 210.339844 439.933594 202.097656 443.566406 194.972656 C 447.109375 187.820312 452.421875 181.882812 459 177.246094 C 465.582031 172.609375 473.648438 169.003906 482.976562 166.609375 C 492.414062 164.191406 502.902344 163.066406 514.394531 163.066406 C 526.503906 163.066406 538.007812 164.457031 548.898438 167.246094 C 559.792969 170.039062 570.996094 174.214844 582.5 179.789062 L 565.699219 219.496094 C 557.132812 215.394531 548.355469 211.816406 539.359375 208.773438 C 531.007812 205.988281 522.648438 204.589844 514.296875 204.589844 C 506.789062 204.589844 501.34375 205.917969 497.949219 208.578125 C 494.671875 211.234375 493.042969 214.78125 493.042969 219.480469 C 493.042969 221.898438 493.46875 224.085938 494.320312 226.019531 C 495.167969 227.835938 496.859375 229.777344 499.402344 231.835938 C 501.945312 233.785156 505.601562 235.957031 510.03125 238.375 L 528.007812 246.917969 L 551.253906 258.175781 C 558.164062 261.722656 564.09375 265.992188 568.964844 270.71875 C 573.835938 275.441406 577.824219 280.953125 580.410156 287.253906 C 582.996094 293.558594 584.394531 301.1875 584.394531 310.160156 M 683.253906 378.351562 C 683.253906 387.320312 682.101562 395.015625 679.710938 401.441406 C 677.320312 407.867188 673.246094 413.078125 667.179688 417.074219 C 661.246094 421.195312 653.132812 424.226562 642.84375 426.160156 C 632.550781 428.09375 619.464844 429.066406 603.609375 429.066406 L 603.609375 387.898438 C 608.003906 387.816406 612.363281 387.390625 616.691406 386.621094 C 620.5625 385.894531 623.839844 384.566406 626.496094 382.632812 C 627.90625 381.703125 629.152344 380.585938 630.238281 379.285156 C 631.320312 377.988281 632.191406 376.558594 632.855469 375 C 634.429688 371.722656 635.21875 367.484375 635.21875 362.273438 L 635.21875 307.925781 C 634.863281 296.535156 638.363281 287.503906 645.84375 280.839844 C 653.328125 274.171875 663.824219 269.8125 677.726562 267.746094 L 677.726562 265.566406 C 650.238281 261.3125 636.140625 247.875 635.414062 225.214844 L 635.414062 170.863281 C 635.414062 165.652344 634.527344 161.414062 633.046875 158.136719 C 632.386719 156.578125 631.515625 155.152344 630.433594 153.851562 C 629.347656 152.550781 628.101562 151.4375 626.691406 150.503906 C 624.03125 148.554688 620.757812 147.226562 616.886719 146.515625 C 612.558594 145.753906 608.199219 145.328125 603.804688 145.242188 L 603.804688 104.347656 C 619.746094 104.347656 632.746094 105.230469 643.039062 107.253906 C 653.328125 109.273438 661.441406 112.214844 667.375 116.335938 C 673.429688 120.324219 677.601562 125.554688 679.90625 131.972656 C 682.207031 138.175781 683.449219 145.90625 683.449219 154.875 L 683.449219 212.664062 C 683.324219 218.476562 684.332031 223.449219 686.175781 227.570312 C 688.015625 231.691406 691.082031 235.085938 695.074219 237.746094 C 699.0625 240.289062 703.976562 242.175781 709.777344 243.382812 C 715.710938 244.472656 722.441406 245.023438 729.933594 245.023438 L 729.933594 288.453125 C 714.878906 288.453125 703.230469 290.933594 695.242188 295.898438 C 687.273438 300.859375 683.4375 309.226562 683.4375 320.980469 L 683.4375 378.238281 " fill-opacity="1" fill-rule="nonzero"/><path fill="#000000" d="M 66.125 710.695312 C 63.464844 710.695312 61.164062 710.519531 59.199219 710.144531 C 57.222656 709.835938 55.515625 709.394531 54.0625 708.816406 L 54.0625 696.335938 C 55.933594 696.828125 57.828125 697.191406 59.746094 697.425781 C 61.914062 697.75 64.09375 697.90625 66.28125 697.898438 C 68.234375 697.890625 70.15625 697.632812 72.039062 697.117188 C 74.015625 696.65625 75.78125 695.773438 77.335938 694.46875 C 78.945312 693.164062 80.238281 691.363281 81.230469 689.097656 C 82.222656 686.828125 82.710938 683.902344 82.710938 680.375 L 82.710938 566.492188 L 97.269531 566.492188 L 97.269531 678.824219 C 97.269531 684.273438 96.492188 689 94.933594 693.003906 C 93.574219 696.800781 91.445312 700.097656 88.546875 702.894531 C 85.742188 705.621094 82.472656 707.570312 78.742188 708.738281 C 74.953125 710.039062 69.78125 710.6875 65.167969 710.6875 M 169.605469 668.542969 L 168.984375 668.542969 C 167.425781 670.699219 165.714844 672.726562 163.847656 674.621094 C 162.171875 676.261719 160.304688 677.636719 158.242188 678.753906 C 156.101562 679.886719 153.84375 680.691406 151.46875 681.171875 C 148.972656 681.703125 146.101562 681.953125 142.824219 681.953125 C 139.246094 681.953125 135.953125 681.421875 132.941406 680.390625 C 129.953125 679.484375 127.332031 677.949219 125.078125 675.785156 C 122.898438 673.65625 121.179688 670.996094 119.941406 667.84375 C 118.703125 664.625 118.171875 660.75 118.171875 656.46875 C 118.171875 647.960938 121.15625 641.402344 127.027344 636.839844 C 133.046875 632.265625 142.082031 629.773438 154.425781 629.359375 L 168.746094 628.808594 L 168.746094 623.4375 C 168.746094 619.953125 168.355469 617.054688 167.578125 614.714844 C 166.851562 612.375 165.761719 610.507812 164.300781 609.105469 C 162.816406 607.589844 161.050781 606.546875 159.003906 605.984375 C 156.660156 605.328125 154.273438 605.015625 151.839844 605.054688 C 147.71875 605.023438 143.699219 605.644531 139.777344 606.917969 C 136.113281 608.15625 132.558594 609.664062 129.117188 611.4375 L 124.140625 600.765625 C 127.984375 598.691406 132.261719 596.917969 136.980469 595.464844 C 141.828125 593.988281 146.785156 593.261719 151.847656 593.285156 C 157.144531 593.285156 161.707031 593.835938 165.550781 594.925781 C 169.445312 595.960938 172.632812 597.652344 175.113281 599.976562 C 177.769531 602.417969 179.664062 605.351562 180.800781 608.777344 C 182.058594 612.347656 182.570312 616.699219 182.570312 621.789062 L 182.570312 680.382812 L 172.441406 680.382812 Z M 146.578125 670.449219 C 149.597656 670.476562 152.53125 669.980469 155.375 668.96875 C 158.039062 668.019531 160.371094 666.539062 162.371094 664.535156 C 164.34375 662.515625 165.878906 659.988281 166.976562 656.984375 C 168.125 653.917969 168.683594 650.335938 168.683594 646.234375 L 168.683594 638.523438 L 157.550781 639.070312 C 152.886719 639.277344 148.960938 639.796875 145.800781 640.632812 C 142.640625 641.464844 140.089844 642.636719 138.183594 644.140625 C 136.414062 645.59375 134.96875 647.386719 134.136719 649.511719 C 133.265625 651.796875 132.847656 654.160156 132.890625 656.601562 C 132.890625 661.390625 134.128906 664.890625 136.625 667.125 C 139.167969 669.359375 142.488281 670.472656 146.589844 670.472656 M 194.589844 594.851562 L 209.21875 594.851562 L 224.714844 642.449219 L 226.753906 649.070312 L 229.089844 657.332031 L 231.191406 665.273438 L 232.519531 670.960938 L 233.066406 670.960938 L 234.394531 665.273438 L 236.496094 657.332031 L 238.832031 649.070312 L 240.871094 642.449219 L 256.367188 594.851562 L 270.996094 594.851562 L 241.738281 680.382812 L 223.761719 680.382812 Z M 328.820312 668.542969 L 328.199219 668.542969 C 326.640625 670.699219 324.929688 672.726562 323.0625 674.621094 C 321.351562 676.277344 319.441406 677.664062 317.335938 678.777344 C 315.230469 679.890625 313.011719 680.6875 310.679688 681.171875 C 308.183594 681.703125 305.316406 681.953125 302.039062 681.953125 C 298.460938 681.953125 295.164062 681.421875 292.15625 680.390625 C 289.164062 679.484375 286.542969 677.949219 284.289062 675.785156 C 282.113281 673.65625 280.394531 670.996094 279.152344 667.84375 C 277.914062 664.625 277.382812 660.75 277.382812 656.46875 C 277.382812 647.960938 280.367188 641.402344 286.238281 636.839844 C 292.261719 632.265625 301.292969 629.773438 313.640625 629.359375 L 327.960938 628.808594 L 327.960938 623.4375 C 327.960938 619.953125 327.570312 617.054688 326.789062 614.714844 C 326.0625 612.375 324.976562 610.507812 323.515625 609.105469 C 322.03125 607.589844 320.265625 606.546875 318.21875 605.984375 C 315.875 605.328125 313.488281 605.015625 311.054688 605.054688 C 306.933594 605.023438 302.910156 605.644531 298.992188 606.917969 C 295.324219 608.15625 291.769531 609.664062 288.328125 611.4375 L 283.351562 600.765625 C 287.195312 598.691406 291.472656 596.917969 296.191406 595.464844 C 301.042969 593.988281 306.003906 593.261719 311.070312 593.285156 C 316.367188 593.285156 320.929688 593.835938 324.769531 594.925781 C 328.667969 595.960938 331.855469 597.652344 334.335938 599.976562 C 336.988281 602.417969 338.882812 605.351562 340.019531 608.777344 C 341.277344 612.347656 341.792969 616.699219 341.792969 621.789062 L 341.792969 680.382812 L 331.609375 680.382812 Z M 305.792969 670.492188 C 308.8125 670.519531 311.742188 670.027344 314.585938 669.011719 C 317.253906 668.0625 319.585938 666.585938 321.582031 664.582031 C 323.558594 662.542969 325.089844 660.035156 326.1875 657.027344 C 327.339844 653.960938 327.898438 650.382812 327.898438 646.277344 L 327.898438 638.566406 L 316.765625 639.117188 C 312.097656 639.320312 308.175781 639.84375 305.015625 640.675781 C 301.851562 641.507812 299.300781 642.679688 297.398438 644.1875 C 295.625 645.640625 294.183594 647.429688 293.351562 649.558594 C 292.476562 651.839844 292.0625 654.203125 292.101562 656.648438 C 292.101562 661.433594 293.339844 664.933594 295.839844 667.167969 C 298.378906 669.402344 301.703125 670.519531 305.800781 670.519531 M 429.191406 649.929688 C 429.191406 654.964844 428.28125 659.484375 426.464844 663.492188 C 424.714844 667.441406 422.175781 670.792969 418.839844 673.542969 C 415.519531 676.199219 411.472656 678.398438 406.707031 679.851562 C 401.925781 681.253906 396.558594 681.953125 390.589844 681.953125 C 385.148438 681.980469 379.753906 681.511719 374.398438 680.550781 C 369.414062 679.664062 365.242188 678.335938 361.867188 676.582031 L 361.867188 662.71875 L 367.863281 665.199219 L 374.949219 667.300781 L 382.652344 668.863281 C 385.261719 669.21875 387.882812 669.402344 390.519531 669.410156 C 398.816406 669.410156 404.953125 667.851562 408.886719 664.738281 C 412.871094 661.621094 414.882812 657.160156 414.882812 651.339844 C 414.933594 648.828125 414.542969 646.386719 413.710938 644.019531 C 412.984375 641.945312 411.675781 640.046875 409.746094 638.328125 C 407.972656 636.554688 405.359375 634.78125 402.191406 633.277344 C 398.300781 631.246094 394.304688 629.453125 390.199219 627.90625 C 386 626.292969 381.980469 624.320312 378.136719 621.984375 C 374.773438 619.804688 371.964844 617.355469 369.722656 614.664062 C 367.546875 611.960938 365.917969 608.902344 364.816406 605.472656 C 363.78125 602.042969 363.257812 598.152344 363.257812 593.789062 C 363.257812 589.214844 364.09375 585.148438 365.738281 581.558594 C 367.367188 577.996094 369.703125 574.984375 372.746094 572.519531 C 375.949219 569.910156 379.53125 568.015625 383.488281 566.828125 C 387.691406 565.535156 392.308594 564.878906 397.335938 564.878906 C 403.511719 564.878906 409.0625 565.472656 413.988281 566.667969 C 418.917969 567.820312 423.304688 569.292969 427.136719 571.101562 L 421.824219 583.242188 C 418.457031 581.734375 414.617188 580.441406 410.3125 579.34375 C 405.976562 578.1875 401.566406 577.617188 397.082031 577.632812 C 390.75 577.632812 385.832031 579.113281 382.378906 582.0625 C 381.515625 582.785156 380.746094 583.59375 380.066406 584.488281 C 379.386719 585.382812 378.816406 586.34375 378.355469 587.371094 C 377.894531 588.398438 377.558594 589.460938 377.339844 590.5625 C 377.121094 591.667969 377.03125 592.78125 377.066406 593.90625 C 377.066406 596.867188 377.457031 599.4375 378.234375 601.617188 C 379.082031 603.863281 380.378906 605.808594 382.121094 607.457031 C 383.9375 609.167969 386.328125 610.808594 389.207031 612.367188 C 392.21875 613.875 395.902344 615.488281 400.261719 617.199219 C 404.511719 618.84375 408.636719 620.761719 412.632812 622.957031 C 415.957031 624.734375 418.941406 626.96875 421.585938 629.660156 C 423.992188 632.15625 425.78125 635.042969 426.953125 638.308594 C 428.191406 641.589844 428.855469 645.59375 428.855469 650.0625 M 481.574219 681.945312 C 476.332031 681.945312 471.425781 681.058594 466.875 679.523438 C 462.285156 677.871094 458.3125 675.273438 454.964844 671.722656 C 451.597656 668.144531 448.941406 663.597656 447.027344 658.09375 C 445.105469 652.535156 444.148438 645.863281 444.148438 638.0625 C 444.148438 629.90625 445.035156 622.996094 447.109375 617.339844 C 449.082031 611.621094 451.773438 607.003906 455.203125 603.476562 C 458.628906 599.914062 462.671875 597.316406 467.335938 595.679688 C 471.941406 594.054688 476.898438 593.257812 482.214844 593.257812 C 486.207031 593.25 490.152344 593.691406 494.042969 594.578125 C 497.417969 595.285156 500.664062 596.375 503.777344 597.847656 L 499.570312 609.851562 C 498.375 609.320312 497.054688 608.839844 495.601562 608.371094 C 494.148438 607.851562 492.675781 607.40625 491.175781 607.039062 C 489.617188 606.625 488.074219 606.3125 486.570312 606.109375 C 485.15625 605.859375 483.730469 605.730469 482.292969 605.71875 C 474.144531 605.71875 468.125 608.34375 464.464844 613.589844 C 460.726562 618.785156 458.859375 626.886719 458.859375 637.894531 C 458.859375 648.847656 460.632812 656.878906 464.464844 661.964844 C 468.257812 667 473.984375 669.515625 481.664062 669.515625 C 485.515625 669.5625 489.300781 669.097656 493.027344 668.117188 C 496.226562 667.210938 499.34375 666.070312 502.371094 664.6875 L 502.371094 677.308594 C 499.507812 678.84375 496.496094 679.988281 493.335938 680.738281 C 490.175781 681.519531 486.074219 681.90625 481.453125 681.90625 M 559.117188 593.292969 L 564.167969 593.523438 C 565.789062 593.597656 567.394531 593.78125 568.992188 594.074219 L 567.222656 607.164062 L 562.792969 606.542969 C 561.289062 606.332031 559.871094 606.234375 558.515625 606.234375 C 555.238281 606.234375 552.265625 606.90625 549.660156 608.253906 C 546.882812 609.605469 544.546875 611.503906 542.65625 613.945312 C 540.597656 616.613281 539.121094 619.574219 538.226562 622.824219 C 537.144531 626.566406 536.625 630.382812 536.667969 634.277344 L 536.667969 680.382812 L 522.5 680.382812 L 522.5 594.855469 L 534.011719 594.855469 L 535.722656 610.515625 L 536.339844 610.515625 L 540.46875 604.042969 C 541.910156 602.027344 543.574219 600.210938 545.453125 598.59375 C 547.320312 596.980469 549.394531 595.707031 551.679688 594.773438 C 554.253906 593.746094 556.929688 593.253906 559.703125 593.292969 M 598.855469 680.382812 L 584.6875 680.382812 L 584.6875 594.855469 L 598.855469 594.855469 L 598.855469 680.382812 M 585.925781 564.941406 C 586.746094 564.234375 587.667969 563.699219 588.6875 563.335938 C 589.707031 562.972656 590.757812 562.808594 591.839844 562.839844 C 592.9375 562.824219 594 563.007812 595.03125 563.390625 C 596.046875 563.683594 596.925781 564.203125 597.675781 564.949219 C 598.5 565.738281 599.09375 566.671875 599.464844 567.75 C 599.9375 568.839844 600.175781 570.167969 600.175781 571.71875 C 600.175781 574.734375 599.34375 576.996094 597.695312 578.5 C 596.082031 579.953125 594.152344 580.679688 591.851562 580.679688 C 589.546875 580.679688 587.484375 579.589844 585.871094 578.128906 C 584.3125 576.675781 583.570312 574.40625 583.585938 571.535156 C 583.597656 568.609375 584.472656 566.339844 585.933594 564.941406 Z M 663.902344 681.933594 C 661.082031 681.96875 658.308594 681.628906 655.578125 680.925781 C 653.097656 680.25 650.832031 679.363281 648.804688 678.265625 C 646.875 677.160156 645.109375 675.835938 643.507812 674.292969 C 642.027344 672.820312 640.679688 671.238281 639.460938 669.542969 L 638.53125 669.542969 L 639 674.597656 L 639.308594 678.804688 L 639.46875 682.15625 L 639.46875 718.691406 L 625.300781 718.691406 L 625.300781 594.851562 L 636.8125 594.851562 L 638.847656 606.375 L 639.46875 606.375 C 640.660156 604.5625 642.007812 602.875 643.515625 601.316406 C 645.050781 599.679688 646.789062 598.300781 648.730469 597.183594 C 650.863281 595.945312 653.121094 595.011719 655.507812 594.382812 C 658.257812 593.621094 661.058594 593.257812 663.910156 593.292969 C 668.78125 593.292969 673.226562 594.222656 677.222656 596.09375 C 681.214844 597.964844 684.617188 600.765625 687.40625 604.515625 C 690.257812 608.203125 692.453125 612.800781 694.023438 618.304688 C 695.589844 623.808594 696.359375 630.199219 696.359375 637.46875 C 696.359375 644.789062 695.582031 651.230469 694.023438 656.789062 C 692.464844 662.285156 690.257812 666.921875 687.40625 670.652344 C 684.609375 674.390625 681.207031 677.210938 677.222656 679.144531 C 673.238281 680.914062 667.808594 681.945312 662.929688 681.945312 M 661.183594 605.054688 C 657.242188 605.054688 653.894531 605.648438 651.140625 606.84375 C 648.441406 608.042969 646.234375 609.859375 644.527344 612.296875 C 642.816406 614.734375 641.621094 617.773438 640.789062 621.40625 C 639.945312 625.648438 639.507812 629.933594 639.46875 634.257812 L 639.46875 637.449219 C 639.425781 642.152344 639.765625 646.824219 640.476562 651.472656 C 641.203125 655.523438 642.398438 658.953125 644.054688 661.753906 C 645.726562 664.488281 647.984375 666.59375 650.832031 668.0625 C 653.628906 669.464844 657.136719 670.164062 661.34375 670.164062 C 668.429688 670.164062 673.476562 667.328125 676.753906 661.671875 C 680.027344 656.019531 681.730469 647.882812 681.738281 637.300781 C 681.738281 626.484375 680.074219 618.421875 676.761719 613.078125 C 673.449219 607.730469 668.304688 605.054688 661.191406 605.054688 M 743.554688 670.332031 C 744.484375 670.332031 745.527344 670.242188 746.671875 670.171875 L 750.097656 669.78125 L 753.054688 669.234375 L 755.15625 668.683594 L 755.15625 679.433594 C 754.480469 679.746094 753.621094 680.054688 752.496094 680.367188 C 751.371094 680.695312 750.230469 680.953125 749.070312 681.144531 C 747.832031 681.410156 746.527344 681.589844 745.171875 681.695312 C 743.855469 681.851562 742.535156 681.925781 741.207031 681.925781 C 737.992188 681.925781 735.007812 681.507812 732.351562 680.683594 C 729.597656 679.863281 727.207031 678.4375 725.175781 676.402344 C 723.203125 674.367188 721.652344 671.652344 720.511719 668.222656 C 719.359375 664.738281 718.800781 660.378906 718.800781 655.132812 L 718.800781 605.5 L 706.738281 605.5 L 706.738281 599.1875 L 718.800781 593.109375 L 724.875 575.1875 L 733.050781 575.1875 L 733.050781 594.816406 L 754.71875 594.816406 L 754.71875 605.488281 L 733.234375 605.488281 L 733.234375 655.125 C 733.234375 660.15625 734.121094 663.953125 735.644531 666.496094 C 737.167969 669.039062 740 670.304688 743.738281 670.304688 " fill-opacity="1" fill-rule="nonzero"/><g clip-path="url(#a2dba7c4e8)"><path stroke-linecap="butt" transform="matrix(8.855985, 0, 0, 8.86321, 6.389831, -28.673365)" fill="none" stroke-linejoin="miter" d="M 6.745175 83.41997 C 6.444795 83.41997 6.184996 83.400137 5.96313 83.357827 C 5.73994 83.32301 5.547186 83.273208 5.383102 83.20798 L 5.383102 81.799859 C 5.594382 81.855391 5.808309 81.896379 6.024882 81.922822 C 6.269684 81.959402 6.51581 81.977031 6.762818 81.97615 C 6.983361 81.975269 7.200376 81.946181 7.412979 81.888005 C 7.636168 81.835999 7.835539 81.736395 8.011091 81.589192 C 8.192819 81.44199 8.338818 81.238815 8.450854 80.983194 C 8.56289 80.727132 8.618026 80.397027 8.618026 79.999052 L 8.618026 67.150116 L 10.261953 67.150116 L 10.261953 79.824083 C 10.261953 80.438896 10.174177 80.972175 9.998183 81.42392 C 9.844685 81.852306 9.604294 82.224279 9.277008 82.539839 C 8.960308 82.847466 8.591119 83.067388 8.169882 83.199166 C 7.742029 83.345927 7.158031 83.419088 6.637109 83.419088 M 18.429981 78.664091 L 18.359848 78.664091 C 18.183855 78.907372 17.990659 79.136109 17.77982 79.349862 C 17.590595 79.534967 17.379755 79.690102 17.146862 79.81615 C 16.905147 79.943961 16.650199 80.03475 16.382019 80.08896 C 16.100165 80.148899 15.775967 80.177105 15.405896 80.177105 C 15.001861 80.177105 14.630026 80.117166 14.289949 80.000815 C 13.952518 79.898566 13.65655 79.725361 13.402043 79.481198 C 13.155917 79.241002 12.961839 78.940868 12.822015 78.585201 C 12.682191 78.222043 12.622203 77.784842 12.622203 77.301806 C 12.622203 76.341904 12.959193 75.601925 13.622145 75.087156 C 14.301858 74.571066 15.32209 74.289883 16.715921 74.243166 L 18.332942 74.181023 L 18.332942 73.575024 C 18.332942 73.181896 18.288833 72.854878 18.201057 72.590882 C 18.119015 72.326887 17.995952 72.11622 17.830986 71.957999 C 17.663374 71.786998 17.464003 71.669324 17.232874 71.605859 C 16.968222 71.531817 16.698719 71.496559 16.423922 71.500966 C 15.958577 71.49744 15.504699 71.567516 15.061849 71.711193 C 14.648111 71.850903 14.246722 72.021023 13.858126 72.221113 L 13.296182 71.017049 C 13.730211 70.783023 14.2132 70.582933 14.746032 70.418983 C 15.293419 70.252388 15.853157 70.170413 16.424805 70.173058 C 17.022917 70.173058 17.538105 70.2352 17.972134 70.358163 C 18.411896 70.474955 18.771823 70.66579 19.051912 70.928022 C 19.35185 71.203476 19.565777 71.534461 19.694133 71.920978 C 19.836163 72.323802 19.893945 72.814771 19.893945 73.389038 L 19.893945 79.999933 L 18.750209 79.999933 Z M 15.82978 78.879166 C 16.170739 78.882251 16.501995 78.826279 16.823105 78.712131 C 17.123926 78.605034 17.387254 78.437999 17.61309 78.211906 C 17.835838 77.984051 18.009185 77.698901 18.13313 77.359982 C 18.262809 77.014012 18.325885 76.609866 18.325885 76.147103 L 18.325885 75.27711 L 17.06879 75.338811 C 16.542133 75.36217 16.098842 75.420786 15.742004 75.515102 C 15.385165 75.608976 15.097136 75.741194 14.881886 75.910874 C 14.682074 76.074824 14.518872 76.277118 14.424921 76.516873 C 14.326559 76.774698 14.279363 77.041337 14.284215 77.316791 C 14.284215 77.857122 14.424039 78.252012 14.705893 78.504108 C 14.99304 78.756203 15.367963 78.88181 15.831103 78.88181 M 21.251166 70.349789 L 22.903033 70.349789 L 24.652821 75.72004 L 24.883067 76.467071 L 25.146837 77.399207 L 25.384141 78.295204 L 25.53411 78.936901 L 25.595862 78.936901 L 25.745831 78.295204 L 25.983136 77.399207 L 26.246905 76.467071 L 26.477152 75.72004 L 28.226939 70.349789 L 29.878806 70.349789 L 26.575073 79.999933 L 24.545196 79.999933 Z M 36.4082 78.664091 L 36.338068 78.664091 C 36.162074 78.907372 35.968879 79.136109 35.75804 79.349862 C 35.564844 79.53673 35.349153 79.693188 35.111408 79.818795 C 34.873663 79.944402 34.623126 80.03431 34.359797 80.08896 C 34.077944 80.148899 33.754187 80.177105 33.384116 80.177105 C 32.980081 80.177105 32.607804 80.117166 32.268168 80.000815 C 31.930296 79.898566 31.634328 79.725361 31.379821 79.481198 C 31.134136 79.241002 30.940059 78.940868 30.799793 78.585201 C 30.659969 78.222043 30.599981 77.784842 30.599981 77.301806 C 30.599981 76.341904 30.936971 75.601925 31.599923 75.087156 C 32.280078 74.571066 33.299868 74.289883 34.694141 74.243166 L 36.311161 74.181023 L 36.311161 73.575024 C 36.311161 73.181896 36.267053 72.854878 36.178836 72.590882 C 36.096794 72.326887 35.974172 72.11622 35.809206 71.957999 C 35.641593 71.786998 35.442222 71.669324 35.211093 71.605859 C 34.946442 71.531817 34.676938 71.496559 34.402142 71.500966 C 33.936796 71.49744 33.482478 71.567516 33.040069 71.711193 C 32.625889 71.850903 32.224501 72.021023 31.835904 72.221113 L 31.273961 71.017049 C 31.707989 70.783023 32.190978 70.582933 32.72381 70.418983 C 33.271639 70.252388 33.831818 70.170413 34.403906 70.173058 C 35.002019 70.173058 35.517207 70.2352 35.950794 70.358163 C 36.390998 70.474955 36.750924 70.66579 37.031014 70.928022 C 37.330511 71.203476 37.544438 71.534461 37.672794 71.920978 C 37.814823 72.323802 37.873047 72.814771 37.873047 73.389038 L 37.873047 79.999933 L 36.723136 79.999933 Z M 33.807999 78.884014 C 34.148958 78.887099 34.479773 78.831568 34.800883 78.716979 C 35.102145 78.609882 35.365473 78.443288 35.590868 78.217195 C 35.814058 77.987136 35.986963 77.70419 36.110908 77.36483 C 36.241029 77.01886 36.304104 76.615155 36.304104 76.151951 L 36.304104 75.281958 L 35.047009 75.3441 C 34.519912 75.367018 34.077061 75.426075 33.720223 75.51995 C 33.362943 75.613824 33.074914 75.746042 32.860105 75.916163 C 32.659853 76.080113 32.497092 76.281966 32.403141 76.522161 C 32.304337 76.779546 32.257582 77.046185 32.261993 77.32208 C 32.261993 77.86197 32.401817 78.25686 32.684112 78.508956 C 32.970818 78.761051 33.346182 78.887099 33.808881 78.887099 M 47.741902 76.56403 C 47.741902 77.132127 47.639129 77.642047 47.434024 78.094232 C 47.236418 78.539807 46.949712 78.91795 46.573024 79.228221 C 46.198101 79.527915 45.741136 79.776044 45.203012 79.939994 C 44.663123 80.098215 44.057071 80.177105 43.383091 80.177105 C 42.768659 80.18019 42.159519 80.127303 41.55479 80.018884 C 40.991965 79.918839 40.520885 79.768992 40.139787 79.571106 L 40.139787 78.006969 L 40.816854 78.28683 L 41.616983 78.523941 L 42.486805 78.700231 C 42.78145 78.740337 43.077419 78.761051 43.375152 78.761933 C 44.312018 78.761933 45.004964 78.586083 45.449138 78.234824 C 45.899045 77.883124 46.126204 77.379815 46.126204 76.723133 C 46.131939 76.439746 46.08783 76.164292 45.993879 75.897211 C 45.911837 75.663186 45.764073 75.448993 45.546176 75.255073 C 45.345923 75.054983 45.050837 74.854894 44.693116 74.685214 C 44.253795 74.456036 43.802564 74.253743 43.338983 74.079215 C 42.864815 73.897195 42.410938 73.674629 41.97691 73.411074 C 41.597135 73.165149 41.279994 72.888813 41.026811 72.585153 C 40.781126 72.28017 40.597193 71.935082 40.472807 71.548124 C 40.355919 71.161166 40.296813 70.722203 40.296813 70.229911 C 40.296813 69.713821 40.391206 69.255025 40.576903 68.849997 C 40.760836 68.448055 41.024605 68.108255 41.368211 67.830156 C 41.729901 67.535751 42.134377 67.321999 42.581197 67.188018 C 43.055806 67.042138 43.577169 66.968096 44.144847 66.968096 C 44.842203 66.968096 45.468986 67.035086 46.025196 67.169948 C 46.581846 67.299963 47.077186 67.466116 47.509891 67.670173 L 46.910014 69.03995 C 46.529798 68.86983 46.096211 68.723949 45.610134 68.600105 C 45.120529 68.46965 44.622543 68.405304 44.116176 68.407067 C 43.401176 68.407067 42.845849 68.574103 42.455929 68.906851 C 42.358449 68.988385 42.271555 69.079616 42.194806 69.180542 C 42.118057 69.281468 42.053658 69.389887 42.00161 69.505798 C 41.949562 69.621709 41.911629 69.741587 41.886928 69.865871 C 41.862227 69.990597 41.852082 70.116204 41.856052 70.243133 C 41.856052 70.577204 41.900161 70.867202 41.987937 71.113127 C 42.083652 71.366545 42.230093 71.586026 42.426817 71.772013 C 42.631922 71.965051 42.901867 72.150156 43.226947 72.326006 C 43.567024 72.496126 43.982968 72.678146 44.47522 72.871184 C 44.955121 73.05673 45.420908 73.273127 45.872139 73.520815 C 46.247503 73.721346 46.584493 73.973441 46.883108 74.277101 C 47.154817 74.558726 47.356834 74.884422 47.48916 75.25287 C 47.628984 75.62308 47.703969 76.074824 47.703969 76.579015 M 53.656864 80.176224 C 53.064926 80.176224 52.510923 80.076179 51.997057 79.902973 C 51.478782 79.716546 51.030197 79.423463 50.652187 79.022843 C 50.271971 78.619137 49.972032 78.106132 49.7559 77.485149 C 49.538886 76.857995 49.43082 76.105234 49.43082 75.225104 C 49.43082 74.304867 49.530946 73.525222 49.765163 72.887051 C 49.987911 72.241827 50.291819 71.720889 50.679093 71.322913 C 51.065925 70.92097 51.522449 70.627887 52.049106 70.443223 C 52.569146 70.259881 53.128884 70.169973 53.729202 70.169973 C 54.179991 70.169091 54.625488 70.218893 55.06481 70.318938 C 55.445908 70.39871 55.81245 70.521672 56.163996 70.687826 L 55.688946 72.042178 C 55.553974 71.982239 55.404887 71.92803 55.240803 71.875143 C 55.076719 71.816526 54.91043 71.766283 54.741053 71.724855 C 54.565059 71.678138 54.390831 71.64288 54.221012 71.619962 C 54.061339 71.591756 53.900343 71.577212 53.738023 71.57589 C 52.817918 71.57589 52.138205 71.872058 51.724907 72.463953 C 51.302788 73.050119 51.091949 73.964186 51.091949 75.206153 C 51.091949 76.441949 51.292202 77.348083 51.724907 77.921908 C 52.153202 78.490005 52.799834 78.773832 53.667009 78.773832 C 54.101919 78.779121 54.529331 78.726675 54.950127 78.616052 C 55.311377 78.513804 55.663363 78.385112 56.005205 78.229095 L 56.005205 79.653081 C 55.681889 79.826287 55.341812 79.95542 54.984973 80.040039 C 54.628135 80.128184 54.164995 80.171816 53.64319 80.171816 M 62.412859 70.173939 L 62.983183 70.199942 C 63.166234 70.208316 63.34752 70.22903 63.527925 70.262084 L 63.328113 71.738958 L 62.827921 71.668883 C 62.658103 71.645084 62.497989 71.634066 62.344932 71.634066 C 61.974861 71.634066 61.639195 71.70987 61.34499 71.861921 C 61.031378 72.014412 60.767609 72.228605 60.554124 72.504059 C 60.321671 72.805075 60.154941 73.139146 60.053932 73.50583 C 59.931751 73.928046 59.873087 74.358636 59.877939 74.79804 L 59.877939 79.999933 L 58.27812 79.999933 L 58.27812 70.35023 L 59.578 70.35023 L 59.771196 72.117102 L 59.840888 72.117102 L 60.307115 71.386818 C 60.469876 71.159403 60.657779 70.954466 60.869941 70.772005 C 61.08078 70.589985 61.314997 70.446308 61.573032 70.340974 C 61.863707 70.225063 62.165851 70.169532 62.479022 70.173939 M 66.900026 79.999933 L 65.300208 79.999933 L 65.300208 70.35023 L 66.900026 70.35023 L 66.900026 79.999933 M 65.440032 66.975147 C 65.53266 66.895376 65.636756 66.834996 65.75188 66.794009 C 65.867003 66.753021 65.985655 66.734511 66.107836 66.738037 C 66.231781 66.736274 66.351756 66.756988 66.468203 66.800179 C 66.582885 66.833233 66.68213 66.89185 66.766818 66.976029 C 66.859887 67.065056 66.926932 67.170389 66.968835 67.29203 C 67.022207 67.414992 67.049113 67.564839 67.049113 67.739808 C 67.049113 68.080048 66.955162 68.335229 66.769024 68.504908 C 66.586855 68.668859 66.368959 68.750834 66.109159 68.750834 C 65.848918 68.750834 65.616025 68.627871 65.433857 68.463039 C 65.257863 68.299089 65.174057 68.043027 65.175821 67.719093 C 65.177145 67.388989 65.275948 67.132927 65.440914 66.975147 Z M 74.244988 80.174901 C 73.926524 80.178868 73.613353 80.140525 73.305034 80.061194 C 73.024945 79.984948 72.769115 79.884903 72.540191 79.761059 C 72.322295 79.636334 72.122924 79.486928 71.942079 79.312841 C 71.774907 79.146687 71.622733 78.968193 71.485114 78.776917 L 71.380135 78.776917 L 71.433066 79.347217 L 71.467911 79.82188 L 71.485996 80.200023 L 71.485996 84.322136 L 69.886177 84.322136 L 69.886177 70.349789 L 71.186058 70.349789 L 71.415863 71.649932 L 71.485996 71.649932 C 71.620527 71.445435 71.772702 71.255041 71.942961 71.079191 C 72.116308 70.894527 72.312591 70.73895 72.531811 70.612903 C 72.772643 70.473192 73.027591 70.367859 73.297095 70.296902 C 73.607619 70.21096 73.923878 70.169973 74.24587 70.173939 C 74.795904 70.173939 75.29786 70.278832 75.749091 70.48994 C 76.199881 70.701048 76.584067 71.017049 76.899002 71.440146 C 77.220995 71.856192 77.468885 72.374927 77.646201 72.99591 C 77.823077 73.616893 77.909971 74.337922 77.909971 75.158113 C 77.909971 75.984035 77.822195 76.710792 77.646201 77.337946 C 77.470208 77.958048 77.220995 78.48119 76.899002 78.902084 C 76.583184 79.323859 76.198999 79.642063 75.749091 79.860223 C 75.299183 80.059872 74.686074 80.176224 74.135158 80.176224 M 73.937992 71.500966 C 73.492937 71.500966 73.114926 71.567957 72.803961 71.702819 C 72.49917 71.838122 72.249957 72.04306 72.057202 72.318073 C 71.864007 72.593086 71.729034 72.935971 71.635083 73.345847 C 71.539808 73.824475 71.490407 74.307952 71.485996 74.795836 L 71.485996 75.15591 C 71.481144 75.686544 71.519518 76.213653 71.599796 76.738117 C 71.681838 77.195151 71.81681 77.582108 72.003831 77.898109 C 72.192616 78.206618 72.447563 78.444169 72.769115 78.609882 C 73.084932 78.768103 73.481027 78.846993 73.956077 78.846993 C 74.756207 78.846993 75.32609 78.527026 75.696161 77.888854 C 76.065791 77.251123 76.258104 76.33309 76.258986 75.139162 C 76.258986 73.918791 76.071084 73.009132 75.697043 72.406218 C 75.323002 71.802864 74.742092 71.500966 73.938875 71.500966 M 83.23917 78.865944 C 83.344149 78.865944 83.461919 78.855807 83.591157 78.847874 L 83.977989 78.803802 L 84.311891 78.7421 L 84.549195 78.679958 L 84.549195 79.892837 C 84.472887 79.928095 84.375849 79.962912 84.248816 79.99817 C 84.121783 80.035191 83.992986 80.064279 83.861984 80.085875 C 83.722159 80.115844 83.574837 80.136117 83.42178 80.148017 C 83.273134 80.165646 83.124047 80.17402 82.974078 80.17402 C 82.611064 80.17402 82.274074 80.126862 81.974136 80.033869 C 81.66317 79.941316 81.393226 79.780451 81.163861 79.550833 C 80.941113 79.321214 80.766002 79.01491 80.637205 78.627952 C 80.507084 78.234824 80.444009 77.742973 80.444009 77.151078 L 80.444009 71.551209 L 79.081936 71.551209 L 79.081936 70.838995 L 80.444009 70.153225 L 81.129898 68.131173 L 82.05309 68.131173 L 82.05309 70.345822 L 84.499794 70.345822 L 84.499794 71.549887 L 82.073821 71.549887 L 82.073821 77.150196 C 82.073821 77.717852 82.173948 78.146238 82.345971 78.433151 C 82.517995 78.720064 82.837782 78.862859 83.259901 78.862859 " stroke="#000000" stroke-width="1" stroke-opacity="1" stroke-miterlimit="4"/></g></svg>