<svg xmlns="http://www.w3.org/2000/svg" xmlns:xlink="http://www.w3.org/1999/xlink" width="1080" zoomAndPan="magnify" viewBox="0 0 810 809.999993" height="1080" preserveAspectRatio="xMidYMid meet" version="1.0"><defs><clipPath id="861326db5d"><path d="M 20.164062 208 L 785 208 L 785 607 L 20.164062 607 Z M 20.164062 208 " clip-rule="nonzero"/></clipPath></defs><g clip-path="url(#861326db5d)"><path fill="#00678c" d="M 18.75 571.03125 L 44.023438 571.03125 L 44.023438 470.859375 L 83.496094 558.195312 C 87.964844 568.695312 94.390625 572.582031 106.828125 572.582031 C 119.261719 572.582031 125.304688 568.6875 129.921875 558.195312 L 169.199219 470.859375 L 169.199219 571.03125 L 194.667969 571.03125 L 194.667969 470.859375 C 194.667969 461.140625 190.777344 456.460938 182.613281 453.933594 C 163.363281 448.097656 150.53125 453.15625 144.699219 466.183594 L 106.011719 552.546875 L 68.679688 466.183594 C 63.039062 453.15625 50.011719 448.097656 30.570312 453.933594 C 22.597656 456.460938 18.710938 461.132812 18.710938 470.859375 L 18.707031 571.03125 Z M 215.707031 489.53125 L 241.179688 489.53125 L 241.179688 544.582031 C 240.988281 547.6875 242.152344 554.695312 255.996094 554.882812 C 263.183594 555.078125 310.824219 554.882812 311.207031 554.882812 L 311.207031 489.140625 L 336.679688 489.140625 L 336.679688 579.199219 C 336.679688 601.371094 309.222656 606.230469 296.429688 606.429688 L 216.335938 606.429688 L 216.335938 589.515625 L 296.636719 589.515625 C 312.96875 587.761719 311.023438 579.597656 311.023438 576.871094 L 311.023438 570.253906 L 257.164062 570.253906 C 232.082031 570.058594 215.9375 558.972656 215.75 546.328125 L 215.75 489.523438 Z M 762.035156 425.730469 C 746.484375 425.339844 734.421875 426.898438 724.3125 431.179688 C 721.402344 432.355469 716.730469 432.355469 716.347656 436.046875 C 717.902344 437.59375 718.089844 440.125 719.453125 442.269531 C 721.785156 446.164062 725.871094 451.410156 729.5625 454.128906 C 733.652344 457.246094 737.734375 460.355469 742.003906 463.078125 C 749.585938 467.742188 758.140625 470.46875 765.527344 475.136719 C 769.808594 477.863281 774.082031 481.363281 778.363281 484.285156 C 780.539062 485.839844 781.859375 488.371094 784.585938 489.339844 L 784.585938 488.753906 C 783.226562 487.007812 782.832031 484.480469 781.476562 482.527344 C 779.53125 480.585938 777.585938 478.828125 775.636719 476.890625 C 770.003906 469.304688 763 462.6875 755.417969 457.246094 C 749.195312 452.964844 735.589844 447.132812 733.0625 439.9375 L 732.679688 439.546875 C 736.949219 439.152344 742.003906 437.597656 746.09375 436.429688 C 752.707031 434.683594 758.730469 435.070312 765.527344 433.320312 C 768.644531 432.535156 771.75 431.566406 774.867188 430.597656 L 774.867188 428.851562 C 771.367188 425.351562 768.839844 420.683594 765.148438 417.378906 C 755.234375 408.820312 744.339844 400.453125 733.0625 393.453125 C 727.035156 389.5625 719.257812 387.03125 712.84375 383.730469 C 710.503906 382.5625 706.621094 381.976562 705.261719 380.035156 C 701.753906 375.761719 699.8125 370.117188 697.285156 365.054688 C 691.652344 354.355469 686.203125 342.492188 681.347656 331.210938 C 677.847656 323.625 675.703125 316.039062 671.433594 309.039062 C 651.40625 275.972656 629.625 255.9375 596.183594 236.289062 C 588.992188 232.207031 580.4375 230.449219 571.34375 228.3125 L 556.765625 227.527344 C 553.648438 226.167969 550.539062 222.46875 547.816406 220.71875 C 536.734375 213.714844 508.152344 198.546875 499.984375 218.582031 C 494.730469 231.222656 507.761719 243.671875 512.183594 250.09375 C 515.496094 254.566406 519.765625 259.621094 522.105469 264.679688 C 523.414062 267.984375 523.851562 271.488281 525.214844 274.988281 C 528.320312 283.546875 531.242188 293.082031 535.324219 301.058594 C 537.503906 305.144531 539.789062 309.429688 542.515625 313.121094 C 544.070312 315.257812 546.792969 316.234375 547.371094 319.738281 C 544.648438 323.628906 544.460938 329.457031 542.90625 334.328125 C 535.902344 356.308594 538.628906 383.539062 548.539062 399.675781 C 551.65625 404.539062 559 415.242188 568.960938 411.152344 C 577.710938 407.652344 575.757812 396.566406 578.285156 386.839844 C 578.875 384.507812 578.484375 382.949219 579.644531 381.390625 L 579.644531 381.78125 L 587.621094 397.925781 C 593.648438 407.457031 604.148438 417.378906 612.894531 423.996094 C 617.558594 427.496094 621.253906 433.53125 627.085938 435.664062 L 627.085938 435.078125 L 626.699219 435.078125 C 625.53125 433.332031 623.78125 432.546875 622.226562 431.1875 C 618.726562 427.6875 614.839844 423.40625 612.117188 419.519531 C 603.953125 408.628906 596.761719 396.566406 590.34375 384.117188 C 587.230469 378.089844 584.503906 371.476562 581.984375 365.445312 C 580.808594 363.109375 580.808594 359.605469 578.871094 358.445312 C 575.949219 362.71875 571.679688 366.421875 569.53125 371.671875 C 565.835938 380.035156 565.453125 390.34375 564.09375 401.042969 C 563.308594 401.238281 563.65625 401.042969 563.308594 401.433594 C 557.09375 399.882812 554.949219 393.457031 552.621094 388.015625 C 546.789062 374.203125 545.8125 352.03125 550.867188 336.082031 C 552.226562 331.996094 558.066406 319.15625 555.734375 315.269531 C 554.558594 311.570312 550.679688 309.433594 548.535156 306.515625 C 546.007812 302.816406 543.292969 298.152344 541.542969 294.066406 C 536.878906 283.167969 534.546875 271.113281 529.488281 260.21875 C 527.148438 255.164062 523.070312 249.910156 519.761719 245.246094 C 516.066406 239.992188 511.992188 236.292969 509.074219 230.074219 C 508.101562 227.9375 506.742188 224.433594 508.296875 222.09375 C 508.679688 220.539062 509.464844 219.960938 511.011719 219.566406 C 513.539062 217.429688 520.738281 220.152344 523.265625 221.308594 C 530.457031 224.230469 536.484375 226.953125 542.511719 231.03125 C 545.234375 232.976562 548.152344 236.671875 551.652344 237.648438 L 555.738281 237.648438 C 561.960938 239.011719 568.957031 238.042969 574.78125 239.785156 C 585.089844 243.097656 594.417969 247.957031 602.785156 253.214844 C 628.253906 269.355469 649.257812 292.308594 663.445312 319.742188 C 665.777344 324.214844 666.746094 328.296875 668.890625 332.96875 C 672.980469 342.5 678.035156 352.222656 682.109375 361.566406 C 686.195312 370.707031 690.082031 380.050781 695.914062 387.636719 C 698.832031 391.722656 710.496094 393.859375 715.742188 396 C 719.632812 397.742188 725.65625 399.3125 729.164062 401.449219 C 735.769531 405.53125 742.378906 410.203125 748.597656 414.675781 C 751.707031 417.003906 761.433594 421.867188 762.011719 425.746094 Z M 563.757812 256.703125 C 561.058594 256.675781 558.40625 257 555.792969 257.671875 L 555.792969 258.066406 L 556.175781 258.066406 C 557.730469 261.179688 560.453125 263.320312 562.398438 266.042969 L 566.875 275.382812 L 567.257812 274.988281 C 569.980469 273.046875 571.34375 269.933594 571.34375 265.269531 C 570.175781 263.90625 569.984375 262.542969 569.011719 261.183594 C 567.84375 259.238281 565.316406 258.261719 563.757812 256.710938 Z M 563.757812 256.703125 " fill-opacity="1" fill-rule="evenodd"/></g><path fill="#ce8b2c" d="M 356.085938 571.03125 L 429.191406 571.03125 C 437.746094 571.03125 445.917969 569.285156 452.523438 566.167969 C 463.605469 561.113281 468.855469 554.3125 468.855469 545.359375 L 468.855469 526.6875 C 468.855469 519.496094 462.828125 512.683594 450.78125 508.015625 C 444.558594 505.683594 436.777344 504.320312 429.195312 504.320312 L 398.472656 504.320312 C 388.167969 504.320312 383.308594 501.203125 381.945312 494.402344 C 381.753906 493.625 381.753906 492.847656 381.753906 492.070312 L 381.753906 480.589844 C 381.753906 480.003906 381.753906 479.230469 381.945312 478.453125 C 383.304688 473.203125 386.027344 471.835938 395.019531 470.871094 L 469.871094 470.871094 L 469.871094 453.941406 L 398.710938 453.941406 C 388.402344 453.941406 382.960938 454.53125 378.097656 456.085938 C 363.125 460.75 356.515625 468.144531 356.515625 481.171875 L 356.515625 495.964844 C 356.515625 507.429688 369.347656 517.164062 391.125 519.496094 C 393.453125 519.691406 395.980469 519.691406 398.507812 519.691406 L 424.761719 519.691406 C 425.730469 519.691406 426.699219 519.691406 427.476562 519.886719 C 435.449219 520.664062 438.949219 522.023438 441.28125 524.9375 C 442.835938 526.492188 443.226562 527.859375 443.226562 529.609375 L 443.226562 544.390625 C 443.226562 546.132812 442.058594 548.476562 439.730469 550.417969 C 437.398438 552.359375 433.695312 553.722656 428.835938 553.917969 C 427.863281 553.917969 427.289062 554.113281 426.308594 554.113281 L 356.085938 554.113281 Z M 627.113281 541.664062 C 627.113281 558.972656 640.1875 568.695312 666.203125 570.648438 C 668.730469 570.84375 671.0625 571.03125 673.589844 571.03125 L 739.695312 571.03125 L 739.695312 554.113281 L 673.011719 554.113281 C 658.222656 554.113281 652.589844 550.417969 652.589844 541.472656 L 652.589844 453.941406 L 627.054688 453.941406 L 627.054688 541.667969 Z M 484.988281 542.4375 L 484.988281 482.144531 C 484.988281 466.777344 495.875 457.433594 517.074219 454.519531 C 519.40625 454.324219 521.738281 454.128906 523.871094 454.128906 L 572.085938 454.128906 C 574.613281 454.128906 576.757812 454.324219 579.285156 454.519531 C 600.476562 457.433594 611.164062 466.769531 611.164062 482.144531 L 611.164062 542.4375 C 611.164062 554.882812 606.699219 561.5 596.191406 565.976562 L 621.074219 588.535156 L 591.722656 588.535156 L 571.5 570.253906 L 551.082031 571.421875 L 523.863281 571.421875 C 518.855469 571.398438 513.929688 570.75 509.085938 569.484375 C 492.960938 565 484.988281 556.449219 484.988281 542.4375 Z M 512.398438 541.085938 C 512.398438 541.859375 512.832031 542.632812 512.984375 543.613281 C 514.347656 550.609375 520.953125 554.503906 531.0625 554.503906 L 554.007812 554.503906 L 533.015625 535.4375 L 562.367188 535.4375 L 580.835938 552.171875 C 584.34375 550.222656 586.480469 547.496094 587.253906 543.996094 C 587.449219 543.21875 587.449219 542.253906 587.449219 541.46875 L 587.449219 483.695312 C 587.449219 482.917969 587.449219 482.148438 587.253906 481.363281 C 585.894531 474.753906 579.289062 471.0625 569.371094 471.0625 L 531.066406 471.0625 C 519.789062 471.0625 512.402344 475.921875 512.402344 483.695312 Z M 512.398438 541.085938 " fill-opacity="1" fill-rule="evenodd"/></svg>