<svg xmlns="http://www.w3.org/2000/svg" xmlns:xlink="http://www.w3.org/1999/xlink" width="1080" zoomAndPan="magnify" viewBox="0 0 810 809.999993" height="1080" preserveAspectRatio="xMidYMid meet" version="1.0"><defs><clipPath id="027ee46ca5"><path d="M 141.542969 81 L 668.792969 81 L 668.792969 608.25 L 141.542969 608.25 Z M 141.542969 81 " clip-rule="nonzero"/></clipPath><clipPath id="75c9f46bba"><path d="M 170 657.441406 L 640 657.441406 L 640 728.691406 L 170 728.691406 Z M 170 657.441406 " clip-rule="nonzero"/></clipPath></defs><g clip-path="url(#027ee46ca5)"><path fill="#e3f8fa" d="M 569.933594 608.25 L 240.402344 608.25 C 185.800781 608.25 141.542969 563.992188 141.542969 509.390625 L 141.542969 179.859375 C 141.542969 125.257812 185.800781 81 240.402344 81 L 569.933594 81 C 624.535156 81 668.792969 125.257812 668.792969 179.859375 L 668.792969 509.390625 C 668.792969 563.992188 624.535156 608.25 569.933594 608.25 Z M 569.933594 608.25 " fill-opacity="1" fill-rule="nonzero"/></g><path fill="#8ce1eb" d="M 514.507812 376.671875 L 514.539062 376.621094 L 514.488281 376.671875 Z M 514.507812 376.671875 " fill-opacity="1" fill-rule="nonzero"/><path fill="#8ce1eb" d="M 481.964844 374.578125 L 481.980469 374.597656 L 481.980469 374.613281 L 481.949219 374.628906 C 480.351562 375.207031 479.03125 375.453125 477.929688 375.945312 C 476.808594 376.390625 475.886719 377.214844 475.339844 378.269531 L 475.324219 378.285156 C 474.632812 379.554688 474.054688 381.796875 474.238281 385.601562 C 474.699219 385.933594 475.242188 386.179688 475.804688 386.359375 L 475.851562 386.375 C 477.714844 386.953125 480.828125 387.316406 484.289062 387.265625 C 491.207031 387.183594 499.726562 385.554688 504.257812 383.425781 C 508.144531 381.566406 511.492188 379.324219 514.472656 376.671875 C 499.363281 379.835938 490.828125 378.996094 485.574219 376.804688 C 484.207031 376.210938 483.019531 375.46875 481.964844 374.578125 Z M 481.964844 374.578125 " fill-opacity="1" fill-rule="nonzero"/><path fill="#8ce1eb" d="M 466.460938 258.402344 L 466.527344 258.503906 L 466.609375 258.601562 Z M 466.460938 258.402344 " fill-opacity="1" fill-rule="nonzero"/><path fill="#8ce1eb" d="M 408.644531 424.800781 C 408.628906 424.519531 408.644531 424.238281 408.628906 423.960938 C 408.628906 423.859375 408.613281 423.761719 408.613281 423.664062 Z M 408.644531 424.800781 " fill-opacity="1" fill-rule="nonzero"/><path fill="#8ce1eb" d="M 397.0625 376.324219 C 396.417969 376.011719 395.675781 375.78125 394.886719 375.667969 L 394.855469 375.667969 L 394.855469 375.648438 L 394.621094 375.648438 C 394.046875 375.699219 393.207031 375.898438 391.589844 377.710938 C 387.816406 381.992188 386.484375 384.679688 383.386719 387.199219 C 380.273438 389.703125 376.21875 391.039062 368.144531 392.71875 C 365.589844 393.246094 364.125 393.824219 363.136719 394.300781 C 363.449219 394.566406 363.417969 394.632812 363.894531 394.878906 C 365.082031 395.539062 366.597656 396.113281 367.816406 396.445312 C 371.292969 397.316406 376.992188 398.339844 382.957031 397.316406 C 388.921875 396.277344 395.117188 393.394531 400.390625 385.898438 C 401.296875 384.597656 401.394531 382.6875 400.652344 380.644531 C 399.894531 378.582031 398.230469 376.820312 397.0625 376.324219 Z M 397.0625 376.324219 " fill-opacity="1" fill-rule="nonzero"/><path fill="#8ce1eb" d="M 441.417969 229.304688 L 440.789062 229.421875 C 441.003906 229.371094 441.21875 229.355469 441.433594 229.304688 C 441.433594 229.320312 441.417969 229.320312 441.417969 229.304688 Z M 441.417969 229.304688 " fill-opacity="1" fill-rule="nonzero"/><path fill="#8ce1eb" d="M 471.980469 288.605469 C 464.617188 288.703125 460.480469 290.632812 458.304688 293.136719 C 455.238281 296.710938 454.945312 302.972656 456.855469 310.683594 C 458.75 318.410156 462.6875 327.042969 466.378906 334.210938 C 468.222656 337.804688 470.019531 341.03125 471.453125 343.652344 C 472.902344 346.289062 473.972656 348.152344 474.617188 349.75 C 475.210938 351.214844 475.867188 352.515625 476.542969 353.71875 C 479.394531 347.625 479.90625 341.644531 479.609375 335.398438 C 479.230469 327.671875 477.46875 319.777344 477.714844 311.789062 C 478.011719 302.445312 479.824219 296.347656 479.988281 289.132812 C 477.597656 288.800781 474.796875 288.605469 471.980469 288.605469 Z M 473.347656 294.15625 L 473.332031 294.238281 C 473.332031 294.273438 473.332031 294.304688 473.332031 294.355469 C 473.332031 294.867188 473.183594 295.34375 472.9375 295.738281 L 472.953125 295.722656 C 472.621094 296.347656 472.210938 296.890625 471.765625 297.371094 C 470.695312 298.574219 469.246094 299.398438 467.613281 299.695312 L 467.566406 299.710938 C 467.335938 299.742188 467.070312 299.757812 466.789062 299.757812 C 465.40625 299.757812 464.136719 299.316406 463.082031 298.574219 L 463.097656 298.589844 C 462.554688 298.210938 462.09375 297.78125 461.699219 297.304688 L 461.683594 297.289062 C 461.351562 296.910156 461.089844 296.429688 461.007812 295.921875 L 461.007812 295.902344 C 461.007812 295.855469 460.992188 295.789062 460.992188 295.738281 C 460.992188 295.261719 461.171875 294.832031 461.453125 294.503906 C 461.796875 294.089844 462.226562 293.761719 462.703125 293.53125 L 462.71875 293.515625 C 463.757812 292.921875 465.175781 292.476562 466.773438 292.246094 C 467.367188 292.164062 467.960938 292.113281 468.503906 292.097656 L 468.503906 292.128906 L 469.046875 292.128906 C 469.757812 292.148438 470.429688 292.230469 470.992188 292.378906 C 471.585938 292.507812 472.078125 292.707031 472.492188 292.988281 C 472.9375 293.234375 473.25 293.648438 473.347656 294.15625 Z M 473.347656 294.15625 " fill-opacity="1" fill-rule="nonzero"/><path fill="#26c6da" d="M 351.09375 337.011719 C 351.09375 335.035156 351.238281 333.109375 351.519531 331.195312 L 351.503906 331.410156 C 352.625 323.289062 352.773438 315.707031 352.640625 309.710938 C 352.507812 303.863281 352.097656 299.972656 352.097656 297.550781 C 352.097656 297.519531 352.097656 297.484375 352.097656 297.453125 C 352.097656 297.417969 352.097656 297.371094 352.097656 297.335938 L 352.097656 297.289062 L 352.082031 297.222656 L 352.082031 297.207031 C 352.082031 297.1875 352.082031 297.171875 352.082031 297.15625 C 352.082031 284.140625 354.371094 271.683594 358.507812 260.117188 C 361.539062 251.945312 366.070312 243.640625 372.839844 236.933594 C 366.183594 234.710938 354.355469 231.332031 341.550781 230.691406 C 340.332031 230.625 338.882812 230.574219 337.433594 230.574219 L 337.449219 230.574219 L 337.449219 230.589844 C 336.066406 230.589844 334.699219 230.640625 333.332031 230.707031 C 322.375 231.347656 312.007812 234.5625 304.59375 242.519531 C 297.164062 250.476562 292.285156 263.511719 293.359375 285.09375 C 293.570312 289.179688 295.320312 300.632812 298.332031 314.226562 C 301.347656 327.820312 305.601562 343.835938 310.722656 357.972656 C 315.847656 372.109375 322.078125 384.414062 327.976562 390.230469 C 330.941406 393.148438 333.527344 394.316406 335.867188 394.21875 C 338.222656 394.105469 341.058594 392.738281 344.519531 388.535156 C 351.324219 380.246094 357.75 372.933594 364.371094 365.8125 L 364.15625 366.042969 C 356.132812 358.941406 351.09375 348.578125 351.09375 337.011719 Z M 351.09375 337.011719 " fill-opacity="1" fill-rule="nonzero"/><path fill="#26c6da" d="M 409.519531 230.03125 L 409.519531 230.015625 C 396.699219 230.046875 387.488281 233.96875 380.519531 239.851562 C 373.320312 245.929688 368.492188 254.234375 365.328125 262.753906 C 361.570312 272.851562 360.269531 282.640625 359.757812 289.265625 L 359.90625 289.179688 C 363.777344 286.988281 368.871094 284.78125 374.324219 283.511719 C 379.777344 282.246094 385.644531 281.847656 390.964844 283.941406 C 396.285156 286.035156 400.667969 290.945312 402.269531 298.390625 C 409.914062 334.164062 399.894531 347.476562 396.203125 357.507812 C 395.035156 360.394531 393.800781 364.117188 392.792969 367.90625 L 392.613281 368.648438 C 393.074219 368.53125 393.550781 368.402344 394.011719 368.367188 C 396.617188 368.152344 398.660156 369.027344 399.878906 369.554688 C 403.585938 371.121094 406.140625 374.382812 407.523438 378.121094 C 407.886719 379.09375 408.148438 380.148438 408.296875 381.234375 C 408.445312 381.613281 408.511719 382.042969 408.511719 382.503906 C 408.511719 382.539062 408.511719 382.585938 408.511719 382.636719 C 408.332031 388.125 408.234375 394.582031 408.234375 401.058594 C 408.234375 408.734375 408.398438 416.378906 408.675781 423.992188 C 408.925781 429.777344 409.289062 434.882812 409.75 438.921875 C 410.210938 443.023438 410.867188 446.136719 411.296875 447.191406 C 412.679688 450.699219 414.707031 455.316406 418.382812 458.445312 C 422.054688 461.558594 427.3125 463.652344 436.917969 461.558594 C 445.253906 459.746094 450.394531 457.226562 453.839844 453.617188 C 457.285156 450.007812 459.328125 444.96875 460.628906 437.273438 C 462.589844 425.738281 466.542969 392.292969 467.019531 385.996094 C 466.808594 381.253906 467.5 377.609375 469 374.828125 C 470.53125 371.976562 472.917969 370.230469 474.996094 369.273438 C 476.035156 368.796875 476.988281 368.484375 477.78125 368.253906 C 476.808594 366.851562 475.953125 365.699219 475.046875 364.5625 L 475.144531 364.675781 C 472.292969 361.199219 469.871094 357.214844 468.042969 352.929688 L 467.925781 352.617188 C 466.824219 350.324219 465.882812 348.578125 464.910156 346.882812 L 465.144531 347.3125 C 463.691406 344.675781 461.878906 341.378906 459.96875 337.671875 C 456.148438 330.257812 451.996094 321.277344 449.835938 312.511719 C 447.695312 303.761719 447.363281 294.71875 452.882812 288.339844 C 457.761719 282.671875 466.34375 280.316406 479.214844 281.636719 C 478.835938 280.480469 478.605469 279.527344 477.960938 277.992188 C 474.832031 270.644531 471.058594 264.285156 466.59375 258.519531 C 455.683594 244.429688 438.054688 230.492188 410.835938 230.046875 L 409.519531 230.046875 Z M 409.519531 230.03125 " fill-opacity="1" fill-rule="nonzero"/><path fill="#8ce1eb" d="M 359.59375 298.160156 L 359.609375 298.144531 L 359.644531 298.113281 Z M 359.59375 298.160156 " fill-opacity="1" fill-rule="nonzero"/><path fill="#8ce1eb" d="M 429.667969 217.441406 C 429.851562 217.394531 430.046875 217.375 430.230469 217.3125 L 430.441406 217.246094 Z M 429.667969 217.441406 " fill-opacity="1" fill-rule="nonzero"/><path fill="#8ce1eb" d="M 375.742188 290.730469 L 375.855469 290.714844 L 375.9375 290.679688 Z M 375.742188 290.730469 " fill-opacity="1" fill-rule="nonzero"/><path fill="#8ce1eb" d="M 389.351562 354.921875 C 393.75 342.910156 402.433594 334.144531 395.117188 299.941406 C 393.914062 294.339844 391.558594 292.082031 388.296875 290.796875 C 386.714844 290.21875 384.886719 289.875 382.957031 289.875 C 382.84375 289.875 382.710938 289.875 382.59375 289.875 L 382.613281 289.875 C 380.273438 289.890625 378.015625 290.1875 375.839844 290.714844 C 371.226562 291.882812 367.15625 293.53125 363.382812 295.640625 C 361.964844 296.414062 360.746094 297.238281 359.609375 298.144531 L 359.394531 298.34375 C 359.460938 299.941406 359.773438 303.828125 359.90625 309.5625 C 360.039062 315.824219 359.890625 323.816406 358.6875 332.449219 C 356.101562 351.230469 369.5625 366.785156 385.378906 366.800781 C 386.320312 362.945312 387.835938 359.042969 389.351562 354.921875 Z M 380.007812 300.335938 C 379.496094 299.808594 379.070312 299.214844 378.738281 298.574219 L 378.722656 298.523438 C 378.425781 298.0625 378.261719 297.503906 378.261719 296.890625 C 378.261719 296.777344 378.277344 296.679688 378.277344 296.5625 L 378.277344 296.578125 C 378.441406 295.394531 379.398438 294.785156 380.355469 294.4375 C 381.210938 294.15625 382.183594 293.992188 383.222656 293.992188 C 383.371094 293.992188 383.535156 293.992188 383.699219 294.007812 L 383.683594 293.960938 C 384.257812 293.960938 384.867188 294.007812 385.476562 294.109375 C 387.144531 294.339844 388.609375 294.785156 389.746094 295.441406 C 390.304688 295.753906 390.785156 296.132812 391.179688 296.597656 L 391.195312 296.613281 C 391.558594 297.039062 391.789062 297.601562 391.789062 298.226562 C 391.789062 298.308594 391.789062 298.410156 391.773438 298.492188 L 391.773438 298.472656 C 391.65625 299.132812 391.378906 299.710938 390.964844 300.171875 C 390.519531 300.714844 390.007812 301.191406 389.433594 301.589844 L 389.417969 301.605469 C 388.296875 302.410156 386.910156 302.90625 385.394531 302.90625 C 385.097656 302.90625 384.804688 302.890625 384.523438 302.855469 L 384.554688 302.855469 C 382.726562 302.527344 381.160156 301.621094 380.007812 300.335938 Z M 380.007812 300.335938 " fill-opacity="1" fill-rule="nonzero"/><path fill="#8ce1eb" d="M 363.167969 295.738281 C 363.234375 295.707031 363.316406 295.671875 363.382812 295.625 C 363.398438 295.625 363.417969 295.605469 363.417969 295.589844 Z M 363.167969 295.738281 " fill-opacity="1" fill-rule="nonzero"/><path fill="#26c6da" d="M 472.34375 254.019531 C 477.089844 260.117188 481.222656 267.054688 484.402344 274.5 L 484.632812 275.109375 C 485.820312 278.011719 486.628906 280.464844 487.089844 282.359375 C 487.320312 283.316406 487.46875 284.125 487.519531 284.945312 C 487.535156 285.359375 487.566406 285.789062 487.386719 286.527344 C 487.386719 286.5625 487.335938 286.644531 487.320312 286.675781 C 487.648438 296.300781 485.292969 302.824219 485.011719 312 C 484.800781 318.65625 486.480469 326.484375 486.890625 335.019531 C 487.289062 343.042969 486.332031 351.839844 481.191406 360.492188 C 481.621094 361.019531 482.015625 361.546875 482.425781 362.074219 C 496.035156 340.375 505.839844 316.382812 511.078125 295.921875 C 513.878906 284.898438 515.363281 274.914062 515.496094 267.003906 C 515.609375 259.09375 514.144531 253.363281 512.296875 250.972656 C 497.734375 232.125 478.027344 227.328125 461.519531 227.195312 L 461.519531 227.214844 L 459.9375 227.214844 C 453.558594 227.3125 447.414062 228.054688 441.464844 229.339844 C 454.945312 235.386719 465.160156 244.710938 472.34375 254.019531 Z M 472.34375 254.019531 " fill-opacity="1" fill-rule="nonzero"/><path fill="#8ce1eb" d="M 411.332031 215.648438 L 411.214844 215.648438 C 398.429688 215.433594 387.457031 218.5625 378.589844 223.800781 C 369.859375 220.738281 351.765625 215.449219 332.6875 216.503906 C 319.40625 217.246094 304.90625 221.332031 294.164062 232.796875 C 283.457031 244.28125 277.789062 262.042969 278.992188 286.199219 C 279.320312 292.871094 281.199219 303.746094 284.3125 317.816406 C 287.425781 331.90625 291.792969 348.382812 297.261719 363.425781 C 302.714844 378.46875 308.699219 391.980469 318.039062 401.171875 C 322.703125 405.769531 329.128906 409.640625 336.707031 409.328125 C 342.03125 409.113281 346.824219 406.742188 350.976562 403.265625 C 353.003906 405.949219 355.160156 407.136719 357.121094 408.226562 C 359.59375 409.59375 362 410.53125 364.503906 411.140625 C 368.984375 412.277344 376.664062 413.792969 385.644531 412.246094 C 388.707031 411.734375 391.921875 410.710938 395.132812 409.277344 C 395.25 412.902344 395.398438 416.445312 395.527344 420.039062 C 395.972656 431.421875 396.253906 441.9375 399.632812 451.144531 C 400.175781 452.644531 401.660156 460.40625 407.523438 467.242188 C 413.390625 474.097656 424.859375 478.367188 437.941406 475.53125 C 447.167969 473.539062 458.898438 469.929688 466.691406 458.707031 C 474.402344 447.621094 477.863281 431.703125 478.554688 405.886719 C 478.734375 404.484375 478.933594 403.296875 479.148438 402.195312 L 480.976562 402.359375 L 481.191406 402.359375 C 491.027344 402.804688 501.703125 401.386719 510.632812 397.203125 C 518.527344 393.496094 524.507812 389.753906 528.859375 383.113281 C 529.945312 381.464844 531.132812 379.472656 531.460938 376.046875 C 531.789062 372.617188 529.847656 367.265625 526.617188 364.792969 C 520.15625 359.832031 516.105469 361.710938 511.753906 362.632812 C 507.882812 363.539062 503.402344 364.117188 498.804688 364.230469 L 498.722656 364.230469 C 511.261719 342.84375 520.257812 320.125 525.398438 300.023438 C 528.429688 288.160156 530.144531 277.21875 530.273438 267.648438 C 530.421875 258.074219 529.648438 249.605469 523.980469 242.289062 C 506.285156 219.402344 481.40625 213.074219 462.144531 212.84375 C 461.550781 212.828125 460.957031 212.828125 460.347656 212.828125 L 460.347656 212.8125 C 449.867188 212.894531 439.785156 214.476562 430.230469 217.3125 L 429.765625 217.457031 C 424.265625 216.421875 417.855469 215.761719 411.332031 215.648438 Z M 437.363281 222.648438 C 444.085938 220.984375 451.8125 219.996094 459.769531 219.898438 L 459.835938 219.898438 L 459.855469 219.847656 C 478.058594 219.667969 501.324219 224.839844 518.03125 246.457031 C 521.789062 251.316406 522.910156 258.402344 522.777344 267.152344 C 522.628906 275.886719 521.046875 286.347656 518.132812 297.796875 C 512.464844 319.992188 501.769531 345.859375 486.695312 369.058594 C 487.1875 369.421875 487.765625 369.734375 488.359375 369.984375 L 488.40625 370 C 491.554688 371.316406 498.722656 372.453125 513.039062 369.472656 C 516.648438 368.699219 519.285156 368.1875 522.019531 370.296875 C 523.238281 371.351562 524.011719 372.914062 524.011719 374.660156 C 524.011719 374.777344 524.011719 374.875 523.996094 374.992188 L 523.996094 374.976562 C 523.832031 376.375 523.339844 377.609375 522.578125 378.664062 C 519.8125 382.867188 514.359375 386.855469 507.355469 390.132812 C 501.160156 393.050781 492.28125 394.582031 484.386719 394.664062 C 480.433594 394.714844 476.792969 394.402344 473.695312 393.429688 L 473.496094 393.347656 C 472.308594 404.996094 469.558594 427.980469 467.761719 438.476562 C 466.328125 446.929688 463.824219 453.652344 459.046875 458.691406 C 454.269531 463.71875 447.511719 466.75 438.417969 468.726562 C 427.148438 471.179688 418.941406 468.546875 413.652344 464.03125 C 408.363281 459.53125 405.941406 453.550781 404.492188 449.894531 C 403.488281 447.371094 402.976562 444.09375 402.464844 439.726562 C 401.972656 435.363281 401.59375 430.007812 401.34375 423.976562 C 401.097656 417.847656 400.984375 410.648438 400.984375 403.398438 C 400.984375 401.007812 401 398.636719 401.015625 396.261719 C 396.484375 400.480469 390.734375 403.445312 384.375 404.582031 L 384.175781 404.617188 C 376.695312 405.902344 370.023438 404.632812 366.050781 403.628906 C 363.925781 403.082031 362.082031 402.324219 360.351562 401.386719 C 358.523438 400.398438 356.792969 399.261719 355.640625 397.054688 C 355.179688 396.214844 354.898438 395.191406 354.898438 394.105469 C 354.898438 393.675781 354.949219 393.246094 355.03125 392.851562 C 355.425781 391.386719 356.25 390.132812 357.371094 389.242188 L 357.386719 389.226562 C 359.527344 387.464844 362.378906 386.476562 366.664062 385.570312 C 374.472656 383.9375 377.191406 382.835938 378.855469 381.5 C 380.273438 380.363281 381.855469 378.054688 384.6875 374.660156 C 384.671875 374.5625 384.671875 374.398438 384.65625 374.25 L 384.65625 374.21875 C 379.332031 374.070312 374.390625 372.617188 370.054688 370.195312 L 370.222656 370.277344 C 368.589844 372.007812 360.285156 380.90625 350.152344 393.265625 C 345.886719 398.421875 341.171875 401.386719 336.214844 401.601562 C 331.238281 401.816406 326.757812 399.277344 322.933594 395.539062 C 315.304688 388.039062 309.207031 375.125 303.902344 360.542969 C 298.613281 345.960938 294.296875 329.714844 291.234375 315.875 C 288.167969 302.03125 286.355469 290.878906 286.09375 285.492188 C 284.953125 262.621094 290.242188 247.214844 299.304688 237.496094 C 308.382812 227.773438 320.808594 224.097656 332.933594 223.390625 C 354.699219 222.121094 375.34375 229.800781 379.53125 231.449219 C 387.585938 225.910156 397.953125 222.46875 410.917969 222.683594 C 417.441406 222.78125 423.703125 223.652344 429.71875 225.203125 L 429.15625 225.085938 L 429.371094 224.988281 C 431.464844 224.199219 434.148438 223.390625 436.886719 222.730469 Z M 437.363281 222.648438 " fill-opacity="1" fill-rule="nonzero"/><g clip-path="url(#75c9f46bba)"><path fill="#000000" d="M 199.511719 685.972656 L 176.726562 685.972656 L 176.726562 663.148438 L 200.746094 663.148438 C 209.535156 663.148438 213.933594 667.011719 213.933594 674.726562 C 213.933594 682.21875 209.125 685.960938 199.507812 685.960938 M 215.886719 662.878906 C 212.761719 660.09375 208.394531 658.703125 202.78125 658.703125 L 170.152344 658.882812 L 170.152344 713.488281 L 176.726562 713.488281 L 176.664062 690.242188 L 200.945312 690.242188 C 207.03125 690.242188 211.824219 688.847656 215.320312 686.0625 C 218.820312 683.277344 220.558594 679.414062 220.558594 674.472656 C 220.558594 669.527344 218.996094 665.675781 215.863281 662.878906 Z M 258.445312 702.023438 C 257.777344 703.867188 256.734375 705.417969 255.316406 706.667969 C 252.371094 709.535156 247.878906 710.960938 241.835938 710.960938 C 236.378906 710.960938 232.1875 709.570312 229.265625 706.789062 C 226.34375 704.003906 224.882812 700.28125 224.882812 695.625 C 224.882812 693.195312 225.265625 691.039062 226.03125 689.167969 C 226.796875 687.296875 227.902344 685.699219 229.355469 684.402344 C 232.378906 681.660156 236.535156 680.289062 241.835938 680.289062 C 253.570312 680.289062 259.4375 685.402344 259.4375 695.636719 C 259.4375 698.066406 259.101562 700.203125 258.4375 702.046875 M 259.628906 681.902344 C 255.621094 678.261719 249.691406 676.441406 241.835938 676.441406 C 234.414062 676.441406 228.679688 678.300781 224.632812 682.007812 C 220.980469 685.375 219.152344 689.914062 219.152344 695.625 C 219.152344 701.296875 221.039062 705.875 224.808594 709.355469 C 226.890625 711.238281 229.316406 712.585938 232.074219 713.4375 C 234.832031 714.285156 238.09375 714.699219 241.824219 714.699219 C 249.636719 714.699219 255.589844 712.898438 259.675781 709.296875 C 263.328125 706.011719 265.152344 701.457031 265.152344 695.625 C 265.152344 689.757812 263.308594 685.179688 259.617188 681.890625 Z M 309.359375 703.601562 C 309.359375 710.953125 302.75 714.628906 289.527344 714.628906 C 285.484375 714.628906 282.082031 714.371094 279.316406 713.847656 C 276.546875 713.324219 274.304688 712.488281 272.574219 711.308594 C 271.242188 710.417969 270.183594 709.238281 269.398438 707.789062 C 268.613281 706.34375 268.105469 704.523438 267.871094 702.335938 L 274.019531 702.277344 C 274.019531 705.167969 275.097656 707.300781 277.261719 708.667969 C 279.570312 710.3125 283.664062 711.132812 289.539062 711.132812 C 298.777344 711.132812 303.402344 708.828125 303.402344 704.210938 C 303.402344 701.515625 301.851562 699.648438 298.75 698.640625 C 298.121094 698.445312 294.386719 697.929688 287.539062 697.085938 C 280.691406 696.246094 276.425781 695.496094 274.742188 694.832031 C 271.09375 693.382812 269.269531 690.785156 269.269531 687.03125 C 269.269531 683.355469 270.894531 680.617188 274.15625 678.820312 C 275.765625 678.078125 277.78125 677.5 280.195312 677.089844 C 282.613281 676.679688 285.410156 676.472656 288.59375 676.472656 C 301.320312 676.472656 307.683594 680.449219 307.683594 688.402344 L 301.832031 688.402344 C 301.832031 682.8125 297.359375 680.015625 288.414062 680.015625 C 283.863281 680.015625 280.480469 680.574219 278.242188 681.71875 C 276.007812 682.859375 274.890625 684.589844 274.890625 686.949219 C 274.890625 689.140625 276.398438 690.734375 279.421875 691.699219 C 281.1875 692.207031 285.25 692.796875 291.609375 693.457031 C 297.308594 693.96875 301.203125 694.6875 303.320312 695.628906 C 307.363281 697.195312 309.382812 699.851562 309.382812 703.605469 Z M 333.523438 713.550781 L 331.019531 713.902344 L 329.457031 714.015625 C 325.453125 714.015625 322.566406 713.4375 320.792969 712.28125 C 319.019531 711.125 318.136719 709.097656 318.136719 706.199219 L 318.136719 681.285156 L 310.839844 681.285156 L 310.839844 677.613281 L 318.078125 677.613281 L 318.136719 665.839844 L 323.746094 665.839844 L 323.746094 677.625 L 333.511719 677.625 L 333.511719 681.347656 L 323.746094 681.289062 L 323.746094 705.535156 C 323.746094 707.339844 324.226562 708.585938 325.195312 709.273438 C 326.167969 709.960938 327.875 710.300781 330.339844 710.300781 C 330.691406 710.34375 331.085938 710.332031 331.515625 710.265625 C 331.949219 710.199219 332.59375 710.050781 333.460938 709.824219 L 333.519531 713.5625 Z M 372.308594 705.292969 C 370.777344 706.542969 369.035156 707.5 367.070312 708.167969 C 365.109375 708.832031 362.855469 709.164062 360.304688 709.164062 C 348.578125 709.164062 342.710938 704.335938 342.710938 694.6875 C 342.710938 690.191406 344.210938 686.675781 347.214844 684.136719 C 350.214844 681.597656 354.441406 680.328125 359.894531 680.328125 C 365.386719 680.328125 369.554688 681.609375 372.398438 684.167969 C 375.242188 686.726562 376.664062 690.15625 376.664062 694.453125 C 376.664062 699.128906 375.210938 702.753906 372.308594 705.296875 M 382.273438 677.652344 L 376.664062 677.652344 L 376.605469 683.8125 C 374.132812 681.3125 372.367188 679.730469 371.308594 679.066406 C 368.179688 677.347656 364.105469 676.488281 359.121094 676.488281 C 351.820312 676.488281 346.246094 678.148438 342.398438 681.46875 C 338.746094 684.519531 336.921875 688.933594 336.921875 694.71875 C 336.921875 697.570312 337.382812 700.121094 338.308594 702.367188 C 339.234375 704.613281 340.578125 706.519531 342.347656 708.082031 C 346.199219 711.285156 351.644531 712.886719 358.679688 712.886719 C 367.132812 712.886719 373.125 710.585938 376.664062 705.980469 L 376.664062 712.355469 C 376.664062 716.421875 375.378906 719.570312 372.808594 721.796875 C 370.238281 724.023438 366.007812 725.140625 360.121094 725.140625 C 354.585938 725.140625 350.644531 724.382812 348.289062 722.863281 C 346.523438 721.695312 345.304688 719.671875 344.636719 716.792969 L 338.867188 716.792969 C 339.496094 720.816406 341.214844 723.722656 343.992188 725.519531 C 347.210938 727.589844 352.648438 728.636719 360.304688 728.636719 C 374.949219 728.636719 382.273438 723.214844 382.273438 712.367188 L 382.273438 677.648438 Z M 412.605469 681.277344 C 410.929688 681.003906 409.351562 680.867188 407.910156 680.867188 C 398.691406 680.867188 394.085938 685.902344 394.085938 695.972656 L 394.085938 713.484375 L 388.535156 713.484375 L 388.476562 677.652344 L 394.085938 677.707031 L 394.085938 684.101562 L 394.382812 684.101562 C 395.320312 681.582031 396.8125 679.671875 398.851562 678.371094 C 401.085938 677.113281 404.421875 676.484375 408.855469 676.484375 L 412.617188 676.484375 L 412.617188 681.277344 Z M 417.824219 693.300781 C 418.53125 689.230469 420.121094 686.066406 422.589844 683.84375 C 424.199219 682.550781 426.023438 681.582031 428.0625 680.933594 C 430.101562 680.289062 432.398438 679.964844 434.949219 679.964844 C 439.929688 679.964844 444 681.328125 447.160156 684.050781 C 450.316406 686.773438 451.894531 689.855469 451.894531 693.289062 L 417.808594 693.289062 M 452.429688 682.234375 C 450.464844 680.277344 448.03125 678.824219 445.125 677.894531 C 442.21875 676.964844 438.820312 676.480469 434.933594 676.480469 C 427.667969 676.480469 422.03125 678.164062 418.023438 681.527344 C 414.019531 684.890625 412.015625 689.46875 412.015625 695.261719 C 412.015625 701.050781 413.941406 705.648438 417.789062 709.050781 C 421.949219 712.808594 427.820312 714.683594 435.394531 714.683594 C 438.417969 714.683594 441.214844 714.34375 443.785156 713.664062 C 446.355469 712.980469 448.605469 712.015625 450.527344 710.769531 C 453.902344 708.355469 456.042969 705.375 456.949219 701.832031 L 450.882812 701.832031 C 448.804688 707.957031 443.625 711.019531 435.347656 711.019531 C 429.5 711.019531 425.003906 709.523438 421.867188 706.523438 C 419.160156 703.957031 417.808594 700.628906 417.808594 696.542969 L 457.789062 696.542969 C 457.789062 690.464844 456.003906 685.699219 452.429688 682.246094 Z M 517.039062 698.824219 C 517.039062 709.464844 508.425781 714.78125 491.199219 714.78125 C 480.875 714.78125 473.339844 712.949219 468.59375 709.28125 C 464.707031 706.269531 462.765625 701.679688 462.765625 695.5 L 469.703125 695.5 C 469.703125 705.433594 476.855469 710.394531 491.195312 710.394531 C 498.066406 710.394531 503.035156 709.378906 506.097656 707.347656 C 508.6875 705.554688 509.984375 702.738281 509.984375 698.910156 C 509.984375 695.121094 508.21875 692.453125 504.683594 690.9375 C 502.679688 690.117188 497.792969 689.082031 490.015625 687.820312 C 480.242188 686.335938 473.902344 684.851562 470.996094 683.367188 C 466.796875 681.179688 464.695312 677.46875 464.695312 672.234375 C 464.695312 667.347656 466.484375 663.714844 470.054688 661.332031 C 473.902344 658.75 480.496094 657.441406 489.835938 657.441406 C 506.722656 657.441406 515.164062 663.027344 515.164062 674.199219 L 508.167969 674.199219 C 508.167969 665.832031 501.90625 661.644531 489.359375 661.644531 C 483.074219 661.644531 478.476562 662.488281 475.566406 664.167969 C 472.8125 665.96875 471.441406 668.609375 471.441406 672.089844 C 471.441406 675.726562 473.207031 678.292969 476.742188 679.777344 C 478.625 680.636719 484.164062 681.832031 493.347656 683.359375 C 501.988281 684.648438 507.820312 686.15625 510.84375 687.875 C 514.976562 689.988281 517.027344 693.648438 517.027344 698.847656 Z M 573.371094 704.277344 C 570.777344 706.34375 567.851562 707.894531 564.585938 708.929688 C 561.324219 709.964844 557.65625 710.480469 553.632812 710.480469 C 545.382812 710.480469 538.710938 708.253906 533.628906 703.835938 C 528.546875 699.414062 526 693.5 526 686.132812 C 526 678.445312 528.519531 672.441406 533.570312 668.15625 C 538.621094 663.875 545.3125 661.714844 553.644531 661.714844 C 562.09375 661.714844 568.734375 663.960938 573.566406 668.449219 C 576.121094 670.636719 578.007812 673.195312 579.226562 676.132812 C 580.449219 679.070312 581.054688 682.398438 581.054688 686.144531 C 581.054688 693.796875 578.5 699.847656 573.390625 704.296875 M 577.078125 707.921875 C 580.691406 705.382812 583.363281 702.304688 585.09375 698.679688 C 586.820312 695.054688 587.6875 690.894531 587.6875 686.167969 C 587.6875 677.6875 584.859375 670.890625 579.195312 665.769531 C 576.171875 662.957031 572.515625 660.867188 568.238281 659.5 C 563.957031 658.132812 559.082031 657.441406 553.585938 657.441406 C 542.90625 657.441406 534.519531 660.019531 528.433594 665.179688 C 522.351562 670.335938 519.304688 677.328125 519.304688 686.15625 C 519.304688 694.75 522.375 701.6875 528.519531 706.960938 C 534.664062 712.230469 543.054688 714.871094 553.695312 714.871094 C 557.851562 714.871094 561.484375 714.589844 564.585938 714.027344 C 567.6875 713.46875 570.316406 712.605469 572.476562 711.445312 L 582.71875 718.519531 L 587 714.605469 L 577.078125 707.902344 Z M 639.617188 713.507812 L 592.230469 713.507812 L 592.230469 658.820312 L 598.746094 658.703125 L 598.746094 708.910156 L 639.679688 708.910156 L 639.621094 713.476562 Z M 639.617188 713.507812 " fill-opacity="1" fill-rule="nonzero"/></g></svg>