<svg xmlns="http://www.w3.org/2000/svg" xmlns:xlink="http://www.w3.org/1999/xlink" width="1080" zoomAndPan="magnify" viewBox="0 0 810 809.999993" height="1080" preserveAspectRatio="xMidYMid meet" version="1.0"><defs><g/><clipPath id="9013914d8c"><path d="M 151.675781 52 L 658 52 L 658 383 L 151.675781 383 Z M 151.675781 52 " clip-rule="nonzero"/></clipPath><clipPath id="f9c0b46dd9"><path d="M 224 135 L 658.675781 135 L 658.675781 590 L 224 590 Z M 224 135 " clip-rule="nonzero"/></clipPath><clipPath id="24c6babb01"><path d="M 151.675781 135 L 587 135 L 587 590 L 151.675781 590 Z M 151.675781 135 " clip-rule="nonzero"/></clipPath></defs><g clip-path="url(#9013914d8c)"><path fill="#f6bd3a" d="M 369.359375 341.757812 L 441.882812 299.710938 L 513.511719 341.757812 L 441.882812 382.917969 L 369.359375 342.65625 Z M 151.785156 217.402344 L 441.882812 52.777344 L 657.671875 175.347656 L 586.042969 299.710938 L 441.894531 217.402344 L 224.320312 340.871094 Z M 151.785156 217.402344 " fill-opacity="1" fill-rule="nonzero"/></g><g clip-path="url(#f9c0b46dd9)"><path fill="#eb8c23" d="M 369.359375 506.382812 L 369.359375 424.074219 L 440.984375 382.917969 L 513.511719 341.757812 L 513.511719 424.066406 L 441.882812 465.226562 L 441.882812 547.535156 L 369.359375 589.589844 Z M 369.359375 341.757812 L 296.835938 300.601562 L 224.3125 340.863281 L 224.3125 258.554688 L 441.882812 135.085938 L 441.882812 299.710938 Z M 585.144531 258.554688 L 585.144531 217.394531 L 657.671875 175.347656 L 658.566406 257.65625 L 586.042969 299.703125 Z M 585.144531 258.554688 " fill-opacity="1" fill-rule="nonzero"/></g><g clip-path="url(#24c6babb01)"><path fill="#e35a2b" d="M 296.835938 545.746094 L 296.835938 300.609375 L 368.460938 260.347656 L 369.359375 341.765625 L 441.882812 382.027344 L 441.882812 465.234375 L 369.359375 426.757812 L 369.359375 589.589844 Z M 187.605469 319.398438 L 151.785156 297.925781 L 151.785156 217.402344 L 224.3125 258.5625 L 224.3125 340.871094 Z M 441.882812 217.402344 L 441.882812 135.085938 L 585.144531 217.394531 L 586.042969 299.703125 L 441.894531 217.394531 Z M 441.882812 217.402344 " fill-opacity="1" fill-rule="nonzero"/></g><g fill="#000000" fill-opacity="1"><g transform="translate(108.902343, 745.289631)"><g><path d="M 55.75 -83.625 L 1.449219 -83.625 L 1.449219 -76.15625 L 24.753906 -76.15625 L 24.753906 0 L 32.335938 0 L 32.335938 -76.15625 L 55.75 -76.15625 Z M 55.75 -83.625 "/></g></g></g><g fill="#000000" fill-opacity="1"><g transform="translate(165.989881, 745.289631)"><g><path d="M 64.226562 -28.542969 C 63.890625 -36.574219 60.992188 -43.261719 55.417969 -48.726562 C 49.839844 -54.078125 43.152344 -56.867188 35.234375 -56.867188 C 27.207031 -56.867188 20.40625 -53.96875 14.71875 -48.390625 C 9.03125 -42.707031 6.242188 -35.902344 6.242188 -27.875 C 6.242188 -19.847656 9.03125 -12.933594 14.71875 -7.359375 C 20.40625 -1.671875 27.207031 1.113281 35.234375 1.113281 C 40.363281 1.113281 45.160156 -0.113281 49.507812 -2.675781 C 53.855469 -5.128906 57.3125 -8.585938 59.875 -12.933594 L 53.1875 -15.832031 C 51.179688 -12.710938 48.503906 -10.371094 45.382812 -8.695312 C 42.257812 -6.914062 38.804688 -6.132812 35.234375 -6.132812 C 29.4375 -6.132812 24.417969 -8.140625 20.183594 -12.152344 C 15.945312 -16.167969 13.828125 -21.074219 13.601562 -26.984375 L 64.113281 -26.984375 Z M 35.234375 -49.617188 C 40.140625 -49.617188 44.601562 -48.058594 48.390625 -45.046875 C 52.183594 -42.035156 54.636719 -38.246094 55.972656 -33.671875 L 14.382812 -33.671875 C 15.609375 -38.355469 18.175781 -42.148438 22.078125 -45.160156 C 25.867188 -48.058594 30.328125 -49.617188 35.234375 -49.617188 Z M 35.234375 -49.617188 "/></g></g></g><g fill="#000000" fill-opacity="1"><g transform="translate(236.457307, 745.289631)"><g><path d="M 32.335938 -56.867188 C 26.539062 -56.867188 21.632812 -54.746094 17.617188 -50.511719 L 17.617188 -55.75 L 10.371094 -55.75 L 10.371094 0 L 17.617188 0 L 17.617188 -36.683594 C 17.617188 -40.363281 19.066406 -43.484375 21.742188 -46.050781 C 24.417969 -48.613281 27.652344 -49.953125 31.554688 -49.953125 C 35.347656 -49.953125 38.578125 -48.613281 41.253906 -45.9375 C 43.933594 -43.261719 45.269531 -40.03125 45.269531 -36.238281 L 45.269531 0 L 52.628906 0 L 52.628906 -36.574219 C 52.628906 -42.148438 50.621094 -46.832031 46.71875 -50.84375 C 42.707031 -54.859375 37.910156 -56.867188 32.335938 -56.867188 Z M 32.335938 -56.867188 "/></g></g></g><g fill="#000000" fill-opacity="1"><g transform="translate(298.339311, 745.289631)"><g><path d="M 23.863281 1.113281 C 28.769531 1.113281 32.894531 -0.335938 36.238281 -3.34375 C 39.582031 -6.242188 41.367188 -10.035156 41.367188 -14.605469 C 41.367188 -16.949219 40.921875 -19.066406 40.03125 -20.960938 C 39.136719 -22.746094 37.910156 -24.417969 36.125 -25.757812 C 34.34375 -27.09375 32.78125 -28.097656 31.445312 -28.769531 C 29.992188 -29.4375 28.097656 -30.328125 25.757812 -31.445312 C 23.527344 -32.335938 21.964844 -33.003906 20.960938 -33.449219 C 19.957031 -33.898438 18.84375 -34.566406 17.730469 -35.457031 C 16.613281 -36.238281 15.832031 -37.128906 15.386719 -38.132812 C 14.941406 -39.027344 14.71875 -40.253906 14.71875 -41.589844 C 14.71875 -44.265625 15.5 -46.386719 17.28125 -47.835938 C 18.957031 -49.285156 21.074219 -50.066406 23.75 -50.066406 C 27.765625 -50.066406 30.773438 -48.28125 32.558594 -44.824219 L 39.027344 -48.167969 C 37.800781 -50.621094 35.792969 -52.742188 33.117188 -54.414062 C 30.328125 -55.972656 27.207031 -56.867188 23.863281 -56.867188 C 19.402344 -56.867188 15.5 -55.417969 12.265625 -52.742188 C 8.921875 -49.953125 7.359375 -46.160156 7.359375 -41.367188 C 7.359375 -37.128906 8.585938 -33.785156 11.261719 -31.332031 C 13.828125 -28.878906 17.730469 -26.539062 23.082031 -24.53125 C 26.984375 -22.96875 29.769531 -21.519531 31.445312 -20.183594 C 33.117188 -18.84375 34.007812 -17.058594 34.007812 -14.71875 C 34.007812 -11.929688 33.003906 -9.699219 31.109375 -8.027344 C 29.214844 -6.355469 26.648438 -5.574219 23.527344 -5.574219 C 17.839844 -5.574219 13.9375 -8.027344 11.820312 -12.933594 L 4.792969 -10.703125 C 5.796875 -7.359375 8.140625 -4.570312 11.820312 -2.339844 C 15.5 0 19.511719 1.113281 23.863281 1.113281 Z M 23.863281 1.113281 "/></g></g></g><g fill="#000000" fill-opacity="1"><g transform="translate(344.165449, 745.289631)"><g><path d="M 35.234375 1.113281 C 43.261719 1.113281 50.066406 -1.671875 55.75 -7.359375 C 61.328125 -12.933594 64.226562 -19.847656 64.226562 -27.875 C 64.226562 -35.902344 61.328125 -42.707031 55.75 -48.390625 C 50.066406 -53.96875 43.261719 -56.867188 35.234375 -56.867188 C 27.207031 -56.867188 20.40625 -53.96875 14.71875 -48.390625 C 9.03125 -42.707031 6.242188 -35.902344 6.242188 -27.875 C 6.242188 -19.847656 9.03125 -12.933594 14.71875 -7.359375 C 20.40625 -1.671875 27.207031 1.113281 35.234375 1.113281 Z M 35.234375 -6.132812 C 29.214844 -6.132812 24.085938 -8.25 19.847656 -12.488281 C 15.609375 -16.726562 13.601562 -21.855469 13.601562 -27.875 C 13.601562 -33.898438 15.609375 -39.027344 19.847656 -43.261719 C 24.085938 -47.5 29.214844 -49.617188 35.234375 -49.617188 C 41.253906 -49.617188 46.386719 -47.5 50.621094 -43.261719 C 54.859375 -39.027344 56.976562 -33.898438 56.976562 -27.875 C 56.976562 -21.855469 54.859375 -16.726562 50.621094 -12.488281 C 46.386719 -8.25 41.253906 -6.132812 35.234375 -6.132812 Z M 35.234375 -6.132812 "/></g></g></g><g fill="#000000" fill-opacity="1"><g transform="translate(414.744376, 745.289631)"><g><path d="M 33.117188 -56.867188 C 25.980469 -56.867188 20.851562 -53.296875 17.617188 -46.160156 L 17.617188 -55.75 L 10.371094 -55.75 L 10.371094 0 L 17.617188 0 L 17.617188 -31.21875 C 17.617188 -36.351562 19.066406 -40.699219 22.078125 -44.265625 C 25.089844 -47.835938 28.769531 -49.617188 33.226562 -49.617188 C 35.011719 -49.617188 36.90625 -49.171875 38.914062 -48.28125 L 38.914062 -55.75 C 37.019531 -56.421875 35.125 -56.867188 33.117188 -56.867188 Z M 33.117188 -56.867188 "/></g></g></g><g fill="#000000" fill-opacity="1"><g transform="translate(455.33003, 745.289631)"><g><path d="M 55.972656 -76.378906 L 55.972656 -83.625 L 11.039062 -83.625 L 11.039062 0 L 18.507812 0 L 18.507812 -38.132812 L 51.292969 -38.132812 L 51.292969 -45.492188 L 18.507812 -45.492188 L 18.507812 -76.378906 Z M 55.972656 -76.378906 "/></g></g></g><g fill="#000000" fill-opacity="1"><g transform="translate(514.090049, 745.289631)"><g><path d="M 10.371094 0 L 17.617188 0 L 17.617188 -83.625 L 10.371094 -83.625 Z M 10.371094 0 "/></g></g></g><g fill="#000000" fill-opacity="1"><g transform="translate(542.076325, 745.289631)"><g><path d="M 35.234375 1.113281 C 43.261719 1.113281 50.066406 -1.671875 55.75 -7.359375 C 61.328125 -12.933594 64.226562 -19.847656 64.226562 -27.875 C 64.226562 -35.902344 61.328125 -42.707031 55.75 -48.390625 C 50.066406 -53.96875 43.261719 -56.867188 35.234375 -56.867188 C 27.207031 -56.867188 20.40625 -53.96875 14.71875 -48.390625 C 9.03125 -42.707031 6.242188 -35.902344 6.242188 -27.875 C 6.242188 -19.847656 9.03125 -12.933594 14.71875 -7.359375 C 20.40625 -1.671875 27.207031 1.113281 35.234375 1.113281 Z M 35.234375 -6.132812 C 29.214844 -6.132812 24.085938 -8.25 19.847656 -12.488281 C 15.609375 -16.726562 13.601562 -21.855469 13.601562 -27.875 C 13.601562 -33.898438 15.609375 -39.027344 19.847656 -43.261719 C 24.085938 -47.5 29.214844 -49.617188 35.234375 -49.617188 C 41.253906 -49.617188 46.386719 -47.5 50.621094 -43.261719 C 54.859375 -39.027344 56.976562 -33.898438 56.976562 -27.875 C 56.976562 -21.855469 54.859375 -16.726562 50.621094 -12.488281 C 46.386719 -8.25 41.253906 -6.132812 35.234375 -6.132812 Z M 35.234375 -6.132812 "/></g></g></g><g fill="#000000" fill-opacity="1"><g transform="translate(612.655251, 745.289631)"><g><path d="M 79.054688 -55.75 L 63.554688 -8.585938 L 47.722656 -55.75 L 40.699219 -55.75 L 24.976562 -8.921875 L 9.589844 -55.75 L 1.449219 -55.75 L 20.628906 0 L 28.769531 0 L 44.265625 -45.714844 L 59.765625 0 L 67.90625 0 L 86.972656 -55.75 Z M 79.054688 -55.75 "/></g></g></g></svg>