<svg xmlns="http://www.w3.org/2000/svg" xmlns:xlink="http://www.w3.org/1999/xlink" width="1080" zoomAndPan="magnify" viewBox="0 0 810 809.999993" height="1080" preserveAspectRatio="xMidYMid meet" version="1.0"><defs><clipPath id="e7a6243cb5"><path d="M 76.777344 76.777344 L 733.027344 76.777344 L 733.027344 733.027344 L 76.777344 733.027344 Z M 76.777344 76.777344 " clip-rule="nonzero"/></clipPath></defs><g clip-path="url(#e7a6243cb5)"><path fill="#007acc" d="M 76.777344 733.027344 L 733.027344 733.027344 L 733.027344 76.777344 L 76.777344 76.777344 Z M 76.777344 733.027344 " fill-opacity="1" fill-rule="nonzero"/></g><path fill="#ffffff" d="M 221.867188 407.054688 L 221.664062 433.945312 L 307.078125 433.945312 L 307.078125 676.65625 L 367.496094 676.65625 L 367.496094 433.945312 L 452.914062 433.945312 L 452.914062 407.59375 C 452.914062 393.007812 452.601562 380.804688 452.1875 380.496094 C 451.875 380.085938 399.894531 379.882812 336.867188 379.984375 L 222.175781 380.292969 Z M 221.867188 407.054688 " fill-opacity="1" fill-rule="nonzero"/><path fill="#ffffff" d="M 606.3125 379.546875 C 622.976562 383.699219 635.691406 391.109375 647.355469 403.183594 C 653.378906 409.644531 662.351562 421.410156 663.070312 424.230469 C 663.273438 425.074219 634.742188 444.226562 617.4375 454.964844 C 616.824219 455.375 614.335938 452.660156 611.515625 448.503906 C 603.082031 436.199219 594.214844 430.894531 580.679688 429.972656 C 560.785156 428.613281 547.96875 439.019531 548.070312 456.425781 C 548.070312 461.527344 548.816406 464.554688 550.890625 468.707031 C 555.273438 477.78125 563.402344 483.191406 588.90625 494.238281 C 635.894531 514.4375 655.992188 527.769531 668.503906 546.738281 C 682.449219 567.886719 685.574219 601.621094 676.089844 626.71875 C 665.683594 654.019531 639.84375 672.554688 603.492188 678.707031 C 592.238281 680.679688 565.578125 680.371094 553.480469 678.191406 C 527.128906 673.503906 502.132812 660.480469 486.726562 643.40625 C 480.675781 636.742188 468.910156 619.335938 469.628906 618.078125 C 469.960938 617.667969 472.652344 616.003906 475.679688 614.234375 C 478.601562 612.566406 489.648438 606.210938 500.058594 600.160156 L 518.898438 589.242188 L 522.871094 595.058594 C 528.382812 603.492188 540.484375 615.054688 547.765625 618.925781 C 568.707031 629.949219 597.445312 628.386719 611.621094 615.695312 C 617.667969 610.160156 620.15625 604.441406 620.15625 596.007812 C 620.15625 588.394531 619.234375 585.0625 615.261719 579.347656 C 610.160156 572.039062 599.75 565.886719 570.167969 553.09375 C 536.304688 538.507812 521.71875 529.433594 508.390625 515.054688 C 500.671875 506.722656 493.390625 493.390625 490.367188 482.242188 C 487.855469 472.988281 487.238281 449.761719 489.214844 440.378906 C 496.210938 407.667969 520.898438 384.855469 556.503906 378.085938 C 568.066406 375.90625 594.957031 376.726562 606.3125 379.546875 Z M 606.3125 379.546875 " fill-opacity="1" fill-rule="nonzero"/></svg>