<svg xmlns="http://www.w3.org/2000/svg" xmlns:xlink="http://www.w3.org/1999/xlink" width="1080" zoomAndPan="magnify" viewBox="0 0 810 809.999993" height="1080" preserveAspectRatio="xMidYMid meet" version="1.0"><defs><clipPath id="028d736316"><path d="M 102.015625 26.269531 L 706 26.269531 L 706 783 L 102.015625 783 Z M 102.015625 26.269531 " clip-rule="nonzero"/></clipPath></defs><g clip-path="url(#028d736316)"><path fill="#000000" d="M 634.832031 24.988281 L 172.632812 24.988281 C 133.6875 24.988281 102.019531 56.660156 102.019531 95.601562 L 102.019531 711.875 C 102.019531 750.816406 133.6875 782.488281 172.632812 782.488281 L 634.832031 782.488281 C 673.777344 782.488281 705.449219 750.816406 705.449219 711.875 L 705.449219 95.601562 C 705.449219 56.660156 673.777344 24.988281 634.832031 24.988281 Z M 666.929688 711.875 C 666.929688 729.578125 652.539062 743.96875 634.832031 743.96875 L 172.632812 743.96875 C 154.929688 743.96875 140.535156 729.578125 140.535156 711.875 L 140.535156 95.601562 C 140.535156 77.898438 154.929688 63.503906 172.632812 63.503906 L 634.832031 63.503906 C 652.539062 63.503906 666.929688 77.898438 666.929688 95.601562 Z M 666.929688 711.875 " fill-opacity="1" fill-rule="nonzero"/></g><path fill="#000000" d="M 323.050781 294.605469 C 341.996094 294.605469 360.011719 286.632812 373.78125 272.1875 C 381.113281 264.464844 380.824219 252.277344 373.113281 244.957031 C 365.441406 237.609375 353.21875 237.933594 345.894531 245.605469 C 339.464844 252.378906 331.351562 256.089844 323.050781 256.089844 C 303.328125 256.089844 287.292969 235.925781 287.292969 211.152344 C 287.292969 186.378906 303.328125 166.214844 323.050781 166.214844 C 333.65625 166.214844 341.304688 171.910156 345.871094 176.671875 C 353.21875 184.371094 365.402344 184.671875 373.101562 177.324219 C 380.789062 169.976562 381.078125 157.789062 373.730469 150.09375 C 359.949219 135.648438 341.957031 127.699219 323.050781 127.699219 C 282.101562 127.699219 248.777344 165.136719 248.777344 211.152344 C 248.777344 257.167969 282.101562 294.605469 323.050781 294.605469 Z M 323.050781 294.605469 " fill-opacity="1" fill-rule="nonzero"/><path fill="#000000" d="M 462.886719 282.496094 C 465.808594 289.816406 472.894531 294.605469 480.765625 294.605469 C 488.640625 294.605469 495.722656 289.816406 498.644531 282.496094 L 550 154.105469 C 553.949219 144.222656 549.148438 133.015625 539.269531 129.078125 C 529.425781 125.242188 518.203125 129.929688 514.242188 139.8125 L 480.765625 223.492188 L 447.289062 139.8125 C 443.351562 129.90625 432.132812 125.214844 422.265625 129.078125 C 412.382812 133.015625 407.582031 144.222656 411.53125 154.105469 Z M 462.886719 282.496094 " fill-opacity="1" fill-rule="nonzero"/><path fill="#000000" d="M 583.476562 384.480469 L 223.988281 384.480469 C 213.355469 384.480469 204.730469 393.105469 204.730469 403.738281 C 204.730469 414.371094 213.355469 422.996094 223.988281 422.996094 L 583.476562 422.996094 C 594.109375 422.996094 602.738281 414.371094 602.738281 403.738281 C 602.738281 393.105469 594.109375 384.480469 583.476562 384.480469 Z M 583.476562 384.480469 " fill-opacity="1" fill-rule="nonzero"/><path fill="#000000" d="M 583.476562 512.867188 L 223.988281 512.867188 C 213.355469 512.867188 204.730469 521.496094 204.730469 532.128906 C 204.730469 542.757812 213.355469 551.386719 223.988281 551.386719 L 583.476562 551.386719 C 594.109375 551.386719 602.738281 542.757812 602.738281 532.128906 C 602.738281 521.496094 594.109375 512.867188 583.476562 512.867188 Z M 583.476562 512.867188 " fill-opacity="1" fill-rule="nonzero"/><path fill="#000000" d="M 403.734375 641.257812 L 223.988281 641.257812 C 213.355469 641.257812 204.730469 649.886719 204.730469 660.515625 C 204.730469 671.148438 213.355469 679.777344 223.988281 679.777344 L 403.734375 679.777344 C 414.363281 679.777344 422.992188 671.148438 422.992188 660.515625 C 422.992188 649.886719 414.363281 641.257812 403.734375 641.257812 Z M 403.734375 641.257812 " fill-opacity="1" fill-rule="nonzero"/></svg>