<svg xmlns="http://www.w3.org/2000/svg" xmlns:xlink="http://www.w3.org/1999/xlink" width="1080" zoomAndPan="magnify" viewBox="0 0 810 809.999993" height="1080" preserveAspectRatio="xMidYMid meet" version="1.0"><defs><clipPath id="1b956bab0c"><path d="M 264 210 L 794 210 L 794 600.484375 L 264 600.484375 Z M 264 210 " clip-rule="nonzero"/></clipPath><clipPath id="a2b22ab960"><path d="M 14.46875 349 L 238 349 L 238 378 L 14.46875 378 Z M 14.46875 349 " clip-rule="nonzero"/></clipPath><clipPath id="97ae0a8e82"><path d="M 264 388 L 477 388 L 477 600.484375 L 264 600.484375 Z M 264 388 " clip-rule="nonzero"/></clipPath><clipPath id="1009d6c357"><path d="M 582 388 L 794 388 L 794 600.484375 L 582 600.484375 Z M 582 388 " clip-rule="nonzero"/></clipPath></defs><g clip-path="url(#1b956bab0c)"><path fill="#000000" d="M 779.910156 600.136719 L 278.894531 600.136719 C 277.980469 600.136719 277.078125 600.046875 276.179688 599.867188 C 275.285156 599.691406 274.414062 599.425781 273.570312 599.078125 C 272.726562 598.726562 271.921875 598.296875 271.164062 597.789062 C 270.402344 597.28125 269.699219 596.703125 269.054688 596.058594 C 268.410156 595.410156 267.832031 594.707031 267.324219 593.945312 C 266.816406 593.183594 266.386719 592.382812 266.039062 591.539062 C 265.6875 590.691406 265.425781 589.820312 265.246094 588.925781 C 265.066406 588.027344 264.976562 587.121094 264.976562 586.207031 L 264.976562 224.015625 C 264.976562 223.097656 265.066406 222.191406 265.246094 221.296875 C 265.425781 220.398438 265.6875 219.527344 266.039062 218.683594 C 266.386719 217.835938 266.816406 217.035156 267.324219 216.273438 C 267.832031 215.515625 268.410156 214.808594 269.054688 214.164062 C 269.699219 213.515625 270.402344 212.9375 271.164062 212.429688 C 271.921875 211.921875 272.726562 211.492188 273.570312 211.144531 C 274.414062 210.792969 275.285156 210.53125 276.179688 210.351562 C 277.078125 210.171875 277.980469 210.082031 278.894531 210.082031 L 779.910156 210.082031 C 780.824219 210.082031 781.730469 210.171875 782.625 210.351562 C 783.523438 210.53125 784.394531 210.792969 785.238281 211.144531 C 786.082031 211.492188 786.882812 211.921875 787.644531 212.429688 C 788.402344 212.9375 789.105469 213.515625 789.753906 214.164062 C 790.398438 214.808594 790.976562 215.515625 791.484375 216.273438 C 791.992188 217.035156 792.417969 217.835938 792.769531 218.683594 C 793.117188 219.527344 793.382812 220.398438 793.5625 221.296875 C 793.738281 222.191406 793.828125 223.097656 793.828125 224.015625 L 793.828125 586.207031 C 793.828125 587.121094 793.738281 588.027344 793.5625 588.925781 C 793.382812 589.820312 793.117188 590.691406 792.769531 591.539062 C 792.417969 592.382812 791.992188 593.183594 791.484375 593.945312 C 790.976562 594.707031 790.398438 595.410156 789.753906 596.058594 C 789.105469 596.703125 788.402344 597.28125 787.644531 597.789062 C 786.882812 598.296875 786.082031 598.726562 785.238281 599.078125 C 784.394531 599.425781 783.523438 599.691406 782.625 599.867188 C 781.730469 600.046875 780.824219 600.136719 779.910156 600.136719 Z M 292.8125 572.277344 L 765.996094 572.277344 L 765.996094 237.945312 L 292.8125 237.945312 Z M 292.8125 572.277344 " fill-opacity="1" fill-rule="nonzero"/></g><path fill="#000000" d="M 223.226562 544.414062 L 139.722656 544.414062 C 138.808594 544.414062 137.90625 544.324219 137.007812 544.148438 C 136.113281 543.96875 135.242188 543.703125 134.398438 543.355469 C 133.554688 543.003906 132.753906 542.574219 131.992188 542.066406 C 131.234375 541.558594 130.53125 540.980469 129.882812 540.335938 C 129.238281 539.6875 128.660156 538.984375 128.152344 538.222656 C 127.644531 537.464844 127.214844 536.660156 126.867188 535.816406 C 126.515625 534.96875 126.253906 534.097656 126.074219 533.203125 C 125.894531 532.304688 125.808594 531.398438 125.808594 530.484375 C 125.808594 529.570312 125.894531 528.664062 126.074219 527.765625 C 126.253906 526.871094 126.515625 526 126.867188 525.152344 C 127.214844 524.308594 127.644531 523.503906 128.152344 522.746094 C 128.660156 521.984375 129.238281 521.28125 129.882812 520.632812 C 130.53125 519.988281 131.234375 519.410156 131.992188 518.902344 C 132.753906 518.394531 133.554688 517.964844 134.398438 517.613281 C 135.242188 517.265625 136.113281 517 137.007812 516.820312 C 137.90625 516.644531 138.808594 516.554688 139.722656 516.554688 L 223.226562 516.554688 C 224.140625 516.554688 225.046875 516.644531 225.941406 516.820312 C 226.839844 517 227.707031 517.265625 228.550781 517.613281 C 229.398438 517.964844 230.199219 518.394531 230.957031 518.902344 C 231.71875 519.410156 232.421875 519.988281 233.066406 520.632812 C 233.714844 521.28125 234.289062 521.984375 234.796875 522.746094 C 235.304688 523.503906 235.734375 524.308594 236.085938 525.152344 C 236.433594 526 236.699219 526.871094 236.875 527.765625 C 237.054688 528.664062 237.144531 529.570312 237.144531 530.484375 C 237.144531 531.398438 237.054688 532.304688 236.875 533.203125 C 236.699219 534.097656 236.433594 534.96875 236.085938 535.816406 C 235.734375 536.660156 235.304688 537.464844 234.796875 538.222656 C 234.289062 538.984375 233.714844 539.6875 233.066406 540.335938 C 232.421875 540.980469 231.71875 541.558594 230.957031 542.066406 C 230.199219 542.574219 229.398438 543.003906 228.550781 543.355469 C 227.707031 543.703125 226.839844 543.96875 225.941406 544.148438 C 225.046875 544.324219 224.140625 544.414062 223.226562 544.414062 Z M 223.226562 544.414062 " fill-opacity="1" fill-rule="nonzero"/><path fill="#000000" d="M 223.226562 460.832031 L 84.054688 460.832031 C 83.140625 460.832031 82.238281 460.742188 81.339844 460.5625 C 80.445312 460.386719 79.574219 460.121094 78.730469 459.773438 C 77.886719 459.421875 77.082031 458.992188 76.324219 458.484375 C 75.5625 457.976562 74.859375 457.398438 74.214844 456.75 C 73.570312 456.105469 72.992188 455.402344 72.484375 454.640625 C 71.976562 453.878906 71.546875 453.078125 71.199219 452.234375 C 70.847656 451.386719 70.585938 450.515625 70.40625 449.621094 C 70.226562 448.722656 70.136719 447.816406 70.140625 446.902344 C 70.136719 445.988281 70.226562 445.082031 70.40625 444.183594 C 70.585938 443.285156 70.847656 442.414062 71.199219 441.570312 C 71.546875 440.726562 71.976562 439.921875 72.484375 439.164062 C 72.992188 438.402344 73.570312 437.699219 74.214844 437.050781 C 74.859375 436.40625 75.5625 435.828125 76.324219 435.320312 C 77.082031 434.8125 77.886719 434.382812 78.730469 434.03125 C 79.574219 433.679688 80.445312 433.417969 81.339844 433.238281 C 82.238281 433.058594 83.140625 432.972656 84.054688 432.972656 L 223.226562 432.972656 C 224.140625 432.972656 225.046875 433.058594 225.941406 433.238281 C 226.839844 433.417969 227.707031 433.679688 228.550781 434.03125 C 229.398438 434.382812 230.199219 434.8125 230.957031 435.320312 C 231.71875 435.828125 232.421875 436.40625 233.066406 437.050781 C 233.714844 437.699219 234.289062 438.402344 234.796875 439.164062 C 235.304688 439.921875 235.734375 440.726562 236.085938 441.570312 C 236.433594 442.414062 236.699219 443.285156 236.875 444.183594 C 237.054688 445.082031 237.144531 445.988281 237.144531 446.902344 C 237.144531 447.816406 237.054688 448.722656 236.875 449.621094 C 236.699219 450.515625 236.433594 451.386719 236.085938 452.234375 C 235.734375 453.078125 235.304688 453.878906 234.796875 454.640625 C 234.289062 455.402344 233.714844 456.105469 233.066406 456.75 C 232.421875 457.398438 231.71875 457.976562 230.957031 458.484375 C 230.199219 458.992188 229.398438 459.421875 228.550781 459.773438 C 227.707031 460.121094 226.839844 460.386719 225.941406 460.5625 C 225.046875 460.742188 224.140625 460.832031 223.226562 460.832031 Z M 223.226562 460.832031 " fill-opacity="1" fill-rule="nonzero"/><path fill="#000000" d="M 223.226562 293.667969 L 111.890625 293.667969 C 110.976562 293.667969 110.070312 293.578125 109.175781 293.398438 C 108.277344 293.21875 107.410156 292.957031 106.5625 292.605469 C 105.71875 292.253906 104.917969 291.828125 104.15625 291.320312 C 103.398438 290.808594 102.695312 290.234375 102.050781 289.585938 C 101.402344 288.9375 100.824219 288.234375 100.316406 287.476562 C 99.8125 286.714844 99.382812 285.910156 99.03125 285.066406 C 98.683594 284.222656 98.417969 283.351562 98.242188 282.453125 C 98.0625 281.554688 97.972656 280.652344 97.972656 279.734375 C 97.972656 278.820312 98.0625 277.914062 98.242188 277.019531 C 98.417969 276.121094 98.683594 275.25 99.03125 274.40625 C 99.382812 273.558594 99.8125 272.757812 100.316406 271.996094 C 100.824219 271.234375 101.402344 270.53125 102.050781 269.886719 C 102.695312 269.238281 103.398438 268.660156 104.15625 268.152344 C 104.917969 267.644531 105.71875 267.214844 106.5625 266.867188 C 107.410156 266.515625 108.277344 266.25 109.175781 266.074219 C 110.070312 265.894531 110.976562 265.804688 111.890625 265.804688 L 223.226562 265.804688 C 224.140625 265.804688 225.046875 265.894531 225.941406 266.074219 C 226.839844 266.25 227.707031 266.515625 228.550781 266.867188 C 229.398438 267.214844 230.199219 267.644531 230.957031 268.152344 C 231.71875 268.660156 232.421875 269.238281 233.066406 269.886719 C 233.714844 270.53125 234.289062 271.234375 234.796875 271.996094 C 235.304688 272.757812 235.734375 273.558594 236.085938 274.40625 C 236.433594 275.25 236.699219 276.121094 236.875 277.019531 C 237.054688 277.914062 237.144531 278.820312 237.144531 279.734375 C 237.144531 280.652344 237.054688 281.554688 236.875 282.453125 C 236.699219 283.351562 236.433594 284.222656 236.085938 285.066406 C 235.734375 285.910156 235.304688 286.714844 234.796875 287.476562 C 234.289062 288.234375 233.714844 288.9375 233.066406 289.585938 C 232.421875 290.234375 231.71875 290.808594 230.957031 291.320312 C 230.199219 291.828125 229.398438 292.253906 228.550781 292.605469 C 227.707031 292.957031 226.839844 293.21875 225.941406 293.398438 C 225.046875 293.578125 224.140625 293.667969 223.226562 293.667969 Z M 223.226562 293.667969 " fill-opacity="1" fill-rule="nonzero"/><g clip-path="url(#a2b22ab960)"><path fill="#000000" d="M 223.226562 377.25 L 28.386719 377.25 C 27.472656 377.25 26.570312 377.160156 25.671875 376.980469 C 24.777344 376.804688 23.90625 376.539062 23.0625 376.1875 C 22.21875 375.839844 21.414062 375.410156 20.65625 374.902344 C 19.894531 374.394531 19.191406 373.816406 18.546875 373.167969 C 17.898438 372.523438 17.324219 371.820312 16.816406 371.058594 C 16.308594 370.296875 15.878906 369.496094 15.53125 368.648438 C 15.179688 367.804688 14.914062 366.933594 14.738281 366.035156 C 14.558594 365.140625 14.46875 364.234375 14.46875 363.320312 C 14.46875 362.402344 14.558594 361.496094 14.738281 360.601562 C 14.914062 359.703125 15.179688 358.832031 15.53125 357.988281 C 15.878906 357.140625 16.308594 356.339844 16.816406 355.578125 C 17.324219 354.820312 17.898438 354.113281 18.546875 353.46875 C 19.191406 352.820312 19.894531 352.242188 20.65625 351.734375 C 21.414062 351.226562 22.21875 350.796875 23.0625 350.449219 C 23.90625 350.097656 24.777344 349.835938 25.671875 349.65625 C 26.570312 349.476562 27.472656 349.386719 28.386719 349.386719 L 223.226562 349.386719 C 224.140625 349.386719 225.046875 349.476562 225.941406 349.65625 C 226.839844 349.835938 227.707031 350.097656 228.550781 350.449219 C 229.398438 350.796875 230.199219 351.226562 230.957031 351.734375 C 231.71875 352.242188 232.421875 352.820312 233.066406 353.46875 C 233.714844 354.113281 234.289062 354.820312 234.796875 355.578125 C 235.304688 356.339844 235.734375 357.140625 236.085938 357.988281 C 236.433594 358.832031 236.699219 359.703125 236.875 360.601562 C 237.054688 361.496094 237.144531 362.402344 237.144531 363.320312 C 237.144531 364.234375 237.054688 365.140625 236.875 366.035156 C 236.699219 366.933594 236.433594 367.804688 236.085938 368.648438 C 235.734375 369.496094 235.304688 370.296875 234.796875 371.058594 C 234.289062 371.820312 233.714844 372.523438 233.066406 373.167969 C 232.421875 373.816406 231.71875 374.394531 230.957031 374.902344 C 230.199219 375.410156 229.398438 375.839844 228.550781 376.1875 C 227.707031 376.539062 226.839844 376.804688 225.941406 376.980469 C 225.046875 377.160156 224.140625 377.25 223.226562 377.25 Z M 223.226562 377.25 " fill-opacity="1" fill-rule="nonzero"/></g><path fill="#000000" d="M 529.402344 460.832031 C 526.59375 460.832031 524.019531 460.050781 521.683594 458.492188 L 271.175781 291.324219 C 270.40625 290.824219 269.695312 290.25 269.039062 289.605469 C 268.382812 288.960938 267.796875 288.257812 267.277344 287.496094 C 266.761719 286.734375 266.324219 285.929688 265.96875 285.082031 C 265.609375 284.234375 265.339844 283.359375 265.15625 282.460938 C 264.96875 281.558594 264.875 280.648438 264.871094 279.726562 C 264.867188 278.808594 264.953125 277.894531 265.128906 276.992188 C 265.308594 276.089844 265.570312 275.210938 265.917969 274.363281 C 266.269531 273.511719 266.699219 272.703125 267.210938 271.9375 C 267.71875 271.171875 268.300781 270.464844 268.949219 269.8125 C 269.597656 269.164062 270.308594 268.582031 271.070312 268.070312 C 271.835938 267.5625 272.644531 267.132812 273.496094 266.78125 C 274.34375 266.433594 275.21875 266.167969 276.121094 265.992188 C 277.023438 265.816406 277.933594 265.730469 278.855469 265.734375 C 279.773438 265.738281 280.683594 265.832031 281.585938 266.019531 C 282.484375 266.203125 283.359375 266.472656 284.203125 266.832031 C 285.050781 267.191406 285.855469 267.628906 286.613281 268.144531 L 529.402344 430.160156 L 772.191406 268.148438 C 772.953125 267.652344 773.753906 267.234375 774.597656 266.894531 C 775.4375 266.550781 776.304688 266.296875 777.199219 266.125 C 778.089844 265.957031 778.992188 265.875 779.898438 265.878906 C 780.808594 265.886719 781.707031 265.980469 782.597656 266.164062 C 783.488281 266.34375 784.351562 266.613281 785.1875 266.964844 C 786.027344 267.316406 786.820312 267.746094 787.574219 268.253906 C 788.328125 268.761719 789.027344 269.335938 789.667969 269.980469 C 790.308594 270.625 790.882812 271.328125 791.386719 272.082031 C 791.890625 272.839844 792.316406 273.636719 792.664062 274.476562 C 793.011719 275.316406 793.273438 276.183594 793.453125 277.074219 C 793.628906 277.96875 793.71875 278.867188 793.722656 279.777344 C 793.726562 280.6875 793.640625 281.585938 793.464844 282.480469 C 793.289062 283.371094 793.03125 284.238281 792.6875 285.082031 C 792.34375 285.921875 791.921875 286.722656 791.421875 287.480469 C 790.921875 288.242188 790.351562 288.945312 789.714844 289.59375 C 789.078125 290.238281 788.382812 290.820312 787.632812 291.328125 L 537.125 458.496094 C 534.785156 460.054688 532.210938 460.832031 529.402344 460.832031 Z M 529.402344 460.832031 " fill-opacity="1" fill-rule="nonzero"/><g clip-path="url(#97ae0a8e82)"><path fill="#000000" d="M 278.894531 600.136719 C 277.519531 600.136719 276.171875 599.9375 274.855469 599.535156 C 273.539062 599.136719 272.308594 598.554688 271.164062 597.789062 C 270.019531 597.023438 269.011719 596.109375 268.140625 595.042969 C 267.265625 593.976562 266.566406 592.808594 266.039062 591.535156 C 265.515625 590.265625 265.183594 588.941406 265.046875 587.570312 C 264.914062 586.203125 264.980469 584.839844 265.25 583.488281 C 265.515625 582.136719 265.976562 580.855469 266.625 579.640625 C 267.273438 578.425781 268.082031 577.332031 269.054688 576.359375 L 452.761719 392.476562 C 453.402344 391.808594 454.105469 391.214844 454.863281 390.6875 C 455.625 390.164062 456.429688 389.71875 457.277344 389.355469 C 458.128906 388.988281 459.003906 388.710938 459.910156 388.519531 C 460.8125 388.332031 461.726562 388.230469 462.652344 388.222656 C 463.574219 388.214844 464.492188 388.296875 465.398438 388.472656 C 466.304688 388.648438 467.1875 388.910156 468.042969 389.261719 C 468.898438 389.609375 469.710938 390.042969 470.476562 390.554688 C 471.246094 391.066406 471.960938 391.648438 472.613281 392.304688 C 473.265625 392.957031 473.847656 393.667969 474.359375 394.4375 C 474.871094 395.210938 475.300781 396.023438 475.652344 396.878906 C 476.003906 397.734375 476.265625 398.617188 476.4375 399.523438 C 476.613281 400.433594 476.695312 401.347656 476.6875 402.273438 C 476.679688 403.199219 476.582031 404.113281 476.390625 405.019531 C 476.199219 405.921875 475.921875 406.800781 475.558594 407.652344 C 475.195312 408.5 474.75 409.304688 474.226562 410.066406 C 473.699219 410.828125 473.105469 411.53125 472.441406 412.171875 L 288.734375 596.054688 C 287.429688 597.363281 285.925781 598.371094 284.222656 599.078125 C 282.515625 599.785156 280.742188 600.140625 278.894531 600.136719 Z M 278.894531 600.136719 " fill-opacity="1" fill-rule="nonzero"/></g><g clip-path="url(#1009d6c357)"><path fill="#000000" d="M 779.910156 600.136719 C 778.066406 600.140625 776.289062 599.785156 774.585938 599.078125 C 772.878906 598.371094 771.375 597.363281 770.070312 596.054688 L 586.367188 412.171875 C 585.703125 411.53125 585.105469 410.828125 584.582031 410.066406 C 584.058594 409.304688 583.613281 408.5 583.246094 407.652344 C 582.882812 406.800781 582.605469 405.921875 582.414062 405.019531 C 582.226562 404.113281 582.125 403.199219 582.117188 402.273438 C 582.109375 401.347656 582.191406 400.433594 582.367188 399.523438 C 582.542969 398.617188 582.804688 397.734375 583.152344 396.878906 C 583.503906 396.023438 583.933594 395.207031 584.445312 394.4375 C 584.957031 393.667969 585.539062 392.957031 586.195312 392.300781 C 586.847656 391.648438 587.558594 391.066406 588.328125 390.554688 C 589.097656 390.042969 589.910156 389.609375 590.765625 389.261719 C 591.621094 388.910156 592.5 388.648438 593.410156 388.472656 C 594.316406 388.296875 595.230469 388.214844 596.15625 388.222656 C 597.078125 388.230469 597.992188 388.332031 598.898438 388.519531 C 599.800781 388.710938 600.679688 388.988281 601.527344 389.351562 C 602.375 389.71875 603.179688 390.164062 603.941406 390.6875 C 604.703125 391.214844 605.402344 391.808594 606.042969 392.476562 L 789.75 576.359375 C 790.722656 577.332031 791.535156 578.425781 792.183594 579.640625 C 792.832031 580.855469 793.289062 582.136719 793.558594 583.488281 C 793.828125 584.839844 793.894531 586.203125 793.757812 587.570312 C 793.625 588.941406 793.292969 590.265625 792.765625 591.535156 C 792.238281 592.808594 791.539062 593.976562 790.667969 595.042969 C 789.792969 596.109375 788.785156 597.023438 787.640625 597.789062 C 786.496094 598.554688 785.265625 599.136719 783.949219 599.535156 C 782.632812 599.9375 781.289062 600.136719 779.910156 600.136719 Z M 779.910156 600.136719 " fill-opacity="1" fill-rule="nonzero"/></g></svg>