<svg xmlns="http://www.w3.org/2000/svg" xmlns:xlink="http://www.w3.org/1999/xlink" width="1080" zoomAndPan="magnify" viewBox="0 0 810 809.999993" height="1080" preserveAspectRatio="xMidYMid meet" version="1.0"><defs><clipPath id="07ba9a608c"><path d="M 55.9375 25 L 751 25 L 751 796.347656 L 55.9375 796.347656 Z M 55.9375 25 " clip-rule="nonzero"/></clipPath></defs><g clip-path="url(#07ba9a608c)"><path stroke-linecap="round" transform="matrix(38.577347, 0, 0, 38.55522, -21.215664, -52.032633)" fill="none" stroke-linejoin="round" d="M 10.00002 14.999322 C 9.347314 15.698704 8.989166 16.622704 9 17.579327 L 9 20.99934 M 14 14.999322 C 14.652706 15.698704 15.010753 16.622704 15.00002 17.579327 L 15.00002 20.99934 M 9 19.049317 C 8.105491 19.405543 7.135341 19.529351 6.179976 19.409291 C 4.659998 18.889339 5.059965 17.509318 4.279978 16.939315 C 3.905224 16.671335 3.460399 16.51845 2.999981 16.499301 M 19 9.749243 C 19 12.749302 17.04998 14.999322 11.99996 14.999322 C 6.95004 14.999322 5.000021 12.749302 5.000021 9.749243 C 4.975314 8.708426 5.208915 7.677741 5.679966 6.749284 C 5.340044 5.279294 5.469957 3.469289 6.200025 3.109314 C 6.929991 2.749238 8.470018 3.40931 9.739991 4.259248 C 10.485956 4.126119 11.242249 4.05925 11.99996 4.05925 C 12.757164 4.052665 13.513356 4.112846 14.260029 4.239288 C 15.530002 3.389249 17.139998 2.759268 17.799996 3.089254 C 18.459993 3.419239 18.659976 5.259234 18.319953 6.729224 C 18.794345 7.66376 19.028048 8.701739 19 9.749243 Z M 19 9.749243 " stroke="#475569" stroke-width="2" stroke-opacity="1" stroke-miterlimit="4"/></g></svg>