<svg xmlns="http://www.w3.org/2000/svg" xmlns:xlink="http://www.w3.org/1999/xlink" width="1080" zoomAndPan="magnify" viewBox="0 0 810 809.999993" height="1080" preserveAspectRatio="xMidYMid meet" version="1.0"><defs><clipPath id="1727b9750e"><path d="M 27.027344 27.027344 L 783.027344 27.027344 L 783.027344 783 L 27.027344 783 Z M 27.027344 27.027344 " clip-rule="nonzero"/></clipPath></defs><g clip-path="url(#1727b9750e)"><path fill="#2197bd" d="M 783.027344 668.078125 C 783.027344 731.519531 731.597656 782.953125 668.148438 782.953125 L 141.929688 782.953125 C 78.484375 782.953125 27.058594 731.519531 27.058594 668.078125 L 27.058594 141.855469 C 27.058594 78.410156 78.484375 26.980469 141.929688 26.980469 L 668.148438 26.980469 C 731.597656 26.980469 783.03125 78.410156 783.03125 141.855469 L 783.03125 668.078125 Z M 783.027344 668.078125 " fill-opacity="1" fill-rule="nonzero"/></g><path fill="#ffffff" d="M 325.984375 296.691406 C 325.984375 298.542969 325.894531 300.386719 325.710938 302.226562 C 325.53125 304.066406 325.257812 305.894531 324.898438 307.710938 C 324.539062 309.523438 324.089844 311.316406 323.550781 313.085938 C 323.015625 314.855469 322.390625 316.59375 321.683594 318.304688 C 320.976562 320.011719 320.1875 321.683594 319.316406 323.3125 C 318.441406 324.945312 317.492188 326.527344 316.464844 328.066406 C 315.4375 329.605469 314.339844 331.089844 313.164062 332.519531 C 311.992188 333.949219 310.75 335.316406 309.441406 336.625 C 308.136719 337.933594 306.765625 339.171875 305.335938 340.347656 C 303.90625 341.519531 302.421875 342.621094 300.886719 343.648438 C 299.347656 344.675781 297.761719 345.625 296.132812 346.496094 C 294.5 347.367188 292.832031 348.160156 291.121094 348.867188 C 289.414062 349.574219 287.671875 350.195312 285.902344 350.734375 C 284.132812 351.269531 282.339844 351.71875 280.527344 352.078125 C 278.714844 352.441406 276.886719 352.710938 275.046875 352.894531 C 273.203125 353.074219 271.359375 353.164062 269.511719 353.164062 C 267.660156 353.164062 265.816406 353.074219 263.976562 352.894531 C 262.132812 352.710938 260.304688 352.441406 258.492188 352.078125 C 256.679688 351.71875 254.886719 351.269531 253.117188 350.734375 C 251.347656 350.195312 249.605469 349.574219 247.898438 348.867188 C 246.191406 348.160156 244.519531 347.367188 242.886719 346.496094 C 241.257812 345.625 239.671875 344.675781 238.136719 343.648438 C 236.597656 342.621094 235.113281 341.519531 233.683594 340.347656 C 232.253906 339.171875 230.886719 337.933594 229.578125 336.625 C 228.269531 335.316406 227.027344 333.949219 225.855469 332.519531 C 224.683594 331.089844 223.582031 329.605469 222.554688 328.066406 C 221.527344 326.527344 220.578125 324.945312 219.703125 323.3125 C 218.832031 321.683594 218.042969 320.011719 217.335938 318.304688 C 216.628906 316.59375 216.003906 314.855469 215.46875 313.085938 C 214.929688 311.316406 214.484375 309.523438 214.121094 307.710938 C 213.761719 305.894531 213.488281 304.066406 213.308594 302.226562 C 213.128906 300.386719 213.035156 298.542969 213.035156 296.691406 C 213.035156 294.84375 213.128906 292.996094 213.308594 291.15625 C 213.488281 289.316406 213.761719 287.488281 214.121094 285.675781 C 214.484375 283.859375 214.929688 282.066406 215.46875 280.296875 C 216.003906 278.527344 216.628906 276.789062 217.335938 275.082031 C 218.042969 273.371094 218.832031 271.703125 219.703125 270.070312 C 220.578125 268.4375 221.527344 266.855469 222.554688 265.316406 C 223.582031 263.777344 224.683594 262.296875 225.855469 260.863281 C 227.027344 259.433594 228.269531 258.066406 229.578125 256.757812 C 230.886719 255.449219 232.253906 254.210938 233.683594 253.035156 C 235.113281 251.863281 236.597656 250.761719 238.136719 249.734375 C 239.671875 248.707031 241.257812 247.757812 242.886719 246.886719 C 244.519531 246.015625 246.191406 245.226562 247.898438 244.515625 C 249.605469 243.808594 251.347656 243.1875 253.117188 242.648438 C 254.886719 242.113281 256.679688 241.664062 258.492188 241.304688 C 260.304688 240.941406 262.132812 240.671875 263.976562 240.488281 C 265.816406 240.308594 267.660156 240.21875 269.511719 240.21875 C 271.359375 240.21875 273.203125 240.308594 275.046875 240.488281 C 276.886719 240.671875 278.714844 240.941406 280.527344 241.304688 C 282.339844 241.664062 284.132812 242.113281 285.902344 242.648438 C 287.671875 243.1875 289.414062 243.808594 291.121094 244.515625 C 292.832031 245.226562 294.5 246.015625 296.132812 246.886719 C 297.761719 247.757812 299.347656 248.707031 300.886719 249.734375 C 302.421875 250.761719 303.90625 251.863281 305.335938 253.035156 C 306.765625 254.210938 308.136719 255.449219 309.441406 256.757812 C 310.75 258.066406 311.992188 259.433594 313.164062 260.863281 C 314.339844 262.296875 315.4375 263.777344 316.464844 265.316406 C 317.492188 266.855469 318.441406 268.4375 319.316406 270.070312 C 320.1875 271.703125 320.976562 273.371094 321.683594 275.082031 C 322.390625 276.789062 323.015625 278.527344 323.550781 280.296875 C 324.089844 282.066406 324.539062 283.859375 324.898438 285.675781 C 325.257812 287.488281 325.53125 289.316406 325.710938 291.15625 C 325.894531 292.996094 325.984375 294.84375 325.984375 296.691406 Z M 325.984375 296.691406 " fill-opacity="1" fill-rule="nonzero"/><path fill="#ffffff" d="M 220.824219 394.800781 L 317.84375 394.800781 L 317.84375 706.910156 L 220.824219 706.910156 Z M 220.824219 394.800781 " fill-opacity="1" fill-rule="nonzero"/><path fill="#ffffff" d="M 378.863281 394.800781 L 471.207031 394.800781 L 471.207031 706.910156 L 378.863281 706.910156 Z M 378.863281 394.800781 " fill-opacity="1" fill-rule="nonzero"/><path fill="#ffffff" d="M 382.855469 560.976562 L 475.195312 560.976562 L 475.195312 706.910156 L 382.855469 706.910156 Z M 382.855469 560.976562 " fill-opacity="1" fill-rule="nonzero"/><path fill="#ffffff" d="M 475.195312 560.976562 C 475.195312 560.976562 473.753906 520.496094 484.429688 499.445312 C 484.429688 499.445312 495.105469 473.523438 528.667969 473.371094 C 528.667969 473.371094 568.023438 466.496094 579.3125 505.550781 C 579.3125 505.550781 583.582031 527.210938 583.582031 536.367188 C 583.582031 545.523438 583.890625 706.914062 583.890625 706.914062 L 680.601562 706.914062 L 680.601562 528.128906 C 680.601562 528.128906 687.621094 427.140625 627.007812 399.476562 C 627.007812 399.476562 527.339844 354.730469 473.246094 436.90625 C 473.246094 436.90625 461.445312 445.035156 459.816406 422.257812 C 458.1875 399.476562 444.359375 457.242188 443.953125 458.464844 C 443.542969 459.683594 459.816406 573.585938 459.816406 573.585938 Z M 475.195312 560.976562 " fill-opacity="1" fill-rule="nonzero"/></svg>