<svg xmlns="http://www.w3.org/2000/svg" xmlns:xlink="http://www.w3.org/1999/xlink" width="1587" zoomAndPan="magnify" viewBox="0 0 1190.25 1683.749945" height="2245" preserveAspectRatio="xMidYMid meet" version="1.0"><defs><clipPath id="552342bf94"><path d="M 0 0.40625 L 1189.5 0.40625 L 1189.5 1683.09375 L 0 1683.09375 Z M 0 0.40625 " clip-rule="nonzero"/></clipPath><clipPath id="fcfee2c633"><path d="M 642 29 L 646.929688 29 L 646.929688 492 L 642 492 Z M 642 29 " clip-rule="nonzero"/></clipPath><clipPath id="2e20cc1295"><path d="M 62 23 L 80 23 L 80 498.839844 L 62 498.839844 Z M 62 23 " clip-rule="nonzero"/></clipPath><clipPath id="2f601cf942"><path d="M 21.074219 22.886719 L 40 22.886719 L 40 498.839844 L 21.074219 498.839844 Z M 21.074219 22.886719 " clip-rule="nonzero"/></clipPath><clipPath id="858c4431f9"><path d="M 647 1396.992188 L 753 1396.992188 L 753 1564.136719 L 647 1564.136719 Z M 647 1396.992188 " clip-rule="nonzero"/></clipPath><clipPath id="babf3a403d"><path d="M 769 1396.992188 L 876 1396.992188 L 876 1564.136719 L 769 1564.136719 Z M 769 1396.992188 " clip-rule="nonzero"/></clipPath><clipPath id="49da1496f9"><path d="M 892 1396.992188 L 999 1396.992188 L 999 1564.136719 L 892 1564.136719 Z M 892 1396.992188 " clip-rule="nonzero"/></clipPath><clipPath id="5405403a7a"><path d="M 1015 1396.992188 L 1121 1396.992188 L 1121 1564.136719 L 1015 1564.136719 Z M 1015 1396.992188 " clip-rule="nonzero"/></clipPath><clipPath id="20daa6cd16"><path d="M 647 548.582031 L 753 548.582031 L 753 715.726562 L 647 715.726562 Z M 647 548.582031 " clip-rule="nonzero"/></clipPath><clipPath id="92434e8b22"><path d="M 769 548.582031 L 876 548.582031 L 876 715.726562 L 769 715.726562 Z M 769 548.582031 " clip-rule="nonzero"/></clipPath><clipPath id="bbfc4215d5"><path d="M 892 548.582031 L 999 548.582031 L 999 715.726562 L 892 715.726562 Z M 892 548.582031 " clip-rule="nonzero"/></clipPath><clipPath id="c5c8d5345c"><path d="M 1015 548.582031 L 1121 548.582031 L 1121 715.726562 L 1015 715.726562 Z M 1015 548.582031 " clip-rule="nonzero"/></clipPath><clipPath id="6e7d143b9a"><path d="M 35 876.136719 L 708 876.136719 L 708 1235.910156 L 35 1235.910156 Z M 35 876.136719 " clip-rule="nonzero"/></clipPath></defs><g clip-path="url(#552342bf94)"><path fill="#ffffff" d="M 0 0.40625 L 1189.5 0.40625 L 1189.5 1683.09375 L 0 1683.09375 Z M 0 0.40625 " fill-opacity="1" fill-rule="nonzero"/><path fill="#d9d9d9" d="M 0 0.40625 L 1189.5 0.40625 L 1189.5 1683.09375 L 0 1683.09375 Z M 0 0.40625 " fill-opacity="1" fill-rule="nonzero"/></g><g clip-path="url(#fcfee2c633)"><path fill="#737373" d="M 644.425781 487.691406 C 645.582031 487.691406 646.507812 488.613281 646.507812 489.769531 C 646.507812 490.925781 645.582031 491.851562 644.425781 491.851562 C 643.269531 491.851562 642.347656 490.925781 642.347656 489.769531 C 642.347656 488.613281 643.269531 487.691406 644.425781 487.691406 Z M 644.425781 446.058594 C 645.582031 446.058594 646.507812 446.984375 646.507812 448.140625 C 646.507812 449.296875 645.582031 450.222656 644.425781 450.222656 C 643.269531 450.222656 642.347656 449.296875 642.347656 448.140625 C 642.347656 446.984375 643.269531 446.058594 644.425781 446.058594 Z M 644.425781 404.429688 C 645.582031 404.429688 646.507812 405.355469 646.507812 406.511719 C 646.507812 407.664062 645.582031 408.589844 644.425781 408.589844 C 643.269531 408.589844 642.347656 407.664062 642.347656 406.511719 C 642.347656 405.355469 643.269531 404.429688 644.425781 404.429688 Z M 644.425781 362.800781 C 645.582031 362.800781 646.507812 363.722656 646.507812 364.878906 C 646.507812 366.035156 645.582031 366.960938 644.425781 366.960938 C 643.269531 366.960938 642.347656 366.035156 642.347656 364.878906 C 642.347656 363.722656 643.269531 362.800781 644.425781 362.800781 Z M 644.425781 321.167969 C 645.582031 321.167969 646.507812 322.09375 646.507812 323.25 C 646.507812 324.40625 645.582031 325.332031 644.425781 325.332031 C 643.269531 325.332031 642.347656 324.40625 642.347656 323.25 C 642.347656 322.09375 643.269531 321.167969 644.425781 321.167969 Z M 644.425781 279.539062 C 645.582031 279.539062 646.507812 280.464844 646.507812 281.621094 C 646.507812 282.773438 645.582031 283.699219 644.425781 283.699219 C 643.269531 283.699219 642.347656 282.773438 642.347656 281.621094 C 642.347656 280.464844 643.269531 279.539062 644.425781 279.539062 Z M 644.425781 237.910156 C 645.582031 237.910156 646.507812 238.832031 646.507812 239.988281 C 646.507812 241.144531 645.582031 242.070312 644.425781 242.070312 C 643.269531 242.070312 642.347656 241.144531 642.347656 239.988281 C 642.347656 238.832031 643.269531 237.910156 644.425781 237.910156 Z M 644.425781 196.277344 C 645.582031 196.277344 646.507812 197.203125 646.507812 198.359375 C 646.507812 199.515625 645.582031 200.441406 644.425781 200.441406 C 643.269531 200.441406 642.347656 199.515625 642.347656 198.359375 C 642.347656 197.203125 643.269531 196.277344 644.425781 196.277344 Z M 644.425781 154.648438 C 645.582031 154.648438 646.507812 155.574219 646.507812 156.730469 C 646.507812 157.886719 645.582031 158.808594 644.425781 158.808594 C 643.269531 158.808594 642.347656 157.886719 642.347656 156.730469 C 642.347656 155.574219 643.269531 154.648438 644.425781 154.648438 Z M 644.425781 113.019531 C 645.582031 113.019531 646.507812 113.941406 646.507812 115.097656 C 646.507812 116.238281 645.582031 117.179688 644.425781 117.179688 C 643.269531 117.179688 642.347656 116.238281 642.347656 115.097656 C 642.347656 113.941406 643.269531 113.019531 644.425781 113.019531 Z M 644.425781 71.386719 C 645.582031 71.386719 646.507812 72.3125 646.507812 73.46875 C 646.507812 74.625 645.582031 75.550781 644.425781 75.550781 C 643.269531 75.550781 642.347656 74.625 642.347656 73.46875 C 642.347656 72.3125 643.269531 71.386719 644.425781 71.386719 Z M 644.425781 29.824219 C 645.582031 29.824219 646.507812 30.75 646.507812 31.90625 C 646.507812 33.058594 645.582031 33.984375 644.425781 33.984375 C 643.269531 33.984375 642.347656 33.058594 642.347656 31.90625 C 642.347656 30.75 643.269531 29.824219 644.425781 29.824219 Z M 644.425781 29.824219 " fill-opacity="1" fill-rule="nonzero"/></g><path fill="#737373" d="M 603.488281 487.210938 C 604.894531 487.210938 606.03125 488.367188 606.03125 489.769531 C 606.03125 491.175781 604.894531 492.3125 603.488281 492.3125 C 602.085938 492.3125 600.945312 491.175781 600.945312 489.769531 C 600.945312 488.367188 602.085938 487.210938 603.488281 487.210938 Z M 603.488281 445.582031 C 604.894531 445.582031 606.03125 446.71875 606.03125 448.140625 C 606.03125 449.542969 604.894531 450.683594 603.488281 450.683594 C 602.085938 450.683594 600.945312 449.542969 600.945312 448.140625 C 600.945312 446.71875 602.085938 445.582031 603.488281 445.582031 Z M 603.488281 403.949219 C 604.894531 403.949219 606.03125 405.089844 606.03125 406.511719 C 606.03125 407.914062 604.894531 409.054688 603.488281 409.054688 C 602.085938 409.054688 600.945312 407.914062 600.945312 406.511719 C 600.945312 405.089844 602.085938 403.949219 603.488281 403.949219 Z M 603.488281 362.320312 C 604.894531 362.320312 606.03125 363.476562 606.03125 364.878906 C 606.03125 366.285156 604.894531 367.421875 603.488281 367.421875 C 602.085938 367.421875 600.945312 366.285156 600.945312 364.878906 C 600.945312 363.476562 602.085938 362.320312 603.488281 362.320312 Z M 603.488281 320.691406 C 604.894531 320.691406 606.03125 321.847656 606.03125 323.25 C 606.03125 324.652344 604.894531 325.792969 603.488281 325.792969 C 602.085938 325.792969 600.945312 324.652344 600.945312 323.25 C 600.945312 321.847656 602.085938 320.691406 603.488281 320.691406 Z M 603.488281 279.058594 C 604.894531 279.058594 606.03125 280.214844 606.03125 281.621094 C 606.03125 283.023438 604.894531 284.164062 603.488281 284.164062 C 602.085938 284.164062 600.945312 283.023438 600.945312 281.621094 C 600.945312 280.214844 602.085938 279.058594 603.488281 279.058594 Z M 603.488281 237.445312 C 604.894531 237.445312 606.03125 238.570312 606.03125 239.988281 C 606.03125 241.394531 604.894531 242.53125 603.488281 242.53125 C 602.085938 242.53125 600.945312 241.394531 600.945312 239.988281 C 600.945312 238.570312 602.085938 237.445312 603.488281 237.445312 Z M 603.488281 195.816406 C 604.894531 195.816406 606.03125 196.972656 606.03125 198.375 C 606.03125 199.777344 604.894531 200.917969 603.488281 200.917969 C 602.085938 200.917969 600.945312 199.777344 600.945312 198.375 C 600.945312 196.972656 602.085938 195.816406 603.488281 195.816406 Z M 603.488281 154.1875 C 604.894531 154.1875 606.03125 155.34375 606.03125 156.746094 C 606.03125 158.148438 604.894531 159.289062 603.488281 159.289062 C 602.085938 159.289062 600.945312 158.148438 600.945312 156.746094 C 600.945312 155.34375 602.085938 154.1875 603.488281 154.1875 Z M 603.488281 112.554688 C 604.894531 112.554688 606.03125 113.710938 606.03125 115.117188 C 606.03125 116.519531 604.894531 117.660156 603.488281 117.660156 C 602.085938 117.660156 600.945312 116.519531 600.945312 115.117188 C 600.945312 113.710938 602.085938 112.554688 603.488281 112.554688 Z M 603.488281 70.941406 C 604.894531 70.941406 606.03125 72.066406 606.03125 73.484375 C 606.03125 74.890625 604.894531 76.027344 603.488281 76.027344 C 602.085938 76.027344 600.945312 74.890625 600.945312 73.484375 C 600.945312 72.066406 602.085938 70.941406 603.488281 70.941406 Z M 603.488281 29.3125 C 604.894531 29.3125 606.03125 30.46875 606.03125 31.871094 C 606.03125 33.273438 604.894531 34.414062 603.488281 34.414062 C 602.085938 34.414062 600.945312 33.273438 600.945312 31.871094 C 600.945312 30.46875 602.085938 29.3125 603.488281 29.3125 Z M 603.488281 29.3125 " fill-opacity="1" fill-rule="nonzero"/><path fill="#737373" d="M 562.535156 486.75 C 564.1875 486.75 565.527344 488.085938 565.527344 489.753906 C 565.527344 491.40625 564.1875 492.742188 562.535156 492.742188 C 560.867188 492.742188 559.53125 491.40625 559.53125 489.753906 C 559.53125 488.085938 560.886719 486.75 562.535156 486.75 Z M 562.535156 445.117188 C 564.1875 445.117188 565.527344 446.457031 565.527344 448.125 C 565.527344 449.773438 564.1875 451.113281 562.535156 451.113281 C 560.867188 451.113281 559.53125 449.773438 559.53125 448.125 C 559.53125 446.457031 560.886719 445.117188 562.535156 445.117188 Z M 562.535156 403.488281 C 564.1875 403.488281 565.527344 404.824219 565.527344 406.492188 C 565.527344 408.144531 564.1875 409.480469 562.535156 409.480469 C 560.867188 409.480469 559.53125 408.144531 559.53125 406.492188 C 559.53125 404.824219 560.886719 403.488281 562.535156 403.488281 Z M 562.535156 361.859375 C 564.1875 361.859375 565.527344 363.195312 565.527344 364.863281 C 565.527344 366.515625 564.1875 367.851562 562.535156 367.851562 C 560.867188 367.851562 559.53125 366.515625 559.53125 364.863281 C 559.53125 363.195312 560.886719 361.859375 562.535156 361.859375 Z M 562.535156 320.226562 C 564.1875 320.226562 565.527344 321.582031 565.527344 323.234375 C 565.527344 324.902344 564.1875 326.222656 562.535156 326.222656 C 560.867188 326.222656 559.53125 324.882812 559.53125 323.234375 C 559.53125 321.566406 560.886719 320.226562 562.535156 320.226562 Z M 562.535156 278.597656 C 564.1875 278.597656 565.527344 279.953125 565.527344 281.601562 C 565.527344 283.269531 564.1875 284.59375 562.535156 284.59375 C 560.867188 284.59375 559.53125 283.253906 559.53125 281.601562 C 559.53125 279.933594 560.886719 278.597656 562.535156 278.597656 Z M 562.535156 236.96875 C 564.1875 236.96875 565.527344 238.320312 565.527344 239.972656 C 565.527344 241.625 564.1875 242.960938 562.535156 242.960938 C 560.867188 242.960938 559.53125 241.609375 559.53125 239.972656 C 559.53125 238.304688 560.886719 236.96875 562.535156 236.96875 Z M 562.535156 195.335938 C 564.1875 195.335938 565.527344 196.691406 565.527344 198.34375 C 565.527344 199.992188 564.1875 201.332031 562.535156 201.332031 C 560.867188 201.332031 559.53125 199.976562 559.53125 198.34375 C 559.53125 196.675781 560.886719 195.335938 562.535156 195.335938 Z M 562.535156 153.707031 C 564.1875 153.707031 565.527344 155.0625 565.527344 156.710938 C 565.527344 158.363281 564.1875 159.71875 562.535156 159.71875 C 560.867188 159.71875 559.53125 158.363281 559.53125 156.710938 C 559.53125 155.042969 560.886719 153.707031 562.535156 153.707031 Z M 562.535156 112.078125 C 564.1875 112.078125 565.527344 113.429688 565.527344 115.082031 C 565.527344 116.734375 564.1875 118.070312 562.535156 118.070312 C 560.867188 118.070312 559.53125 116.71875 559.53125 115.082031 C 559.53125 113.414062 560.886719 112.078125 562.535156 112.078125 Z M 562.535156 70.445312 C 564.1875 70.445312 565.527344 71.800781 565.527344 73.453125 C 565.527344 75.121094 564.1875 76.441406 562.535156 76.441406 C 560.867188 76.441406 559.53125 75.101562 559.53125 73.453125 C 559.53125 71.785156 560.886719 70.445312 562.535156 70.445312 Z M 562.535156 28.816406 C 564.1875 28.816406 565.527344 30.171875 565.527344 31.820312 C 565.527344 33.488281 564.1875 34.8125 562.535156 34.8125 C 560.867188 34.8125 559.53125 33.472656 559.53125 31.820312 C 559.53125 30.152344 560.886719 28.816406 562.535156 28.816406 Z M 562.535156 28.816406 " fill-opacity="1" fill-rule="nonzero"/><path fill="#737373" d="M 521.582031 486.300781 C 523.5 486.300781 525.050781 487.855469 525.050781 489.769531 C 525.050781 491.6875 523.5 493.238281 521.582031 493.238281 C 519.667969 493.238281 518.117188 491.6875 518.117188 489.769531 C 518.117188 487.855469 519.667969 486.300781 521.582031 486.300781 Z M 521.582031 444.671875 C 523.5 444.671875 525.050781 446.222656 525.050781 448.140625 C 525.050781 450.054688 523.5 451.609375 521.582031 451.609375 C 519.667969 451.609375 518.117188 450.054688 518.117188 448.140625 C 518.117188 446.222656 519.667969 444.671875 521.582031 444.671875 Z M 521.582031 403.042969 C 523.5 403.042969 525.050781 404.59375 525.050781 406.511719 C 525.050781 408.425781 523.5 409.976562 521.582031 409.976562 C 519.667969 409.976562 518.117188 408.425781 518.117188 406.511719 C 518.117188 404.59375 519.667969 403.042969 521.582031 403.042969 Z M 521.582031 361.410156 C 523.5 361.410156 525.050781 362.964844 525.050781 364.878906 C 525.050781 366.796875 523.5 368.347656 521.582031 368.347656 C 519.667969 368.347656 518.117188 366.796875 518.117188 364.878906 C 518.117188 362.964844 519.667969 361.410156 521.582031 361.410156 Z M 521.582031 319.78125 C 523.5 319.78125 525.050781 321.335938 525.050781 323.25 C 525.050781 325.164062 523.5 326.71875 521.582031 326.71875 C 519.667969 326.71875 518.117188 325.164062 518.117188 323.25 C 518.117188 321.335938 519.667969 319.78125 521.582031 319.78125 Z M 521.582031 278.152344 C 523.5 278.152344 525.050781 279.703125 525.050781 281.621094 C 525.050781 283.535156 523.5 285.085938 521.582031 285.085938 C 519.667969 285.085938 518.117188 283.535156 518.117188 281.621094 C 518.117188 279.703125 519.667969 278.152344 521.582031 278.152344 Z M 521.582031 236.523438 C 523.5 236.523438 525.050781 238.074219 525.050781 239.988281 C 525.050781 241.90625 523.5 243.457031 521.582031 243.457031 C 519.667969 243.457031 518.117188 241.90625 518.117188 239.988281 C 518.117188 238.074219 519.667969 236.523438 521.582031 236.523438 Z M 521.582031 194.890625 C 523.5 194.890625 525.050781 196.445312 525.050781 198.359375 C 525.050781 200.273438 523.5 201.828125 521.582031 201.828125 C 519.667969 201.828125 518.117188 200.273438 518.117188 198.359375 C 518.117188 196.445312 519.667969 194.890625 521.582031 194.890625 Z M 521.582031 153.261719 C 523.5 153.261719 525.050781 154.8125 525.050781 156.730469 C 525.050781 158.644531 523.5 160.195312 521.582031 160.195312 C 519.667969 160.195312 518.117188 158.644531 518.117188 156.730469 C 518.117188 154.8125 519.667969 153.261719 521.582031 153.261719 Z M 521.582031 111.632812 C 523.5 111.632812 525.050781 113.183594 525.050781 115.097656 C 525.050781 117.015625 523.5 118.566406 521.582031 118.566406 C 519.667969 118.566406 518.117188 117.015625 518.117188 115.097656 C 518.117188 113.183594 519.667969 111.632812 521.582031 111.632812 Z M 521.582031 70 C 523.5 70 525.050781 71.554688 525.050781 73.46875 C 525.050781 75.382812 523.5 76.9375 521.582031 76.9375 C 519.667969 76.9375 518.117188 75.382812 518.117188 73.46875 C 518.117188 71.554688 519.667969 70 521.582031 70 Z M 521.582031 28.371094 C 523.5 28.371094 525.050781 29.921875 525.050781 31.839844 C 525.050781 33.753906 523.5 35.304688 521.582031 35.304688 C 519.667969 35.304688 518.117188 33.753906 518.117188 31.839844 C 518.117188 29.921875 519.667969 28.371094 521.582031 28.371094 Z M 521.582031 28.371094 " fill-opacity="1" fill-rule="nonzero"/><path fill="#737373" d="M 480.628906 485.824219 C 482.808594 485.824219 484.5625 487.589844 484.5625 489.769531 C 484.5625 491.933594 482.808594 493.699219 480.628906 493.699219 C 478.46875 493.699219 476.699219 491.933594 476.699219 489.769531 C 476.699219 487.589844 478.46875 485.824219 480.628906 485.824219 Z M 480.628906 444.195312 C 482.808594 444.195312 484.5625 445.960938 484.5625 448.140625 C 484.5625 450.304688 482.808594 452.070312 480.628906 452.070312 C 478.46875 452.070312 476.699219 450.304688 476.699219 448.140625 C 476.699219 445.960938 478.46875 444.195312 480.628906 444.195312 Z M 480.628906 402.5625 C 482.808594 402.5625 484.5625 404.332031 484.5625 406.511719 C 484.5625 408.671875 482.808594 410.441406 480.628906 410.441406 C 478.46875 410.441406 476.699219 408.671875 476.699219 406.511719 C 476.699219 404.332031 478.46875 402.5625 480.628906 402.5625 Z M 480.628906 360.933594 C 482.808594 360.933594 484.5625 362.699219 484.5625 364.878906 C 484.5625 367.042969 482.808594 368.808594 480.628906 368.808594 C 478.46875 368.808594 476.699219 367.042969 476.699219 364.878906 C 476.699219 362.699219 478.46875 360.933594 480.628906 360.933594 Z M 480.628906 319.320312 C 482.808594 319.320312 484.5625 321.070312 484.5625 323.25 C 484.5625 325.414062 482.808594 327.179688 480.628906 327.179688 C 478.46875 327.179688 476.699219 325.414062 476.699219 323.25 C 476.699219 321.070312 478.46875 319.320312 480.628906 319.320312 Z M 480.628906 277.6875 C 482.808594 277.6875 484.5625 279.441406 484.5625 281.621094 C 484.5625 283.78125 482.808594 285.550781 480.628906 285.550781 C 478.46875 285.550781 476.699219 283.78125 476.699219 281.621094 C 476.699219 279.441406 478.46875 277.6875 480.628906 277.6875 Z M 480.628906 236.058594 C 482.808594 236.058594 484.5625 237.808594 484.5625 239.988281 C 484.5625 242.152344 482.808594 243.917969 480.628906 243.917969 C 478.46875 243.917969 476.699219 242.152344 476.699219 239.988281 C 476.699219 237.808594 478.46875 236.058594 480.628906 236.058594 Z M 480.628906 194.429688 C 482.808594 194.429688 484.5625 196.179688 484.5625 198.359375 C 484.5625 200.523438 482.808594 202.289062 480.628906 202.289062 C 478.46875 202.289062 476.699219 200.523438 476.699219 198.359375 C 476.699219 196.179688 478.46875 194.429688 480.628906 194.429688 Z M 480.628906 152.796875 C 482.808594 152.796875 484.5625 154.550781 484.5625 156.730469 C 484.5625 158.890625 482.808594 160.660156 480.628906 160.660156 C 478.46875 160.660156 476.699219 158.890625 476.699219 156.730469 C 476.699219 154.550781 478.46875 152.796875 480.628906 152.796875 Z M 480.628906 111.167969 C 482.808594 111.167969 484.5625 112.917969 484.5625 115.097656 C 484.5625 117.261719 482.808594 119.027344 480.628906 119.027344 C 478.46875 119.027344 476.699219 117.261719 476.699219 115.097656 C 476.699219 112.917969 478.46875 111.167969 480.628906 111.167969 Z M 480.628906 69.539062 C 482.808594 69.539062 484.5625 71.289062 484.5625 73.46875 C 484.5625 75.632812 482.808594 77.398438 480.628906 77.398438 C 478.46875 77.398438 476.699219 75.632812 476.699219 73.46875 C 476.699219 71.289062 478.46875 69.539062 480.628906 69.539062 Z M 480.628906 27.910156 C 482.808594 27.910156 484.5625 29.660156 484.5625 31.839844 C 484.5625 34 482.808594 35.769531 480.628906 35.769531 C 478.46875 35.769531 476.699219 34 476.699219 31.839844 C 476.699219 29.660156 478.46875 27.910156 480.628906 27.910156 Z M 480.628906 27.910156 " fill-opacity="1" fill-rule="nonzero"/><path fill="#737373" d="M 439.695312 485.359375 C 442.121094 485.359375 444.085938 487.328125 444.085938 489.753906 C 444.085938 492.179688 442.136719 494.144531 439.695312 494.144531 C 437.265625 494.144531 435.300781 492.199219 435.300781 489.753906 C 435.300781 487.328125 437.265625 485.359375 439.695312 485.359375 Z M 439.695312 443.730469 C 442.121094 443.730469 444.085938 445.695312 444.085938 448.125 C 444.085938 450.550781 442.136719 452.515625 439.695312 452.515625 C 437.265625 452.515625 435.300781 450.566406 435.300781 448.125 C 435.300781 445.695312 437.265625 443.730469 439.695312 443.730469 Z M 439.695312 402.101562 C 442.121094 402.101562 444.085938 404.066406 444.085938 406.492188 C 444.085938 408.921875 442.136719 410.886719 439.695312 410.886719 C 437.265625 410.886719 435.300781 408.9375 435.300781 406.492188 C 435.300781 404.066406 437.265625 402.101562 439.695312 402.101562 Z M 439.695312 360.46875 C 442.121094 360.46875 444.085938 362.4375 444.085938 364.863281 C 444.085938 367.289062 442.136719 369.253906 439.695312 369.253906 C 437.265625 369.253906 435.300781 367.308594 435.300781 364.863281 C 435.300781 362.4375 437.265625 360.46875 439.695312 360.46875 Z M 439.695312 318.839844 C 442.121094 318.839844 444.085938 320.804688 444.085938 323.234375 C 444.085938 325.660156 442.136719 327.625 439.695312 327.625 C 437.265625 327.625 435.300781 325.675781 435.300781 323.234375 C 435.300781 320.804688 437.265625 318.839844 439.695312 318.839844 Z M 439.695312 277.210938 C 442.121094 277.210938 444.085938 279.175781 444.085938 281.601562 C 444.085938 284.03125 442.136719 285.996094 439.695312 285.996094 C 437.265625 285.996094 435.300781 284.046875 435.300781 281.601562 C 435.300781 279.175781 437.265625 277.210938 439.695312 277.210938 Z M 439.695312 235.582031 C 442.121094 235.582031 444.085938 237.546875 444.085938 239.972656 C 444.085938 242.398438 442.136719 244.367188 439.695312 244.367188 C 437.265625 244.367188 435.300781 242.417969 435.300781 239.972656 C 435.300781 237.546875 437.265625 235.582031 439.695312 235.582031 Z M 439.695312 193.949219 C 442.121094 193.949219 444.085938 195.914062 444.085938 198.34375 C 444.085938 200.769531 442.136719 202.734375 439.695312 202.734375 C 437.265625 202.734375 435.300781 200.785156 435.300781 198.34375 C 435.300781 195.914062 437.265625 193.949219 439.695312 193.949219 Z M 439.695312 152.320312 C 442.121094 152.320312 444.085938 154.285156 444.085938 156.710938 C 444.085938 159.140625 442.136719 161.105469 439.695312 161.105469 C 437.265625 161.105469 435.300781 159.140625 435.300781 156.710938 C 435.300781 154.285156 437.265625 152.320312 439.695312 152.320312 Z M 439.695312 110.691406 C 442.121094 110.691406 444.085938 112.65625 444.085938 115.082031 C 444.085938 117.507812 442.136719 119.476562 439.695312 119.476562 C 437.265625 119.476562 435.300781 117.527344 435.300781 115.082031 C 435.300781 112.65625 437.265625 110.691406 439.695312 110.691406 Z M 439.695312 69.058594 C 442.121094 69.058594 444.085938 71.023438 444.085938 73.453125 C 444.085938 75.878906 442.136719 77.84375 439.695312 77.84375 C 437.265625 77.84375 435.300781 75.878906 435.300781 73.453125 C 435.300781 71.023438 437.265625 69.058594 439.695312 69.058594 Z M 439.695312 27.429688 C 442.121094 27.429688 444.085938 29.394531 444.085938 31.820312 C 444.085938 34.25 442.136719 36.214844 439.695312 36.214844 C 437.265625 36.214844 435.300781 34.265625 435.300781 31.820312 C 435.300781 29.394531 437.265625 27.429688 439.695312 27.429688 Z M 439.695312 27.429688 " fill-opacity="1" fill-rule="nonzero"/><path fill="#737373" d="M 398.742188 484.914062 C 401.433594 484.914062 403.597656 487.078125 403.597656 489.769531 C 403.597656 492.445312 401.433594 494.625 398.742188 494.625 C 396.066406 494.625 393.886719 492.445312 393.886719 489.769531 C 393.886719 487.078125 396.066406 484.914062 398.742188 484.914062 Z M 398.742188 443.285156 C 401.433594 443.285156 403.597656 445.449219 403.597656 448.140625 C 403.597656 450.816406 401.433594 452.996094 398.742188 452.996094 C 396.066406 452.996094 393.886719 450.816406 393.886719 448.140625 C 393.886719 445.449219 396.066406 443.285156 398.742188 443.285156 Z M 398.742188 401.65625 C 401.433594 401.65625 403.597656 403.816406 403.597656 406.511719 C 403.597656 409.183594 401.433594 411.363281 398.742188 411.363281 C 396.066406 411.363281 393.886719 409.183594 393.886719 406.511719 C 393.886719 403.816406 396.066406 401.65625 398.742188 401.65625 Z M 398.742188 360.023438 C 401.433594 360.023438 403.597656 362.203125 403.597656 364.878906 C 403.597656 367.554688 401.433594 369.734375 398.742188 369.734375 C 396.066406 369.734375 393.886719 367.554688 393.886719 364.878906 C 393.886719 362.203125 396.066406 360.023438 398.742188 360.023438 Z M 398.742188 318.394531 C 401.433594 318.394531 403.597656 320.574219 403.597656 323.25 C 403.597656 325.925781 401.433594 328.105469 398.742188 328.105469 C 396.066406 328.105469 393.886719 325.925781 393.886719 323.25 C 393.886719 320.574219 396.066406 318.394531 398.742188 318.394531 Z M 398.742188 276.765625 C 401.433594 276.765625 403.597656 278.929688 403.597656 281.621094 C 403.597656 284.292969 401.433594 286.472656 398.742188 286.472656 C 396.066406 286.472656 393.886719 284.292969 393.886719 281.621094 C 393.886719 278.929688 396.066406 276.765625 398.742188 276.765625 Z M 398.742188 235.132812 C 401.433594 235.132812 403.597656 237.296875 403.597656 239.988281 C 403.597656 242.664062 401.433594 244.84375 398.742188 244.84375 C 396.066406 244.84375 393.886719 242.664062 393.886719 239.988281 C 393.886719 237.296875 396.066406 235.132812 398.742188 235.132812 Z M 398.742188 193.503906 C 401.433594 193.503906 403.597656 195.667969 403.597656 198.359375 C 403.597656 201.035156 401.433594 203.214844 398.742188 203.214844 C 396.066406 203.214844 393.886719 201.035156 393.886719 198.359375 C 393.886719 195.667969 396.066406 193.503906 398.742188 193.503906 Z M 398.742188 151.875 C 401.433594 151.875 403.597656 154.054688 403.597656 156.730469 C 403.597656 159.402344 401.433594 161.582031 398.742188 161.582031 C 396.066406 161.582031 393.886719 159.402344 393.886719 156.730469 C 393.886719 154.054688 396.066406 151.875 398.742188 151.875 Z M 398.742188 110.242188 C 401.433594 110.242188 403.597656 112.421875 403.597656 115.097656 C 403.597656 117.773438 401.433594 119.953125 398.742188 119.953125 C 396.066406 119.953125 393.886719 117.773438 393.886719 115.097656 C 393.886719 112.421875 396.066406 110.242188 398.742188 110.242188 Z M 398.742188 68.613281 C 401.433594 68.613281 403.597656 70.792969 403.597656 73.46875 C 403.597656 76.144531 401.433594 78.324219 398.742188 78.324219 C 396.066406 78.324219 393.886719 76.144531 393.886719 73.46875 C 393.886719 70.792969 396.066406 68.613281 398.742188 68.613281 Z M 398.742188 26.984375 C 401.433594 26.984375 403.597656 29.148438 403.597656 31.839844 C 403.597656 34.511719 401.433594 36.695312 398.742188 36.695312 C 396.066406 36.695312 393.886719 34.511719 393.886719 31.839844 C 393.886719 29.148438 396.066406 26.984375 398.742188 26.984375 Z M 398.742188 26.984375 " fill-opacity="1" fill-rule="nonzero"/><path fill="#737373" d="M 357.789062 484.4375 C 360.726562 484.4375 363.121094 486.8125 363.121094 489.769531 C 363.121094 492.691406 360.742188 495.085938 357.789062 495.085938 C 354.847656 495.085938 352.46875 492.710938 352.46875 489.769531 C 352.46875 486.832031 354.847656 484.4375 357.789062 484.4375 Z M 357.789062 442.804688 C 360.726562 442.804688 363.121094 445.183594 363.121094 448.140625 C 363.121094 451.0625 360.742188 453.457031 357.789062 453.457031 C 354.847656 453.457031 352.46875 451.078125 352.46875 448.140625 C 352.46875 445.199219 354.847656 442.804688 357.789062 442.804688 Z M 357.789062 401.175781 C 360.726562 401.175781 363.121094 403.554688 363.121094 406.511719 C 363.121094 409.433594 360.742188 411.828125 357.789062 411.828125 C 354.847656 411.828125 352.46875 409.449219 352.46875 406.511719 C 352.46875 403.570312 354.847656 401.175781 357.789062 401.175781 Z M 357.789062 359.5625 C 360.726562 359.5625 363.121094 361.941406 363.121094 364.878906 C 363.121094 367.800781 360.742188 370.195312 357.789062 370.195312 C 354.847656 370.195312 352.46875 367.820312 352.46875 364.878906 C 352.46875 361.941406 354.847656 359.5625 357.789062 359.5625 Z M 357.789062 317.933594 C 360.726562 317.933594 363.121094 320.328125 363.121094 323.265625 C 363.121094 326.1875 360.742188 328.582031 357.789062 328.582031 C 354.847656 328.582031 352.46875 326.207031 352.46875 323.265625 C 352.46875 320.328125 354.847656 317.933594 357.789062 317.933594 Z M 357.789062 276.300781 C 360.726562 276.300781 363.121094 278.695312 363.121094 281.636719 C 363.121094 284.558594 360.742188 286.953125 357.789062 286.953125 C 354.847656 286.953125 352.46875 284.574219 352.46875 281.636719 C 352.46875 278.695312 354.847656 276.300781 357.789062 276.300781 Z M 357.789062 234.6875 C 360.726562 234.6875 363.121094 237.066406 363.121094 240.003906 C 363.121094 242.945312 360.742188 245.324219 357.789062 245.324219 C 354.847656 245.324219 352.46875 242.945312 352.46875 240.003906 C 352.46875 237.066406 354.847656 234.6875 357.789062 234.6875 Z M 357.789062 193.058594 C 360.726562 193.058594 363.121094 195.453125 363.121094 198.390625 C 363.121094 201.316406 360.742188 203.710938 357.789062 203.710938 C 354.847656 203.710938 352.46875 201.332031 352.46875 198.390625 C 352.46875 195.453125 354.847656 193.058594 357.789062 193.058594 Z M 357.789062 151.429688 C 360.726562 151.429688 363.121094 153.824219 363.121094 156.761719 C 363.121094 159.683594 360.742188 162.078125 357.789062 162.078125 C 354.847656 162.078125 352.46875 159.703125 352.46875 156.761719 C 352.46875 153.824219 354.847656 151.429688 357.789062 151.429688 Z M 357.789062 109.796875 C 360.726562 109.796875 363.121094 112.191406 363.121094 115.132812 C 363.121094 118.054688 360.742188 120.449219 357.789062 120.449219 C 354.847656 120.449219 352.46875 118.070312 352.46875 115.132812 C 352.46875 112.191406 354.847656 109.796875 357.789062 109.796875 Z M 357.789062 68.183594 C 360.726562 68.183594 363.121094 70.5625 363.121094 73.5 C 363.121094 76.441406 360.742188 78.820312 357.789062 78.820312 C 354.847656 78.820312 352.46875 76.441406 352.46875 73.5 C 352.46875 70.5625 354.847656 68.183594 357.789062 68.183594 Z M 357.789062 26.554688 C 360.726562 26.554688 363.121094 28.949219 363.121094 31.886719 C 363.121094 34.8125 360.742188 37.207031 357.789062 37.207031 C 354.847656 37.207031 352.46875 34.828125 352.46875 31.886719 C 352.46875 28.949219 354.847656 26.554688 357.789062 26.554688 Z M 357.789062 26.554688 " fill-opacity="1" fill-rule="nonzero"/><path fill="#737373" d="M 316.851562 483.972656 C 320.039062 483.972656 322.613281 486.566406 322.613281 489.753906 C 322.613281 492.941406 320.039062 495.535156 316.851562 495.535156 C 313.664062 495.535156 311.070312 492.957031 311.070312 489.753906 C 311.070312 486.566406 313.664062 483.972656 316.851562 483.972656 Z M 316.851562 442.34375 C 320.039062 442.34375 322.613281 444.9375 322.613281 448.125 C 322.613281 451.3125 320.039062 453.902344 316.851562 453.902344 C 313.664062 453.902344 311.070312 451.328125 311.070312 448.125 C 311.070312 444.9375 313.664062 442.34375 316.851562 442.34375 Z M 316.851562 400.714844 C 320.039062 400.714844 322.613281 403.304688 322.613281 406.492188 C 322.613281 409.679688 320.039062 412.273438 316.851562 412.273438 C 313.664062 412.273438 311.070312 409.695312 311.070312 406.492188 C 311.070312 403.304688 313.664062 400.714844 316.851562 400.714844 Z M 316.851562 359.082031 C 320.039062 359.082031 322.613281 361.675781 322.613281 364.863281 C 322.613281 368.050781 320.039062 370.644531 316.851562 370.644531 C 313.664062 370.644531 311.070312 368.066406 311.070312 364.863281 C 311.070312 361.675781 313.664062 359.082031 316.851562 359.082031 Z M 316.851562 317.453125 C 320.039062 317.453125 322.613281 320.046875 322.613281 323.234375 C 322.613281 326.421875 320.039062 329.011719 316.851562 329.011719 C 313.664062 329.011719 311.070312 326.4375 311.070312 323.234375 C 311.070312 320.046875 313.664062 317.453125 316.851562 317.453125 Z M 316.851562 275.824219 C 320.039062 275.824219 322.613281 278.414062 322.613281 281.601562 C 322.613281 284.789062 320.039062 287.382812 316.851562 287.382812 C 313.664062 287.382812 311.070312 284.789062 311.070312 281.601562 C 311.070312 278.414062 313.664062 275.824219 316.851562 275.824219 Z M 316.851562 234.191406 C 320.039062 234.191406 322.613281 236.785156 322.613281 239.972656 C 322.613281 243.160156 320.039062 245.753906 316.851562 245.753906 C 313.664062 245.753906 311.070312 243.175781 311.070312 239.972656 C 311.070312 236.785156 313.664062 234.191406 316.851562 234.191406 Z M 316.851562 192.5625 C 320.039062 192.5625 322.613281 195.15625 322.613281 198.34375 C 322.613281 201.53125 320.039062 204.121094 316.851562 204.121094 C 313.664062 204.121094 311.070312 201.546875 311.070312 198.34375 C 311.070312 195.15625 313.664062 192.5625 316.851562 192.5625 Z M 316.851562 150.933594 C 320.039062 150.933594 322.613281 153.523438 322.613281 156.710938 C 322.613281 159.898438 320.039062 162.492188 316.851562 162.492188 C 313.664062 162.492188 311.070312 159.917969 311.070312 156.710938 C 311.070312 153.523438 313.664062 150.933594 316.851562 150.933594 Z M 316.851562 109.300781 C 320.039062 109.300781 322.613281 111.894531 322.613281 115.082031 C 322.613281 118.269531 320.039062 120.863281 316.851562 120.863281 C 313.664062 120.863281 311.070312 118.285156 311.070312 115.082031 C 311.070312 111.894531 313.664062 109.300781 316.851562 109.300781 Z M 316.851562 67.671875 C 320.039062 67.671875 322.613281 70.265625 322.613281 73.453125 C 322.613281 76.640625 320.039062 79.230469 316.851562 79.230469 C 313.664062 79.230469 311.070312 76.65625 311.070312 73.453125 C 311.070312 70.265625 313.664062 67.671875 316.851562 67.671875 Z M 316.851562 26.042969 C 320.039062 26.042969 322.613281 28.636719 322.613281 31.820312 C 322.613281 35.007812 320.039062 37.601562 316.851562 37.601562 C 313.664062 37.601562 311.070312 35.027344 311.070312 31.820312 C 311.070312 28.636719 313.664062 26.042969 316.851562 26.042969 Z M 316.851562 26.042969 " fill-opacity="1" fill-rule="nonzero"/><path fill="#737373" d="M 275.898438 483.527344 C 279.332031 483.527344 282.125 486.320312 282.125 489.769531 C 282.125 493.203125 279.332031 496.011719 275.898438 496.011719 C 272.445312 496.011719 269.640625 493.203125 269.640625 489.769531 C 269.640625 486.320312 272.445312 483.527344 275.898438 483.527344 Z M 275.898438 441.898438 C 279.332031 441.898438 282.125 444.6875 282.125 448.140625 C 282.125 451.574219 279.332031 454.382812 275.898438 454.382812 C 272.445312 454.382812 269.640625 451.574219 269.640625 448.140625 C 269.640625 444.6875 272.445312 441.898438 275.898438 441.898438 Z M 275.898438 400.269531 C 279.332031 400.269531 282.125 403.058594 282.125 406.511719 C 282.125 409.945312 279.332031 412.753906 275.898438 412.753906 C 272.445312 412.753906 269.640625 409.945312 269.640625 406.511719 C 269.640625 403.058594 272.445312 400.269531 275.898438 400.269531 Z M 275.898438 358.636719 C 279.332031 358.636719 282.125 361.429688 282.125 364.878906 C 282.125 368.316406 279.332031 371.121094 275.898438 371.121094 C 272.445312 371.121094 269.640625 368.316406 269.640625 364.878906 C 269.640625 361.429688 272.445312 358.636719 275.898438 358.636719 Z M 275.898438 317.007812 C 279.332031 317.007812 282.125 319.796875 282.125 323.25 C 282.125 326.683594 279.332031 329.492188 275.898438 329.492188 C 272.445312 329.492188 269.640625 326.683594 269.640625 323.25 C 269.640625 319.796875 272.445312 317.007812 275.898438 317.007812 Z M 275.898438 275.378906 C 279.332031 275.378906 282.125 278.167969 282.125 281.621094 C 282.125 285.054688 279.332031 287.863281 275.898438 287.863281 C 272.445312 287.863281 269.640625 285.054688 269.640625 281.621094 C 269.640625 278.167969 272.445312 275.378906 275.898438 275.378906 Z M 275.898438 233.746094 C 279.332031 233.746094 282.125 236.539062 282.125 239.988281 C 282.125 243.425781 279.332031 246.230469 275.898438 246.230469 C 272.445312 246.230469 269.640625 243.425781 269.640625 239.988281 C 269.640625 236.539062 272.445312 233.746094 275.898438 233.746094 Z M 275.898438 192.117188 C 279.332031 192.117188 282.125 194.90625 282.125 198.359375 C 282.125 201.792969 279.332031 204.601562 275.898438 204.601562 C 272.445312 204.601562 269.640625 201.792969 269.640625 198.359375 C 269.640625 194.90625 272.445312 192.117188 275.898438 192.117188 Z M 275.898438 150.488281 C 279.332031 150.488281 282.125 153.277344 282.125 156.730469 C 282.125 160.164062 279.332031 162.972656 275.898438 162.972656 C 272.445312 162.972656 269.640625 160.164062 269.640625 156.730469 C 269.640625 153.277344 272.445312 150.488281 275.898438 150.488281 Z M 275.898438 108.855469 C 279.332031 108.855469 282.125 111.648438 282.125 115.097656 C 282.125 118.535156 279.332031 121.339844 275.898438 121.339844 C 272.445312 121.339844 269.640625 118.535156 269.640625 115.097656 C 269.640625 111.648438 272.445312 108.855469 275.898438 108.855469 Z M 275.898438 67.226562 C 279.332031 67.226562 282.125 70.015625 282.125 73.46875 C 282.125 76.902344 279.332031 79.710938 275.898438 79.710938 C 272.445312 79.710938 269.640625 76.902344 269.640625 73.46875 C 269.640625 70.015625 272.445312 67.226562 275.898438 67.226562 Z M 275.898438 25.597656 C 279.332031 25.597656 282.125 28.386719 282.125 31.839844 C 282.125 35.273438 279.332031 38.082031 275.898438 38.082031 C 272.445312 38.082031 269.640625 35.273438 269.640625 31.839844 C 269.640625 28.386719 272.445312 25.597656 275.898438 25.597656 Z M 275.898438 25.597656 " fill-opacity="1" fill-rule="nonzero"/><path fill="#737373" d="M 234.945312 483.050781 C 238.644531 483.050781 241.664062 486.054688 241.664062 489.769531 C 241.664062 493.46875 238.660156 496.476562 234.945312 496.476562 C 231.246094 496.476562 228.242188 493.484375 228.242188 489.769531 C 228.242188 486.070312 231.230469 483.050781 234.945312 483.050781 Z M 234.945312 441.417969 C 238.644531 441.417969 241.664062 444.425781 241.664062 448.140625 C 241.664062 451.839844 238.660156 454.84375 234.945312 454.84375 C 231.246094 454.84375 228.242188 451.855469 228.242188 448.140625 C 228.242188 444.441406 231.230469 441.417969 234.945312 441.417969 Z M 234.945312 399.789062 C 238.644531 399.789062 241.664062 402.792969 241.664062 406.511719 C 241.664062 410.207031 238.660156 413.214844 234.945312 413.214844 C 231.246094 413.214844 228.242188 410.226562 228.242188 406.511719 C 228.242188 402.8125 231.230469 399.789062 234.945312 399.789062 Z M 234.945312 358.160156 C 238.644531 358.160156 241.664062 361.164062 241.664062 364.878906 C 241.664062 368.578125 238.660156 371.585938 234.945312 371.585938 C 231.246094 371.585938 228.242188 368.59375 228.242188 364.878906 C 228.242188 361.179688 231.230469 358.160156 234.945312 358.160156 Z M 234.945312 316.527344 C 238.644531 316.527344 241.664062 319.535156 241.664062 323.25 C 241.664062 326.949219 238.660156 329.953125 234.945312 329.953125 C 231.246094 329.953125 228.242188 326.964844 228.242188 323.25 C 228.242188 319.550781 231.230469 316.527344 234.945312 316.527344 Z M 234.945312 274.898438 C 238.644531 274.898438 241.664062 277.902344 241.664062 281.621094 C 241.664062 285.320312 238.660156 288.324219 234.945312 288.324219 C 231.246094 288.324219 228.242188 285.335938 228.242188 281.621094 C 228.242188 277.921875 231.230469 274.898438 234.945312 274.898438 Z M 234.945312 233.269531 C 238.644531 233.269531 241.664062 236.273438 241.664062 239.988281 C 241.664062 243.6875 238.660156 246.695312 234.945312 246.695312 C 231.246094 246.695312 228.242188 243.703125 228.242188 239.988281 C 228.242188 236.289062 231.230469 233.269531 234.945312 233.269531 Z M 234.945312 191.636719 C 238.644531 191.636719 241.664062 194.644531 241.664062 198.359375 C 241.664062 202.058594 238.660156 205.0625 234.945312 205.0625 C 231.246094 205.0625 228.242188 202.074219 228.242188 198.359375 C 228.242188 194.660156 231.230469 191.636719 234.945312 191.636719 Z M 234.945312 150.007812 C 238.644531 150.007812 241.664062 153.011719 241.664062 156.730469 C 241.664062 160.429688 238.660156 163.433594 234.945312 163.433594 C 231.246094 163.433594 228.242188 160.445312 228.242188 156.730469 C 228.242188 153.03125 231.230469 150.007812 234.945312 150.007812 Z M 234.945312 108.378906 C 238.644531 108.378906 241.664062 111.382812 241.664062 115.097656 C 241.664062 118.796875 238.660156 121.804688 234.945312 121.804688 C 231.246094 121.804688 228.242188 118.8125 228.242188 115.097656 C 228.242188 111.398438 231.230469 108.378906 234.945312 108.378906 Z M 234.945312 66.746094 C 238.644531 66.746094 241.664062 69.753906 241.664062 73.46875 C 241.664062 77.167969 238.660156 80.171875 234.945312 80.171875 C 231.246094 80.171875 228.242188 77.183594 228.242188 73.46875 C 228.242188 69.769531 231.230469 66.746094 234.945312 66.746094 Z M 234.945312 25.132812 C 238.644531 25.132812 241.664062 28.121094 241.664062 31.839844 C 241.664062 35.539062 238.660156 38.542969 234.945312 38.542969 C 231.246094 38.542969 228.242188 35.554688 228.242188 31.839844 C 228.242188 28.140625 231.230469 25.132812 234.945312 25.132812 Z M 234.945312 25.132812 " fill-opacity="1" fill-rule="nonzero"/><path fill="#737373" d="M 194.007812 482.585938 C 197.953125 482.585938 201.175781 485.789062 201.175781 489.753906 C 201.175781 493.71875 197.953125 496.921875 194.007812 496.921875 C 190.0625 496.921875 186.839844 493.71875 186.839844 489.753906 C 186.839844 485.789062 190.0625 482.585938 194.007812 482.585938 Z M 194.007812 440.957031 C 197.953125 440.957031 201.175781 444.160156 201.175781 448.125 C 201.175781 452.085938 197.953125 455.289062 194.007812 455.289062 C 190.0625 455.289062 186.839844 452.085938 186.839844 448.125 C 186.839844 444.160156 190.0625 440.957031 194.007812 440.957031 Z M 194.007812 399.328125 C 197.953125 399.328125 201.175781 402.546875 201.175781 406.492188 C 201.175781 410.457031 197.953125 413.660156 194.007812 413.660156 C 190.0625 413.660156 186.839844 410.457031 186.839844 406.492188 C 186.839844 402.546875 190.0625 399.328125 194.007812 399.328125 Z M 194.007812 357.695312 C 197.953125 357.695312 201.175781 360.917969 201.175781 364.863281 C 201.175781 368.828125 197.953125 372.03125 194.007812 372.03125 C 190.0625 372.03125 186.839844 368.828125 186.839844 364.863281 C 186.839844 360.917969 190.0625 357.695312 194.007812 357.695312 Z M 194.007812 316.066406 C 197.953125 316.066406 201.175781 319.285156 201.175781 323.234375 C 201.175781 327.179688 197.953125 330.398438 194.007812 330.398438 C 190.0625 330.398438 186.839844 327.195312 186.839844 323.234375 C 186.839844 319.285156 190.0625 316.066406 194.007812 316.066406 Z M 194.007812 274.4375 C 197.953125 274.4375 201.175781 277.65625 201.175781 281.601562 C 201.175781 285.550781 197.953125 288.769531 194.007812 288.769531 C 190.0625 288.769531 186.839844 285.566406 186.839844 281.601562 C 186.839844 277.65625 190.0625 274.4375 194.007812 274.4375 Z M 194.007812 232.804688 C 197.953125 232.804688 201.175781 236.027344 201.175781 239.972656 C 201.175781 243.917969 197.953125 247.140625 194.007812 247.140625 C 190.0625 247.140625 186.839844 243.9375 186.839844 239.972656 C 186.839844 236.027344 190.0625 232.804688 194.007812 232.804688 Z M 194.007812 191.175781 C 197.953125 191.175781 201.175781 194.378906 201.175781 198.34375 C 201.175781 202.289062 197.953125 205.507812 194.007812 205.507812 C 190.0625 205.507812 186.839844 202.304688 186.839844 198.34375 C 186.839844 194.378906 190.0625 191.175781 194.007812 191.175781 Z M 194.007812 149.546875 C 197.953125 149.546875 201.175781 152.75 201.175781 156.710938 C 201.175781 160.660156 197.953125 163.878906 194.007812 163.878906 C 190.0625 163.878906 186.839844 160.675781 186.839844 156.710938 C 186.839844 152.75 190.0625 149.546875 194.007812 149.546875 Z M 194.007812 107.914062 C 197.953125 107.914062 201.175781 111.117188 201.175781 115.082031 C 201.175781 119.027344 197.953125 122.25 194.007812 122.25 C 190.0625 122.25 186.839844 119.046875 186.839844 115.082031 C 186.839844 111.117188 190.0625 107.914062 194.007812 107.914062 Z M 194.007812 66.285156 C 197.953125 66.285156 201.175781 69.488281 201.175781 73.453125 C 201.175781 77.398438 197.953125 80.617188 194.007812 80.617188 C 190.0625 80.617188 186.839844 77.414062 186.839844 73.453125 C 186.839844 69.488281 190.0625 66.285156 194.007812 66.285156 Z M 194.007812 24.65625 C 197.953125 24.65625 201.175781 27.859375 201.175781 31.820312 C 201.175781 35.769531 197.953125 38.988281 194.007812 38.988281 C 190.0625 38.988281 186.839844 35.769531 186.839844 31.820312 C 186.839844 27.859375 190.0625 24.65625 194.007812 24.65625 Z M 194.007812 24.65625 " fill-opacity="1" fill-rule="nonzero"/><path fill="#737373" d="M 153.054688 482.140625 C 157.265625 482.140625 160.683594 485.558594 160.683594 489.769531 C 160.683594 493.980469 157.25 497.398438 153.054688 497.398438 C 148.84375 497.398438 145.425781 493.980469 145.425781 489.769531 C 145.425781 485.558594 148.84375 482.140625 153.054688 482.140625 Z M 153.054688 440.511719 C 157.265625 440.511719 160.683594 443.929688 160.683594 448.140625 C 160.683594 452.351562 157.25 455.769531 153.054688 455.769531 C 148.84375 455.769531 145.425781 452.335938 145.425781 448.140625 C 145.425781 443.929688 148.84375 440.511719 153.054688 440.511719 Z M 153.054688 398.878906 C 157.265625 398.878906 160.683594 402.300781 160.683594 406.511719 C 160.683594 410.722656 157.25 414.140625 153.054688 414.140625 C 148.84375 414.140625 145.425781 410.722656 145.425781 406.511719 C 145.425781 402.300781 148.84375 398.878906 153.054688 398.878906 Z M 153.054688 357.25 C 157.265625 357.25 160.683594 360.667969 160.683594 364.878906 C 160.683594 369.089844 157.25 372.507812 153.054688 372.507812 C 148.84375 372.507812 145.425781 369.089844 145.425781 364.878906 C 145.425781 360.667969 148.84375 357.25 153.054688 357.25 Z M 153.054688 315.621094 C 157.265625 315.621094 160.683594 319.039062 160.683594 323.25 C 160.683594 327.460938 157.25 330.878906 153.054688 330.878906 C 148.84375 330.878906 145.425781 327.445312 145.425781 323.25 C 145.425781 319.039062 148.84375 315.621094 153.054688 315.621094 Z M 153.054688 273.992188 C 157.265625 273.992188 160.683594 277.410156 160.683594 281.621094 C 160.683594 285.832031 157.25 289.25 153.054688 289.25 C 148.84375 289.25 145.425781 285.832031 145.425781 281.621094 C 145.425781 277.410156 148.84375 273.992188 153.054688 273.992188 Z M 153.054688 232.359375 C 157.265625 232.359375 160.683594 235.777344 160.683594 239.988281 C 160.683594 244.199219 157.25 247.617188 153.054688 247.617188 C 148.84375 247.617188 145.425781 244.183594 145.425781 239.988281 C 145.425781 235.777344 148.84375 232.359375 153.054688 232.359375 Z M 153.054688 190.730469 C 157.265625 190.730469 160.683594 194.148438 160.683594 198.359375 C 160.683594 202.570312 157.25 205.988281 153.054688 205.988281 C 148.84375 205.988281 145.425781 202.554688 145.425781 198.359375 C 145.425781 194.148438 148.84375 190.730469 153.054688 190.730469 Z M 153.054688 149.101562 C 157.265625 149.101562 160.683594 152.519531 160.683594 156.730469 C 160.683594 160.941406 157.25 164.359375 153.054688 164.359375 C 148.84375 164.359375 145.425781 160.941406 145.425781 156.730469 C 145.425781 152.519531 148.84375 149.101562 153.054688 149.101562 Z M 153.054688 107.46875 C 157.265625 107.46875 160.683594 110.886719 160.683594 115.097656 C 160.683594 119.308594 157.25 122.726562 153.054688 122.726562 C 148.84375 122.726562 145.425781 119.292969 145.425781 115.097656 C 145.425781 110.886719 148.84375 107.46875 153.054688 107.46875 Z M 153.054688 65.839844 C 157.265625 65.839844 160.683594 69.257812 160.683594 73.46875 C 160.683594 77.679688 157.25 81.097656 153.054688 81.097656 C 148.84375 81.097656 145.425781 77.664062 145.425781 73.46875 C 145.425781 69.257812 148.84375 65.839844 153.054688 65.839844 Z M 153.054688 24.210938 C 157.265625 24.210938 160.683594 27.628906 160.683594 31.839844 C 160.683594 36.050781 157.25 39.46875 153.054688 39.46875 C 148.84375 39.46875 145.425781 36.050781 145.425781 31.839844 C 145.425781 27.628906 148.84375 24.210938 153.054688 24.210938 Z M 153.054688 24.210938 " fill-opacity="1" fill-rule="nonzero"/><path fill="#737373" d="M 112.101562 481.664062 C 116.578125 481.664062 120.210938 485.296875 120.210938 489.769531 C 120.210938 494.246094 116.578125 497.863281 112.101562 497.863281 C 107.625 497.863281 104.011719 494.246094 104.011719 489.769531 C 104.011719 485.296875 107.625 481.664062 112.101562 481.664062 Z M 112.101562 440.03125 C 116.578125 440.03125 120.210938 443.648438 120.210938 448.140625 C 120.210938 452.613281 116.578125 456.230469 112.101562 456.230469 C 107.625 456.230469 104.011719 452.613281 104.011719 448.140625 C 104.011719 443.664062 107.625 440.03125 112.101562 440.03125 Z M 112.101562 398.402344 C 116.578125 398.402344 120.210938 402.035156 120.210938 406.511719 C 120.210938 410.984375 116.578125 414.601562 112.101562 414.601562 C 107.625 414.601562 104.011719 410.984375 104.011719 406.511719 C 104.011719 402.035156 107.625 398.402344 112.101562 398.402344 Z M 112.101562 356.773438 C 116.578125 356.773438 120.210938 360.40625 120.210938 364.878906 C 120.210938 369.355469 116.578125 372.972656 112.101562 372.972656 C 107.625 372.972656 104.011719 369.355469 104.011719 364.878906 C 104.011719 360.40625 107.625 356.773438 112.101562 356.773438 Z M 112.101562 315.15625 C 116.578125 315.15625 120.210938 318.773438 120.210938 323.25 C 120.210938 327.726562 116.578125 331.339844 112.101562 331.339844 C 107.625 331.339844 104.011719 327.726562 104.011719 323.25 C 104.011719 318.773438 107.625 315.15625 112.101562 315.15625 Z M 112.101562 273.527344 C 116.578125 273.527344 120.210938 277.160156 120.210938 281.636719 C 120.210938 286.109375 116.578125 289.726562 112.101562 289.726562 C 107.625 289.726562 104.011719 286.109375 104.011719 281.636719 C 104.011719 277.160156 107.625 273.527344 112.101562 273.527344 Z M 112.101562 231.898438 C 116.578125 231.898438 120.210938 235.53125 120.210938 240.003906 C 120.210938 244.480469 116.578125 248.097656 112.101562 248.097656 C 107.625 248.097656 104.011719 244.480469 104.011719 240.003906 C 104.011719 235.53125 107.625 231.898438 112.101562 231.898438 Z M 112.101562 190.265625 C 116.578125 190.265625 120.210938 193.902344 120.210938 198.375 C 120.210938 202.851562 116.578125 206.46875 112.101562 206.46875 C 107.625 206.46875 104.011719 202.851562 104.011719 198.375 C 104.011719 193.902344 107.625 190.265625 112.101562 190.265625 Z M 112.101562 148.652344 C 116.578125 148.652344 120.210938 152.269531 120.210938 156.746094 C 120.210938 161.21875 116.578125 164.835938 112.101562 164.835938 C 107.625 164.835938 104.011719 161.21875 104.011719 156.746094 C 104.011719 152.269531 107.625 148.652344 112.101562 148.652344 Z M 112.101562 107.023438 C 116.578125 107.023438 120.210938 110.640625 120.210938 115.117188 C 120.210938 119.589844 116.578125 123.207031 112.101562 123.207031 C 107.625 123.207031 104.011719 119.589844 104.011719 115.117188 C 104.011719 110.640625 107.625 107.023438 112.101562 107.023438 Z M 112.101562 65.394531 C 116.578125 65.394531 120.210938 69.027344 120.210938 73.5 C 120.210938 77.976562 116.578125 81.59375 112.101562 81.59375 C 107.625 81.59375 104.011719 77.976562 104.011719 73.5 C 104.011719 69.027344 107.625 65.394531 112.101562 65.394531 Z M 112.101562 23.761719 C 116.578125 23.761719 120.210938 27.394531 120.210938 31.871094 C 120.210938 36.347656 116.578125 39.964844 112.101562 39.964844 C 107.625 39.964844 104.011719 36.347656 104.011719 31.871094 C 104.011719 27.394531 107.625 23.761719 112.101562 23.761719 Z M 112.101562 23.761719 " fill-opacity="1" fill-rule="nonzero"/><g clip-path="url(#2e20cc1295)"><path fill="#737373" d="M 71.164062 481.199219 C 75.886719 481.199219 79.71875 485.03125 79.71875 489.753906 C 79.71875 494.476562 75.886719 498.308594 71.164062 498.308594 C 66.441406 498.308594 62.613281 494.476562 62.613281 489.753906 C 62.613281 485.015625 66.460938 481.199219 71.164062 481.199219 Z M 71.164062 439.570312 C 75.886719 439.570312 79.71875 443.402344 79.71875 448.125 C 79.71875 452.847656 75.886719 456.675781 71.164062 456.675781 C 66.441406 456.675781 62.613281 452.828125 62.613281 448.125 C 62.613281 443.382812 66.460938 439.570312 71.164062 439.570312 Z M 71.164062 397.941406 C 75.886719 397.941406 79.71875 401.769531 79.71875 406.492188 C 79.71875 411.214844 75.886719 415.046875 71.164062 415.046875 C 66.441406 415.046875 62.613281 411.214844 62.613281 406.492188 C 62.613281 401.753906 66.460938 397.941406 71.164062 397.941406 Z M 71.164062 356.308594 C 75.886719 356.308594 79.71875 360.140625 79.71875 364.863281 C 79.71875 369.585938 75.886719 373.417969 71.164062 373.417969 C 66.441406 373.417969 62.613281 369.585938 62.613281 364.863281 C 62.613281 360.140625 66.460938 356.308594 71.164062 356.308594 Z M 71.164062 314.679688 C 75.886719 314.679688 79.71875 318.511719 79.71875 323.234375 C 79.71875 327.957031 75.886719 331.785156 71.164062 331.785156 C 66.441406 331.785156 62.613281 327.957031 62.613281 323.234375 C 62.613281 318.511719 66.460938 314.679688 71.164062 314.679688 Z M 71.164062 273.050781 C 75.886719 273.050781 79.71875 276.878906 79.71875 281.601562 C 79.71875 286.324219 75.886719 290.15625 71.164062 290.15625 C 66.441406 290.15625 62.613281 286.324219 62.613281 281.601562 C 62.613281 276.878906 66.460938 273.050781 71.164062 273.050781 Z M 71.164062 231.417969 C 75.886719 231.417969 79.71875 235.25 79.71875 239.972656 C 79.71875 244.695312 75.886719 248.527344 71.164062 248.527344 C 66.441406 248.527344 62.613281 244.679688 62.613281 239.972656 C 62.613281 235.25 66.460938 231.417969 71.164062 231.417969 Z M 71.164062 189.789062 C 75.886719 189.789062 79.71875 193.621094 79.71875 198.34375 C 79.71875 203.066406 75.886719 206.898438 71.164062 206.898438 C 66.441406 206.898438 62.613281 203.050781 62.613281 198.34375 C 62.613281 193.621094 66.460938 189.789062 71.164062 189.789062 Z M 71.164062 148.160156 C 75.886719 148.160156 79.71875 151.988281 79.71875 156.710938 C 79.71875 161.433594 75.886719 165.265625 71.164062 165.265625 C 66.441406 165.265625 62.613281 161.433594 62.613281 156.710938 C 62.613281 151.988281 66.460938 148.160156 71.164062 148.160156 Z M 71.164062 106.527344 C 75.886719 106.527344 79.71875 110.359375 79.71875 115.082031 C 79.71875 119.804688 75.886719 123.636719 71.164062 123.636719 C 66.441406 123.636719 62.613281 119.804688 62.613281 115.082031 C 62.613281 110.359375 66.460938 106.527344 71.164062 106.527344 Z M 71.164062 64.898438 C 75.886719 64.898438 79.71875 68.730469 79.71875 73.453125 C 79.71875 78.175781 75.886719 82.007812 71.164062 82.007812 C 66.441406 82.007812 62.613281 78.175781 62.613281 73.453125 C 62.613281 68.730469 66.460938 64.898438 71.164062 64.898438 Z M 71.164062 23.269531 C 75.886719 23.269531 79.71875 27.097656 79.71875 31.820312 C 79.71875 36.542969 75.886719 40.375 71.164062 40.375 C 66.441406 40.375 62.613281 36.527344 62.613281 31.820312 C 62.613281 27.097656 66.460938 23.269531 71.164062 23.269531 Z M 71.164062 23.269531 " fill-opacity="1" fill-rule="nonzero"/></g><g clip-path="url(#2f601cf942)"><path fill="#737373" d="M 30.210938 480.753906 C 35.199219 480.753906 39.230469 484.800781 39.230469 489.769531 C 39.230469 494.757812 35.199219 498.785156 30.210938 498.785156 C 25.226562 498.785156 21.195312 494.742188 21.195312 489.769531 C 21.195312 484.78125 25.242188 480.753906 30.210938 480.753906 Z M 30.210938 439.125 C 35.199219 439.125 39.230469 443.167969 39.230469 448.140625 C 39.230469 453.128906 35.199219 457.15625 30.210938 457.15625 C 25.226562 457.15625 21.195312 453.109375 21.195312 448.140625 C 21.195312 443.152344 25.242188 439.125 30.210938 439.125 Z M 30.210938 397.492188 C 35.199219 397.492188 39.230469 401.539062 39.230469 406.511719 C 39.230469 411.496094 35.199219 415.527344 30.210938 415.527344 C 25.226562 415.527344 21.195312 411.480469 21.195312 406.511719 C 21.195312 401.523438 25.242188 397.492188 30.210938 397.492188 Z M 30.210938 355.863281 C 35.199219 355.863281 39.230469 359.910156 39.230469 364.878906 C 39.230469 369.867188 35.199219 373.894531 30.210938 373.894531 C 25.226562 373.894531 21.195312 369.851562 21.195312 364.878906 C 21.195312 359.894531 25.242188 355.863281 30.210938 355.863281 Z M 30.210938 314.234375 C 35.199219 314.234375 39.230469 318.277344 39.230469 323.25 C 39.230469 328.238281 35.199219 332.265625 30.210938 332.265625 C 25.226562 332.265625 21.195312 328.238281 21.195312 323.25 C 21.195312 318.261719 25.242188 314.234375 30.210938 314.234375 Z M 30.210938 272.601562 C 35.199219 272.601562 39.230469 276.648438 39.230469 281.621094 C 39.230469 286.605469 35.199219 290.636719 30.210938 290.636719 C 25.226562 290.636719 21.195312 286.605469 21.195312 281.621094 C 21.195312 276.632812 25.242188 272.601562 30.210938 272.601562 Z M 30.210938 230.972656 C 35.199219 230.972656 39.230469 235.019531 39.230469 239.988281 C 39.230469 244.976562 35.199219 249.003906 30.210938 249.003906 C 25.226562 249.003906 21.195312 244.976562 21.195312 239.988281 C 21.195312 235.003906 25.242188 230.972656 30.210938 230.972656 Z M 30.210938 189.34375 C 35.199219 189.34375 39.230469 193.386719 39.230469 198.359375 C 39.230469 203.347656 35.199219 207.375 30.210938 207.375 C 25.226562 207.375 21.195312 203.347656 21.195312 198.359375 C 21.195312 193.371094 25.242188 189.34375 30.210938 189.34375 Z M 30.210938 147.710938 C 35.199219 147.710938 39.230469 151.757812 39.230469 156.730469 C 39.230469 161.714844 35.199219 165.746094 30.210938 165.746094 C 25.226562 165.746094 21.195312 161.714844 21.195312 156.730469 C 21.195312 151.742188 25.242188 147.710938 30.210938 147.710938 Z M 30.210938 106.082031 C 35.199219 106.082031 39.230469 110.128906 39.230469 115.097656 C 39.230469 120.085938 35.199219 124.113281 30.210938 124.113281 C 25.226562 124.113281 21.195312 120.085938 21.195312 115.097656 C 21.195312 110.113281 25.242188 106.082031 30.210938 106.082031 Z M 30.210938 64.453125 C 35.199219 64.453125 39.230469 68.5 39.230469 73.46875 C 39.230469 78.457031 35.199219 82.484375 30.210938 82.484375 C 25.226562 82.484375 21.195312 78.457031 21.195312 73.46875 C 21.195312 68.480469 25.242188 64.453125 30.210938 64.453125 Z M 30.210938 22.820312 C 35.199219 22.820312 39.230469 26.867188 39.230469 31.839844 C 39.230469 36.824219 35.199219 40.855469 30.210938 40.855469 C 25.226562 40.855469 21.195312 36.824219 21.195312 31.839844 C 21.195312 26.851562 25.242188 22.820312 30.210938 22.820312 Z M 30.210938 22.820312 " fill-opacity="1" fill-rule="nonzero"/></g><g clip-path="url(#858c4431f9)"><path fill="#737373" d="M 752.410156 1543.335938 C 752.5625 1543.183594 752.679688 1543.011719 752.761719 1542.8125 C 752.84375 1542.617188 752.882812 1542.410156 752.882812 1542.195312 C 752.882812 1541.980469 752.84375 1541.777344 752.761719 1541.578125 C 752.679688 1541.382812 752.5625 1541.207031 752.410156 1541.058594 L 691.855469 1480.503906 L 752.410156 1419.945312 C 752.730469 1419.636719 752.886719 1419.253906 752.882812 1418.808594 C 752.882812 1418.363281 752.726562 1417.984375 752.410156 1417.671875 L 732.089844 1397.351562 C 731.941406 1397.199219 731.765625 1397.082031 731.570312 1397 C 731.371094 1396.917969 731.167969 1396.878906 730.953125 1396.878906 C 730.738281 1396.878906 730.535156 1396.917969 730.335938 1397 C 730.140625 1397.082031 729.964844 1397.199219 729.816406 1397.351562 L 647.792969 1479.363281 C 647.640625 1479.515625 647.523438 1479.6875 647.441406 1479.886719 C 647.359375 1480.082031 647.316406 1480.289062 647.316406 1480.503906 C 647.316406 1480.714844 647.359375 1480.921875 647.441406 1481.117188 C 647.523438 1481.316406 647.640625 1481.488281 647.792969 1481.640625 L 729.816406 1563.664062 C 729.964844 1563.816406 730.140625 1563.933594 730.335938 1564.015625 C 730.535156 1564.097656 730.738281 1564.136719 730.953125 1564.136719 C 731.167969 1564.136719 731.371094 1564.097656 731.570312 1564.015625 C 731.765625 1563.933594 731.941406 1563.816406 732.089844 1563.664062 Z M 651.207031 1480.503906 L 730.953125 1400.765625 L 748.996094 1418.808594 L 688.4375 1479.363281 C 688.128906 1479.679688 687.96875 1480.058594 687.964844 1480.503906 C 687.964844 1480.949219 688.121094 1481.328125 688.4375 1481.640625 L 748.996094 1542.195312 L 730.953125 1560.246094 Z M 651.207031 1480.503906 " fill-opacity="1" fill-rule="nonzero"/></g><g clip-path="url(#babf3a403d)"><path fill="#737373" d="M 770.40625 1479.363281 C 770.257812 1479.515625 770.140625 1479.691406 770.0625 1479.886719 C 769.980469 1480.085938 769.941406 1480.289062 769.941406 1480.503906 C 769.941406 1480.714844 769.980469 1480.921875 770.0625 1481.117188 C 770.140625 1481.3125 770.257812 1481.488281 770.40625 1481.640625 L 852.429688 1563.664062 C 852.578125 1563.816406 852.753906 1563.933594 852.949219 1564.015625 C 853.148438 1564.097656 853.355469 1564.136719 853.566406 1564.136719 C 853.78125 1564.136719 853.988281 1564.097656 854.183594 1564.015625 C 854.382812 1563.933594 854.554688 1563.816406 854.707031 1563.664062 L 875.035156 1543.335938 C 875.183594 1543.183594 875.296875 1543.007812 875.378906 1542.8125 C 875.460938 1542.613281 875.5 1542.410156 875.5 1542.195312 C 875.5 1541.984375 875.460938 1541.777344 875.378906 1541.582031 C 875.296875 1541.382812 875.183594 1541.210938 875.035156 1541.058594 L 814.480469 1480.503906 L 875.035156 1419.945312 C 875.351562 1419.632812 875.507812 1419.253906 875.507812 1418.808594 C 875.503906 1418.367188 875.34375 1417.984375 875.035156 1417.671875 L 854.707031 1397.351562 C 854.554688 1397.199219 854.382812 1397.082031 854.183594 1397 C 853.988281 1396.917969 853.78125 1396.875 853.566406 1396.875 C 853.355469 1396.875 853.148438 1396.917969 852.949219 1397 C 852.753906 1397.082031 852.578125 1397.199219 852.429688 1397.351562 Z M 871.617188 1418.808594 L 811.0625 1479.363281 C 810.746094 1479.675781 810.589844 1480.054688 810.589844 1480.503906 C 810.585938 1480.949219 810.742188 1481.328125 811.0625 1481.640625 L 871.617188 1542.195312 L 853.566406 1560.246094 L 773.832031 1480.503906 L 853.566406 1400.765625 Z M 871.617188 1418.808594 " fill-opacity="1" fill-rule="nonzero"/></g><g clip-path="url(#49da1496f9)"><path fill="#737373" d="M 893.03125 1479.363281 C 892.878906 1479.515625 892.761719 1479.6875 892.679688 1479.886719 C 892.597656 1480.082031 892.554688 1480.289062 892.554688 1480.503906 C 892.554688 1480.714844 892.597656 1480.921875 892.679688 1481.117188 C 892.761719 1481.316406 892.878906 1481.488281 893.03125 1481.640625 L 975.054688 1563.664062 C 975.367188 1563.976562 975.746094 1564.132812 976.191406 1564.136719 C 976.636719 1564.132812 977.015625 1563.976562 977.332031 1563.664062 L 997.648438 1543.335938 C 997.800781 1543.183594 997.917969 1543.011719 998 1542.8125 C 998.082031 1542.617188 998.125 1542.410156 998.125 1542.195312 C 998.125 1541.980469 998.082031 1541.777344 998 1541.578125 C 997.917969 1541.382812 997.800781 1541.207031 997.648438 1541.058594 L 937.09375 1480.503906 L 997.648438 1419.945312 C 997.96875 1419.636719 998.125 1419.253906 998.121094 1418.808594 C 998.121094 1418.363281 997.964844 1417.984375 997.648438 1417.671875 L 977.332031 1397.351562 C 977.015625 1397.039062 976.636719 1396.882812 976.191406 1396.878906 C 975.746094 1396.878906 975.367188 1397.039062 975.054688 1397.351562 Z M 994.234375 1418.808594 L 933.679688 1479.363281 C 933.367188 1479.679688 933.210938 1480.058594 933.207031 1480.503906 C 933.203125 1480.949219 933.363281 1481.328125 933.679688 1481.640625 L 994.234375 1542.195312 L 976.191406 1560.246094 L 896.457031 1480.503906 L 976.203125 1400.765625 Z M 994.234375 1418.808594 " fill-opacity="1" fill-rule="nonzero"/></g><g clip-path="url(#5405403a7a)"><path fill="#737373" d="M 1015.65625 1479.363281 C 1015.503906 1479.515625 1015.386719 1479.6875 1015.304688 1479.886719 C 1015.222656 1480.082031 1015.179688 1480.289062 1015.179688 1480.503906 C 1015.179688 1480.714844 1015.222656 1480.921875 1015.304688 1481.117188 C 1015.386719 1481.316406 1015.503906 1481.488281 1015.65625 1481.640625 L 1097.667969 1563.664062 C 1097.984375 1563.976562 1098.363281 1564.132812 1098.808594 1564.136719 C 1099.25 1564.132812 1099.628906 1563.976562 1099.945312 1563.664062 L 1120.273438 1543.335938 C 1120.421875 1543.183594 1120.539062 1543.007812 1120.617188 1542.8125 C 1120.699219 1542.613281 1120.738281 1542.410156 1120.738281 1542.195312 C 1120.738281 1541.984375 1120.699219 1541.777344 1120.617188 1541.582031 C 1120.539062 1541.382812 1120.421875 1541.210938 1120.273438 1541.058594 L 1059.6875 1480.503906 L 1120.242188 1419.945312 C 1120.558594 1419.632812 1120.714844 1419.253906 1120.714844 1418.808594 C 1120.710938 1418.367188 1120.550781 1417.984375 1120.242188 1417.671875 L 1099.914062 1397.351562 C 1099.597656 1397.039062 1099.21875 1396.878906 1098.773438 1396.878906 C 1098.332031 1396.882812 1097.953125 1397.039062 1097.636719 1397.351562 Z M 1116.859375 1418.808594 L 1056.304688 1479.363281 C 1055.984375 1479.675781 1055.828125 1480.054688 1055.832031 1480.503906 C 1055.824219 1480.949219 1055.980469 1481.328125 1056.304688 1481.640625 L 1116.859375 1542.195312 L 1098.808594 1560.246094 L 1019.070312 1480.503906 L 1098.808594 1400.765625 Z M 1116.859375 1418.808594 " fill-opacity="1" fill-rule="nonzero"/></g><g clip-path="url(#20daa6cd16)"><path fill="#737373" d="M 752.410156 694.925781 C 752.5625 694.777344 752.679688 694.601562 752.761719 694.40625 C 752.84375 694.207031 752.882812 694 752.882812 693.789062 C 752.882812 693.574219 752.84375 693.367188 752.761719 693.171875 C 752.679688 692.972656 752.5625 692.800781 752.410156 692.648438 L 691.855469 632.09375 L 752.410156 571.539062 C 752.730469 571.226562 752.886719 570.847656 752.882812 570.402344 C 752.882812 569.953125 752.726562 569.574219 752.410156 569.261719 L 732.089844 548.945312 C 731.941406 548.792969 731.765625 548.675781 731.570312 548.59375 C 731.371094 548.511719 731.167969 548.46875 730.953125 548.46875 C 730.738281 548.46875 730.535156 548.511719 730.335938 548.59375 C 730.140625 548.675781 729.964844 548.792969 729.816406 548.945312 L 647.792969 630.957031 C 647.640625 631.105469 647.523438 631.28125 647.441406 631.476562 C 647.359375 631.675781 647.316406 631.878906 647.316406 632.09375 C 647.316406 632.308594 647.359375 632.511719 647.441406 632.710938 C 647.523438 632.910156 647.640625 633.082031 647.792969 633.234375 L 729.816406 715.253906 C 729.964844 715.40625 730.140625 715.523438 730.335938 715.605469 C 730.535156 715.6875 730.738281 715.730469 730.953125 715.730469 C 731.167969 715.730469 731.371094 715.6875 731.570312 715.605469 C 731.765625 715.523438 731.941406 715.40625 732.089844 715.253906 Z M 651.207031 632.09375 L 730.953125 552.359375 L 748.996094 570.402344 L 688.4375 630.957031 C 688.128906 631.273438 687.96875 631.652344 687.964844 632.09375 C 687.964844 632.539062 688.121094 632.917969 688.4375 633.234375 L 748.996094 693.789062 L 730.953125 711.839844 Z M 651.207031 632.09375 " fill-opacity="1" fill-rule="nonzero"/></g><g clip-path="url(#92434e8b22)"><path fill="#737373" d="M 770.40625 630.957031 C 770.257812 631.109375 770.140625 631.28125 770.0625 631.480469 C 769.980469 631.675781 769.941406 631.882812 769.941406 632.09375 C 769.941406 632.308594 769.980469 632.511719 770.0625 632.710938 C 770.140625 632.90625 770.257812 633.082031 770.40625 633.234375 L 852.429688 715.253906 C 852.578125 715.40625 852.753906 715.523438 852.949219 715.605469 C 853.148438 715.6875 853.355469 715.730469 853.566406 715.730469 C 853.78125 715.730469 853.988281 715.6875 854.183594 715.605469 C 854.382812 715.523438 854.554688 715.40625 854.707031 715.253906 L 875.035156 694.925781 C 875.183594 694.773438 875.296875 694.601562 875.378906 694.402344 C 875.460938 694.207031 875.5 694 875.5 693.789062 C 875.5 693.574219 875.460938 693.371094 875.378906 693.171875 C 875.296875 692.976562 875.183594 692.800781 875.035156 692.648438 L 814.480469 632.09375 L 875.035156 571.539062 C 875.351562 571.226562 875.507812 570.84375 875.507812 570.402344 C 875.503906 569.957031 875.34375 569.578125 875.035156 569.261719 L 854.707031 548.945312 C 854.554688 548.792969 854.382812 548.675781 854.183594 548.59375 C 853.988281 548.511719 853.78125 548.46875 853.566406 548.46875 C 853.355469 548.46875 853.148438 548.511719 852.949219 548.59375 C 852.753906 548.675781 852.578125 548.792969 852.429688 548.945312 Z M 871.617188 570.402344 L 811.0625 630.957031 C 810.746094 631.269531 810.589844 631.648438 810.589844 632.09375 C 810.585938 632.542969 810.742188 632.921875 811.0625 633.234375 L 871.617188 693.789062 L 853.566406 711.839844 L 773.832031 632.09375 L 853.566406 552.359375 Z M 871.617188 570.402344 " fill-opacity="1" fill-rule="nonzero"/></g><g clip-path="url(#bbfc4215d5)"><path fill="#737373" d="M 893.03125 630.957031 C 892.878906 631.105469 892.761719 631.28125 892.679688 631.476562 C 892.597656 631.675781 892.554688 631.878906 892.554688 632.09375 C 892.554688 632.308594 892.597656 632.511719 892.679688 632.710938 C 892.761719 632.910156 892.878906 633.082031 893.03125 633.234375 L 975.054688 715.253906 C 975.367188 715.570312 975.746094 715.726562 976.191406 715.726562 C 976.636719 715.722656 977.015625 715.566406 977.332031 715.253906 L 997.648438 694.925781 C 997.800781 694.777344 997.917969 694.601562 998 694.40625 C 998.082031 694.207031 998.125 694 998.125 693.789062 C 998.125 693.574219 998.082031 693.367188 998 693.171875 C 997.917969 692.972656 997.800781 692.800781 997.648438 692.648438 L 937.09375 632.09375 L 997.648438 571.539062 C 997.96875 571.226562 998.125 570.847656 998.121094 570.402344 C 998.121094 569.953125 997.964844 569.574219 997.648438 569.261719 L 977.332031 548.945312 C 977.015625 548.632812 976.636719 548.476562 976.191406 548.472656 C 975.746094 548.472656 975.367188 548.628906 975.054688 548.945312 Z M 994.234375 570.402344 L 933.679688 630.957031 C 933.367188 631.273438 933.210938 631.652344 933.207031 632.09375 C 933.203125 632.539062 933.363281 632.917969 933.679688 633.234375 L 994.234375 693.789062 L 976.191406 711.839844 L 896.457031 632.09375 L 976.203125 552.359375 Z M 994.234375 570.402344 " fill-opacity="1" fill-rule="nonzero"/></g><g clip-path="url(#c5c8d5345c)"><path fill="#737373" d="M 1015.65625 630.957031 C 1015.503906 631.105469 1015.386719 631.28125 1015.304688 631.476562 C 1015.222656 631.675781 1015.179688 631.878906 1015.179688 632.09375 C 1015.179688 632.308594 1015.222656 632.511719 1015.304688 632.710938 C 1015.386719 632.910156 1015.503906 633.082031 1015.65625 633.234375 L 1097.667969 715.253906 C 1097.984375 715.566406 1098.363281 715.722656 1098.808594 715.726562 C 1099.25 715.726562 1099.628906 715.570312 1099.945312 715.253906 L 1120.273438 694.925781 C 1120.421875 694.773438 1120.539062 694.601562 1120.617188 694.402344 C 1120.699219 694.207031 1120.738281 694 1120.738281 693.789062 C 1120.738281 693.574219 1120.699219 693.371094 1120.617188 693.171875 C 1120.539062 692.976562 1120.421875 692.800781 1120.273438 692.648438 L 1059.6875 632.09375 L 1120.242188 571.539062 C 1120.558594 571.226562 1120.714844 570.84375 1120.714844 570.402344 C 1120.710938 569.957031 1120.550781 569.578125 1120.242188 569.261719 L 1099.914062 548.945312 C 1099.597656 548.628906 1099.21875 548.472656 1098.773438 548.472656 C 1098.332031 548.476562 1097.953125 548.632812 1097.636719 548.945312 Z M 1116.859375 570.402344 L 1056.304688 630.957031 C 1055.984375 631.269531 1055.828125 631.648438 1055.832031 632.09375 C 1055.824219 632.542969 1055.980469 632.921875 1056.304688 633.234375 L 1116.859375 693.789062 L 1098.808594 711.839844 L 1019.070312 632.09375 L 1098.808594 552.359375 Z M 1116.859375 570.402344 " fill-opacity="1" fill-rule="nonzero"/></g><g clip-path="url(#6e7d143b9a)"><path fill="#737373" d="M 450.554688 1235.796875 L 488.835938 1197.515625 L 527.117188 1235.796875 C 527.578125 1236.261719 528.328125 1236.261719 528.792969 1235.796875 L 707.558594 1057.042969 C 708.011719 1056.589844 708.011719 1055.804688 707.558594 1055.367188 L 528.804688 876.597656 C 528.339844 876.136719 527.589844 876.136719 527.128906 876.597656 L 488.847656 914.878906 L 450.554688 876.597656 C 450.089844 876.136719 449.339844 876.136719 448.878906 876.597656 L 410.597656 914.878906 L 372.304688 876.597656 C 371.839844 876.136719 371.089844 876.136719 370.628906 876.597656 L 332.347656 914.878906 L 294.054688 876.597656 C 293.589844 876.136719 292.84375 876.136719 292.378906 876.597656 L 254.097656 914.878906 L 215.804688 876.597656 C 215.339844 876.136719 214.59375 876.136719 214.128906 876.597656 L 35.375 1055.355469 C 35.148438 1055.578125 35.027344 1055.875 35.027344 1056.199219 C 35.027344 1056.519531 35.160156 1056.816406 35.375 1057.042969 L 214.128906 1235.796875 C 214.59375 1236.261719 215.339844 1236.261719 215.804688 1235.796875 L 254.085938 1197.515625 L 292.367188 1235.796875 C 292.828125 1236.261719 293.578125 1236.261719 294.042969 1235.796875 L 332.324219 1197.515625 L 370.605469 1235.796875 C 371.066406 1236.261719 371.816406 1236.261719 372.28125 1235.796875 L 410.5625 1197.515625 L 448.84375 1235.796875 C 449.304688 1236.261719 450.054688 1236.261719 450.519531 1235.796875 Z M 527.960938 879.121094 L 705.039062 1056.199219 L 527.960938 1233.277344 L 490.511719 1195.828125 L 629.308594 1057.03125 C 629.773438 1056.566406 629.773438 1055.816406 629.308594 1055.355469 L 490.511719 916.566406 Z M 194.382812 1056.199219 L 293.210938 957.371094 L 330.660156 994.816406 L 270.109375 1055.367188 C 269.886719 1055.589844 269.765625 1055.890625 269.765625 1056.210938 C 269.765625 1056.53125 269.898438 1056.828125 270.109375 1057.054688 L 330.660156 1117.601562 L 293.210938 1155.050781 L 194.382812 1056.222656 Z M 291.535156 1156.703125 L 254.085938 1194.152344 L 116.132812 1056.199219 L 254.085938 918.246094 L 291.535156 955.691406 L 191.863281 1055.367188 C 191.636719 1055.589844 191.515625 1055.890625 191.515625 1056.210938 C 191.515625 1056.53125 191.648438 1056.828125 191.863281 1057.054688 L 291.535156 1156.726562 Z M 408.910156 994.816406 L 371.460938 1032.265625 L 334.011719 994.816406 L 371.460938 957.371094 Z M 373.148438 955.691406 L 410.597656 918.246094 L 448.046875 955.691406 L 410.597656 993.140625 Z M 350.882812 1056.199219 L 371.460938 1035.617188 L 392.039062 1056.199219 L 371.460938 1076.777344 Z M 369.785156 1078.464844 L 332.335938 1115.914062 L 272.632812 1056.210938 L 332.335938 996.507812 L 369.785156 1033.953125 L 348.359375 1055.378906 C 348.125 1055.617188 348.015625 1055.914062 348.015625 1056.222656 C 348.015625 1056.53125 348.136719 1056.828125 348.359375 1057.066406 L 369.785156 1078.488281 Z M 394.570312 1057.042969 C 395.035156 1056.578125 395.035156 1055.828125 394.570312 1055.367188 L 373.148438 1033.941406 L 410.597656 996.492188 L 470.300781 1056.199219 L 410.597656 1115.902344 L 373.148438 1078.453125 L 394.570312 1057.03125 Z M 332.347656 993.128906 L 294.898438 955.679688 L 332.347656 918.234375 L 369.796875 955.679688 Z M 332.347656 1119.265625 L 369.796875 1156.714844 L 332.347656 1194.164062 L 294.898438 1156.714844 Z M 334.023438 1117.589844 L 371.472656 1080.140625 L 408.921875 1117.589844 L 371.472656 1155.039062 Z M 410.585938 1119.265625 L 448.035156 1156.714844 L 410.585938 1194.164062 L 373.136719 1156.714844 Z M 412.261719 1117.589844 L 472.808594 1057.042969 C 473.261719 1056.589844 473.261719 1055.804688 472.808594 1055.367188 L 412.261719 994.816406 L 449.710938 957.371094 L 548.539062 1056.199219 L 449.710938 1155.027344 L 412.261719 1117.578125 Z M 551.058594 1057.042969 C 551.511719 1056.589844 551.511719 1055.804688 551.058594 1055.367188 L 451.386719 955.691406 L 488.835938 918.246094 L 626.789062 1056.199219 L 488.835938 1194.152344 L 451.386719 1156.703125 L 551.058594 1057.03125 Z M 449.710938 879.121094 L 487.160156 916.566406 L 449.710938 954.015625 L 412.261719 916.566406 Z M 371.460938 879.121094 L 408.910156 916.566406 L 371.460938 954.015625 L 334.011719 916.566406 Z M 293.210938 879.121094 L 330.660156 916.566406 L 293.210938 954.015625 L 255.761719 916.566406 Z M 214.960938 1233.277344 L 37.882812 1056.199219 L 214.960938 879.121094 L 252.410156 916.566406 L 113.613281 1055.367188 C 113.375 1055.601562 113.265625 1055.902344 113.265625 1056.210938 C 113.265625 1056.519531 113.386719 1056.816406 113.613281 1057.054688 L 252.410156 1195.851562 L 214.960938 1233.300781 Z M 293.210938 1233.277344 L 255.761719 1195.828125 L 293.210938 1158.378906 L 330.660156 1195.828125 Z M 371.460938 1233.277344 L 334.011719 1195.828125 L 371.460938 1158.378906 L 408.910156 1195.828125 Z M 412.261719 1195.828125 L 449.710938 1158.378906 L 487.160156 1195.828125 L 449.710938 1233.277344 Z M 412.261719 1195.828125 " fill-opacity="1" fill-rule="nonzero"/></g></svg>