<svg xmlns="http://www.w3.org/2000/svg" xmlns:xlink="http://www.w3.org/1999/xlink" width="500" zoomAndPan="magnify" viewBox="0 0 375 149.999998" height="200" preserveAspectRatio="xMidYMid meet" version="1.0"><defs><g/><clipPath id="f033b3e41c"><path d="M 154.625 51.507812 L 287.292969 51.507812 L 287.292969 63.007812 L 154.625 63.007812 Z M 154.625 51.507812 " clip-rule="nonzero"/></clipPath><clipPath id="142df9423e"><path d="M 13.148438 81.984375 L 145.816406 81.984375 L 145.816406 93.484375 L 13.148438 93.484375 Z M 13.148438 81.984375 " clip-rule="nonzero"/></clipPath></defs><rect x="-37.5" width="450" fill="#ffffff" y="-15" height="179.999997" fill-opacity="1"/><rect x="-37.5" width="450" fill="#e4e4e4" y="-15" height="179.999997" fill-opacity="1"/><g clip-path="url(#f033b3e41c)"><path fill="#000000" d="M 154.625 51.507812 L 287.304688 51.507812 L 287.304688 63.007812 L 154.625 63.007812 Z M 154.625 51.507812 " fill-opacity="1" fill-rule="nonzero"/></g><g fill="#000000" fill-opacity="1"><g transform="translate(7.241829, 75.538407)"><g><path d="M 1.539062 0 L 6.246094 0 C 13.535156 0 17.28125 -3.914062 17.28125 -10.660156 L 17.28125 -29.148438 L 10.617188 -29.148438 L 10.617188 -11.160156 C 10.617188 -7.914062 9.371094 -6.203125 5.828125 -6.203125 L 1.539062 -6.203125 Z M 1.539062 0 "/></g></g></g><g fill="#000000" fill-opacity="1"><g transform="translate(36.558228, 75.538407)"><g><path d="M 3.496094 0 L 23.113281 0 L 23.113281 -5.621094 L 10.078125 -5.621094 L 10.078125 -11.992188 L 21.53125 -11.992188 L 21.53125 -17.53125 L 10.078125 -17.53125 L 10.078125 -23.570312 L 22.652344 -23.570312 L 22.652344 -29.148438 L 3.496094 -29.148438 Z M 3.496094 0 "/></g></g></g><g fill="#000000" fill-opacity="1"><g transform="translate(70.413547, 75.538407)"><g><path d="M 0.375 0 L 7.453125 0 L 9.410156 -5.039062 L 20.988281 -5.039062 L 22.945312 0 L 30.023438 0 L 18.449219 -29.148438 L 11.953125 -29.148438 Z M 11.117188 -10.246094 L 15.199219 -20.90625 L 19.324219 -10.246094 Z M 11.117188 -10.246094 "/></g></g></g><g fill="#000000" fill-opacity="1"><g transform="translate(109.432417, 75.538407)"><g><path d="M 3.496094 0 L 10.078125 0 L 10.078125 -17.863281 L 22.945312 0 L 28.566406 0 L 28.566406 -29.148438 L 21.988281 -29.148438 L 21.988281 -11.410156 L 9.121094 -29.148438 L 3.496094 -29.148438 Z M 3.496094 0 "/></g></g></g><g fill="#000000" fill-opacity="1"><g transform="translate(150.13741, 101.009816)"><g><path d="M 3.496094 0 L 10.117188 0 L 10.117188 -8.117188 L 14.90625 -8.117188 C 21.941406 -8.117188 26.480469 -12.242188 26.480469 -18.609375 C 26.480469 -25.023438 21.941406 -29.144531 14.90625 -29.144531 L 3.496094 -29.144531 Z M 10.074219 -13.824219 L 10.074219 -23.355469 L 14.363281 -23.355469 C 17.820312 -23.355469 19.734375 -21.609375 19.734375 -18.570312 C 19.734375 -15.53125 17.820312 -13.824219 14.363281 -13.824219 Z M 10.074219 -13.824219 "/></g></g></g><g fill="#000000" fill-opacity="1"><g transform="translate(186.439797, 101.009816)"><g><path d="M 21.523438 0 L 28.144531 0 L 28.144531 -29.144531 L 21.523438 -29.144531 L 21.523438 -17.945312 L 10.117188 -17.945312 L 10.117188 -29.144531 L 3.496094 -29.144531 L 3.496094 0 L 10.117188 0 L 10.117188 -11.742188 L 21.523438 -11.742188 Z M 21.523438 0 "/></g></g></g><g fill="#000000" fill-opacity="1"><g transform="translate(226.696976, 101.009816)"><g><path d="M 3.496094 0 L 10.117188 0 L 10.117188 -29.144531 L 3.496094 -29.144531 Z M 3.496094 0 "/></g></g></g><g fill="#000000" fill-opacity="1"><g transform="translate(248.928641, 101.009816)"><g><path d="M 3.496094 0 L 22.859375 0 L 22.859375 -6.203125 L 10.117188 -6.203125 L 10.117188 -29.144531 L 3.496094 -29.144531 Z M 3.496094 0 "/></g></g></g><g fill="#000000" fill-opacity="1"><g transform="translate(281.526018, 101.009816)"><g><path d="M 3.496094 0 L 10.117188 0 L 10.117188 -29.144531 L 3.496094 -29.144531 Z M 3.496094 0 "/></g></g></g><g fill="#000000" fill-opacity="1"><g transform="translate(303.757683, 101.009816)"><g><path d="M 3.496094 0 L 10.117188 0 L 10.117188 -8.117188 L 14.90625 -8.117188 C 21.941406 -8.117188 26.480469 -12.242188 26.480469 -18.609375 C 26.480469 -25.023438 21.941406 -29.144531 14.90625 -29.144531 L 3.496094 -29.144531 Z M 10.074219 -13.824219 L 10.074219 -23.355469 L 14.363281 -23.355469 C 17.820312 -23.355469 19.734375 -21.609375 19.734375 -18.570312 C 19.734375 -15.53125 17.820312 -13.824219 14.363281 -13.824219 Z M 10.074219 -13.824219 "/></g></g></g><g fill="#000000" fill-opacity="1"><g transform="translate(340.060069, 101.009816)"><g><path d="M 3.496094 0 L 10.117188 0 L 10.117188 -8.117188 L 14.90625 -8.117188 C 21.941406 -8.117188 26.480469 -12.242188 26.480469 -18.609375 C 26.480469 -25.023438 21.941406 -29.144531 14.90625 -29.144531 L 3.496094 -29.144531 Z M 10.074219 -13.824219 L 10.074219 -23.355469 L 14.363281 -23.355469 C 17.820312 -23.355469 19.734375 -21.609375 19.734375 -18.570312 C 19.734375 -15.53125 17.820312 -13.824219 14.363281 -13.824219 Z M 10.074219 -13.824219 "/></g></g></g><g clip-path="url(#142df9423e)"><path fill="#000000" d="M 13.148438 81.984375 L 145.828125 81.984375 L 145.828125 93.484375 L 13.148438 93.484375 Z M 13.148438 81.984375 " fill-opacity="1" fill-rule="nonzero"/></g></svg>